M48
; DRILL file {KiCad 9.0.7} date 2026-04-13T10:43:41+0200
; FORMAT={-:-/ absolute / metric / decimal}
; #@! TF.CreationDate,2026-04-13T10:43:41+02:00
; #@! TF.GenerationSoftware,Kicad,Pcbnew,9.0.7
; #@! TF.FileFunction,NonPlated,1,2,NPTH
FMAT,2
METRIC
; #@! TA.AperFunction,NonPlated,NPTH,ComponentDrill
T1C1.700
; #@! TA.AperFunction,NonPlated,NPTH,ComponentDrill
T2C1.750
; #@! TA.AperFunction,NonPlated,NPTH,ComponentDrill
T3C2.200
; #@! TA.AperFunction,NonPlated,NPTH,ComponentDrill
T4C2.700
; #@! TA.AperFunction,NonPlated,NPTH,ComponentDrill
T5C4.000
%
G90
G05
T1
X127.5Y-34.5
X127.5Y-40.5
X143.5Y-34.5
X143.5Y-40.5
X159.5Y-34.5
X159.5Y-40.5
X175.5Y-34.5
X175.5Y-40.5
X191.5Y-34.5
X191.5Y-40.5
T2
X125.92Y-122.5
X136.08Y-122.5
X141.38Y-122.5
X151.54Y-122.5
X156.88Y-122.5
X167.04Y-122.5
T3
X128.3Y-73.3
X128.3Y-103.3
X181.3Y-73.3
X181.3Y-103.3
T4
X120.0Y-53.0
X120.0Y-111.0
X169.0Y-53.0
X169.0Y-111.0
T5
X131.0Y-122.5
X146.46Y-122.5
X161.96Y-122.5
M30
