G04 #@! TF.GenerationSoftware,KiCad,Pcbnew,9.0.7*
G04 #@! TF.CreationDate,2026-04-13T10:43:36+02:00*
G04 #@! TF.ProjectId,protosync,70726f74-6f73-4796-9e63-2e6b69636164,rev?*
G04 #@! TF.SameCoordinates,Original*
G04 #@! TF.FileFunction,Paste,Top*
G04 #@! TF.FilePolarity,Positive*
%FSLAX46Y46*%
G04 Gerber Fmt 4.6, Leading zero omitted, Abs format (unit mm)*
G04 Created by KiCad (PCBNEW 9.0.7) date 2026-04-13 10:43:36*
%MOMM*%
%LPD*%
G01*
G04 APERTURE LIST*
G04 Aperture macros list*
%AMRoundRect*
0 Rectangle with rounded corners*
0 $1 Rounding radius*
0 $2 $3 $4 $5 $6 $7 $8 $9 X,Y pos of 4 corners*
0 Add a 4 corners polygon primitive as box body*
4,1,4,$2,$3,$4,$5,$6,$7,$8,$9,$2,$3,0*
0 Add four circle primitives for the rounded corners*
1,1,$1+$1,$2,$3*
1,1,$1+$1,$4,$5*
1,1,$1+$1,$6,$7*
1,1,$1+$1,$8,$9*
0 Add four rect primitives between the rounded corners*
20,1,$1+$1,$2,$3,$4,$5,0*
20,1,$1+$1,$4,$5,$6,$7,0*
20,1,$1+$1,$6,$7,$8,$9,0*
20,1,$1+$1,$8,$9,$2,$3,0*%
G04 Aperture macros list end*
%ADD10R,2.700000X2.100000*%
%ADD11R,2.700000X2.900000*%
%ADD12R,2.900000X2.700000*%
%ADD13RoundRect,0.250000X0.337500X0.475000X-0.337500X0.475000X-0.337500X-0.475000X0.337500X-0.475000X0*%
%ADD14RoundRect,0.150000X-0.512500X-0.150000X0.512500X-0.150000X0.512500X0.150000X-0.512500X0.150000X0*%
%ADD15RoundRect,0.250000X-0.337500X-0.475000X0.337500X-0.475000X0.337500X0.475000X-0.337500X0.475000X0*%
%ADD16RoundRect,0.075000X0.650000X0.075000X-0.650000X0.075000X-0.650000X-0.075000X0.650000X-0.075000X0*%
%ADD17RoundRect,0.250000X0.475000X-0.337500X0.475000X0.337500X-0.475000X0.337500X-0.475000X-0.337500X0*%
%ADD18RoundRect,0.250000X0.450000X-0.350000X0.450000X0.350000X-0.450000X0.350000X-0.450000X-0.350000X0*%
%ADD19RoundRect,0.250000X-0.450000X0.350000X-0.450000X-0.350000X0.450000X-0.350000X0.450000X0.350000X0*%
%ADD20RoundRect,0.250000X-0.475000X0.337500X-0.475000X-0.337500X0.475000X-0.337500X0.475000X0.337500X0*%
%ADD21RoundRect,0.250000X-0.350000X-0.450000X0.350000X-0.450000X0.350000X0.450000X-0.350000X0.450000X0*%
%ADD22RoundRect,0.250000X-0.450000X0.325000X-0.450000X-0.325000X0.450000X-0.325000X0.450000X0.325000X0*%
%ADD23RoundRect,0.250000X-0.550000X1.300000X-0.550000X-1.300000X0.550000X-1.300000X0.550000X1.300000X0*%
%ADD24RoundRect,0.250000X0.600000X-1.400000X0.600000X1.400000X-0.600000X1.400000X-0.600000X-1.400000X0*%
%ADD25RoundRect,0.100000X-0.100000X0.637500X-0.100000X-0.637500X0.100000X-0.637500X0.100000X0.637500X0*%
%ADD26RoundRect,0.250000X0.350000X0.450000X-0.350000X0.450000X-0.350000X-0.450000X0.350000X-0.450000X0*%
G04 APERTURE END LIST*
D10*
X164850000Y-40500000D03*
D11*
X154150000Y-40800000D03*
D12*
X164850000Y-34300000D03*
D13*
X174000000Y-122000000D03*
X171925000Y-122000000D03*
D14*
X191725000Y-49500000D03*
X191725000Y-50450000D03*
X191725000Y-51400000D03*
X194000000Y-51400000D03*
X194000000Y-50450000D03*
X194000000Y-49500000D03*
D15*
X140425000Y-67250000D03*
X142500000Y-67250000D03*
D16*
X195400000Y-98000000D03*
X195400000Y-97500000D03*
X195400000Y-97000000D03*
X195400000Y-96500000D03*
X195400000Y-96000000D03*
X191000000Y-96000000D03*
X191000000Y-96500000D03*
X191000000Y-97000000D03*
X191000000Y-97500000D03*
X191000000Y-98000000D03*
D17*
X175250000Y-50500000D03*
X175250000Y-48425000D03*
D14*
X178725000Y-49550000D03*
X178725000Y-50500000D03*
X178725000Y-51450000D03*
X181000000Y-51450000D03*
X181000000Y-50500000D03*
X181000000Y-49550000D03*
D18*
X141750000Y-54250000D03*
X141750000Y-52250000D03*
X144750000Y-112000000D03*
X144750000Y-110000000D03*
D17*
X156975000Y-50500000D03*
X156975000Y-48425000D03*
D12*
X148850000Y-34300000D03*
D11*
X138150000Y-40800000D03*
D10*
X148850000Y-40500000D03*
D19*
X154250000Y-110000000D03*
X154250000Y-112000000D03*
D20*
X149500000Y-109925000D03*
X149500000Y-112000000D03*
D21*
X185750000Y-101000000D03*
X187750000Y-101000000D03*
D18*
X187000000Y-82250000D03*
X187000000Y-80250000D03*
D20*
X137000000Y-46500000D03*
X137000000Y-48575000D03*
D12*
X196850000Y-34300000D03*
D11*
X186150000Y-40800000D03*
D10*
X196850000Y-40500000D03*
D18*
X130250000Y-112000000D03*
X130250000Y-110000000D03*
D22*
X132250000Y-46450000D03*
X132250000Y-48500000D03*
D18*
X146500000Y-54250000D03*
X146500000Y-52250000D03*
D23*
X135830000Y-57610000D03*
X133290000Y-57610000D03*
X130750000Y-57610000D03*
X130750000Y-66500000D03*
X133290000Y-66500000D03*
X135830000Y-66500000D03*
D14*
X150000000Y-59550000D03*
X150000000Y-60500000D03*
X150000000Y-61450000D03*
X152275000Y-61450000D03*
X152275000Y-60500000D03*
X152275000Y-59550000D03*
D24*
X126500000Y-63250000D03*
X126500000Y-57750000D03*
D17*
X187000000Y-93750000D03*
X187000000Y-91675000D03*
X146400000Y-60100000D03*
X146400000Y-58025000D03*
D20*
X163750000Y-110000000D03*
X163750000Y-112075000D03*
D22*
X141750000Y-46500000D03*
X141750000Y-48550000D03*
D20*
X186500000Y-104500000D03*
X186500000Y-106575000D03*
D19*
X125500000Y-110000000D03*
X125500000Y-112000000D03*
X140000000Y-110000000D03*
X140000000Y-112000000D03*
D25*
X190500000Y-71500000D03*
X189850000Y-71500000D03*
X189200000Y-71500000D03*
X188550000Y-71500000D03*
X188550000Y-77225000D03*
X189200000Y-77225000D03*
X189850000Y-77225000D03*
X190500000Y-77225000D03*
D22*
X146500000Y-46450000D03*
X146500000Y-48500000D03*
D12*
X132850000Y-34300000D03*
D11*
X122150000Y-40800000D03*
D10*
X132850000Y-40500000D03*
D14*
X160475000Y-49550000D03*
X160475000Y-50500000D03*
X160475000Y-51450000D03*
X162750000Y-51450000D03*
X162750000Y-50500000D03*
X162750000Y-49550000D03*
D20*
X135000000Y-109925000D03*
X135000000Y-112000000D03*
D22*
X127500000Y-46450000D03*
X127500000Y-48500000D03*
D18*
X191250000Y-106575000D03*
X191250000Y-104575000D03*
X191750000Y-82250000D03*
X191750000Y-80250000D03*
D13*
X174000000Y-127000000D03*
X171925000Y-127000000D03*
D12*
X180850000Y-34300000D03*
D11*
X170150000Y-40800000D03*
D10*
X180850000Y-40500000D03*
D26*
X142750000Y-62000000D03*
X140750000Y-62000000D03*
D17*
X188250000Y-50500000D03*
X188250000Y-48425000D03*
D18*
X159000000Y-112000000D03*
X159000000Y-110000000D03*
D19*
X196000000Y-104575000D03*
X196000000Y-106575000D03*
D15*
X192925000Y-77500000D03*
X195000000Y-77500000D03*
D18*
X132250000Y-53000000D03*
X132250000Y-51000000D03*
D21*
X185750000Y-97250000D03*
X187750000Y-97250000D03*
M02*
