G04 #@! TF.GenerationSoftware,KiCad,Pcbnew,9.0.7*
G04 #@! TF.CreationDate,2026-04-13T10:43:36+02:00*
G04 #@! TF.ProjectId,protosync,70726f74-6f73-4796-9e63-2e6b69636164,rev?*
G04 #@! TF.SameCoordinates,Original*
G04 #@! TF.FileFunction,Legend,Bot*
G04 #@! TF.FilePolarity,Positive*
%FSLAX46Y46*%
G04 Gerber Fmt 4.6, Leading zero omitted, Abs format (unit mm)*
G04 Created by KiCad (PCBNEW 9.0.7) date 2026-04-13 10:43:36*
%MOMM*%
%LPD*%
G01*
G04 APERTURE LIST*
%ADD10C,0.150000*%
%ADD11C,0.120000*%
%ADD12C,1.700000*%
%ADD13C,4.350000*%
%ADD14C,1.500000*%
%ADD15R,1.500000X1.500000*%
%ADD16C,2.700000*%
%ADD17C,3.000000*%
%ADD18O,2.540000X1.700000*%
%ADD19C,1.750000*%
%ADD20C,4.000000*%
%ADD21C,2.500000*%
%ADD22R,1.700000X1.700000*%
%ADD23O,1.700000X1.700000*%
G04 APERTURE END LIST*
D10*
X123224819Y-105796666D02*
X123939104Y-105796666D01*
X123939104Y-105796666D02*
X124081961Y-105749047D01*
X124081961Y-105749047D02*
X124177200Y-105653809D01*
X124177200Y-105653809D02*
X124224819Y-105510952D01*
X124224819Y-105510952D02*
X124224819Y-105415714D01*
X124224819Y-106796666D02*
X124224819Y-106225238D01*
X124224819Y-106510952D02*
X123224819Y-106510952D01*
X123224819Y-106510952D02*
X123367676Y-106415714D01*
X123367676Y-106415714D02*
X123462914Y-106320476D01*
X123462914Y-106320476D02*
X123510533Y-106225238D01*
D11*
X117400000Y-56540000D02*
X122600000Y-56540000D01*
X117400000Y-107460000D02*
X117400000Y-56540000D01*
X117400000Y-107460000D02*
X120000000Y-107460000D01*
X120000000Y-104860000D02*
X122600000Y-104860000D01*
X120000000Y-107460000D02*
X120000000Y-104860000D01*
X121270000Y-107460000D02*
X122600000Y-107460000D01*
X122600000Y-104860000D02*
X122600000Y-56540000D01*
X122600000Y-107460000D02*
X122600000Y-106130000D01*
%LPC*%
D12*
X159500000Y-40500000D03*
X159500000Y-34500000D03*
D13*
X193100000Y-117050000D03*
X179900000Y-117050000D03*
D14*
X182750000Y-127950000D03*
X189000000Y-110050000D03*
X184000000Y-110050000D03*
X190250000Y-127950000D03*
X187750000Y-127950000D03*
D15*
X185250000Y-127950000D03*
D16*
X120000000Y-53000000D03*
D17*
X128300000Y-73300000D03*
X128300000Y-103300000D03*
X181300000Y-73300000D03*
X181300000Y-103300000D03*
D18*
X128000000Y-79380000D03*
X128000000Y-81920000D03*
X128000000Y-84460000D03*
X128000000Y-87000000D03*
X128000000Y-89540000D03*
X128000000Y-92080000D03*
X128000000Y-94620000D03*
X128000000Y-97160000D03*
D19*
X141380000Y-122500000D03*
D20*
X146460000Y-122500000D03*
D19*
X151540000Y-122500000D03*
D21*
X142650000Y-119960000D03*
X149000000Y-117420000D03*
D22*
X199750000Y-74250000D03*
D12*
X199750000Y-76790000D03*
X143500000Y-34500000D03*
X143500000Y-40500000D03*
D19*
X156880000Y-122500000D03*
D20*
X161960000Y-122500000D03*
D19*
X167040000Y-122500000D03*
D21*
X158150000Y-119960000D03*
X164500000Y-117420000D03*
D12*
X191500000Y-34500000D03*
X191500000Y-40500000D03*
D16*
X169000000Y-111000000D03*
D22*
X199750000Y-88000000D03*
D12*
X199750000Y-90540000D03*
X199750000Y-93080000D03*
D16*
X120000000Y-111000000D03*
D22*
X199750000Y-59975000D03*
D12*
X199750000Y-62515000D03*
X127500000Y-34500000D03*
X127500000Y-40500000D03*
D16*
X169000000Y-53000000D03*
D12*
X175500000Y-34500000D03*
X175500000Y-40500000D03*
D19*
X125920000Y-122500000D03*
D20*
X131000000Y-122500000D03*
D19*
X136080000Y-122500000D03*
D21*
X127190000Y-119960000D03*
X133540000Y-117420000D03*
D22*
X121270000Y-106130000D03*
D23*
X118730000Y-106130000D03*
X121270000Y-103590000D03*
X118730000Y-103590000D03*
X121270000Y-101050000D03*
X118730000Y-101050000D03*
X121270000Y-98510000D03*
X118730000Y-98510000D03*
X121270000Y-95970000D03*
X118730000Y-95970000D03*
X121270000Y-93430000D03*
X118730000Y-93430000D03*
X121270000Y-90890000D03*
X118730000Y-90890000D03*
X121270000Y-88350000D03*
X118730000Y-88350000D03*
X121270000Y-85810000D03*
X118730000Y-85810000D03*
X121270000Y-83270000D03*
X118730000Y-83270000D03*
X121270000Y-80730000D03*
X118730000Y-80730000D03*
X121270000Y-78190000D03*
X118730000Y-78190000D03*
X121270000Y-75650000D03*
X118730000Y-75650000D03*
X121270000Y-73110000D03*
X118730000Y-73110000D03*
X121270000Y-70570000D03*
X118730000Y-70570000D03*
X121270000Y-68030000D03*
X118730000Y-68030000D03*
X121270000Y-65490000D03*
X118730000Y-65490000D03*
X121270000Y-62950000D03*
X118730000Y-62950000D03*
X121270000Y-60410000D03*
X118730000Y-60410000D03*
X121270000Y-57870000D03*
X118730000Y-57870000D03*
%LPD*%
M02*
