M48
; DRILL file {KiCad 9.0.7} date 2026-04-20T21:22:17+0200
; FORMAT={-:-/ absolute / metric / decimal}
; #@! TF.CreationDate,2026-04-20T21:22:17+02:00
; #@! TF.GenerationSoftware,Kicad,Pcbnew,9.0.7
; #@! TF.FileFunction,Plated,1,2,PTH
FMAT,2
METRIC
; #@! TA.AperFunction,Plated,PTH,ViaDrill
T1C0.300
; #@! TA.AperFunction,Plated,PTH,ViaDrill
T2C0.500
; #@! TA.AperFunction,Plated,PTH,ComponentDrill
T3C1.000
; #@! TA.AperFunction,Plated,PTH,ComponentDrill
T4C1.500
; #@! TA.AperFunction,Plated,PTH,ComponentDrill
T5C2.900
%
G90
G05
T1
X124.0Y-71.0
X125.0Y-72.0
X125.85Y-100.25
X130.8Y-96.0
X132.3Y-76.0
X132.6Y-97.2
X133.5Y-69.5
X133.5Y-70.6
X137.5Y-109.75
X139.75Y-80.25
X140.5Y-58.8
X151.2Y-98.5
X151.75Y-109.75
X151.8Y-71.0
X152.0Y-52.0
X152.0Y-100.0
X154.0Y-100.1
X154.5Y-61.9
X154.8Y-70.4
X157.0Y-54.0
X158.9Y-68.0
X159.0Y-86.0
X162.1Y-65.0
X168.0Y-60.0
X173.0Y-77.0
X173.05Y-48.05
X177.0Y-92.1
X178.0Y-90.0
X184.1Y-92.1
X184.8Y-84.7
X185.0Y-90.0
X186.0Y-48.0
X186.0Y-59.0
X187.0Y-61.0
X188.0Y-63.0
X191.0Y-78.8
X195.0Y-100.0
X197.0Y-100.0
T2
X120.5Y-47.3
X121.6Y-116.9
X123.7Y-35.3
X125.4Y-96.8
X135.2Y-89.8
X137.0Y-50.9
X140.1Y-35.4
X144.9Y-91.8
X146.8Y-67.0
X150.4Y-83.1
X157.6Y-72.7
X163.2Y-49.6
X164.2Y-95.7
X166.1Y-61.7
X171.6Y-35.9
X173.0Y-82.4
X174.5Y-103.9
X175.2Y-113.2
X181.4Y-66.3
X186.3Y-117.1
X188.4Y-36.0
X195.2Y-56.7
X195.2Y-88.2
X195.3Y-70.1
X196.9Y-49.0
X199.6Y-96.0
X200.2Y-130.7
T3
X118.73Y-57.87
X118.73Y-60.41
X118.73Y-62.95
X118.73Y-65.49
X118.73Y-68.03
X118.73Y-70.57
X118.73Y-73.11
X118.73Y-75.65
X118.73Y-78.19
X118.73Y-80.73
X118.73Y-83.27
X118.73Y-85.81
X118.73Y-88.35
X118.73Y-90.89
X118.73Y-93.43
X118.73Y-95.97
X118.73Y-98.51
X118.73Y-101.05
X118.73Y-103.59
X118.73Y-106.13
X121.27Y-57.87
X121.27Y-60.41
X121.27Y-62.95
X121.27Y-65.49
X121.27Y-68.03
X121.27Y-70.57
X121.27Y-73.11
X121.27Y-75.65
X121.27Y-78.19
X121.27Y-80.73
X121.27Y-83.27
X121.27Y-85.81
X121.27Y-88.35
X121.27Y-90.89
X121.27Y-93.43
X121.27Y-95.97
X121.27Y-98.51
X121.27Y-101.05
X121.27Y-103.59
X121.27Y-106.13
X128.0Y-79.38
X128.0Y-81.92
X128.0Y-84.46
X128.0Y-87.0
X128.0Y-89.54
X128.0Y-92.08
X128.0Y-94.62
X128.0Y-97.16
X182.75Y-127.95
X184.0Y-110.05
X185.25Y-127.95
X187.75Y-127.95
X189.0Y-110.05
X190.25Y-127.95
X199.75Y-59.975
X199.75Y-62.515
X199.75Y-74.25
X199.75Y-76.79
X199.75Y-88.0
X199.75Y-90.54
X199.75Y-93.08
T4
X123.51Y-120.06
X129.86Y-117.52
X142.06Y-120.06
X148.41Y-117.52
X160.61Y-120.06
X166.96Y-117.52
T5
X179.9Y-117.05
X193.1Y-117.05
M30
