%TF.GenerationSoftware,KiCad,Pcbnew,9.0.7*%
%TF.CreationDate,2026-04-20T21:22:17+02:00*%
%TF.ProjectId,protosync,70726f74-6f73-4796-9e63-2e6b69636164,rev?*%
%TF.SameCoordinates,Original*%
%TF.FileFunction,Drillmap*%
%TF.FilePolarity,Positive*%
%FSLAX45Y45*%
G04 Gerber Fmt 4.5, Leading zero omitted, Abs format (unit mm)*
G04 Created by KiCad (PCBNEW 9.0.7) date 2026-04-20 21:22:17*
%MOMM*%
%LPD*%
G01*
G04 APERTURE LIST*
%ADD10C,0.100000*%
%ADD11C,0.200000*%
%ADD12C,0.150000*%
%ADD13C,0.290000*%
G04 APERTURE END LIST*
D10*
X11500000Y-3050000D02*
G75*
G02*
X11800000Y-2750000I300000J0D01*
G01*
X20100000Y-2750000D02*
X11800000Y-2750000D01*
X11800000Y-13500000D02*
X20100000Y-13500000D01*
X20400000Y-13200000D02*
G75*
G02*
X20100000Y-13500000I-300000J0D01*
G01*
X20400000Y-13200000D02*
X20400000Y-3050000D01*
X20100000Y-2750000D02*
G75*
G02*
X20400000Y-3050000I0J-300000D01*
G01*
X11800000Y-13500000D02*
G75*
G02*
X11500000Y-13200000I0J300000D01*
G01*
X11500000Y-3050000D02*
X11500000Y-13200000D01*
D11*
D10*
X12385000Y-7085000D02*
X12415000Y-7115000D01*
X12415000Y-7085000D02*
X12385000Y-7115000D01*
X12485000Y-7185000D02*
X12515000Y-7215000D01*
X12515000Y-7185000D02*
X12485000Y-7215000D01*
X12570000Y-10010000D02*
X12600000Y-10040000D01*
X12600000Y-10010000D02*
X12570000Y-10040000D01*
X13065000Y-9585000D02*
X13095000Y-9615000D01*
X13095000Y-9585000D02*
X13065000Y-9615000D01*
X13215000Y-7585000D02*
X13245000Y-7615000D01*
X13245000Y-7585000D02*
X13215000Y-7615000D01*
X13245000Y-9705000D02*
X13275000Y-9735000D01*
X13275000Y-9705000D02*
X13245000Y-9735000D01*
X13335000Y-6935000D02*
X13365000Y-6965000D01*
X13365000Y-6935000D02*
X13335000Y-6965000D01*
X13335000Y-7045000D02*
X13365000Y-7075000D01*
X13365000Y-7045000D02*
X13335000Y-7075000D01*
X13735000Y-10960000D02*
X13765000Y-10990000D01*
X13765000Y-10960000D02*
X13735000Y-10990000D01*
X13960000Y-8010000D02*
X13990000Y-8040000D01*
X13990000Y-8010000D02*
X13960000Y-8040000D01*
X14035000Y-5865000D02*
X14065000Y-5895000D01*
X14065000Y-5865000D02*
X14035000Y-5895000D01*
X15105000Y-9835000D02*
X15135000Y-9865000D01*
X15135000Y-9835000D02*
X15105000Y-9865000D01*
X15160000Y-10960000D02*
X15190000Y-10990000D01*
X15190000Y-10960000D02*
X15160000Y-10990000D01*
X15165000Y-7085000D02*
X15195000Y-7115000D01*
X15195000Y-7085000D02*
X15165000Y-7115000D01*
X15185000Y-5185000D02*
X15215000Y-5215000D01*
X15215000Y-5185000D02*
X15185000Y-5215000D01*
X15185000Y-9985000D02*
X15215000Y-10015000D01*
X15215000Y-9985000D02*
X15185000Y-10015000D01*
X15385000Y-9995000D02*
X15415000Y-10025000D01*
X15415000Y-9995000D02*
X15385000Y-10025000D01*
X15435000Y-6175000D02*
X15465000Y-6205000D01*
X15465000Y-6175000D02*
X15435000Y-6205000D01*
X15465000Y-7025000D02*
X15495000Y-7055000D01*
X15495000Y-7025000D02*
X15465000Y-7055000D01*
X15685000Y-5385000D02*
X15715000Y-5415000D01*
X15715000Y-5385000D02*
X15685000Y-5415000D01*
X15875000Y-6785000D02*
X15905000Y-6815000D01*
X15905000Y-6785000D02*
X15875000Y-6815000D01*
X15885000Y-8585000D02*
X15915000Y-8615000D01*
X15915000Y-8585000D02*
X15885000Y-8615000D01*
X16195000Y-6485000D02*
X16225000Y-6515000D01*
X16225000Y-6485000D02*
X16195000Y-6515000D01*
X16785000Y-5985000D02*
X16815000Y-6015000D01*
X16815000Y-5985000D02*
X16785000Y-6015000D01*
X17285000Y-7685000D02*
X17315000Y-7715000D01*
X17315000Y-7685000D02*
X17285000Y-7715000D01*
X17290000Y-4790000D02*
X17320000Y-4820000D01*
X17320000Y-4790000D02*
X17290000Y-4820000D01*
X17685000Y-9195000D02*
X17715000Y-9225000D01*
X17715000Y-9195000D02*
X17685000Y-9225000D01*
X17785000Y-8985000D02*
X17815000Y-9015000D01*
X17815000Y-8985000D02*
X17785000Y-9015000D01*
X18395000Y-9195000D02*
X18425000Y-9225000D01*
X18425000Y-9195000D02*
X18395000Y-9225000D01*
X18465000Y-8455000D02*
X18495000Y-8485000D01*
X18495000Y-8455000D02*
X18465000Y-8485000D01*
X18485000Y-8985000D02*
X18515000Y-9015000D01*
X18515000Y-8985000D02*
X18485000Y-9015000D01*
X18585000Y-4785000D02*
X18615000Y-4815000D01*
X18615000Y-4785000D02*
X18585000Y-4815000D01*
X18585000Y-5885000D02*
X18615000Y-5915000D01*
X18615000Y-5885000D02*
X18585000Y-5915000D01*
X18685000Y-6085000D02*
X18715000Y-6115000D01*
X18715000Y-6085000D02*
X18685000Y-6115000D01*
X18785000Y-6285000D02*
X18815000Y-6315000D01*
X18815000Y-6285000D02*
X18785000Y-6315000D01*
X19085000Y-7865000D02*
X19115000Y-7895000D01*
X19115000Y-7865000D02*
X19085000Y-7895000D01*
X19485000Y-9985000D02*
X19515000Y-10015000D01*
X19515000Y-9985000D02*
X19485000Y-10015000D01*
X19685000Y-9985000D02*
X19715000Y-10015000D01*
X19715000Y-9985000D02*
X19685000Y-10015000D01*
X12075000Y-4730000D02*
G75*
G02*
X12025000Y-4730000I-25000J0D01*
G01*
X12025000Y-4730000D02*
G75*
G02*
X12075000Y-4730000I25000J0D01*
G01*
X12185000Y-11690000D02*
G75*
G02*
X12135000Y-11690000I-25000J0D01*
G01*
X12135000Y-11690000D02*
G75*
G02*
X12185000Y-11690000I25000J0D01*
G01*
X12395000Y-3530000D02*
G75*
G02*
X12345000Y-3530000I-25000J0D01*
G01*
X12345000Y-3530000D02*
G75*
G02*
X12395000Y-3530000I25000J0D01*
G01*
X12565000Y-9680000D02*
G75*
G02*
X12515000Y-9680000I-25000J0D01*
G01*
X12515000Y-9680000D02*
G75*
G02*
X12565000Y-9680000I25000J0D01*
G01*
X13545000Y-8980000D02*
G75*
G02*
X13495000Y-8980000I-25000J0D01*
G01*
X13495000Y-8980000D02*
G75*
G02*
X13545000Y-8980000I25000J0D01*
G01*
X13725000Y-5090000D02*
G75*
G02*
X13675000Y-5090000I-25000J0D01*
G01*
X13675000Y-5090000D02*
G75*
G02*
X13725000Y-5090000I25000J0D01*
G01*
X14035000Y-3540000D02*
G75*
G02*
X13985000Y-3540000I-25000J0D01*
G01*
X13985000Y-3540000D02*
G75*
G02*
X14035000Y-3540000I25000J0D01*
G01*
X14515000Y-9180000D02*
G75*
G02*
X14465000Y-9180000I-25000J0D01*
G01*
X14465000Y-9180000D02*
G75*
G02*
X14515000Y-9180000I25000J0D01*
G01*
X14705000Y-6700000D02*
G75*
G02*
X14655000Y-6700000I-25000J0D01*
G01*
X14655000Y-6700000D02*
G75*
G02*
X14705000Y-6700000I25000J0D01*
G01*
X15065000Y-8310000D02*
G75*
G02*
X15015000Y-8310000I-25000J0D01*
G01*
X15015000Y-8310000D02*
G75*
G02*
X15065000Y-8310000I25000J0D01*
G01*
X15785000Y-7270000D02*
G75*
G02*
X15735000Y-7270000I-25000J0D01*
G01*
X15735000Y-7270000D02*
G75*
G02*
X15785000Y-7270000I25000J0D01*
G01*
X16345000Y-4960000D02*
G75*
G02*
X16295000Y-4960000I-25000J0D01*
G01*
X16295000Y-4960000D02*
G75*
G02*
X16345000Y-4960000I25000J0D01*
G01*
X16445000Y-9570000D02*
G75*
G02*
X16395000Y-9570000I-25000J0D01*
G01*
X16395000Y-9570000D02*
G75*
G02*
X16445000Y-9570000I25000J0D01*
G01*
X16635000Y-6170000D02*
G75*
G02*
X16585000Y-6170000I-25000J0D01*
G01*
X16585000Y-6170000D02*
G75*
G02*
X16635000Y-6170000I25000J0D01*
G01*
X17185000Y-3590000D02*
G75*
G02*
X17135000Y-3590000I-25000J0D01*
G01*
X17135000Y-3590000D02*
G75*
G02*
X17185000Y-3590000I25000J0D01*
G01*
X17325000Y-8240000D02*
G75*
G02*
X17275000Y-8240000I-25000J0D01*
G01*
X17275000Y-8240000D02*
G75*
G02*
X17325000Y-8240000I25000J0D01*
G01*
X17475000Y-10390000D02*
G75*
G02*
X17425000Y-10390000I-25000J0D01*
G01*
X17425000Y-10390000D02*
G75*
G02*
X17475000Y-10390000I25000J0D01*
G01*
X17545000Y-11320000D02*
G75*
G02*
X17495000Y-11320000I-25000J0D01*
G01*
X17495000Y-11320000D02*
G75*
G02*
X17545000Y-11320000I25000J0D01*
G01*
X18165000Y-6630000D02*
G75*
G02*
X18115000Y-6630000I-25000J0D01*
G01*
X18115000Y-6630000D02*
G75*
G02*
X18165000Y-6630000I25000J0D01*
G01*
X18655000Y-11710000D02*
G75*
G02*
X18605000Y-11710000I-25000J0D01*
G01*
X18605000Y-11710000D02*
G75*
G02*
X18655000Y-11710000I25000J0D01*
G01*
X18865000Y-3600000D02*
G75*
G02*
X18815000Y-3600000I-25000J0D01*
G01*
X18815000Y-3600000D02*
G75*
G02*
X18865000Y-3600000I25000J0D01*
G01*
X19545000Y-5670000D02*
G75*
G02*
X19495000Y-5670000I-25000J0D01*
G01*
X19495000Y-5670000D02*
G75*
G02*
X19545000Y-5670000I25000J0D01*
G01*
X19545000Y-8820000D02*
G75*
G02*
X19495000Y-8820000I-25000J0D01*
G01*
X19495000Y-8820000D02*
G75*
G02*
X19545000Y-8820000I25000J0D01*
G01*
X19555000Y-7010000D02*
G75*
G02*
X19505000Y-7010000I-25000J0D01*
G01*
X19505000Y-7010000D02*
G75*
G02*
X19555000Y-7010000I25000J0D01*
G01*
X19715000Y-4900000D02*
G75*
G02*
X19665000Y-4900000I-25000J0D01*
G01*
X19665000Y-4900000D02*
G75*
G02*
X19715000Y-4900000I25000J0D01*
G01*
X19985000Y-9600000D02*
G75*
G02*
X19935000Y-9600000I-25000J0D01*
G01*
X19935000Y-9600000D02*
G75*
G02*
X19985000Y-9600000I25000J0D01*
G01*
X20045000Y-13070000D02*
G75*
G02*
X19995000Y-13070000I-25000J0D01*
G01*
X19995000Y-13070000D02*
G75*
G02*
X20045000Y-13070000I25000J0D01*
G01*
X11873000Y-5737000D02*
X11873000Y-5837000D01*
X11823000Y-5787000D02*
X11923000Y-5787000D01*
X11873000Y-5991000D02*
X11873000Y-6091000D01*
X11823000Y-6041000D02*
X11923000Y-6041000D01*
X11873000Y-6245000D02*
X11873000Y-6345000D01*
X11823000Y-6295000D02*
X11923000Y-6295000D01*
X11873000Y-6499000D02*
X11873000Y-6599000D01*
X11823000Y-6549000D02*
X11923000Y-6549000D01*
X11873000Y-6753000D02*
X11873000Y-6853000D01*
X11823000Y-6803000D02*
X11923000Y-6803000D01*
X11873000Y-7007000D02*
X11873000Y-7107000D01*
X11823000Y-7057000D02*
X11923000Y-7057000D01*
X11873000Y-7261000D02*
X11873000Y-7361000D01*
X11823000Y-7311000D02*
X11923000Y-7311000D01*
X11873000Y-7515000D02*
X11873000Y-7615000D01*
X11823000Y-7565000D02*
X11923000Y-7565000D01*
X11873000Y-7769000D02*
X11873000Y-7869000D01*
X11823000Y-7819000D02*
X11923000Y-7819000D01*
X11873000Y-8023000D02*
X11873000Y-8123000D01*
X11823000Y-8073000D02*
X11923000Y-8073000D01*
X11873000Y-8277000D02*
X11873000Y-8377000D01*
X11823000Y-8327000D02*
X11923000Y-8327000D01*
X11873000Y-8531000D02*
X11873000Y-8631000D01*
X11823000Y-8581000D02*
X11923000Y-8581000D01*
X11873000Y-8785000D02*
X11873000Y-8885000D01*
X11823000Y-8835000D02*
X11923000Y-8835000D01*
X11873000Y-9039000D02*
X11873000Y-9139000D01*
X11823000Y-9089000D02*
X11923000Y-9089000D01*
X11873000Y-9293000D02*
X11873000Y-9393000D01*
X11823000Y-9343000D02*
X11923000Y-9343000D01*
X11873000Y-9547000D02*
X11873000Y-9647000D01*
X11823000Y-9597000D02*
X11923000Y-9597000D01*
X11873000Y-9801000D02*
X11873000Y-9901000D01*
X11823000Y-9851000D02*
X11923000Y-9851000D01*
X11873000Y-10055000D02*
X11873000Y-10155000D01*
X11823000Y-10105000D02*
X11923000Y-10105000D01*
X11873000Y-10309000D02*
X11873000Y-10409000D01*
X11823000Y-10359000D02*
X11923000Y-10359000D01*
X11873000Y-10563000D02*
X11873000Y-10663000D01*
X11823000Y-10613000D02*
X11923000Y-10613000D01*
X12127000Y-5737000D02*
X12127000Y-5837000D01*
X12077000Y-5787000D02*
X12177000Y-5787000D01*
X12127000Y-5991000D02*
X12127000Y-6091000D01*
X12077000Y-6041000D02*
X12177000Y-6041000D01*
X12127000Y-6245000D02*
X12127000Y-6345000D01*
X12077000Y-6295000D02*
X12177000Y-6295000D01*
X12127000Y-6499000D02*
X12127000Y-6599000D01*
X12077000Y-6549000D02*
X12177000Y-6549000D01*
X12127000Y-6753000D02*
X12127000Y-6853000D01*
X12077000Y-6803000D02*
X12177000Y-6803000D01*
X12127000Y-7007000D02*
X12127000Y-7107000D01*
X12077000Y-7057000D02*
X12177000Y-7057000D01*
X12127000Y-7261000D02*
X12127000Y-7361000D01*
X12077000Y-7311000D02*
X12177000Y-7311000D01*
X12127000Y-7515000D02*
X12127000Y-7615000D01*
X12077000Y-7565000D02*
X12177000Y-7565000D01*
X12127000Y-7769000D02*
X12127000Y-7869000D01*
X12077000Y-7819000D02*
X12177000Y-7819000D01*
X12127000Y-8023000D02*
X12127000Y-8123000D01*
X12077000Y-8073000D02*
X12177000Y-8073000D01*
X12127000Y-8277000D02*
X12127000Y-8377000D01*
X12077000Y-8327000D02*
X12177000Y-8327000D01*
X12127000Y-8531000D02*
X12127000Y-8631000D01*
X12077000Y-8581000D02*
X12177000Y-8581000D01*
X12127000Y-8785000D02*
X12127000Y-8885000D01*
X12077000Y-8835000D02*
X12177000Y-8835000D01*
X12127000Y-9039000D02*
X12127000Y-9139000D01*
X12077000Y-9089000D02*
X12177000Y-9089000D01*
X12127000Y-9293000D02*
X12127000Y-9393000D01*
X12077000Y-9343000D02*
X12177000Y-9343000D01*
X12127000Y-9547000D02*
X12127000Y-9647000D01*
X12077000Y-9597000D02*
X12177000Y-9597000D01*
X12127000Y-9801000D02*
X12127000Y-9901000D01*
X12077000Y-9851000D02*
X12177000Y-9851000D01*
X12127000Y-10055000D02*
X12127000Y-10155000D01*
X12077000Y-10105000D02*
X12177000Y-10105000D01*
X12127000Y-10309000D02*
X12127000Y-10409000D01*
X12077000Y-10359000D02*
X12177000Y-10359000D01*
X12127000Y-10563000D02*
X12127000Y-10663000D01*
X12077000Y-10613000D02*
X12177000Y-10613000D01*
X12800000Y-7888000D02*
X12800000Y-7988000D01*
X12750000Y-7938000D02*
X12850000Y-7938000D01*
X12800000Y-8142000D02*
X12800000Y-8242000D01*
X12750000Y-8192000D02*
X12850000Y-8192000D01*
X12800000Y-8396000D02*
X12800000Y-8496000D01*
X12750000Y-8446000D02*
X12850000Y-8446000D01*
X12800000Y-8650000D02*
X12800000Y-8750000D01*
X12750000Y-8700000D02*
X12850000Y-8700000D01*
X12800000Y-8904000D02*
X12800000Y-9004000D01*
X12750000Y-8954000D02*
X12850000Y-8954000D01*
X12800000Y-9158000D02*
X12800000Y-9258000D01*
X12750000Y-9208000D02*
X12850000Y-9208000D01*
X12800000Y-9412000D02*
X12800000Y-9512000D01*
X12750000Y-9462000D02*
X12850000Y-9462000D01*
X12800000Y-9666000D02*
X12800000Y-9766000D01*
X12750000Y-9716000D02*
X12850000Y-9716000D01*
X18275000Y-12745000D02*
X18275000Y-12845000D01*
X18225000Y-12795000D02*
X18325000Y-12795000D01*
X18400000Y-10955000D02*
X18400000Y-11055000D01*
X18350000Y-11005000D02*
X18450000Y-11005000D01*
X18525000Y-12745000D02*
X18525000Y-12845000D01*
X18475000Y-12795000D02*
X18575000Y-12795000D01*
X18775000Y-12745000D02*
X18775000Y-12845000D01*
X18725000Y-12795000D02*
X18825000Y-12795000D01*
X18900000Y-10955000D02*
X18900000Y-11055000D01*
X18850000Y-11005000D02*
X18950000Y-11005000D01*
X19025000Y-12745000D02*
X19025000Y-12845000D01*
X18975000Y-12795000D02*
X19075000Y-12795000D01*
X19975000Y-5947500D02*
X19975000Y-6047500D01*
X19925000Y-5997500D02*
X20025000Y-5997500D01*
X19975000Y-6201500D02*
X19975000Y-6301500D01*
X19925000Y-6251500D02*
X20025000Y-6251500D01*
X19975000Y-7375000D02*
X19975000Y-7475000D01*
X19925000Y-7425000D02*
X20025000Y-7425000D01*
X19975000Y-7629000D02*
X19975000Y-7729000D01*
X19925000Y-7679000D02*
X20025000Y-7679000D01*
X19975000Y-8750000D02*
X19975000Y-8850000D01*
X19925000Y-8800000D02*
X20025000Y-8800000D01*
X19975000Y-9004000D02*
X19975000Y-9104000D01*
X19925000Y-9054000D02*
X20025000Y-9054000D01*
X19975000Y-9258000D02*
X19975000Y-9358000D01*
X19925000Y-9308000D02*
X20025000Y-9308000D01*
D12*
X12404033Y-12059033D02*
X12404033Y-11952966D01*
X12297966Y-11952966D01*
X12297966Y-12059033D01*
X12404033Y-12059033D01*
X13039033Y-11805033D02*
X13039033Y-11698966D01*
X12932966Y-11698966D01*
X12932966Y-11805033D01*
X13039033Y-11805033D01*
X14259033Y-12059033D02*
X14259033Y-11952966D01*
X14152966Y-11952966D01*
X14152966Y-12059033D01*
X14259033Y-12059033D01*
X14894033Y-11805033D02*
X14894033Y-11698966D01*
X14787966Y-11698966D01*
X14787966Y-11805033D01*
X14894033Y-11805033D01*
X16114033Y-12059033D02*
X16114033Y-11952966D01*
X16007966Y-11952966D01*
X16007966Y-12059033D01*
X16114033Y-12059033D01*
X16749033Y-11805033D02*
X16749033Y-11698966D01*
X16642966Y-11698966D01*
X16642966Y-11805033D01*
X16749033Y-11805033D01*
D13*
X17990000Y-11850000D02*
X18135000Y-11705000D01*
X17990000Y-11560000D01*
X17845000Y-11705000D01*
X17990000Y-11850000D01*
X19310000Y-11850000D02*
X19455000Y-11705000D01*
X19310000Y-11560000D01*
X19165000Y-11705000D01*
X19310000Y-11850000D01*
D11*
X11755777Y-13816484D02*
X11755777Y-13616484D01*
X11755777Y-13616484D02*
X11803396Y-13616484D01*
X11803396Y-13616484D02*
X11831967Y-13626008D01*
X11831967Y-13626008D02*
X11851015Y-13645055D01*
X11851015Y-13645055D02*
X11860539Y-13664103D01*
X11860539Y-13664103D02*
X11870062Y-13702198D01*
X11870062Y-13702198D02*
X11870062Y-13730769D01*
X11870062Y-13730769D02*
X11860539Y-13768865D01*
X11860539Y-13768865D02*
X11851015Y-13787912D01*
X11851015Y-13787912D02*
X11831967Y-13806960D01*
X11831967Y-13806960D02*
X11803396Y-13816484D01*
X11803396Y-13816484D02*
X11755777Y-13816484D01*
X11955777Y-13816484D02*
X11955777Y-13683150D01*
X11955777Y-13721246D02*
X11965301Y-13702198D01*
X11965301Y-13702198D02*
X11974824Y-13692674D01*
X11974824Y-13692674D02*
X11993872Y-13683150D01*
X11993872Y-13683150D02*
X12012920Y-13683150D01*
X12079586Y-13816484D02*
X12079586Y-13683150D01*
X12079586Y-13616484D02*
X12070062Y-13626008D01*
X12070062Y-13626008D02*
X12079586Y-13635531D01*
X12079586Y-13635531D02*
X12089110Y-13626008D01*
X12089110Y-13626008D02*
X12079586Y-13616484D01*
X12079586Y-13616484D02*
X12079586Y-13635531D01*
X12203396Y-13816484D02*
X12184348Y-13806960D01*
X12184348Y-13806960D02*
X12174824Y-13787912D01*
X12174824Y-13787912D02*
X12174824Y-13616484D01*
X12308158Y-13816484D02*
X12289110Y-13806960D01*
X12289110Y-13806960D02*
X12279586Y-13787912D01*
X12279586Y-13787912D02*
X12279586Y-13616484D01*
X12536729Y-13816484D02*
X12536729Y-13616484D01*
X12536729Y-13616484D02*
X12603396Y-13759341D01*
X12603396Y-13759341D02*
X12670062Y-13616484D01*
X12670062Y-13616484D02*
X12670062Y-13816484D01*
X12851015Y-13816484D02*
X12851015Y-13711722D01*
X12851015Y-13711722D02*
X12841491Y-13692674D01*
X12841491Y-13692674D02*
X12822443Y-13683150D01*
X12822443Y-13683150D02*
X12784348Y-13683150D01*
X12784348Y-13683150D02*
X12765301Y-13692674D01*
X12851015Y-13806960D02*
X12831967Y-13816484D01*
X12831967Y-13816484D02*
X12784348Y-13816484D01*
X12784348Y-13816484D02*
X12765301Y-13806960D01*
X12765301Y-13806960D02*
X12755777Y-13787912D01*
X12755777Y-13787912D02*
X12755777Y-13768865D01*
X12755777Y-13768865D02*
X12765301Y-13749817D01*
X12765301Y-13749817D02*
X12784348Y-13740293D01*
X12784348Y-13740293D02*
X12831967Y-13740293D01*
X12831967Y-13740293D02*
X12851015Y-13730769D01*
X12946253Y-13683150D02*
X12946253Y-13883150D01*
X12946253Y-13692674D02*
X12965301Y-13683150D01*
X12965301Y-13683150D02*
X13003396Y-13683150D01*
X13003396Y-13683150D02*
X13022443Y-13692674D01*
X13022443Y-13692674D02*
X13031967Y-13702198D01*
X13031967Y-13702198D02*
X13041491Y-13721246D01*
X13041491Y-13721246D02*
X13041491Y-13778388D01*
X13041491Y-13778388D02*
X13031967Y-13797436D01*
X13031967Y-13797436D02*
X13022443Y-13806960D01*
X13022443Y-13806960D02*
X13003396Y-13816484D01*
X13003396Y-13816484D02*
X12965301Y-13816484D01*
X12965301Y-13816484D02*
X12946253Y-13806960D01*
X13127205Y-13797436D02*
X13136729Y-13806960D01*
X13136729Y-13806960D02*
X13127205Y-13816484D01*
X13127205Y-13816484D02*
X13117682Y-13806960D01*
X13117682Y-13806960D02*
X13127205Y-13797436D01*
X13127205Y-13797436D02*
X13127205Y-13816484D01*
X13127205Y-13692674D02*
X13136729Y-13702198D01*
X13136729Y-13702198D02*
X13127205Y-13711722D01*
X13127205Y-13711722D02*
X13117682Y-13702198D01*
X13117682Y-13702198D02*
X13127205Y-13692674D01*
X13127205Y-13692674D02*
X13127205Y-13711722D01*
D10*
X11465000Y-14130000D02*
X11495000Y-14160000D01*
X11495000Y-14130000D02*
X11465000Y-14160000D01*
D11*
X11793872Y-14036484D02*
X11812920Y-14036484D01*
X11812920Y-14036484D02*
X11831967Y-14046008D01*
X11831967Y-14046008D02*
X11841491Y-14055531D01*
X11841491Y-14055531D02*
X11851015Y-14074579D01*
X11851015Y-14074579D02*
X11860539Y-14112674D01*
X11860539Y-14112674D02*
X11860539Y-14160293D01*
X11860539Y-14160293D02*
X11851015Y-14198388D01*
X11851015Y-14198388D02*
X11841491Y-14217436D01*
X11841491Y-14217436D02*
X11831967Y-14226960D01*
X11831967Y-14226960D02*
X11812920Y-14236484D01*
X11812920Y-14236484D02*
X11793872Y-14236484D01*
X11793872Y-14236484D02*
X11774824Y-14226960D01*
X11774824Y-14226960D02*
X11765301Y-14217436D01*
X11765301Y-14217436D02*
X11755777Y-14198388D01*
X11755777Y-14198388D02*
X11746253Y-14160293D01*
X11746253Y-14160293D02*
X11746253Y-14112674D01*
X11746253Y-14112674D02*
X11755777Y-14074579D01*
X11755777Y-14074579D02*
X11765301Y-14055531D01*
X11765301Y-14055531D02*
X11774824Y-14046008D01*
X11774824Y-14046008D02*
X11793872Y-14036484D01*
X11946253Y-14217436D02*
X11955777Y-14226960D01*
X11955777Y-14226960D02*
X11946253Y-14236484D01*
X11946253Y-14236484D02*
X11936729Y-14226960D01*
X11936729Y-14226960D02*
X11946253Y-14217436D01*
X11946253Y-14217436D02*
X11946253Y-14236484D01*
X12022443Y-14036484D02*
X12146253Y-14036484D01*
X12146253Y-14036484D02*
X12079586Y-14112674D01*
X12079586Y-14112674D02*
X12108158Y-14112674D01*
X12108158Y-14112674D02*
X12127205Y-14122198D01*
X12127205Y-14122198D02*
X12136729Y-14131722D01*
X12136729Y-14131722D02*
X12146253Y-14150769D01*
X12146253Y-14150769D02*
X12146253Y-14198388D01*
X12146253Y-14198388D02*
X12136729Y-14217436D01*
X12136729Y-14217436D02*
X12127205Y-14226960D01*
X12127205Y-14226960D02*
X12108158Y-14236484D01*
X12108158Y-14236484D02*
X12051015Y-14236484D01*
X12051015Y-14236484D02*
X12031967Y-14226960D01*
X12031967Y-14226960D02*
X12022443Y-14217436D01*
X12270062Y-14036484D02*
X12289110Y-14036484D01*
X12289110Y-14036484D02*
X12308158Y-14046008D01*
X12308158Y-14046008D02*
X12317682Y-14055531D01*
X12317682Y-14055531D02*
X12327205Y-14074579D01*
X12327205Y-14074579D02*
X12336729Y-14112674D01*
X12336729Y-14112674D02*
X12336729Y-14160293D01*
X12336729Y-14160293D02*
X12327205Y-14198388D01*
X12327205Y-14198388D02*
X12317682Y-14217436D01*
X12317682Y-14217436D02*
X12308158Y-14226960D01*
X12308158Y-14226960D02*
X12289110Y-14236484D01*
X12289110Y-14236484D02*
X12270062Y-14236484D01*
X12270062Y-14236484D02*
X12251015Y-14226960D01*
X12251015Y-14226960D02*
X12241491Y-14217436D01*
X12241491Y-14217436D02*
X12231967Y-14198388D01*
X12231967Y-14198388D02*
X12222443Y-14160293D01*
X12222443Y-14160293D02*
X12222443Y-14112674D01*
X12222443Y-14112674D02*
X12231967Y-14074579D01*
X12231967Y-14074579D02*
X12241491Y-14055531D01*
X12241491Y-14055531D02*
X12251015Y-14046008D01*
X12251015Y-14046008D02*
X12270062Y-14036484D01*
X12460539Y-14036484D02*
X12479586Y-14036484D01*
X12479586Y-14036484D02*
X12498634Y-14046008D01*
X12498634Y-14046008D02*
X12508158Y-14055531D01*
X12508158Y-14055531D02*
X12517682Y-14074579D01*
X12517682Y-14074579D02*
X12527205Y-14112674D01*
X12527205Y-14112674D02*
X12527205Y-14160293D01*
X12527205Y-14160293D02*
X12517682Y-14198388D01*
X12517682Y-14198388D02*
X12508158Y-14217436D01*
X12508158Y-14217436D02*
X12498634Y-14226960D01*
X12498634Y-14226960D02*
X12479586Y-14236484D01*
X12479586Y-14236484D02*
X12460539Y-14236484D01*
X12460539Y-14236484D02*
X12441491Y-14226960D01*
X12441491Y-14226960D02*
X12431967Y-14217436D01*
X12431967Y-14217436D02*
X12422443Y-14198388D01*
X12422443Y-14198388D02*
X12412920Y-14160293D01*
X12412920Y-14160293D02*
X12412920Y-14112674D01*
X12412920Y-14112674D02*
X12422443Y-14074579D01*
X12422443Y-14074579D02*
X12431967Y-14055531D01*
X12431967Y-14055531D02*
X12441491Y-14046008D01*
X12441491Y-14046008D02*
X12460539Y-14036484D01*
X12612920Y-14236484D02*
X12612920Y-14103150D01*
X12612920Y-14122198D02*
X12622443Y-14112674D01*
X12622443Y-14112674D02*
X12641491Y-14103150D01*
X12641491Y-14103150D02*
X12670063Y-14103150D01*
X12670063Y-14103150D02*
X12689110Y-14112674D01*
X12689110Y-14112674D02*
X12698634Y-14131722D01*
X12698634Y-14131722D02*
X12698634Y-14236484D01*
X12698634Y-14131722D02*
X12708158Y-14112674D01*
X12708158Y-14112674D02*
X12727205Y-14103150D01*
X12727205Y-14103150D02*
X12755777Y-14103150D01*
X12755777Y-14103150D02*
X12774824Y-14112674D01*
X12774824Y-14112674D02*
X12784348Y-14131722D01*
X12784348Y-14131722D02*
X12784348Y-14236484D01*
X12879586Y-14236484D02*
X12879586Y-14103150D01*
X12879586Y-14122198D02*
X12889110Y-14112674D01*
X12889110Y-14112674D02*
X12908158Y-14103150D01*
X12908158Y-14103150D02*
X12936729Y-14103150D01*
X12936729Y-14103150D02*
X12955777Y-14112674D01*
X12955777Y-14112674D02*
X12965301Y-14131722D01*
X12965301Y-14131722D02*
X12965301Y-14236484D01*
X12965301Y-14131722D02*
X12974824Y-14112674D01*
X12974824Y-14112674D02*
X12993872Y-14103150D01*
X12993872Y-14103150D02*
X13022443Y-14103150D01*
X13022443Y-14103150D02*
X13041491Y-14112674D01*
X13041491Y-14112674D02*
X13051015Y-14131722D01*
X13051015Y-14131722D02*
X13051015Y-14236484D01*
X13441491Y-14026960D02*
X13270063Y-14284103D01*
X13698634Y-14036484D02*
X13717682Y-14036484D01*
X13717682Y-14036484D02*
X13736729Y-14046008D01*
X13736729Y-14046008D02*
X13746253Y-14055531D01*
X13746253Y-14055531D02*
X13755777Y-14074579D01*
X13755777Y-14074579D02*
X13765301Y-14112674D01*
X13765301Y-14112674D02*
X13765301Y-14160293D01*
X13765301Y-14160293D02*
X13755777Y-14198388D01*
X13755777Y-14198388D02*
X13746253Y-14217436D01*
X13746253Y-14217436D02*
X13736729Y-14226960D01*
X13736729Y-14226960D02*
X13717682Y-14236484D01*
X13717682Y-14236484D02*
X13698634Y-14236484D01*
X13698634Y-14236484D02*
X13679586Y-14226960D01*
X13679586Y-14226960D02*
X13670063Y-14217436D01*
X13670063Y-14217436D02*
X13660539Y-14198388D01*
X13660539Y-14198388D02*
X13651015Y-14160293D01*
X13651015Y-14160293D02*
X13651015Y-14112674D01*
X13651015Y-14112674D02*
X13660539Y-14074579D01*
X13660539Y-14074579D02*
X13670063Y-14055531D01*
X13670063Y-14055531D02*
X13679586Y-14046008D01*
X13679586Y-14046008D02*
X13698634Y-14036484D01*
X13851015Y-14217436D02*
X13860539Y-14226960D01*
X13860539Y-14226960D02*
X13851015Y-14236484D01*
X13851015Y-14236484D02*
X13841491Y-14226960D01*
X13841491Y-14226960D02*
X13851015Y-14217436D01*
X13851015Y-14217436D02*
X13851015Y-14236484D01*
X13984348Y-14036484D02*
X14003396Y-14036484D01*
X14003396Y-14036484D02*
X14022444Y-14046008D01*
X14022444Y-14046008D02*
X14031967Y-14055531D01*
X14031967Y-14055531D02*
X14041491Y-14074579D01*
X14041491Y-14074579D02*
X14051015Y-14112674D01*
X14051015Y-14112674D02*
X14051015Y-14160293D01*
X14051015Y-14160293D02*
X14041491Y-14198388D01*
X14041491Y-14198388D02*
X14031967Y-14217436D01*
X14031967Y-14217436D02*
X14022444Y-14226960D01*
X14022444Y-14226960D02*
X14003396Y-14236484D01*
X14003396Y-14236484D02*
X13984348Y-14236484D01*
X13984348Y-14236484D02*
X13965301Y-14226960D01*
X13965301Y-14226960D02*
X13955777Y-14217436D01*
X13955777Y-14217436D02*
X13946253Y-14198388D01*
X13946253Y-14198388D02*
X13936729Y-14160293D01*
X13936729Y-14160293D02*
X13936729Y-14112674D01*
X13936729Y-14112674D02*
X13946253Y-14074579D01*
X13946253Y-14074579D02*
X13955777Y-14055531D01*
X13955777Y-14055531D02*
X13965301Y-14046008D01*
X13965301Y-14046008D02*
X13984348Y-14036484D01*
X14241491Y-14236484D02*
X14127206Y-14236484D01*
X14184348Y-14236484D02*
X14184348Y-14036484D01*
X14184348Y-14036484D02*
X14165301Y-14065055D01*
X14165301Y-14065055D02*
X14146253Y-14084103D01*
X14146253Y-14084103D02*
X14127206Y-14093627D01*
X14431967Y-14236484D02*
X14317682Y-14236484D01*
X14374825Y-14236484D02*
X14374825Y-14036484D01*
X14374825Y-14036484D02*
X14355777Y-14065055D01*
X14355777Y-14065055D02*
X14336729Y-14084103D01*
X14336729Y-14084103D02*
X14317682Y-14093627D01*
X14546253Y-14122198D02*
X14527206Y-14112674D01*
X14527206Y-14112674D02*
X14517682Y-14103150D01*
X14517682Y-14103150D02*
X14508158Y-14084103D01*
X14508158Y-14084103D02*
X14508158Y-14074579D01*
X14508158Y-14074579D02*
X14517682Y-14055531D01*
X14517682Y-14055531D02*
X14527206Y-14046008D01*
X14527206Y-14046008D02*
X14546253Y-14036484D01*
X14546253Y-14036484D02*
X14584348Y-14036484D01*
X14584348Y-14036484D02*
X14603396Y-14046008D01*
X14603396Y-14046008D02*
X14612920Y-14055531D01*
X14612920Y-14055531D02*
X14622444Y-14074579D01*
X14622444Y-14074579D02*
X14622444Y-14084103D01*
X14622444Y-14084103D02*
X14612920Y-14103150D01*
X14612920Y-14103150D02*
X14603396Y-14112674D01*
X14603396Y-14112674D02*
X14584348Y-14122198D01*
X14584348Y-14122198D02*
X14546253Y-14122198D01*
X14546253Y-14122198D02*
X14527206Y-14131722D01*
X14527206Y-14131722D02*
X14517682Y-14141246D01*
X14517682Y-14141246D02*
X14508158Y-14160293D01*
X14508158Y-14160293D02*
X14508158Y-14198388D01*
X14508158Y-14198388D02*
X14517682Y-14217436D01*
X14517682Y-14217436D02*
X14527206Y-14226960D01*
X14527206Y-14226960D02*
X14546253Y-14236484D01*
X14546253Y-14236484D02*
X14584348Y-14236484D01*
X14584348Y-14236484D02*
X14603396Y-14226960D01*
X14603396Y-14226960D02*
X14612920Y-14217436D01*
X14612920Y-14217436D02*
X14622444Y-14198388D01*
X14622444Y-14198388D02*
X14622444Y-14160293D01*
X14622444Y-14160293D02*
X14612920Y-14141246D01*
X14612920Y-14141246D02*
X14603396Y-14131722D01*
X14603396Y-14131722D02*
X14584348Y-14122198D01*
X14698634Y-14036484D02*
X14698634Y-14074579D01*
X14774825Y-14036484D02*
X14774825Y-14074579D01*
X15070063Y-14312674D02*
X15060539Y-14303150D01*
X15060539Y-14303150D02*
X15041491Y-14274579D01*
X15041491Y-14274579D02*
X15031968Y-14255531D01*
X15031968Y-14255531D02*
X15022444Y-14226960D01*
X15022444Y-14226960D02*
X15012920Y-14179341D01*
X15012920Y-14179341D02*
X15012920Y-14141246D01*
X15012920Y-14141246D02*
X15022444Y-14093627D01*
X15022444Y-14093627D02*
X15031968Y-14065055D01*
X15031968Y-14065055D02*
X15041491Y-14046008D01*
X15041491Y-14046008D02*
X15060539Y-14017436D01*
X15060539Y-14017436D02*
X15070063Y-14007912D01*
X15127206Y-14036484D02*
X15251015Y-14036484D01*
X15251015Y-14036484D02*
X15184348Y-14112674D01*
X15184348Y-14112674D02*
X15212920Y-14112674D01*
X15212920Y-14112674D02*
X15231968Y-14122198D01*
X15231968Y-14122198D02*
X15241491Y-14131722D01*
X15241491Y-14131722D02*
X15251015Y-14150769D01*
X15251015Y-14150769D02*
X15251015Y-14198388D01*
X15251015Y-14198388D02*
X15241491Y-14217436D01*
X15241491Y-14217436D02*
X15231968Y-14226960D01*
X15231968Y-14226960D02*
X15212920Y-14236484D01*
X15212920Y-14236484D02*
X15155777Y-14236484D01*
X15155777Y-14236484D02*
X15136729Y-14226960D01*
X15136729Y-14226960D02*
X15127206Y-14217436D01*
X15365301Y-14122198D02*
X15346253Y-14112674D01*
X15346253Y-14112674D02*
X15336729Y-14103150D01*
X15336729Y-14103150D02*
X15327206Y-14084103D01*
X15327206Y-14084103D02*
X15327206Y-14074579D01*
X15327206Y-14074579D02*
X15336729Y-14055531D01*
X15336729Y-14055531D02*
X15346253Y-14046008D01*
X15346253Y-14046008D02*
X15365301Y-14036484D01*
X15365301Y-14036484D02*
X15403396Y-14036484D01*
X15403396Y-14036484D02*
X15422444Y-14046008D01*
X15422444Y-14046008D02*
X15431968Y-14055531D01*
X15431968Y-14055531D02*
X15441491Y-14074579D01*
X15441491Y-14074579D02*
X15441491Y-14084103D01*
X15441491Y-14084103D02*
X15431968Y-14103150D01*
X15431968Y-14103150D02*
X15422444Y-14112674D01*
X15422444Y-14112674D02*
X15403396Y-14122198D01*
X15403396Y-14122198D02*
X15365301Y-14122198D01*
X15365301Y-14122198D02*
X15346253Y-14131722D01*
X15346253Y-14131722D02*
X15336729Y-14141246D01*
X15336729Y-14141246D02*
X15327206Y-14160293D01*
X15327206Y-14160293D02*
X15327206Y-14198388D01*
X15327206Y-14198388D02*
X15336729Y-14217436D01*
X15336729Y-14217436D02*
X15346253Y-14226960D01*
X15346253Y-14226960D02*
X15365301Y-14236484D01*
X15365301Y-14236484D02*
X15403396Y-14236484D01*
X15403396Y-14236484D02*
X15422444Y-14226960D01*
X15422444Y-14226960D02*
X15431968Y-14217436D01*
X15431968Y-14217436D02*
X15441491Y-14198388D01*
X15441491Y-14198388D02*
X15441491Y-14160293D01*
X15441491Y-14160293D02*
X15431968Y-14141246D01*
X15431968Y-14141246D02*
X15422444Y-14131722D01*
X15422444Y-14131722D02*
X15403396Y-14122198D01*
X15679587Y-14236484D02*
X15679587Y-14036484D01*
X15765301Y-14236484D02*
X15765301Y-14131722D01*
X15765301Y-14131722D02*
X15755777Y-14112674D01*
X15755777Y-14112674D02*
X15736730Y-14103150D01*
X15736730Y-14103150D02*
X15708158Y-14103150D01*
X15708158Y-14103150D02*
X15689110Y-14112674D01*
X15689110Y-14112674D02*
X15679587Y-14122198D01*
X15889110Y-14236484D02*
X15870063Y-14226960D01*
X15870063Y-14226960D02*
X15860539Y-14217436D01*
X15860539Y-14217436D02*
X15851015Y-14198388D01*
X15851015Y-14198388D02*
X15851015Y-14141246D01*
X15851015Y-14141246D02*
X15860539Y-14122198D01*
X15860539Y-14122198D02*
X15870063Y-14112674D01*
X15870063Y-14112674D02*
X15889110Y-14103150D01*
X15889110Y-14103150D02*
X15917682Y-14103150D01*
X15917682Y-14103150D02*
X15936730Y-14112674D01*
X15936730Y-14112674D02*
X15946253Y-14122198D01*
X15946253Y-14122198D02*
X15955777Y-14141246D01*
X15955777Y-14141246D02*
X15955777Y-14198388D01*
X15955777Y-14198388D02*
X15946253Y-14217436D01*
X15946253Y-14217436D02*
X15936730Y-14226960D01*
X15936730Y-14226960D02*
X15917682Y-14236484D01*
X15917682Y-14236484D02*
X15889110Y-14236484D01*
X16070063Y-14236484D02*
X16051015Y-14226960D01*
X16051015Y-14226960D02*
X16041491Y-14207912D01*
X16041491Y-14207912D02*
X16041491Y-14036484D01*
X16222444Y-14226960D02*
X16203396Y-14236484D01*
X16203396Y-14236484D02*
X16165301Y-14236484D01*
X16165301Y-14236484D02*
X16146253Y-14226960D01*
X16146253Y-14226960D02*
X16136730Y-14207912D01*
X16136730Y-14207912D02*
X16136730Y-14131722D01*
X16136730Y-14131722D02*
X16146253Y-14112674D01*
X16146253Y-14112674D02*
X16165301Y-14103150D01*
X16165301Y-14103150D02*
X16203396Y-14103150D01*
X16203396Y-14103150D02*
X16222444Y-14112674D01*
X16222444Y-14112674D02*
X16231968Y-14131722D01*
X16231968Y-14131722D02*
X16231968Y-14150769D01*
X16231968Y-14150769D02*
X16136730Y-14169817D01*
X16308158Y-14226960D02*
X16327206Y-14236484D01*
X16327206Y-14236484D02*
X16365301Y-14236484D01*
X16365301Y-14236484D02*
X16384349Y-14226960D01*
X16384349Y-14226960D02*
X16393872Y-14207912D01*
X16393872Y-14207912D02*
X16393872Y-14198388D01*
X16393872Y-14198388D02*
X16384349Y-14179341D01*
X16384349Y-14179341D02*
X16365301Y-14169817D01*
X16365301Y-14169817D02*
X16336730Y-14169817D01*
X16336730Y-14169817D02*
X16317682Y-14160293D01*
X16317682Y-14160293D02*
X16308158Y-14141246D01*
X16308158Y-14141246D02*
X16308158Y-14131722D01*
X16308158Y-14131722D02*
X16317682Y-14112674D01*
X16317682Y-14112674D02*
X16336730Y-14103150D01*
X16336730Y-14103150D02*
X16365301Y-14103150D01*
X16365301Y-14103150D02*
X16384349Y-14112674D01*
X16460539Y-14312674D02*
X16470063Y-14303150D01*
X16470063Y-14303150D02*
X16489111Y-14274579D01*
X16489111Y-14274579D02*
X16498634Y-14255531D01*
X16498634Y-14255531D02*
X16508158Y-14226960D01*
X16508158Y-14226960D02*
X16517682Y-14179341D01*
X16517682Y-14179341D02*
X16517682Y-14141246D01*
X16517682Y-14141246D02*
X16508158Y-14093627D01*
X16508158Y-14093627D02*
X16498634Y-14065055D01*
X16498634Y-14065055D02*
X16489111Y-14046008D01*
X16489111Y-14046008D02*
X16470063Y-14017436D01*
X16470063Y-14017436D02*
X16460539Y-14007912D01*
D10*
X11495000Y-14409000D02*
G75*
G02*
X11445000Y-14409000I-25000J0D01*
G01*
X11445000Y-14409000D02*
G75*
G02*
X11495000Y-14409000I25000J0D01*
G01*
D11*
X11793872Y-14300484D02*
X11812920Y-14300484D01*
X11812920Y-14300484D02*
X11831967Y-14310008D01*
X11831967Y-14310008D02*
X11841491Y-14319531D01*
X11841491Y-14319531D02*
X11851015Y-14338579D01*
X11851015Y-14338579D02*
X11860539Y-14376674D01*
X11860539Y-14376674D02*
X11860539Y-14424293D01*
X11860539Y-14424293D02*
X11851015Y-14462388D01*
X11851015Y-14462388D02*
X11841491Y-14481436D01*
X11841491Y-14481436D02*
X11831967Y-14490960D01*
X11831967Y-14490960D02*
X11812920Y-14500484D01*
X11812920Y-14500484D02*
X11793872Y-14500484D01*
X11793872Y-14500484D02*
X11774824Y-14490960D01*
X11774824Y-14490960D02*
X11765301Y-14481436D01*
X11765301Y-14481436D02*
X11755777Y-14462388D01*
X11755777Y-14462388D02*
X11746253Y-14424293D01*
X11746253Y-14424293D02*
X11746253Y-14376674D01*
X11746253Y-14376674D02*
X11755777Y-14338579D01*
X11755777Y-14338579D02*
X11765301Y-14319531D01*
X11765301Y-14319531D02*
X11774824Y-14310008D01*
X11774824Y-14310008D02*
X11793872Y-14300484D01*
X11946253Y-14481436D02*
X11955777Y-14490960D01*
X11955777Y-14490960D02*
X11946253Y-14500484D01*
X11946253Y-14500484D02*
X11936729Y-14490960D01*
X11936729Y-14490960D02*
X11946253Y-14481436D01*
X11946253Y-14481436D02*
X11946253Y-14500484D01*
X12136729Y-14300484D02*
X12041491Y-14300484D01*
X12041491Y-14300484D02*
X12031967Y-14395722D01*
X12031967Y-14395722D02*
X12041491Y-14386198D01*
X12041491Y-14386198D02*
X12060539Y-14376674D01*
X12060539Y-14376674D02*
X12108158Y-14376674D01*
X12108158Y-14376674D02*
X12127205Y-14386198D01*
X12127205Y-14386198D02*
X12136729Y-14395722D01*
X12136729Y-14395722D02*
X12146253Y-14414769D01*
X12146253Y-14414769D02*
X12146253Y-14462388D01*
X12146253Y-14462388D02*
X12136729Y-14481436D01*
X12136729Y-14481436D02*
X12127205Y-14490960D01*
X12127205Y-14490960D02*
X12108158Y-14500484D01*
X12108158Y-14500484D02*
X12060539Y-14500484D01*
X12060539Y-14500484D02*
X12041491Y-14490960D01*
X12041491Y-14490960D02*
X12031967Y-14481436D01*
X12270062Y-14300484D02*
X12289110Y-14300484D01*
X12289110Y-14300484D02*
X12308158Y-14310008D01*
X12308158Y-14310008D02*
X12317682Y-14319531D01*
X12317682Y-14319531D02*
X12327205Y-14338579D01*
X12327205Y-14338579D02*
X12336729Y-14376674D01*
X12336729Y-14376674D02*
X12336729Y-14424293D01*
X12336729Y-14424293D02*
X12327205Y-14462388D01*
X12327205Y-14462388D02*
X12317682Y-14481436D01*
X12317682Y-14481436D02*
X12308158Y-14490960D01*
X12308158Y-14490960D02*
X12289110Y-14500484D01*
X12289110Y-14500484D02*
X12270062Y-14500484D01*
X12270062Y-14500484D02*
X12251015Y-14490960D01*
X12251015Y-14490960D02*
X12241491Y-14481436D01*
X12241491Y-14481436D02*
X12231967Y-14462388D01*
X12231967Y-14462388D02*
X12222443Y-14424293D01*
X12222443Y-14424293D02*
X12222443Y-14376674D01*
X12222443Y-14376674D02*
X12231967Y-14338579D01*
X12231967Y-14338579D02*
X12241491Y-14319531D01*
X12241491Y-14319531D02*
X12251015Y-14310008D01*
X12251015Y-14310008D02*
X12270062Y-14300484D01*
X12460539Y-14300484D02*
X12479586Y-14300484D01*
X12479586Y-14300484D02*
X12498634Y-14310008D01*
X12498634Y-14310008D02*
X12508158Y-14319531D01*
X12508158Y-14319531D02*
X12517682Y-14338579D01*
X12517682Y-14338579D02*
X12527205Y-14376674D01*
X12527205Y-14376674D02*
X12527205Y-14424293D01*
X12527205Y-14424293D02*
X12517682Y-14462388D01*
X12517682Y-14462388D02*
X12508158Y-14481436D01*
X12508158Y-14481436D02*
X12498634Y-14490960D01*
X12498634Y-14490960D02*
X12479586Y-14500484D01*
X12479586Y-14500484D02*
X12460539Y-14500484D01*
X12460539Y-14500484D02*
X12441491Y-14490960D01*
X12441491Y-14490960D02*
X12431967Y-14481436D01*
X12431967Y-14481436D02*
X12422443Y-14462388D01*
X12422443Y-14462388D02*
X12412920Y-14424293D01*
X12412920Y-14424293D02*
X12412920Y-14376674D01*
X12412920Y-14376674D02*
X12422443Y-14338579D01*
X12422443Y-14338579D02*
X12431967Y-14319531D01*
X12431967Y-14319531D02*
X12441491Y-14310008D01*
X12441491Y-14310008D02*
X12460539Y-14300484D01*
X12612920Y-14500484D02*
X12612920Y-14367150D01*
X12612920Y-14386198D02*
X12622443Y-14376674D01*
X12622443Y-14376674D02*
X12641491Y-14367150D01*
X12641491Y-14367150D02*
X12670063Y-14367150D01*
X12670063Y-14367150D02*
X12689110Y-14376674D01*
X12689110Y-14376674D02*
X12698634Y-14395722D01*
X12698634Y-14395722D02*
X12698634Y-14500484D01*
X12698634Y-14395722D02*
X12708158Y-14376674D01*
X12708158Y-14376674D02*
X12727205Y-14367150D01*
X12727205Y-14367150D02*
X12755777Y-14367150D01*
X12755777Y-14367150D02*
X12774824Y-14376674D01*
X12774824Y-14376674D02*
X12784348Y-14395722D01*
X12784348Y-14395722D02*
X12784348Y-14500484D01*
X12879586Y-14500484D02*
X12879586Y-14367150D01*
X12879586Y-14386198D02*
X12889110Y-14376674D01*
X12889110Y-14376674D02*
X12908158Y-14367150D01*
X12908158Y-14367150D02*
X12936729Y-14367150D01*
X12936729Y-14367150D02*
X12955777Y-14376674D01*
X12955777Y-14376674D02*
X12965301Y-14395722D01*
X12965301Y-14395722D02*
X12965301Y-14500484D01*
X12965301Y-14395722D02*
X12974824Y-14376674D01*
X12974824Y-14376674D02*
X12993872Y-14367150D01*
X12993872Y-14367150D02*
X13022443Y-14367150D01*
X13022443Y-14367150D02*
X13041491Y-14376674D01*
X13041491Y-14376674D02*
X13051015Y-14395722D01*
X13051015Y-14395722D02*
X13051015Y-14500484D01*
X13441491Y-14290960D02*
X13270063Y-14548103D01*
X13698634Y-14300484D02*
X13717682Y-14300484D01*
X13717682Y-14300484D02*
X13736729Y-14310008D01*
X13736729Y-14310008D02*
X13746253Y-14319531D01*
X13746253Y-14319531D02*
X13755777Y-14338579D01*
X13755777Y-14338579D02*
X13765301Y-14376674D01*
X13765301Y-14376674D02*
X13765301Y-14424293D01*
X13765301Y-14424293D02*
X13755777Y-14462388D01*
X13755777Y-14462388D02*
X13746253Y-14481436D01*
X13746253Y-14481436D02*
X13736729Y-14490960D01*
X13736729Y-14490960D02*
X13717682Y-14500484D01*
X13717682Y-14500484D02*
X13698634Y-14500484D01*
X13698634Y-14500484D02*
X13679586Y-14490960D01*
X13679586Y-14490960D02*
X13670063Y-14481436D01*
X13670063Y-14481436D02*
X13660539Y-14462388D01*
X13660539Y-14462388D02*
X13651015Y-14424293D01*
X13651015Y-14424293D02*
X13651015Y-14376674D01*
X13651015Y-14376674D02*
X13660539Y-14338579D01*
X13660539Y-14338579D02*
X13670063Y-14319531D01*
X13670063Y-14319531D02*
X13679586Y-14310008D01*
X13679586Y-14310008D02*
X13698634Y-14300484D01*
X13851015Y-14481436D02*
X13860539Y-14490960D01*
X13860539Y-14490960D02*
X13851015Y-14500484D01*
X13851015Y-14500484D02*
X13841491Y-14490960D01*
X13841491Y-14490960D02*
X13851015Y-14481436D01*
X13851015Y-14481436D02*
X13851015Y-14500484D01*
X13984348Y-14300484D02*
X14003396Y-14300484D01*
X14003396Y-14300484D02*
X14022444Y-14310008D01*
X14022444Y-14310008D02*
X14031967Y-14319531D01*
X14031967Y-14319531D02*
X14041491Y-14338579D01*
X14041491Y-14338579D02*
X14051015Y-14376674D01*
X14051015Y-14376674D02*
X14051015Y-14424293D01*
X14051015Y-14424293D02*
X14041491Y-14462388D01*
X14041491Y-14462388D02*
X14031967Y-14481436D01*
X14031967Y-14481436D02*
X14022444Y-14490960D01*
X14022444Y-14490960D02*
X14003396Y-14500484D01*
X14003396Y-14500484D02*
X13984348Y-14500484D01*
X13984348Y-14500484D02*
X13965301Y-14490960D01*
X13965301Y-14490960D02*
X13955777Y-14481436D01*
X13955777Y-14481436D02*
X13946253Y-14462388D01*
X13946253Y-14462388D02*
X13936729Y-14424293D01*
X13936729Y-14424293D02*
X13936729Y-14376674D01*
X13936729Y-14376674D02*
X13946253Y-14338579D01*
X13946253Y-14338579D02*
X13955777Y-14319531D01*
X13955777Y-14319531D02*
X13965301Y-14310008D01*
X13965301Y-14310008D02*
X13984348Y-14300484D01*
X14241491Y-14500484D02*
X14127206Y-14500484D01*
X14184348Y-14500484D02*
X14184348Y-14300484D01*
X14184348Y-14300484D02*
X14165301Y-14329055D01*
X14165301Y-14329055D02*
X14146253Y-14348103D01*
X14146253Y-14348103D02*
X14127206Y-14357627D01*
X14336729Y-14500484D02*
X14374825Y-14500484D01*
X14374825Y-14500484D02*
X14393872Y-14490960D01*
X14393872Y-14490960D02*
X14403396Y-14481436D01*
X14403396Y-14481436D02*
X14422444Y-14452865D01*
X14422444Y-14452865D02*
X14431967Y-14414769D01*
X14431967Y-14414769D02*
X14431967Y-14338579D01*
X14431967Y-14338579D02*
X14422444Y-14319531D01*
X14422444Y-14319531D02*
X14412920Y-14310008D01*
X14412920Y-14310008D02*
X14393872Y-14300484D01*
X14393872Y-14300484D02*
X14355777Y-14300484D01*
X14355777Y-14300484D02*
X14336729Y-14310008D01*
X14336729Y-14310008D02*
X14327206Y-14319531D01*
X14327206Y-14319531D02*
X14317682Y-14338579D01*
X14317682Y-14338579D02*
X14317682Y-14386198D01*
X14317682Y-14386198D02*
X14327206Y-14405246D01*
X14327206Y-14405246D02*
X14336729Y-14414769D01*
X14336729Y-14414769D02*
X14355777Y-14424293D01*
X14355777Y-14424293D02*
X14393872Y-14424293D01*
X14393872Y-14424293D02*
X14412920Y-14414769D01*
X14412920Y-14414769D02*
X14422444Y-14405246D01*
X14422444Y-14405246D02*
X14431967Y-14386198D01*
X14498634Y-14300484D02*
X14631967Y-14300484D01*
X14631967Y-14300484D02*
X14546253Y-14500484D01*
X14698634Y-14300484D02*
X14698634Y-14338579D01*
X14774825Y-14300484D02*
X14774825Y-14338579D01*
X15070063Y-14576674D02*
X15060539Y-14567150D01*
X15060539Y-14567150D02*
X15041491Y-14538579D01*
X15041491Y-14538579D02*
X15031968Y-14519531D01*
X15031968Y-14519531D02*
X15022444Y-14490960D01*
X15022444Y-14490960D02*
X15012920Y-14443341D01*
X15012920Y-14443341D02*
X15012920Y-14405246D01*
X15012920Y-14405246D02*
X15022444Y-14357627D01*
X15022444Y-14357627D02*
X15031968Y-14329055D01*
X15031968Y-14329055D02*
X15041491Y-14310008D01*
X15041491Y-14310008D02*
X15060539Y-14281436D01*
X15060539Y-14281436D02*
X15070063Y-14271912D01*
X15136729Y-14319531D02*
X15146253Y-14310008D01*
X15146253Y-14310008D02*
X15165301Y-14300484D01*
X15165301Y-14300484D02*
X15212920Y-14300484D01*
X15212920Y-14300484D02*
X15231968Y-14310008D01*
X15231968Y-14310008D02*
X15241491Y-14319531D01*
X15241491Y-14319531D02*
X15251015Y-14338579D01*
X15251015Y-14338579D02*
X15251015Y-14357627D01*
X15251015Y-14357627D02*
X15241491Y-14386198D01*
X15241491Y-14386198D02*
X15127206Y-14500484D01*
X15127206Y-14500484D02*
X15251015Y-14500484D01*
X15317682Y-14300484D02*
X15451015Y-14300484D01*
X15451015Y-14300484D02*
X15365301Y-14500484D01*
X15679587Y-14500484D02*
X15679587Y-14300484D01*
X15765301Y-14500484D02*
X15765301Y-14395722D01*
X15765301Y-14395722D02*
X15755777Y-14376674D01*
X15755777Y-14376674D02*
X15736730Y-14367150D01*
X15736730Y-14367150D02*
X15708158Y-14367150D01*
X15708158Y-14367150D02*
X15689110Y-14376674D01*
X15689110Y-14376674D02*
X15679587Y-14386198D01*
X15889110Y-14500484D02*
X15870063Y-14490960D01*
X15870063Y-14490960D02*
X15860539Y-14481436D01*
X15860539Y-14481436D02*
X15851015Y-14462388D01*
X15851015Y-14462388D02*
X15851015Y-14405246D01*
X15851015Y-14405246D02*
X15860539Y-14386198D01*
X15860539Y-14386198D02*
X15870063Y-14376674D01*
X15870063Y-14376674D02*
X15889110Y-14367150D01*
X15889110Y-14367150D02*
X15917682Y-14367150D01*
X15917682Y-14367150D02*
X15936730Y-14376674D01*
X15936730Y-14376674D02*
X15946253Y-14386198D01*
X15946253Y-14386198D02*
X15955777Y-14405246D01*
X15955777Y-14405246D02*
X15955777Y-14462388D01*
X15955777Y-14462388D02*
X15946253Y-14481436D01*
X15946253Y-14481436D02*
X15936730Y-14490960D01*
X15936730Y-14490960D02*
X15917682Y-14500484D01*
X15917682Y-14500484D02*
X15889110Y-14500484D01*
X16070063Y-14500484D02*
X16051015Y-14490960D01*
X16051015Y-14490960D02*
X16041491Y-14471912D01*
X16041491Y-14471912D02*
X16041491Y-14300484D01*
X16222444Y-14490960D02*
X16203396Y-14500484D01*
X16203396Y-14500484D02*
X16165301Y-14500484D01*
X16165301Y-14500484D02*
X16146253Y-14490960D01*
X16146253Y-14490960D02*
X16136730Y-14471912D01*
X16136730Y-14471912D02*
X16136730Y-14395722D01*
X16136730Y-14395722D02*
X16146253Y-14376674D01*
X16146253Y-14376674D02*
X16165301Y-14367150D01*
X16165301Y-14367150D02*
X16203396Y-14367150D01*
X16203396Y-14367150D02*
X16222444Y-14376674D01*
X16222444Y-14376674D02*
X16231968Y-14395722D01*
X16231968Y-14395722D02*
X16231968Y-14414769D01*
X16231968Y-14414769D02*
X16136730Y-14433817D01*
X16308158Y-14490960D02*
X16327206Y-14500484D01*
X16327206Y-14500484D02*
X16365301Y-14500484D01*
X16365301Y-14500484D02*
X16384349Y-14490960D01*
X16384349Y-14490960D02*
X16393872Y-14471912D01*
X16393872Y-14471912D02*
X16393872Y-14462388D01*
X16393872Y-14462388D02*
X16384349Y-14443341D01*
X16384349Y-14443341D02*
X16365301Y-14433817D01*
X16365301Y-14433817D02*
X16336730Y-14433817D01*
X16336730Y-14433817D02*
X16317682Y-14424293D01*
X16317682Y-14424293D02*
X16308158Y-14405246D01*
X16308158Y-14405246D02*
X16308158Y-14395722D01*
X16308158Y-14395722D02*
X16317682Y-14376674D01*
X16317682Y-14376674D02*
X16336730Y-14367150D01*
X16336730Y-14367150D02*
X16365301Y-14367150D01*
X16365301Y-14367150D02*
X16384349Y-14376674D01*
X16460539Y-14576674D02*
X16470063Y-14567150D01*
X16470063Y-14567150D02*
X16489111Y-14538579D01*
X16489111Y-14538579D02*
X16498634Y-14519531D01*
X16498634Y-14519531D02*
X16508158Y-14490960D01*
X16508158Y-14490960D02*
X16517682Y-14443341D01*
X16517682Y-14443341D02*
X16517682Y-14405246D01*
X16517682Y-14405246D02*
X16508158Y-14357627D01*
X16508158Y-14357627D02*
X16498634Y-14329055D01*
X16498634Y-14329055D02*
X16489111Y-14310008D01*
X16489111Y-14310008D02*
X16470063Y-14281436D01*
X16470063Y-14281436D02*
X16460539Y-14271912D01*
D10*
X11445000Y-14623000D02*
X11445000Y-14723000D01*
X11395000Y-14673000D02*
X11495000Y-14673000D01*
D11*
X11860539Y-14764484D02*
X11746253Y-14764484D01*
X11803396Y-14764484D02*
X11803396Y-14564484D01*
X11803396Y-14564484D02*
X11784348Y-14593055D01*
X11784348Y-14593055D02*
X11765301Y-14612103D01*
X11765301Y-14612103D02*
X11746253Y-14621627D01*
X11946253Y-14745436D02*
X11955777Y-14754960D01*
X11955777Y-14754960D02*
X11946253Y-14764484D01*
X11946253Y-14764484D02*
X11936729Y-14754960D01*
X11936729Y-14754960D02*
X11946253Y-14745436D01*
X11946253Y-14745436D02*
X11946253Y-14764484D01*
X12079586Y-14564484D02*
X12098634Y-14564484D01*
X12098634Y-14564484D02*
X12117682Y-14574008D01*
X12117682Y-14574008D02*
X12127205Y-14583531D01*
X12127205Y-14583531D02*
X12136729Y-14602579D01*
X12136729Y-14602579D02*
X12146253Y-14640674D01*
X12146253Y-14640674D02*
X12146253Y-14688293D01*
X12146253Y-14688293D02*
X12136729Y-14726388D01*
X12136729Y-14726388D02*
X12127205Y-14745436D01*
X12127205Y-14745436D02*
X12117682Y-14754960D01*
X12117682Y-14754960D02*
X12098634Y-14764484D01*
X12098634Y-14764484D02*
X12079586Y-14764484D01*
X12079586Y-14764484D02*
X12060539Y-14754960D01*
X12060539Y-14754960D02*
X12051015Y-14745436D01*
X12051015Y-14745436D02*
X12041491Y-14726388D01*
X12041491Y-14726388D02*
X12031967Y-14688293D01*
X12031967Y-14688293D02*
X12031967Y-14640674D01*
X12031967Y-14640674D02*
X12041491Y-14602579D01*
X12041491Y-14602579D02*
X12051015Y-14583531D01*
X12051015Y-14583531D02*
X12060539Y-14574008D01*
X12060539Y-14574008D02*
X12079586Y-14564484D01*
X12270062Y-14564484D02*
X12289110Y-14564484D01*
X12289110Y-14564484D02*
X12308158Y-14574008D01*
X12308158Y-14574008D02*
X12317682Y-14583531D01*
X12317682Y-14583531D02*
X12327205Y-14602579D01*
X12327205Y-14602579D02*
X12336729Y-14640674D01*
X12336729Y-14640674D02*
X12336729Y-14688293D01*
X12336729Y-14688293D02*
X12327205Y-14726388D01*
X12327205Y-14726388D02*
X12317682Y-14745436D01*
X12317682Y-14745436D02*
X12308158Y-14754960D01*
X12308158Y-14754960D02*
X12289110Y-14764484D01*
X12289110Y-14764484D02*
X12270062Y-14764484D01*
X12270062Y-14764484D02*
X12251015Y-14754960D01*
X12251015Y-14754960D02*
X12241491Y-14745436D01*
X12241491Y-14745436D02*
X12231967Y-14726388D01*
X12231967Y-14726388D02*
X12222443Y-14688293D01*
X12222443Y-14688293D02*
X12222443Y-14640674D01*
X12222443Y-14640674D02*
X12231967Y-14602579D01*
X12231967Y-14602579D02*
X12241491Y-14583531D01*
X12241491Y-14583531D02*
X12251015Y-14574008D01*
X12251015Y-14574008D02*
X12270062Y-14564484D01*
X12460539Y-14564484D02*
X12479586Y-14564484D01*
X12479586Y-14564484D02*
X12498634Y-14574008D01*
X12498634Y-14574008D02*
X12508158Y-14583531D01*
X12508158Y-14583531D02*
X12517682Y-14602579D01*
X12517682Y-14602579D02*
X12527205Y-14640674D01*
X12527205Y-14640674D02*
X12527205Y-14688293D01*
X12527205Y-14688293D02*
X12517682Y-14726388D01*
X12517682Y-14726388D02*
X12508158Y-14745436D01*
X12508158Y-14745436D02*
X12498634Y-14754960D01*
X12498634Y-14754960D02*
X12479586Y-14764484D01*
X12479586Y-14764484D02*
X12460539Y-14764484D01*
X12460539Y-14764484D02*
X12441491Y-14754960D01*
X12441491Y-14754960D02*
X12431967Y-14745436D01*
X12431967Y-14745436D02*
X12422443Y-14726388D01*
X12422443Y-14726388D02*
X12412920Y-14688293D01*
X12412920Y-14688293D02*
X12412920Y-14640674D01*
X12412920Y-14640674D02*
X12422443Y-14602579D01*
X12422443Y-14602579D02*
X12431967Y-14583531D01*
X12431967Y-14583531D02*
X12441491Y-14574008D01*
X12441491Y-14574008D02*
X12460539Y-14564484D01*
X12612920Y-14764484D02*
X12612920Y-14631150D01*
X12612920Y-14650198D02*
X12622443Y-14640674D01*
X12622443Y-14640674D02*
X12641491Y-14631150D01*
X12641491Y-14631150D02*
X12670063Y-14631150D01*
X12670063Y-14631150D02*
X12689110Y-14640674D01*
X12689110Y-14640674D02*
X12698634Y-14659722D01*
X12698634Y-14659722D02*
X12698634Y-14764484D01*
X12698634Y-14659722D02*
X12708158Y-14640674D01*
X12708158Y-14640674D02*
X12727205Y-14631150D01*
X12727205Y-14631150D02*
X12755777Y-14631150D01*
X12755777Y-14631150D02*
X12774824Y-14640674D01*
X12774824Y-14640674D02*
X12784348Y-14659722D01*
X12784348Y-14659722D02*
X12784348Y-14764484D01*
X12879586Y-14764484D02*
X12879586Y-14631150D01*
X12879586Y-14650198D02*
X12889110Y-14640674D01*
X12889110Y-14640674D02*
X12908158Y-14631150D01*
X12908158Y-14631150D02*
X12936729Y-14631150D01*
X12936729Y-14631150D02*
X12955777Y-14640674D01*
X12955777Y-14640674D02*
X12965301Y-14659722D01*
X12965301Y-14659722D02*
X12965301Y-14764484D01*
X12965301Y-14659722D02*
X12974824Y-14640674D01*
X12974824Y-14640674D02*
X12993872Y-14631150D01*
X12993872Y-14631150D02*
X13022443Y-14631150D01*
X13022443Y-14631150D02*
X13041491Y-14640674D01*
X13041491Y-14640674D02*
X13051015Y-14659722D01*
X13051015Y-14659722D02*
X13051015Y-14764484D01*
X13441491Y-14554960D02*
X13270063Y-14812103D01*
X13698634Y-14564484D02*
X13717682Y-14564484D01*
X13717682Y-14564484D02*
X13736729Y-14574008D01*
X13736729Y-14574008D02*
X13746253Y-14583531D01*
X13746253Y-14583531D02*
X13755777Y-14602579D01*
X13755777Y-14602579D02*
X13765301Y-14640674D01*
X13765301Y-14640674D02*
X13765301Y-14688293D01*
X13765301Y-14688293D02*
X13755777Y-14726388D01*
X13755777Y-14726388D02*
X13746253Y-14745436D01*
X13746253Y-14745436D02*
X13736729Y-14754960D01*
X13736729Y-14754960D02*
X13717682Y-14764484D01*
X13717682Y-14764484D02*
X13698634Y-14764484D01*
X13698634Y-14764484D02*
X13679586Y-14754960D01*
X13679586Y-14754960D02*
X13670063Y-14745436D01*
X13670063Y-14745436D02*
X13660539Y-14726388D01*
X13660539Y-14726388D02*
X13651015Y-14688293D01*
X13651015Y-14688293D02*
X13651015Y-14640674D01*
X13651015Y-14640674D02*
X13660539Y-14602579D01*
X13660539Y-14602579D02*
X13670063Y-14583531D01*
X13670063Y-14583531D02*
X13679586Y-14574008D01*
X13679586Y-14574008D02*
X13698634Y-14564484D01*
X13851015Y-14745436D02*
X13860539Y-14754960D01*
X13860539Y-14754960D02*
X13851015Y-14764484D01*
X13851015Y-14764484D02*
X13841491Y-14754960D01*
X13841491Y-14754960D02*
X13851015Y-14745436D01*
X13851015Y-14745436D02*
X13851015Y-14764484D01*
X13984348Y-14564484D02*
X14003396Y-14564484D01*
X14003396Y-14564484D02*
X14022444Y-14574008D01*
X14022444Y-14574008D02*
X14031967Y-14583531D01*
X14031967Y-14583531D02*
X14041491Y-14602579D01*
X14041491Y-14602579D02*
X14051015Y-14640674D01*
X14051015Y-14640674D02*
X14051015Y-14688293D01*
X14051015Y-14688293D02*
X14041491Y-14726388D01*
X14041491Y-14726388D02*
X14031967Y-14745436D01*
X14031967Y-14745436D02*
X14022444Y-14754960D01*
X14022444Y-14754960D02*
X14003396Y-14764484D01*
X14003396Y-14764484D02*
X13984348Y-14764484D01*
X13984348Y-14764484D02*
X13965301Y-14754960D01*
X13965301Y-14754960D02*
X13955777Y-14745436D01*
X13955777Y-14745436D02*
X13946253Y-14726388D01*
X13946253Y-14726388D02*
X13936729Y-14688293D01*
X13936729Y-14688293D02*
X13936729Y-14640674D01*
X13936729Y-14640674D02*
X13946253Y-14602579D01*
X13946253Y-14602579D02*
X13955777Y-14583531D01*
X13955777Y-14583531D02*
X13965301Y-14574008D01*
X13965301Y-14574008D02*
X13984348Y-14564484D01*
X14117682Y-14564484D02*
X14241491Y-14564484D01*
X14241491Y-14564484D02*
X14174825Y-14640674D01*
X14174825Y-14640674D02*
X14203396Y-14640674D01*
X14203396Y-14640674D02*
X14222444Y-14650198D01*
X14222444Y-14650198D02*
X14231967Y-14659722D01*
X14231967Y-14659722D02*
X14241491Y-14678769D01*
X14241491Y-14678769D02*
X14241491Y-14726388D01*
X14241491Y-14726388D02*
X14231967Y-14745436D01*
X14231967Y-14745436D02*
X14222444Y-14754960D01*
X14222444Y-14754960D02*
X14203396Y-14764484D01*
X14203396Y-14764484D02*
X14146253Y-14764484D01*
X14146253Y-14764484D02*
X14127206Y-14754960D01*
X14127206Y-14754960D02*
X14117682Y-14745436D01*
X14336729Y-14764484D02*
X14374825Y-14764484D01*
X14374825Y-14764484D02*
X14393872Y-14754960D01*
X14393872Y-14754960D02*
X14403396Y-14745436D01*
X14403396Y-14745436D02*
X14422444Y-14716865D01*
X14422444Y-14716865D02*
X14431967Y-14678769D01*
X14431967Y-14678769D02*
X14431967Y-14602579D01*
X14431967Y-14602579D02*
X14422444Y-14583531D01*
X14422444Y-14583531D02*
X14412920Y-14574008D01*
X14412920Y-14574008D02*
X14393872Y-14564484D01*
X14393872Y-14564484D02*
X14355777Y-14564484D01*
X14355777Y-14564484D02*
X14336729Y-14574008D01*
X14336729Y-14574008D02*
X14327206Y-14583531D01*
X14327206Y-14583531D02*
X14317682Y-14602579D01*
X14317682Y-14602579D02*
X14317682Y-14650198D01*
X14317682Y-14650198D02*
X14327206Y-14669246D01*
X14327206Y-14669246D02*
X14336729Y-14678769D01*
X14336729Y-14678769D02*
X14355777Y-14688293D01*
X14355777Y-14688293D02*
X14393872Y-14688293D01*
X14393872Y-14688293D02*
X14412920Y-14678769D01*
X14412920Y-14678769D02*
X14422444Y-14669246D01*
X14422444Y-14669246D02*
X14431967Y-14650198D01*
X14603396Y-14631150D02*
X14603396Y-14764484D01*
X14555777Y-14554960D02*
X14508158Y-14697817D01*
X14508158Y-14697817D02*
X14631967Y-14697817D01*
X14698634Y-14564484D02*
X14698634Y-14602579D01*
X14774825Y-14564484D02*
X14774825Y-14602579D01*
X15070063Y-14840674D02*
X15060539Y-14831150D01*
X15060539Y-14831150D02*
X15041491Y-14802579D01*
X15041491Y-14802579D02*
X15031968Y-14783531D01*
X15031968Y-14783531D02*
X15022444Y-14754960D01*
X15022444Y-14754960D02*
X15012920Y-14707341D01*
X15012920Y-14707341D02*
X15012920Y-14669246D01*
X15012920Y-14669246D02*
X15022444Y-14621627D01*
X15022444Y-14621627D02*
X15031968Y-14593055D01*
X15031968Y-14593055D02*
X15041491Y-14574008D01*
X15041491Y-14574008D02*
X15060539Y-14545436D01*
X15060539Y-14545436D02*
X15070063Y-14535912D01*
X15231968Y-14564484D02*
X15193872Y-14564484D01*
X15193872Y-14564484D02*
X15174825Y-14574008D01*
X15174825Y-14574008D02*
X15165301Y-14583531D01*
X15165301Y-14583531D02*
X15146253Y-14612103D01*
X15146253Y-14612103D02*
X15136729Y-14650198D01*
X15136729Y-14650198D02*
X15136729Y-14726388D01*
X15136729Y-14726388D02*
X15146253Y-14745436D01*
X15146253Y-14745436D02*
X15155777Y-14754960D01*
X15155777Y-14754960D02*
X15174825Y-14764484D01*
X15174825Y-14764484D02*
X15212920Y-14764484D01*
X15212920Y-14764484D02*
X15231968Y-14754960D01*
X15231968Y-14754960D02*
X15241491Y-14745436D01*
X15241491Y-14745436D02*
X15251015Y-14726388D01*
X15251015Y-14726388D02*
X15251015Y-14678769D01*
X15251015Y-14678769D02*
X15241491Y-14659722D01*
X15241491Y-14659722D02*
X15231968Y-14650198D01*
X15231968Y-14650198D02*
X15212920Y-14640674D01*
X15212920Y-14640674D02*
X15174825Y-14640674D01*
X15174825Y-14640674D02*
X15155777Y-14650198D01*
X15155777Y-14650198D02*
X15146253Y-14659722D01*
X15146253Y-14659722D02*
X15136729Y-14678769D01*
X15441491Y-14764484D02*
X15327206Y-14764484D01*
X15384348Y-14764484D02*
X15384348Y-14564484D01*
X15384348Y-14564484D02*
X15365301Y-14593055D01*
X15365301Y-14593055D02*
X15346253Y-14612103D01*
X15346253Y-14612103D02*
X15327206Y-14621627D01*
X15679587Y-14764484D02*
X15679587Y-14564484D01*
X15765301Y-14764484D02*
X15765301Y-14659722D01*
X15765301Y-14659722D02*
X15755777Y-14640674D01*
X15755777Y-14640674D02*
X15736730Y-14631150D01*
X15736730Y-14631150D02*
X15708158Y-14631150D01*
X15708158Y-14631150D02*
X15689110Y-14640674D01*
X15689110Y-14640674D02*
X15679587Y-14650198D01*
X15889110Y-14764484D02*
X15870063Y-14754960D01*
X15870063Y-14754960D02*
X15860539Y-14745436D01*
X15860539Y-14745436D02*
X15851015Y-14726388D01*
X15851015Y-14726388D02*
X15851015Y-14669246D01*
X15851015Y-14669246D02*
X15860539Y-14650198D01*
X15860539Y-14650198D02*
X15870063Y-14640674D01*
X15870063Y-14640674D02*
X15889110Y-14631150D01*
X15889110Y-14631150D02*
X15917682Y-14631150D01*
X15917682Y-14631150D02*
X15936730Y-14640674D01*
X15936730Y-14640674D02*
X15946253Y-14650198D01*
X15946253Y-14650198D02*
X15955777Y-14669246D01*
X15955777Y-14669246D02*
X15955777Y-14726388D01*
X15955777Y-14726388D02*
X15946253Y-14745436D01*
X15946253Y-14745436D02*
X15936730Y-14754960D01*
X15936730Y-14754960D02*
X15917682Y-14764484D01*
X15917682Y-14764484D02*
X15889110Y-14764484D01*
X16070063Y-14764484D02*
X16051015Y-14754960D01*
X16051015Y-14754960D02*
X16041491Y-14735912D01*
X16041491Y-14735912D02*
X16041491Y-14564484D01*
X16222444Y-14754960D02*
X16203396Y-14764484D01*
X16203396Y-14764484D02*
X16165301Y-14764484D01*
X16165301Y-14764484D02*
X16146253Y-14754960D01*
X16146253Y-14754960D02*
X16136730Y-14735912D01*
X16136730Y-14735912D02*
X16136730Y-14659722D01*
X16136730Y-14659722D02*
X16146253Y-14640674D01*
X16146253Y-14640674D02*
X16165301Y-14631150D01*
X16165301Y-14631150D02*
X16203396Y-14631150D01*
X16203396Y-14631150D02*
X16222444Y-14640674D01*
X16222444Y-14640674D02*
X16231968Y-14659722D01*
X16231968Y-14659722D02*
X16231968Y-14678769D01*
X16231968Y-14678769D02*
X16136730Y-14697817D01*
X16308158Y-14754960D02*
X16327206Y-14764484D01*
X16327206Y-14764484D02*
X16365301Y-14764484D01*
X16365301Y-14764484D02*
X16384349Y-14754960D01*
X16384349Y-14754960D02*
X16393872Y-14735912D01*
X16393872Y-14735912D02*
X16393872Y-14726388D01*
X16393872Y-14726388D02*
X16384349Y-14707341D01*
X16384349Y-14707341D02*
X16365301Y-14697817D01*
X16365301Y-14697817D02*
X16336730Y-14697817D01*
X16336730Y-14697817D02*
X16317682Y-14688293D01*
X16317682Y-14688293D02*
X16308158Y-14669246D01*
X16308158Y-14669246D02*
X16308158Y-14659722D01*
X16308158Y-14659722D02*
X16317682Y-14640674D01*
X16317682Y-14640674D02*
X16336730Y-14631150D01*
X16336730Y-14631150D02*
X16365301Y-14631150D01*
X16365301Y-14631150D02*
X16384349Y-14640674D01*
X16460539Y-14840674D02*
X16470063Y-14831150D01*
X16470063Y-14831150D02*
X16489111Y-14802579D01*
X16489111Y-14802579D02*
X16498634Y-14783531D01*
X16498634Y-14783531D02*
X16508158Y-14754960D01*
X16508158Y-14754960D02*
X16517682Y-14707341D01*
X16517682Y-14707341D02*
X16517682Y-14669246D01*
X16517682Y-14669246D02*
X16508158Y-14621627D01*
X16508158Y-14621627D02*
X16498634Y-14593055D01*
X16498634Y-14593055D02*
X16489111Y-14574008D01*
X16489111Y-14574008D02*
X16470063Y-14545436D01*
X16470063Y-14545436D02*
X16460539Y-14535912D01*
D12*
X11473033Y-14990033D02*
X11473033Y-14883966D01*
X11366966Y-14883966D01*
X11366966Y-14990033D01*
X11473033Y-14990033D01*
D11*
X11860539Y-15028484D02*
X11746253Y-15028484D01*
X11803396Y-15028484D02*
X11803396Y-14828484D01*
X11803396Y-14828484D02*
X11784348Y-14857055D01*
X11784348Y-14857055D02*
X11765301Y-14876103D01*
X11765301Y-14876103D02*
X11746253Y-14885627D01*
X11946253Y-15009436D02*
X11955777Y-15018960D01*
X11955777Y-15018960D02*
X11946253Y-15028484D01*
X11946253Y-15028484D02*
X11936729Y-15018960D01*
X11936729Y-15018960D02*
X11946253Y-15009436D01*
X11946253Y-15009436D02*
X11946253Y-15028484D01*
X12136729Y-14828484D02*
X12041491Y-14828484D01*
X12041491Y-14828484D02*
X12031967Y-14923722D01*
X12031967Y-14923722D02*
X12041491Y-14914198D01*
X12041491Y-14914198D02*
X12060539Y-14904674D01*
X12060539Y-14904674D02*
X12108158Y-14904674D01*
X12108158Y-14904674D02*
X12127205Y-14914198D01*
X12127205Y-14914198D02*
X12136729Y-14923722D01*
X12136729Y-14923722D02*
X12146253Y-14942769D01*
X12146253Y-14942769D02*
X12146253Y-14990388D01*
X12146253Y-14990388D02*
X12136729Y-15009436D01*
X12136729Y-15009436D02*
X12127205Y-15018960D01*
X12127205Y-15018960D02*
X12108158Y-15028484D01*
X12108158Y-15028484D02*
X12060539Y-15028484D01*
X12060539Y-15028484D02*
X12041491Y-15018960D01*
X12041491Y-15018960D02*
X12031967Y-15009436D01*
X12270062Y-14828484D02*
X12289110Y-14828484D01*
X12289110Y-14828484D02*
X12308158Y-14838008D01*
X12308158Y-14838008D02*
X12317682Y-14847531D01*
X12317682Y-14847531D02*
X12327205Y-14866579D01*
X12327205Y-14866579D02*
X12336729Y-14904674D01*
X12336729Y-14904674D02*
X12336729Y-14952293D01*
X12336729Y-14952293D02*
X12327205Y-14990388D01*
X12327205Y-14990388D02*
X12317682Y-15009436D01*
X12317682Y-15009436D02*
X12308158Y-15018960D01*
X12308158Y-15018960D02*
X12289110Y-15028484D01*
X12289110Y-15028484D02*
X12270062Y-15028484D01*
X12270062Y-15028484D02*
X12251015Y-15018960D01*
X12251015Y-15018960D02*
X12241491Y-15009436D01*
X12241491Y-15009436D02*
X12231967Y-14990388D01*
X12231967Y-14990388D02*
X12222443Y-14952293D01*
X12222443Y-14952293D02*
X12222443Y-14904674D01*
X12222443Y-14904674D02*
X12231967Y-14866579D01*
X12231967Y-14866579D02*
X12241491Y-14847531D01*
X12241491Y-14847531D02*
X12251015Y-14838008D01*
X12251015Y-14838008D02*
X12270062Y-14828484D01*
X12460539Y-14828484D02*
X12479586Y-14828484D01*
X12479586Y-14828484D02*
X12498634Y-14838008D01*
X12498634Y-14838008D02*
X12508158Y-14847531D01*
X12508158Y-14847531D02*
X12517682Y-14866579D01*
X12517682Y-14866579D02*
X12527205Y-14904674D01*
X12527205Y-14904674D02*
X12527205Y-14952293D01*
X12527205Y-14952293D02*
X12517682Y-14990388D01*
X12517682Y-14990388D02*
X12508158Y-15009436D01*
X12508158Y-15009436D02*
X12498634Y-15018960D01*
X12498634Y-15018960D02*
X12479586Y-15028484D01*
X12479586Y-15028484D02*
X12460539Y-15028484D01*
X12460539Y-15028484D02*
X12441491Y-15018960D01*
X12441491Y-15018960D02*
X12431967Y-15009436D01*
X12431967Y-15009436D02*
X12422443Y-14990388D01*
X12422443Y-14990388D02*
X12412920Y-14952293D01*
X12412920Y-14952293D02*
X12412920Y-14904674D01*
X12412920Y-14904674D02*
X12422443Y-14866579D01*
X12422443Y-14866579D02*
X12431967Y-14847531D01*
X12431967Y-14847531D02*
X12441491Y-14838008D01*
X12441491Y-14838008D02*
X12460539Y-14828484D01*
X12612920Y-15028484D02*
X12612920Y-14895150D01*
X12612920Y-14914198D02*
X12622443Y-14904674D01*
X12622443Y-14904674D02*
X12641491Y-14895150D01*
X12641491Y-14895150D02*
X12670063Y-14895150D01*
X12670063Y-14895150D02*
X12689110Y-14904674D01*
X12689110Y-14904674D02*
X12698634Y-14923722D01*
X12698634Y-14923722D02*
X12698634Y-15028484D01*
X12698634Y-14923722D02*
X12708158Y-14904674D01*
X12708158Y-14904674D02*
X12727205Y-14895150D01*
X12727205Y-14895150D02*
X12755777Y-14895150D01*
X12755777Y-14895150D02*
X12774824Y-14904674D01*
X12774824Y-14904674D02*
X12784348Y-14923722D01*
X12784348Y-14923722D02*
X12784348Y-15028484D01*
X12879586Y-15028484D02*
X12879586Y-14895150D01*
X12879586Y-14914198D02*
X12889110Y-14904674D01*
X12889110Y-14904674D02*
X12908158Y-14895150D01*
X12908158Y-14895150D02*
X12936729Y-14895150D01*
X12936729Y-14895150D02*
X12955777Y-14904674D01*
X12955777Y-14904674D02*
X12965301Y-14923722D01*
X12965301Y-14923722D02*
X12965301Y-15028484D01*
X12965301Y-14923722D02*
X12974824Y-14904674D01*
X12974824Y-14904674D02*
X12993872Y-14895150D01*
X12993872Y-14895150D02*
X13022443Y-14895150D01*
X13022443Y-14895150D02*
X13041491Y-14904674D01*
X13041491Y-14904674D02*
X13051015Y-14923722D01*
X13051015Y-14923722D02*
X13051015Y-15028484D01*
X13441491Y-14818960D02*
X13270063Y-15076103D01*
X13698634Y-14828484D02*
X13717682Y-14828484D01*
X13717682Y-14828484D02*
X13736729Y-14838008D01*
X13736729Y-14838008D02*
X13746253Y-14847531D01*
X13746253Y-14847531D02*
X13755777Y-14866579D01*
X13755777Y-14866579D02*
X13765301Y-14904674D01*
X13765301Y-14904674D02*
X13765301Y-14952293D01*
X13765301Y-14952293D02*
X13755777Y-14990388D01*
X13755777Y-14990388D02*
X13746253Y-15009436D01*
X13746253Y-15009436D02*
X13736729Y-15018960D01*
X13736729Y-15018960D02*
X13717682Y-15028484D01*
X13717682Y-15028484D02*
X13698634Y-15028484D01*
X13698634Y-15028484D02*
X13679586Y-15018960D01*
X13679586Y-15018960D02*
X13670063Y-15009436D01*
X13670063Y-15009436D02*
X13660539Y-14990388D01*
X13660539Y-14990388D02*
X13651015Y-14952293D01*
X13651015Y-14952293D02*
X13651015Y-14904674D01*
X13651015Y-14904674D02*
X13660539Y-14866579D01*
X13660539Y-14866579D02*
X13670063Y-14847531D01*
X13670063Y-14847531D02*
X13679586Y-14838008D01*
X13679586Y-14838008D02*
X13698634Y-14828484D01*
X13851015Y-15009436D02*
X13860539Y-15018960D01*
X13860539Y-15018960D02*
X13851015Y-15028484D01*
X13851015Y-15028484D02*
X13841491Y-15018960D01*
X13841491Y-15018960D02*
X13851015Y-15009436D01*
X13851015Y-15009436D02*
X13851015Y-15028484D01*
X13984348Y-14828484D02*
X14003396Y-14828484D01*
X14003396Y-14828484D02*
X14022444Y-14838008D01*
X14022444Y-14838008D02*
X14031967Y-14847531D01*
X14031967Y-14847531D02*
X14041491Y-14866579D01*
X14041491Y-14866579D02*
X14051015Y-14904674D01*
X14051015Y-14904674D02*
X14051015Y-14952293D01*
X14051015Y-14952293D02*
X14041491Y-14990388D01*
X14041491Y-14990388D02*
X14031967Y-15009436D01*
X14031967Y-15009436D02*
X14022444Y-15018960D01*
X14022444Y-15018960D02*
X14003396Y-15028484D01*
X14003396Y-15028484D02*
X13984348Y-15028484D01*
X13984348Y-15028484D02*
X13965301Y-15018960D01*
X13965301Y-15018960D02*
X13955777Y-15009436D01*
X13955777Y-15009436D02*
X13946253Y-14990388D01*
X13946253Y-14990388D02*
X13936729Y-14952293D01*
X13936729Y-14952293D02*
X13936729Y-14904674D01*
X13936729Y-14904674D02*
X13946253Y-14866579D01*
X13946253Y-14866579D02*
X13955777Y-14847531D01*
X13955777Y-14847531D02*
X13965301Y-14838008D01*
X13965301Y-14838008D02*
X13984348Y-14828484D01*
X14231967Y-14828484D02*
X14136729Y-14828484D01*
X14136729Y-14828484D02*
X14127206Y-14923722D01*
X14127206Y-14923722D02*
X14136729Y-14914198D01*
X14136729Y-14914198D02*
X14155777Y-14904674D01*
X14155777Y-14904674D02*
X14203396Y-14904674D01*
X14203396Y-14904674D02*
X14222444Y-14914198D01*
X14222444Y-14914198D02*
X14231967Y-14923722D01*
X14231967Y-14923722D02*
X14241491Y-14942769D01*
X14241491Y-14942769D02*
X14241491Y-14990388D01*
X14241491Y-14990388D02*
X14231967Y-15009436D01*
X14231967Y-15009436D02*
X14222444Y-15018960D01*
X14222444Y-15018960D02*
X14203396Y-15028484D01*
X14203396Y-15028484D02*
X14155777Y-15028484D01*
X14155777Y-15028484D02*
X14136729Y-15018960D01*
X14136729Y-15018960D02*
X14127206Y-15009436D01*
X14336729Y-15028484D02*
X14374825Y-15028484D01*
X14374825Y-15028484D02*
X14393872Y-15018960D01*
X14393872Y-15018960D02*
X14403396Y-15009436D01*
X14403396Y-15009436D02*
X14422444Y-14980865D01*
X14422444Y-14980865D02*
X14431967Y-14942769D01*
X14431967Y-14942769D02*
X14431967Y-14866579D01*
X14431967Y-14866579D02*
X14422444Y-14847531D01*
X14422444Y-14847531D02*
X14412920Y-14838008D01*
X14412920Y-14838008D02*
X14393872Y-14828484D01*
X14393872Y-14828484D02*
X14355777Y-14828484D01*
X14355777Y-14828484D02*
X14336729Y-14838008D01*
X14336729Y-14838008D02*
X14327206Y-14847531D01*
X14327206Y-14847531D02*
X14317682Y-14866579D01*
X14317682Y-14866579D02*
X14317682Y-14914198D01*
X14317682Y-14914198D02*
X14327206Y-14933246D01*
X14327206Y-14933246D02*
X14336729Y-14942769D01*
X14336729Y-14942769D02*
X14355777Y-14952293D01*
X14355777Y-14952293D02*
X14393872Y-14952293D01*
X14393872Y-14952293D02*
X14412920Y-14942769D01*
X14412920Y-14942769D02*
X14422444Y-14933246D01*
X14422444Y-14933246D02*
X14431967Y-14914198D01*
X14622444Y-15028484D02*
X14508158Y-15028484D01*
X14565301Y-15028484D02*
X14565301Y-14828484D01*
X14565301Y-14828484D02*
X14546253Y-14857055D01*
X14546253Y-14857055D02*
X14527206Y-14876103D01*
X14527206Y-14876103D02*
X14508158Y-14885627D01*
X14698634Y-14828484D02*
X14698634Y-14866579D01*
X14774825Y-14828484D02*
X14774825Y-14866579D01*
X15070063Y-15104674D02*
X15060539Y-15095150D01*
X15060539Y-15095150D02*
X15041491Y-15066579D01*
X15041491Y-15066579D02*
X15031968Y-15047531D01*
X15031968Y-15047531D02*
X15022444Y-15018960D01*
X15022444Y-15018960D02*
X15012920Y-14971341D01*
X15012920Y-14971341D02*
X15012920Y-14933246D01*
X15012920Y-14933246D02*
X15022444Y-14885627D01*
X15022444Y-14885627D02*
X15031968Y-14857055D01*
X15031968Y-14857055D02*
X15041491Y-14838008D01*
X15041491Y-14838008D02*
X15060539Y-14809436D01*
X15060539Y-14809436D02*
X15070063Y-14799912D01*
X15231968Y-14828484D02*
X15193872Y-14828484D01*
X15193872Y-14828484D02*
X15174825Y-14838008D01*
X15174825Y-14838008D02*
X15165301Y-14847531D01*
X15165301Y-14847531D02*
X15146253Y-14876103D01*
X15146253Y-14876103D02*
X15136729Y-14914198D01*
X15136729Y-14914198D02*
X15136729Y-14990388D01*
X15136729Y-14990388D02*
X15146253Y-15009436D01*
X15146253Y-15009436D02*
X15155777Y-15018960D01*
X15155777Y-15018960D02*
X15174825Y-15028484D01*
X15174825Y-15028484D02*
X15212920Y-15028484D01*
X15212920Y-15028484D02*
X15231968Y-15018960D01*
X15231968Y-15018960D02*
X15241491Y-15009436D01*
X15241491Y-15009436D02*
X15251015Y-14990388D01*
X15251015Y-14990388D02*
X15251015Y-14942769D01*
X15251015Y-14942769D02*
X15241491Y-14923722D01*
X15241491Y-14923722D02*
X15231968Y-14914198D01*
X15231968Y-14914198D02*
X15212920Y-14904674D01*
X15212920Y-14904674D02*
X15174825Y-14904674D01*
X15174825Y-14904674D02*
X15155777Y-14914198D01*
X15155777Y-14914198D02*
X15146253Y-14923722D01*
X15146253Y-14923722D02*
X15136729Y-14942769D01*
X15489110Y-15028484D02*
X15489110Y-14828484D01*
X15574825Y-15028484D02*
X15574825Y-14923722D01*
X15574825Y-14923722D02*
X15565301Y-14904674D01*
X15565301Y-14904674D02*
X15546253Y-14895150D01*
X15546253Y-14895150D02*
X15517682Y-14895150D01*
X15517682Y-14895150D02*
X15498634Y-14904674D01*
X15498634Y-14904674D02*
X15489110Y-14914198D01*
X15698634Y-15028484D02*
X15679587Y-15018960D01*
X15679587Y-15018960D02*
X15670063Y-15009436D01*
X15670063Y-15009436D02*
X15660539Y-14990388D01*
X15660539Y-14990388D02*
X15660539Y-14933246D01*
X15660539Y-14933246D02*
X15670063Y-14914198D01*
X15670063Y-14914198D02*
X15679587Y-14904674D01*
X15679587Y-14904674D02*
X15698634Y-14895150D01*
X15698634Y-14895150D02*
X15727206Y-14895150D01*
X15727206Y-14895150D02*
X15746253Y-14904674D01*
X15746253Y-14904674D02*
X15755777Y-14914198D01*
X15755777Y-14914198D02*
X15765301Y-14933246D01*
X15765301Y-14933246D02*
X15765301Y-14990388D01*
X15765301Y-14990388D02*
X15755777Y-15009436D01*
X15755777Y-15009436D02*
X15746253Y-15018960D01*
X15746253Y-15018960D02*
X15727206Y-15028484D01*
X15727206Y-15028484D02*
X15698634Y-15028484D01*
X15879587Y-15028484D02*
X15860539Y-15018960D01*
X15860539Y-15018960D02*
X15851015Y-14999912D01*
X15851015Y-14999912D02*
X15851015Y-14828484D01*
X16031968Y-15018960D02*
X16012920Y-15028484D01*
X16012920Y-15028484D02*
X15974825Y-15028484D01*
X15974825Y-15028484D02*
X15955777Y-15018960D01*
X15955777Y-15018960D02*
X15946253Y-14999912D01*
X15946253Y-14999912D02*
X15946253Y-14923722D01*
X15946253Y-14923722D02*
X15955777Y-14904674D01*
X15955777Y-14904674D02*
X15974825Y-14895150D01*
X15974825Y-14895150D02*
X16012920Y-14895150D01*
X16012920Y-14895150D02*
X16031968Y-14904674D01*
X16031968Y-14904674D02*
X16041491Y-14923722D01*
X16041491Y-14923722D02*
X16041491Y-14942769D01*
X16041491Y-14942769D02*
X15946253Y-14961817D01*
X16117682Y-15018960D02*
X16136730Y-15028484D01*
X16136730Y-15028484D02*
X16174825Y-15028484D01*
X16174825Y-15028484D02*
X16193872Y-15018960D01*
X16193872Y-15018960D02*
X16203396Y-14999912D01*
X16203396Y-14999912D02*
X16203396Y-14990388D01*
X16203396Y-14990388D02*
X16193872Y-14971341D01*
X16193872Y-14971341D02*
X16174825Y-14961817D01*
X16174825Y-14961817D02*
X16146253Y-14961817D01*
X16146253Y-14961817D02*
X16127206Y-14952293D01*
X16127206Y-14952293D02*
X16117682Y-14933246D01*
X16117682Y-14933246D02*
X16117682Y-14923722D01*
X16117682Y-14923722D02*
X16127206Y-14904674D01*
X16127206Y-14904674D02*
X16146253Y-14895150D01*
X16146253Y-14895150D02*
X16174825Y-14895150D01*
X16174825Y-14895150D02*
X16193872Y-14904674D01*
X16270063Y-15104674D02*
X16279587Y-15095150D01*
X16279587Y-15095150D02*
X16298634Y-15066579D01*
X16298634Y-15066579D02*
X16308158Y-15047531D01*
X16308158Y-15047531D02*
X16317682Y-15018960D01*
X16317682Y-15018960D02*
X16327206Y-14971341D01*
X16327206Y-14971341D02*
X16327206Y-14933246D01*
X16327206Y-14933246D02*
X16317682Y-14885627D01*
X16317682Y-14885627D02*
X16308158Y-14857055D01*
X16308158Y-14857055D02*
X16298634Y-14838008D01*
X16298634Y-14838008D02*
X16279587Y-14809436D01*
X16279587Y-14809436D02*
X16270063Y-14799912D01*
X11395000Y-15307000D02*
X11495000Y-15207000D01*
X11395000Y-15107000D01*
X11295000Y-15207000D01*
X11395000Y-15307000D01*
X11746253Y-15117531D02*
X11755777Y-15108008D01*
X11755777Y-15108008D02*
X11774824Y-15098484D01*
X11774824Y-15098484D02*
X11822443Y-15098484D01*
X11822443Y-15098484D02*
X11841491Y-15108008D01*
X11841491Y-15108008D02*
X11851015Y-15117531D01*
X11851015Y-15117531D02*
X11860539Y-15136579D01*
X11860539Y-15136579D02*
X11860539Y-15155627D01*
X11860539Y-15155627D02*
X11851015Y-15184198D01*
X11851015Y-15184198D02*
X11736729Y-15298484D01*
X11736729Y-15298484D02*
X11860539Y-15298484D01*
X11946253Y-15279436D02*
X11955777Y-15288960D01*
X11955777Y-15288960D02*
X11946253Y-15298484D01*
X11946253Y-15298484D02*
X11936729Y-15288960D01*
X11936729Y-15288960D02*
X11946253Y-15279436D01*
X11946253Y-15279436D02*
X11946253Y-15298484D01*
X12051015Y-15298484D02*
X12089110Y-15298484D01*
X12089110Y-15298484D02*
X12108158Y-15288960D01*
X12108158Y-15288960D02*
X12117682Y-15279436D01*
X12117682Y-15279436D02*
X12136729Y-15250865D01*
X12136729Y-15250865D02*
X12146253Y-15212769D01*
X12146253Y-15212769D02*
X12146253Y-15136579D01*
X12146253Y-15136579D02*
X12136729Y-15117531D01*
X12136729Y-15117531D02*
X12127205Y-15108008D01*
X12127205Y-15108008D02*
X12108158Y-15098484D01*
X12108158Y-15098484D02*
X12070062Y-15098484D01*
X12070062Y-15098484D02*
X12051015Y-15108008D01*
X12051015Y-15108008D02*
X12041491Y-15117531D01*
X12041491Y-15117531D02*
X12031967Y-15136579D01*
X12031967Y-15136579D02*
X12031967Y-15184198D01*
X12031967Y-15184198D02*
X12041491Y-15203246D01*
X12041491Y-15203246D02*
X12051015Y-15212769D01*
X12051015Y-15212769D02*
X12070062Y-15222293D01*
X12070062Y-15222293D02*
X12108158Y-15222293D01*
X12108158Y-15222293D02*
X12127205Y-15212769D01*
X12127205Y-15212769D02*
X12136729Y-15203246D01*
X12136729Y-15203246D02*
X12146253Y-15184198D01*
X12270062Y-15098484D02*
X12289110Y-15098484D01*
X12289110Y-15098484D02*
X12308158Y-15108008D01*
X12308158Y-15108008D02*
X12317682Y-15117531D01*
X12317682Y-15117531D02*
X12327205Y-15136579D01*
X12327205Y-15136579D02*
X12336729Y-15174674D01*
X12336729Y-15174674D02*
X12336729Y-15222293D01*
X12336729Y-15222293D02*
X12327205Y-15260388D01*
X12327205Y-15260388D02*
X12317682Y-15279436D01*
X12317682Y-15279436D02*
X12308158Y-15288960D01*
X12308158Y-15288960D02*
X12289110Y-15298484D01*
X12289110Y-15298484D02*
X12270062Y-15298484D01*
X12270062Y-15298484D02*
X12251015Y-15288960D01*
X12251015Y-15288960D02*
X12241491Y-15279436D01*
X12241491Y-15279436D02*
X12231967Y-15260388D01*
X12231967Y-15260388D02*
X12222443Y-15222293D01*
X12222443Y-15222293D02*
X12222443Y-15174674D01*
X12222443Y-15174674D02*
X12231967Y-15136579D01*
X12231967Y-15136579D02*
X12241491Y-15117531D01*
X12241491Y-15117531D02*
X12251015Y-15108008D01*
X12251015Y-15108008D02*
X12270062Y-15098484D01*
X12460539Y-15098484D02*
X12479586Y-15098484D01*
X12479586Y-15098484D02*
X12498634Y-15108008D01*
X12498634Y-15108008D02*
X12508158Y-15117531D01*
X12508158Y-15117531D02*
X12517682Y-15136579D01*
X12517682Y-15136579D02*
X12527205Y-15174674D01*
X12527205Y-15174674D02*
X12527205Y-15222293D01*
X12527205Y-15222293D02*
X12517682Y-15260388D01*
X12517682Y-15260388D02*
X12508158Y-15279436D01*
X12508158Y-15279436D02*
X12498634Y-15288960D01*
X12498634Y-15288960D02*
X12479586Y-15298484D01*
X12479586Y-15298484D02*
X12460539Y-15298484D01*
X12460539Y-15298484D02*
X12441491Y-15288960D01*
X12441491Y-15288960D02*
X12431967Y-15279436D01*
X12431967Y-15279436D02*
X12422443Y-15260388D01*
X12422443Y-15260388D02*
X12412920Y-15222293D01*
X12412920Y-15222293D02*
X12412920Y-15174674D01*
X12412920Y-15174674D02*
X12422443Y-15136579D01*
X12422443Y-15136579D02*
X12431967Y-15117531D01*
X12431967Y-15117531D02*
X12441491Y-15108008D01*
X12441491Y-15108008D02*
X12460539Y-15098484D01*
X12612920Y-15298484D02*
X12612920Y-15165150D01*
X12612920Y-15184198D02*
X12622443Y-15174674D01*
X12622443Y-15174674D02*
X12641491Y-15165150D01*
X12641491Y-15165150D02*
X12670063Y-15165150D01*
X12670063Y-15165150D02*
X12689110Y-15174674D01*
X12689110Y-15174674D02*
X12698634Y-15193722D01*
X12698634Y-15193722D02*
X12698634Y-15298484D01*
X12698634Y-15193722D02*
X12708158Y-15174674D01*
X12708158Y-15174674D02*
X12727205Y-15165150D01*
X12727205Y-15165150D02*
X12755777Y-15165150D01*
X12755777Y-15165150D02*
X12774824Y-15174674D01*
X12774824Y-15174674D02*
X12784348Y-15193722D01*
X12784348Y-15193722D02*
X12784348Y-15298484D01*
X12879586Y-15298484D02*
X12879586Y-15165150D01*
X12879586Y-15184198D02*
X12889110Y-15174674D01*
X12889110Y-15174674D02*
X12908158Y-15165150D01*
X12908158Y-15165150D02*
X12936729Y-15165150D01*
X12936729Y-15165150D02*
X12955777Y-15174674D01*
X12955777Y-15174674D02*
X12965301Y-15193722D01*
X12965301Y-15193722D02*
X12965301Y-15298484D01*
X12965301Y-15193722D02*
X12974824Y-15174674D01*
X12974824Y-15174674D02*
X12993872Y-15165150D01*
X12993872Y-15165150D02*
X13022443Y-15165150D01*
X13022443Y-15165150D02*
X13041491Y-15174674D01*
X13041491Y-15174674D02*
X13051015Y-15193722D01*
X13051015Y-15193722D02*
X13051015Y-15298484D01*
X13441491Y-15088960D02*
X13270063Y-15346103D01*
X13698634Y-15098484D02*
X13717682Y-15098484D01*
X13717682Y-15098484D02*
X13736729Y-15108008D01*
X13736729Y-15108008D02*
X13746253Y-15117531D01*
X13746253Y-15117531D02*
X13755777Y-15136579D01*
X13755777Y-15136579D02*
X13765301Y-15174674D01*
X13765301Y-15174674D02*
X13765301Y-15222293D01*
X13765301Y-15222293D02*
X13755777Y-15260388D01*
X13755777Y-15260388D02*
X13746253Y-15279436D01*
X13746253Y-15279436D02*
X13736729Y-15288960D01*
X13736729Y-15288960D02*
X13717682Y-15298484D01*
X13717682Y-15298484D02*
X13698634Y-15298484D01*
X13698634Y-15298484D02*
X13679586Y-15288960D01*
X13679586Y-15288960D02*
X13670063Y-15279436D01*
X13670063Y-15279436D02*
X13660539Y-15260388D01*
X13660539Y-15260388D02*
X13651015Y-15222293D01*
X13651015Y-15222293D02*
X13651015Y-15174674D01*
X13651015Y-15174674D02*
X13660539Y-15136579D01*
X13660539Y-15136579D02*
X13670063Y-15117531D01*
X13670063Y-15117531D02*
X13679586Y-15108008D01*
X13679586Y-15108008D02*
X13698634Y-15098484D01*
X13851015Y-15279436D02*
X13860539Y-15288960D01*
X13860539Y-15288960D02*
X13851015Y-15298484D01*
X13851015Y-15298484D02*
X13841491Y-15288960D01*
X13841491Y-15288960D02*
X13851015Y-15279436D01*
X13851015Y-15279436D02*
X13851015Y-15298484D01*
X14051015Y-15298484D02*
X13936729Y-15298484D01*
X13993872Y-15298484D02*
X13993872Y-15098484D01*
X13993872Y-15098484D02*
X13974825Y-15127055D01*
X13974825Y-15127055D02*
X13955777Y-15146103D01*
X13955777Y-15146103D02*
X13936729Y-15155627D01*
X14241491Y-15298484D02*
X14127206Y-15298484D01*
X14184348Y-15298484D02*
X14184348Y-15098484D01*
X14184348Y-15098484D02*
X14165301Y-15127055D01*
X14165301Y-15127055D02*
X14146253Y-15146103D01*
X14146253Y-15146103D02*
X14127206Y-15155627D01*
X14412920Y-15165150D02*
X14412920Y-15298484D01*
X14365301Y-15088960D02*
X14317682Y-15231817D01*
X14317682Y-15231817D02*
X14441491Y-15231817D01*
X14508158Y-15117531D02*
X14517682Y-15108008D01*
X14517682Y-15108008D02*
X14536729Y-15098484D01*
X14536729Y-15098484D02*
X14584348Y-15098484D01*
X14584348Y-15098484D02*
X14603396Y-15108008D01*
X14603396Y-15108008D02*
X14612920Y-15117531D01*
X14612920Y-15117531D02*
X14622444Y-15136579D01*
X14622444Y-15136579D02*
X14622444Y-15155627D01*
X14622444Y-15155627D02*
X14612920Y-15184198D01*
X14612920Y-15184198D02*
X14498634Y-15298484D01*
X14498634Y-15298484D02*
X14622444Y-15298484D01*
X14698634Y-15098484D02*
X14698634Y-15136579D01*
X14774825Y-15098484D02*
X14774825Y-15136579D01*
X15070063Y-15374674D02*
X15060539Y-15365150D01*
X15060539Y-15365150D02*
X15041491Y-15336579D01*
X15041491Y-15336579D02*
X15031968Y-15317531D01*
X15031968Y-15317531D02*
X15022444Y-15288960D01*
X15022444Y-15288960D02*
X15012920Y-15241341D01*
X15012920Y-15241341D02*
X15012920Y-15203246D01*
X15012920Y-15203246D02*
X15022444Y-15155627D01*
X15022444Y-15155627D02*
X15031968Y-15127055D01*
X15031968Y-15127055D02*
X15041491Y-15108008D01*
X15041491Y-15108008D02*
X15060539Y-15079436D01*
X15060539Y-15079436D02*
X15070063Y-15069912D01*
X15136729Y-15117531D02*
X15146253Y-15108008D01*
X15146253Y-15108008D02*
X15165301Y-15098484D01*
X15165301Y-15098484D02*
X15212920Y-15098484D01*
X15212920Y-15098484D02*
X15231968Y-15108008D01*
X15231968Y-15108008D02*
X15241491Y-15117531D01*
X15241491Y-15117531D02*
X15251015Y-15136579D01*
X15251015Y-15136579D02*
X15251015Y-15155627D01*
X15251015Y-15155627D02*
X15241491Y-15184198D01*
X15241491Y-15184198D02*
X15127206Y-15298484D01*
X15127206Y-15298484D02*
X15251015Y-15298484D01*
X15489110Y-15298484D02*
X15489110Y-15098484D01*
X15574825Y-15298484D02*
X15574825Y-15193722D01*
X15574825Y-15193722D02*
X15565301Y-15174674D01*
X15565301Y-15174674D02*
X15546253Y-15165150D01*
X15546253Y-15165150D02*
X15517682Y-15165150D01*
X15517682Y-15165150D02*
X15498634Y-15174674D01*
X15498634Y-15174674D02*
X15489110Y-15184198D01*
X15698634Y-15298484D02*
X15679587Y-15288960D01*
X15679587Y-15288960D02*
X15670063Y-15279436D01*
X15670063Y-15279436D02*
X15660539Y-15260388D01*
X15660539Y-15260388D02*
X15660539Y-15203246D01*
X15660539Y-15203246D02*
X15670063Y-15184198D01*
X15670063Y-15184198D02*
X15679587Y-15174674D01*
X15679587Y-15174674D02*
X15698634Y-15165150D01*
X15698634Y-15165150D02*
X15727206Y-15165150D01*
X15727206Y-15165150D02*
X15746253Y-15174674D01*
X15746253Y-15174674D02*
X15755777Y-15184198D01*
X15755777Y-15184198D02*
X15765301Y-15203246D01*
X15765301Y-15203246D02*
X15765301Y-15260388D01*
X15765301Y-15260388D02*
X15755777Y-15279436D01*
X15755777Y-15279436D02*
X15746253Y-15288960D01*
X15746253Y-15288960D02*
X15727206Y-15298484D01*
X15727206Y-15298484D02*
X15698634Y-15298484D01*
X15879587Y-15298484D02*
X15860539Y-15288960D01*
X15860539Y-15288960D02*
X15851015Y-15269912D01*
X15851015Y-15269912D02*
X15851015Y-15098484D01*
X16031968Y-15288960D02*
X16012920Y-15298484D01*
X16012920Y-15298484D02*
X15974825Y-15298484D01*
X15974825Y-15298484D02*
X15955777Y-15288960D01*
X15955777Y-15288960D02*
X15946253Y-15269912D01*
X15946253Y-15269912D02*
X15946253Y-15193722D01*
X15946253Y-15193722D02*
X15955777Y-15174674D01*
X15955777Y-15174674D02*
X15974825Y-15165150D01*
X15974825Y-15165150D02*
X16012920Y-15165150D01*
X16012920Y-15165150D02*
X16031968Y-15174674D01*
X16031968Y-15174674D02*
X16041491Y-15193722D01*
X16041491Y-15193722D02*
X16041491Y-15212769D01*
X16041491Y-15212769D02*
X15946253Y-15231817D01*
X16117682Y-15288960D02*
X16136730Y-15298484D01*
X16136730Y-15298484D02*
X16174825Y-15298484D01*
X16174825Y-15298484D02*
X16193872Y-15288960D01*
X16193872Y-15288960D02*
X16203396Y-15269912D01*
X16203396Y-15269912D02*
X16203396Y-15260388D01*
X16203396Y-15260388D02*
X16193872Y-15241341D01*
X16193872Y-15241341D02*
X16174825Y-15231817D01*
X16174825Y-15231817D02*
X16146253Y-15231817D01*
X16146253Y-15231817D02*
X16127206Y-15222293D01*
X16127206Y-15222293D02*
X16117682Y-15203246D01*
X16117682Y-15203246D02*
X16117682Y-15193722D01*
X16117682Y-15193722D02*
X16127206Y-15174674D01*
X16127206Y-15174674D02*
X16146253Y-15165150D01*
X16146253Y-15165150D02*
X16174825Y-15165150D01*
X16174825Y-15165150D02*
X16193872Y-15174674D01*
X16270063Y-15374674D02*
X16279587Y-15365150D01*
X16279587Y-15365150D02*
X16298634Y-15336579D01*
X16298634Y-15336579D02*
X16308158Y-15317531D01*
X16308158Y-15317531D02*
X16317682Y-15288960D01*
X16317682Y-15288960D02*
X16327206Y-15241341D01*
X16327206Y-15241341D02*
X16327206Y-15203246D01*
X16327206Y-15203246D02*
X16317682Y-15155627D01*
X16317682Y-15155627D02*
X16308158Y-15127055D01*
X16308158Y-15127055D02*
X16298634Y-15108008D01*
X16298634Y-15108008D02*
X16279587Y-15079436D01*
X16279587Y-15079436D02*
X16270063Y-15069912D01*
M02*
