G04 #@! TF.GenerationSoftware,KiCad,Pcbnew,9.0.7*
G04 #@! TF.CreationDate,2026-04-20T21:22:16+02:00*
G04 #@! TF.ProjectId,protosync,70726f74-6f73-4796-9e63-2e6b69636164,rev?*
G04 #@! TF.SameCoordinates,Original*
G04 #@! TF.FileFunction,Legend,Top*
G04 #@! TF.FilePolarity,Positive*
%FSLAX46Y46*%
G04 Gerber Fmt 4.6, Leading zero omitted, Abs format (unit mm)*
G04 Created by KiCad (PCBNEW 9.0.7) date 2026-04-20 21:22:16*
%MOMM*%
%LPD*%
G01*
G04 APERTURE LIST*
G04 Aperture macros list*
%AMRoundRect*
0 Rectangle with rounded corners*
0 $1 Rounding radius*
0 $2 $3 $4 $5 $6 $7 $8 $9 X,Y pos of 4 corners*
0 Add a 4 corners polygon primitive as box body*
4,1,4,$2,$3,$4,$5,$6,$7,$8,$9,$2,$3,0*
0 Add four circle primitives for the rounded corners*
1,1,$1+$1,$2,$3*
1,1,$1+$1,$4,$5*
1,1,$1+$1,$6,$7*
1,1,$1+$1,$8,$9*
0 Add four rect primitives between the rounded corners*
20,1,$1+$1,$2,$3,$4,$5,0*
20,1,$1+$1,$4,$5,$6,$7,0*
20,1,$1+$1,$6,$7,$8,$9,0*
20,1,$1+$1,$8,$9,$2,$3,0*%
G04 Aperture macros list end*
%ADD10C,0.150000*%
%ADD11C,0.254000*%
%ADD12C,0.100000*%
%ADD13C,0.120000*%
%ADD14C,0.200000*%
%ADD15C,2.500000*%
%ADD16C,1.750000*%
%ADD17C,4.000000*%
%ADD18R,1.100000X0.450000*%
%ADD19R,0.450000X1.100000*%
%ADD20C,3.000000*%
%ADD21O,2.540000X1.700000*%
%ADD22R,1.500000X1.500000*%
%ADD23C,1.500000*%
%ADD24C,4.350000*%
%ADD25C,1.700000*%
%ADD26R,2.900000X2.700000*%
%ADD27R,2.700000X2.900000*%
%ADD28R,2.700000X2.100000*%
%ADD29RoundRect,0.100000X-0.100000X0.637500X-0.100000X-0.637500X0.100000X-0.637500X0.100000X0.637500X0*%
%ADD30RoundRect,0.075000X0.650000X0.075000X-0.650000X0.075000X-0.650000X-0.075000X0.650000X-0.075000X0*%
%ADD31RoundRect,0.250000X0.450000X-0.350000X0.450000X0.350000X-0.450000X0.350000X-0.450000X-0.350000X0*%
%ADD32C,2.700000*%
%ADD33RoundRect,0.250000X0.337500X0.475000X-0.337500X0.475000X-0.337500X-0.475000X0.337500X-0.475000X0*%
%ADD34RoundRect,0.250000X-0.337500X-0.475000X0.337500X-0.475000X0.337500X0.475000X-0.337500X0.475000X0*%
%ADD35RoundRect,0.250000X-0.475000X0.337500X-0.475000X-0.337500X0.475000X-0.337500X0.475000X0.337500X0*%
%ADD36R,1.700000X1.700000*%
%ADD37RoundRect,0.250000X-0.450000X0.350000X-0.450000X-0.350000X0.450000X-0.350000X0.450000X0.350000X0*%
%ADD38RoundRect,0.250000X-0.350000X-0.450000X0.350000X-0.450000X0.350000X0.450000X-0.350000X0.450000X0*%
%ADD39RoundRect,0.250000X-0.450000X0.325000X-0.450000X-0.325000X0.450000X-0.325000X0.450000X0.325000X0*%
%ADD40RoundRect,0.250000X-0.550000X1.300000X-0.550000X-1.300000X0.550000X-1.300000X0.550000X1.300000X0*%
%ADD41RoundRect,0.250000X0.600000X-1.400000X0.600000X1.400000X-0.600000X1.400000X-0.600000X-1.400000X0*%
%ADD42RoundRect,0.250000X0.475000X-0.337500X0.475000X0.337500X-0.475000X0.337500X-0.475000X-0.337500X0*%
%ADD43R,1.000000X1.500000*%
%ADD44RoundRect,0.250000X0.350000X0.450000X-0.350000X0.450000X-0.350000X-0.450000X0.350000X-0.450000X0*%
%ADD45O,1.700000X1.700000*%
G04 APERTURE END LIST*
D10*
X125736667Y-115007200D02*
X125879524Y-115054819D01*
X125879524Y-115054819D02*
X126117619Y-115054819D01*
X126117619Y-115054819D02*
X126212857Y-115007200D01*
X126212857Y-115007200D02*
X126260476Y-114959580D01*
X126260476Y-114959580D02*
X126308095Y-114864342D01*
X126308095Y-114864342D02*
X126308095Y-114769104D01*
X126308095Y-114769104D02*
X126260476Y-114673866D01*
X126260476Y-114673866D02*
X126212857Y-114626247D01*
X126212857Y-114626247D02*
X126117619Y-114578628D01*
X126117619Y-114578628D02*
X125927143Y-114531009D01*
X125927143Y-114531009D02*
X125831905Y-114483390D01*
X125831905Y-114483390D02*
X125784286Y-114435771D01*
X125784286Y-114435771D02*
X125736667Y-114340533D01*
X125736667Y-114340533D02*
X125736667Y-114245295D01*
X125736667Y-114245295D02*
X125784286Y-114150057D01*
X125784286Y-114150057D02*
X125831905Y-114102438D01*
X125831905Y-114102438D02*
X125927143Y-114054819D01*
X125927143Y-114054819D02*
X126165238Y-114054819D01*
X126165238Y-114054819D02*
X126308095Y-114102438D01*
X126641429Y-114054819D02*
X126879524Y-115054819D01*
X126879524Y-115054819D02*
X127070000Y-114340533D01*
X127070000Y-114340533D02*
X127260476Y-115054819D01*
X127260476Y-115054819D02*
X127498572Y-114054819D01*
X128403333Y-115054819D02*
X127831905Y-115054819D01*
X128117619Y-115054819D02*
X128117619Y-114054819D01*
X128117619Y-114054819D02*
X128022381Y-114197676D01*
X128022381Y-114197676D02*
X127927143Y-114292914D01*
X127927143Y-114292914D02*
X127831905Y-114340533D01*
D11*
X181310237Y-58599318D02*
X181310237Y-57329318D01*
X182640714Y-58478365D02*
X182580238Y-58538842D01*
X182580238Y-58538842D02*
X182398809Y-58599318D01*
X182398809Y-58599318D02*
X182277857Y-58599318D01*
X182277857Y-58599318D02*
X182096428Y-58538842D01*
X182096428Y-58538842D02*
X181975476Y-58417889D01*
X181975476Y-58417889D02*
X181914999Y-58296937D01*
X181914999Y-58296937D02*
X181854523Y-58055032D01*
X181854523Y-58055032D02*
X181854523Y-57873603D01*
X181854523Y-57873603D02*
X181914999Y-57631699D01*
X181914999Y-57631699D02*
X181975476Y-57510746D01*
X181975476Y-57510746D02*
X182096428Y-57389794D01*
X182096428Y-57389794D02*
X182277857Y-57329318D01*
X182277857Y-57329318D02*
X182398809Y-57329318D01*
X182398809Y-57329318D02*
X182580238Y-57389794D01*
X182580238Y-57389794D02*
X182640714Y-57450270D01*
X183124523Y-57450270D02*
X183184999Y-57389794D01*
X183184999Y-57389794D02*
X183305952Y-57329318D01*
X183305952Y-57329318D02*
X183608333Y-57329318D01*
X183608333Y-57329318D02*
X183729285Y-57389794D01*
X183729285Y-57389794D02*
X183789761Y-57450270D01*
X183789761Y-57450270D02*
X183850238Y-57571222D01*
X183850238Y-57571222D02*
X183850238Y-57692175D01*
X183850238Y-57692175D02*
X183789761Y-57873603D01*
X183789761Y-57873603D02*
X183064047Y-58599318D01*
X183064047Y-58599318D02*
X183850238Y-58599318D01*
X159049318Y-58989762D02*
X157779318Y-58989762D01*
X158928365Y-57659285D02*
X158988842Y-57719761D01*
X158988842Y-57719761D02*
X159049318Y-57901190D01*
X159049318Y-57901190D02*
X159049318Y-58022142D01*
X159049318Y-58022142D02*
X158988842Y-58203571D01*
X158988842Y-58203571D02*
X158867889Y-58324523D01*
X158867889Y-58324523D02*
X158746937Y-58385000D01*
X158746937Y-58385000D02*
X158505032Y-58445476D01*
X158505032Y-58445476D02*
X158323603Y-58445476D01*
X158323603Y-58445476D02*
X158081699Y-58385000D01*
X158081699Y-58385000D02*
X157960746Y-58324523D01*
X157960746Y-58324523D02*
X157839794Y-58203571D01*
X157839794Y-58203571D02*
X157779318Y-58022142D01*
X157779318Y-58022142D02*
X157779318Y-57901190D01*
X157779318Y-57901190D02*
X157839794Y-57719761D01*
X157839794Y-57719761D02*
X157900270Y-57659285D01*
X159049318Y-56449761D02*
X159049318Y-57175476D01*
X159049318Y-56812619D02*
X157779318Y-56812619D01*
X157779318Y-56812619D02*
X157960746Y-56933571D01*
X157960746Y-56933571D02*
X158081699Y-57054523D01*
X158081699Y-57054523D02*
X158142175Y-57175476D01*
D12*
X154038095Y-87257419D02*
X154038095Y-88066942D01*
X154038095Y-88066942D02*
X154085714Y-88162180D01*
X154085714Y-88162180D02*
X154133333Y-88209800D01*
X154133333Y-88209800D02*
X154228571Y-88257419D01*
X154228571Y-88257419D02*
X154419047Y-88257419D01*
X154419047Y-88257419D02*
X154514285Y-88209800D01*
X154514285Y-88209800D02*
X154561904Y-88162180D01*
X154561904Y-88162180D02*
X154609523Y-88066942D01*
X154609523Y-88066942D02*
X154609523Y-87257419D01*
X155514285Y-87590752D02*
X155514285Y-88257419D01*
X155276190Y-87209800D02*
X155038095Y-87924085D01*
X155038095Y-87924085D02*
X155657142Y-87924085D01*
D10*
X162836667Y-115007200D02*
X162979524Y-115054819D01*
X162979524Y-115054819D02*
X163217619Y-115054819D01*
X163217619Y-115054819D02*
X163312857Y-115007200D01*
X163312857Y-115007200D02*
X163360476Y-114959580D01*
X163360476Y-114959580D02*
X163408095Y-114864342D01*
X163408095Y-114864342D02*
X163408095Y-114769104D01*
X163408095Y-114769104D02*
X163360476Y-114673866D01*
X163360476Y-114673866D02*
X163312857Y-114626247D01*
X163312857Y-114626247D02*
X163217619Y-114578628D01*
X163217619Y-114578628D02*
X163027143Y-114531009D01*
X163027143Y-114531009D02*
X162931905Y-114483390D01*
X162931905Y-114483390D02*
X162884286Y-114435771D01*
X162884286Y-114435771D02*
X162836667Y-114340533D01*
X162836667Y-114340533D02*
X162836667Y-114245295D01*
X162836667Y-114245295D02*
X162884286Y-114150057D01*
X162884286Y-114150057D02*
X162931905Y-114102438D01*
X162931905Y-114102438D02*
X163027143Y-114054819D01*
X163027143Y-114054819D02*
X163265238Y-114054819D01*
X163265238Y-114054819D02*
X163408095Y-114102438D01*
X163741429Y-114054819D02*
X163979524Y-115054819D01*
X163979524Y-115054819D02*
X164170000Y-114340533D01*
X164170000Y-114340533D02*
X164360476Y-115054819D01*
X164360476Y-115054819D02*
X164598572Y-114054819D01*
X164884286Y-114054819D02*
X165503333Y-114054819D01*
X165503333Y-114054819D02*
X165170000Y-114435771D01*
X165170000Y-114435771D02*
X165312857Y-114435771D01*
X165312857Y-114435771D02*
X165408095Y-114483390D01*
X165408095Y-114483390D02*
X165455714Y-114531009D01*
X165455714Y-114531009D02*
X165503333Y-114626247D01*
X165503333Y-114626247D02*
X165503333Y-114864342D01*
X165503333Y-114864342D02*
X165455714Y-114959580D01*
X165455714Y-114959580D02*
X165408095Y-115007200D01*
X165408095Y-115007200D02*
X165312857Y-115054819D01*
X165312857Y-115054819D02*
X165027143Y-115054819D01*
X165027143Y-115054819D02*
X164931905Y-115007200D01*
X164931905Y-115007200D02*
X164884286Y-114959580D01*
X144286667Y-115007200D02*
X144429524Y-115054819D01*
X144429524Y-115054819D02*
X144667619Y-115054819D01*
X144667619Y-115054819D02*
X144762857Y-115007200D01*
X144762857Y-115007200D02*
X144810476Y-114959580D01*
X144810476Y-114959580D02*
X144858095Y-114864342D01*
X144858095Y-114864342D02*
X144858095Y-114769104D01*
X144858095Y-114769104D02*
X144810476Y-114673866D01*
X144810476Y-114673866D02*
X144762857Y-114626247D01*
X144762857Y-114626247D02*
X144667619Y-114578628D01*
X144667619Y-114578628D02*
X144477143Y-114531009D01*
X144477143Y-114531009D02*
X144381905Y-114483390D01*
X144381905Y-114483390D02*
X144334286Y-114435771D01*
X144334286Y-114435771D02*
X144286667Y-114340533D01*
X144286667Y-114340533D02*
X144286667Y-114245295D01*
X144286667Y-114245295D02*
X144334286Y-114150057D01*
X144334286Y-114150057D02*
X144381905Y-114102438D01*
X144381905Y-114102438D02*
X144477143Y-114054819D01*
X144477143Y-114054819D02*
X144715238Y-114054819D01*
X144715238Y-114054819D02*
X144858095Y-114102438D01*
X145191429Y-114054819D02*
X145429524Y-115054819D01*
X145429524Y-115054819D02*
X145620000Y-114340533D01*
X145620000Y-114340533D02*
X145810476Y-115054819D01*
X145810476Y-115054819D02*
X146048572Y-114054819D01*
X146381905Y-114150057D02*
X146429524Y-114102438D01*
X146429524Y-114102438D02*
X146524762Y-114054819D01*
X146524762Y-114054819D02*
X146762857Y-114054819D01*
X146762857Y-114054819D02*
X146858095Y-114102438D01*
X146858095Y-114102438D02*
X146905714Y-114150057D01*
X146905714Y-114150057D02*
X146953333Y-114245295D01*
X146953333Y-114245295D02*
X146953333Y-114340533D01*
X146953333Y-114340533D02*
X146905714Y-114483390D01*
X146905714Y-114483390D02*
X146334286Y-115054819D01*
X146334286Y-115054819D02*
X146953333Y-115054819D01*
D11*
X185744048Y-119574318D02*
X185320714Y-118969556D01*
X185018333Y-119574318D02*
X185018333Y-118304318D01*
X185018333Y-118304318D02*
X185502143Y-118304318D01*
X185502143Y-118304318D02*
X185623095Y-118364794D01*
X185623095Y-118364794D02*
X185683572Y-118425270D01*
X185683572Y-118425270D02*
X185744048Y-118546222D01*
X185744048Y-118546222D02*
X185744048Y-118727651D01*
X185744048Y-118727651D02*
X185683572Y-118848603D01*
X185683572Y-118848603D02*
X185623095Y-118909080D01*
X185623095Y-118909080D02*
X185502143Y-118969556D01*
X185502143Y-118969556D02*
X185018333Y-118969556D01*
X186106905Y-118304318D02*
X186530238Y-119574318D01*
X186530238Y-119574318D02*
X186953572Y-118304318D01*
X188042143Y-119574318D02*
X187316428Y-119574318D01*
X187679285Y-119574318D02*
X187679285Y-118304318D01*
X187679285Y-118304318D02*
X187558333Y-118485746D01*
X187558333Y-118485746D02*
X187437381Y-118606699D01*
X187437381Y-118606699D02*
X187316428Y-118667175D01*
X190904318Y-37823332D02*
X191811461Y-37823332D01*
X191811461Y-37823332D02*
X191992889Y-37883809D01*
X191992889Y-37883809D02*
X192113842Y-38004761D01*
X192113842Y-38004761D02*
X192174318Y-38186190D01*
X192174318Y-38186190D02*
X192174318Y-38307142D01*
X190904318Y-36674285D02*
X190904318Y-36916190D01*
X190904318Y-36916190D02*
X190964794Y-37037142D01*
X190964794Y-37037142D02*
X191025270Y-37097618D01*
X191025270Y-37097618D02*
X191206699Y-37218571D01*
X191206699Y-37218571D02*
X191448603Y-37279047D01*
X191448603Y-37279047D02*
X191932413Y-37279047D01*
X191932413Y-37279047D02*
X192053365Y-37218571D01*
X192053365Y-37218571D02*
X192113842Y-37158094D01*
X192113842Y-37158094D02*
X192174318Y-37037142D01*
X192174318Y-37037142D02*
X192174318Y-36795237D01*
X192174318Y-36795237D02*
X192113842Y-36674285D01*
X192113842Y-36674285D02*
X192053365Y-36613809D01*
X192053365Y-36613809D02*
X191932413Y-36553332D01*
X191932413Y-36553332D02*
X191630032Y-36553332D01*
X191630032Y-36553332D02*
X191509080Y-36613809D01*
X191509080Y-36613809D02*
X191448603Y-36674285D01*
X191448603Y-36674285D02*
X191388127Y-36795237D01*
X191388127Y-36795237D02*
X191388127Y-37037142D01*
X191388127Y-37037142D02*
X191448603Y-37158094D01*
X191448603Y-37158094D02*
X191509080Y-37218571D01*
X191509080Y-37218571D02*
X191630032Y-37279047D01*
X174854318Y-37823332D02*
X175761461Y-37823332D01*
X175761461Y-37823332D02*
X175942889Y-37883809D01*
X175942889Y-37883809D02*
X176063842Y-38004761D01*
X176063842Y-38004761D02*
X176124318Y-38186190D01*
X176124318Y-38186190D02*
X176124318Y-38307142D01*
X174854318Y-36613809D02*
X174854318Y-37218571D01*
X174854318Y-37218571D02*
X175459080Y-37279047D01*
X175459080Y-37279047D02*
X175398603Y-37218571D01*
X175398603Y-37218571D02*
X175338127Y-37097618D01*
X175338127Y-37097618D02*
X175338127Y-36795237D01*
X175338127Y-36795237D02*
X175398603Y-36674285D01*
X175398603Y-36674285D02*
X175459080Y-36613809D01*
X175459080Y-36613809D02*
X175580032Y-36553332D01*
X175580032Y-36553332D02*
X175882413Y-36553332D01*
X175882413Y-36553332D02*
X176003365Y-36613809D01*
X176003365Y-36613809D02*
X176063842Y-36674285D01*
X176063842Y-36674285D02*
X176124318Y-36795237D01*
X176124318Y-36795237D02*
X176124318Y-37097618D01*
X176124318Y-37097618D02*
X176063842Y-37218571D01*
X176063842Y-37218571D02*
X176003365Y-37279047D01*
X158804318Y-38123332D02*
X159711461Y-38123332D01*
X159711461Y-38123332D02*
X159892889Y-38183809D01*
X159892889Y-38183809D02*
X160013842Y-38304761D01*
X160013842Y-38304761D02*
X160074318Y-38486190D01*
X160074318Y-38486190D02*
X160074318Y-38607142D01*
X159227651Y-36974285D02*
X160074318Y-36974285D01*
X158743842Y-37276666D02*
X159650984Y-37579047D01*
X159650984Y-37579047D02*
X159650984Y-36792856D01*
X142854318Y-37923332D02*
X143761461Y-37923332D01*
X143761461Y-37923332D02*
X143942889Y-37983809D01*
X143942889Y-37983809D02*
X144063842Y-38104761D01*
X144063842Y-38104761D02*
X144124318Y-38286190D01*
X144124318Y-38286190D02*
X144124318Y-38407142D01*
X142854318Y-37439523D02*
X142854318Y-36653332D01*
X142854318Y-36653332D02*
X143338127Y-37076666D01*
X143338127Y-37076666D02*
X143338127Y-36895237D01*
X143338127Y-36895237D02*
X143398603Y-36774285D01*
X143398603Y-36774285D02*
X143459080Y-36713809D01*
X143459080Y-36713809D02*
X143580032Y-36653332D01*
X143580032Y-36653332D02*
X143882413Y-36653332D01*
X143882413Y-36653332D02*
X144003365Y-36713809D01*
X144003365Y-36713809D02*
X144063842Y-36774285D01*
X144063842Y-36774285D02*
X144124318Y-36895237D01*
X144124318Y-36895237D02*
X144124318Y-37258094D01*
X144124318Y-37258094D02*
X144063842Y-37379047D01*
X144063842Y-37379047D02*
X144003365Y-37439523D01*
X126854318Y-37923332D02*
X127761461Y-37923332D01*
X127761461Y-37923332D02*
X127942889Y-37983809D01*
X127942889Y-37983809D02*
X128063842Y-38104761D01*
X128063842Y-38104761D02*
X128124318Y-38286190D01*
X128124318Y-38286190D02*
X128124318Y-38407142D01*
X126975270Y-37379047D02*
X126914794Y-37318571D01*
X126914794Y-37318571D02*
X126854318Y-37197618D01*
X126854318Y-37197618D02*
X126854318Y-36895237D01*
X126854318Y-36895237D02*
X126914794Y-36774285D01*
X126914794Y-36774285D02*
X126975270Y-36713809D01*
X126975270Y-36713809D02*
X127096222Y-36653332D01*
X127096222Y-36653332D02*
X127217175Y-36653332D01*
X127217175Y-36653332D02*
X127398603Y-36713809D01*
X127398603Y-36713809D02*
X128124318Y-37439523D01*
X128124318Y-37439523D02*
X128124318Y-36653332D01*
D10*
X191429819Y-75124404D02*
X192239342Y-75124404D01*
X192239342Y-75124404D02*
X192334580Y-75076785D01*
X192334580Y-75076785D02*
X192382200Y-75029166D01*
X192382200Y-75029166D02*
X192429819Y-74933928D01*
X192429819Y-74933928D02*
X192429819Y-74743452D01*
X192429819Y-74743452D02*
X192382200Y-74648214D01*
X192382200Y-74648214D02*
X192334580Y-74600595D01*
X192334580Y-74600595D02*
X192239342Y-74552976D01*
X192239342Y-74552976D02*
X191429819Y-74552976D01*
X191525057Y-74124404D02*
X191477438Y-74076785D01*
X191477438Y-74076785D02*
X191429819Y-73981547D01*
X191429819Y-73981547D02*
X191429819Y-73743452D01*
X191429819Y-73743452D02*
X191477438Y-73648214D01*
X191477438Y-73648214D02*
X191525057Y-73600595D01*
X191525057Y-73600595D02*
X191620295Y-73552976D01*
X191620295Y-73552976D02*
X191715533Y-73552976D01*
X191715533Y-73552976D02*
X191858390Y-73600595D01*
X191858390Y-73600595D02*
X192429819Y-74172023D01*
X192429819Y-74172023D02*
X192429819Y-73552976D01*
X192438095Y-98904819D02*
X192438095Y-99714342D01*
X192438095Y-99714342D02*
X192485714Y-99809580D01*
X192485714Y-99809580D02*
X192533333Y-99857200D01*
X192533333Y-99857200D02*
X192628571Y-99904819D01*
X192628571Y-99904819D02*
X192819047Y-99904819D01*
X192819047Y-99904819D02*
X192914285Y-99857200D01*
X192914285Y-99857200D02*
X192961904Y-99809580D01*
X192961904Y-99809580D02*
X193009523Y-99714342D01*
X193009523Y-99714342D02*
X193009523Y-98904819D01*
X193390476Y-98904819D02*
X194009523Y-98904819D01*
X194009523Y-98904819D02*
X193676190Y-99285771D01*
X193676190Y-99285771D02*
X193819047Y-99285771D01*
X193819047Y-99285771D02*
X193914285Y-99333390D01*
X193914285Y-99333390D02*
X193961904Y-99381009D01*
X193961904Y-99381009D02*
X194009523Y-99476247D01*
X194009523Y-99476247D02*
X194009523Y-99714342D01*
X194009523Y-99714342D02*
X193961904Y-99809580D01*
X193961904Y-99809580D02*
X193914285Y-99857200D01*
X193914285Y-99857200D02*
X193819047Y-99904819D01*
X193819047Y-99904819D02*
X193533333Y-99904819D01*
X193533333Y-99904819D02*
X193438095Y-99857200D01*
X193438095Y-99857200D02*
X193390476Y-99809580D01*
X143954819Y-53416666D02*
X143478628Y-53749999D01*
X143954819Y-53988094D02*
X142954819Y-53988094D01*
X142954819Y-53988094D02*
X142954819Y-53607142D01*
X142954819Y-53607142D02*
X143002438Y-53511904D01*
X143002438Y-53511904D02*
X143050057Y-53464285D01*
X143050057Y-53464285D02*
X143145295Y-53416666D01*
X143145295Y-53416666D02*
X143288152Y-53416666D01*
X143288152Y-53416666D02*
X143383390Y-53464285D01*
X143383390Y-53464285D02*
X143431009Y-53511904D01*
X143431009Y-53511904D02*
X143478628Y-53607142D01*
X143478628Y-53607142D02*
X143478628Y-53988094D01*
X143288152Y-52559523D02*
X143954819Y-52559523D01*
X142907200Y-52797618D02*
X143621485Y-53035713D01*
X143621485Y-53035713D02*
X143621485Y-52416666D01*
X173819642Y-124139580D02*
X173772023Y-124187200D01*
X173772023Y-124187200D02*
X173629166Y-124234819D01*
X173629166Y-124234819D02*
X173533928Y-124234819D01*
X173533928Y-124234819D02*
X173391071Y-124187200D01*
X173391071Y-124187200D02*
X173295833Y-124091961D01*
X173295833Y-124091961D02*
X173248214Y-123996723D01*
X173248214Y-123996723D02*
X173200595Y-123806247D01*
X173200595Y-123806247D02*
X173200595Y-123663390D01*
X173200595Y-123663390D02*
X173248214Y-123472914D01*
X173248214Y-123472914D02*
X173295833Y-123377676D01*
X173295833Y-123377676D02*
X173391071Y-123282438D01*
X173391071Y-123282438D02*
X173533928Y-123234819D01*
X173533928Y-123234819D02*
X173629166Y-123234819D01*
X173629166Y-123234819D02*
X173772023Y-123282438D01*
X173772023Y-123282438D02*
X173819642Y-123330057D01*
X174772023Y-124234819D02*
X174200595Y-124234819D01*
X174486309Y-124234819D02*
X174486309Y-123234819D01*
X174486309Y-123234819D02*
X174391071Y-123377676D01*
X174391071Y-123377676D02*
X174295833Y-123472914D01*
X174295833Y-123472914D02*
X174200595Y-123520533D01*
X175724404Y-124234819D02*
X175152976Y-124234819D01*
X175438690Y-124234819D02*
X175438690Y-123234819D01*
X175438690Y-123234819D02*
X175343452Y-123377676D01*
X175343452Y-123377676D02*
X175248214Y-123472914D01*
X175248214Y-123472914D02*
X175152976Y-123520533D01*
X141295833Y-65929580D02*
X141248214Y-65977200D01*
X141248214Y-65977200D02*
X141105357Y-66024819D01*
X141105357Y-66024819D02*
X141010119Y-66024819D01*
X141010119Y-66024819D02*
X140867262Y-65977200D01*
X140867262Y-65977200D02*
X140772024Y-65881961D01*
X140772024Y-65881961D02*
X140724405Y-65786723D01*
X140724405Y-65786723D02*
X140676786Y-65596247D01*
X140676786Y-65596247D02*
X140676786Y-65453390D01*
X140676786Y-65453390D02*
X140724405Y-65262914D01*
X140724405Y-65262914D02*
X140772024Y-65167676D01*
X140772024Y-65167676D02*
X140867262Y-65072438D01*
X140867262Y-65072438D02*
X141010119Y-65024819D01*
X141010119Y-65024819D02*
X141105357Y-65024819D01*
X141105357Y-65024819D02*
X141248214Y-65072438D01*
X141248214Y-65072438D02*
X141295833Y-65120057D01*
X142248214Y-66024819D02*
X141676786Y-66024819D01*
X141962500Y-66024819D02*
X141962500Y-65024819D01*
X141962500Y-65024819D02*
X141867262Y-65167676D01*
X141867262Y-65167676D02*
X141772024Y-65262914D01*
X141772024Y-65262914D02*
X141676786Y-65310533D01*
X152639580Y-57204166D02*
X152687200Y-57251785D01*
X152687200Y-57251785D02*
X152734819Y-57394642D01*
X152734819Y-57394642D02*
X152734819Y-57489880D01*
X152734819Y-57489880D02*
X152687200Y-57632737D01*
X152687200Y-57632737D02*
X152591961Y-57727975D01*
X152591961Y-57727975D02*
X152496723Y-57775594D01*
X152496723Y-57775594D02*
X152306247Y-57823213D01*
X152306247Y-57823213D02*
X152163390Y-57823213D01*
X152163390Y-57823213D02*
X151972914Y-57775594D01*
X151972914Y-57775594D02*
X151877676Y-57727975D01*
X151877676Y-57727975D02*
X151782438Y-57632737D01*
X151782438Y-57632737D02*
X151734819Y-57489880D01*
X151734819Y-57489880D02*
X151734819Y-57394642D01*
X151734819Y-57394642D02*
X151782438Y-57251785D01*
X151782438Y-57251785D02*
X151830057Y-57204166D01*
X151734819Y-56870832D02*
X151734819Y-56251785D01*
X151734819Y-56251785D02*
X152115771Y-56585118D01*
X152115771Y-56585118D02*
X152115771Y-56442261D01*
X152115771Y-56442261D02*
X152163390Y-56347023D01*
X152163390Y-56347023D02*
X152211009Y-56299404D01*
X152211009Y-56299404D02*
X152306247Y-56251785D01*
X152306247Y-56251785D02*
X152544342Y-56251785D01*
X152544342Y-56251785D02*
X152639580Y-56299404D01*
X152639580Y-56299404D02*
X152687200Y-56347023D01*
X152687200Y-56347023D02*
X152734819Y-56442261D01*
X152734819Y-56442261D02*
X152734819Y-56727975D01*
X152734819Y-56727975D02*
X152687200Y-56823213D01*
X152687200Y-56823213D02*
X152639580Y-56870832D01*
X146954819Y-111166666D02*
X146478628Y-111499999D01*
X146954819Y-111738094D02*
X145954819Y-111738094D01*
X145954819Y-111738094D02*
X145954819Y-111357142D01*
X145954819Y-111357142D02*
X146002438Y-111261904D01*
X146002438Y-111261904D02*
X146050057Y-111214285D01*
X146050057Y-111214285D02*
X146145295Y-111166666D01*
X146145295Y-111166666D02*
X146288152Y-111166666D01*
X146288152Y-111166666D02*
X146383390Y-111214285D01*
X146383390Y-111214285D02*
X146431009Y-111261904D01*
X146431009Y-111261904D02*
X146478628Y-111357142D01*
X146478628Y-111357142D02*
X146478628Y-111738094D01*
X146954819Y-110690475D02*
X146954819Y-110499999D01*
X146954819Y-110499999D02*
X146907200Y-110404761D01*
X146907200Y-110404761D02*
X146859580Y-110357142D01*
X146859580Y-110357142D02*
X146716723Y-110261904D01*
X146716723Y-110261904D02*
X146526247Y-110214285D01*
X146526247Y-110214285D02*
X146145295Y-110214285D01*
X146145295Y-110214285D02*
X146050057Y-110261904D01*
X146050057Y-110261904D02*
X146002438Y-110309523D01*
X146002438Y-110309523D02*
X145954819Y-110404761D01*
X145954819Y-110404761D02*
X145954819Y-110595237D01*
X145954819Y-110595237D02*
X146002438Y-110690475D01*
X146002438Y-110690475D02*
X146050057Y-110738094D01*
X146050057Y-110738094D02*
X146145295Y-110785713D01*
X146145295Y-110785713D02*
X146383390Y-110785713D01*
X146383390Y-110785713D02*
X146478628Y-110738094D01*
X146478628Y-110738094D02*
X146526247Y-110690475D01*
X146526247Y-110690475D02*
X146573866Y-110595237D01*
X146573866Y-110595237D02*
X146573866Y-110404761D01*
X146573866Y-110404761D02*
X146526247Y-110309523D01*
X146526247Y-110309523D02*
X146478628Y-110261904D01*
X146478628Y-110261904D02*
X146383390Y-110214285D01*
X199416666Y-71324819D02*
X199416666Y-72039104D01*
X199416666Y-72039104D02*
X199369047Y-72181961D01*
X199369047Y-72181961D02*
X199273809Y-72277200D01*
X199273809Y-72277200D02*
X199130952Y-72324819D01*
X199130952Y-72324819D02*
X199035714Y-72324819D01*
X200035714Y-71753390D02*
X199940476Y-71705771D01*
X199940476Y-71705771D02*
X199892857Y-71658152D01*
X199892857Y-71658152D02*
X199845238Y-71562914D01*
X199845238Y-71562914D02*
X199845238Y-71515295D01*
X199845238Y-71515295D02*
X199892857Y-71420057D01*
X199892857Y-71420057D02*
X199940476Y-71372438D01*
X199940476Y-71372438D02*
X200035714Y-71324819D01*
X200035714Y-71324819D02*
X200226190Y-71324819D01*
X200226190Y-71324819D02*
X200321428Y-71372438D01*
X200321428Y-71372438D02*
X200369047Y-71420057D01*
X200369047Y-71420057D02*
X200416666Y-71515295D01*
X200416666Y-71515295D02*
X200416666Y-71562914D01*
X200416666Y-71562914D02*
X200369047Y-71658152D01*
X200369047Y-71658152D02*
X200321428Y-71705771D01*
X200321428Y-71705771D02*
X200226190Y-71753390D01*
X200226190Y-71753390D02*
X200035714Y-71753390D01*
X200035714Y-71753390D02*
X199940476Y-71801009D01*
X199940476Y-71801009D02*
X199892857Y-71848628D01*
X199892857Y-71848628D02*
X199845238Y-71943866D01*
X199845238Y-71943866D02*
X199845238Y-72134342D01*
X199845238Y-72134342D02*
X199892857Y-72229580D01*
X199892857Y-72229580D02*
X199940476Y-72277200D01*
X199940476Y-72277200D02*
X200035714Y-72324819D01*
X200035714Y-72324819D02*
X200226190Y-72324819D01*
X200226190Y-72324819D02*
X200321428Y-72277200D01*
X200321428Y-72277200D02*
X200369047Y-72229580D01*
X200369047Y-72229580D02*
X200416666Y-72134342D01*
X200416666Y-72134342D02*
X200416666Y-71943866D01*
X200416666Y-71943866D02*
X200369047Y-71848628D01*
X200369047Y-71848628D02*
X200321428Y-71801009D01*
X200321428Y-71801009D02*
X200226190Y-71753390D01*
X156454819Y-111166666D02*
X155978628Y-111499999D01*
X156454819Y-111738094D02*
X155454819Y-111738094D01*
X155454819Y-111738094D02*
X155454819Y-111357142D01*
X155454819Y-111357142D02*
X155502438Y-111261904D01*
X155502438Y-111261904D02*
X155550057Y-111214285D01*
X155550057Y-111214285D02*
X155645295Y-111166666D01*
X155645295Y-111166666D02*
X155788152Y-111166666D01*
X155788152Y-111166666D02*
X155883390Y-111214285D01*
X155883390Y-111214285D02*
X155931009Y-111261904D01*
X155931009Y-111261904D02*
X155978628Y-111357142D01*
X155978628Y-111357142D02*
X155978628Y-111738094D01*
X155454819Y-110833332D02*
X155454819Y-110166666D01*
X155454819Y-110166666D02*
X156454819Y-110595237D01*
X151539580Y-111129166D02*
X151587200Y-111176785D01*
X151587200Y-111176785D02*
X151634819Y-111319642D01*
X151634819Y-111319642D02*
X151634819Y-111414880D01*
X151634819Y-111414880D02*
X151587200Y-111557737D01*
X151587200Y-111557737D02*
X151491961Y-111652975D01*
X151491961Y-111652975D02*
X151396723Y-111700594D01*
X151396723Y-111700594D02*
X151206247Y-111748213D01*
X151206247Y-111748213D02*
X151063390Y-111748213D01*
X151063390Y-111748213D02*
X150872914Y-111700594D01*
X150872914Y-111700594D02*
X150777676Y-111652975D01*
X150777676Y-111652975D02*
X150682438Y-111557737D01*
X150682438Y-111557737D02*
X150634819Y-111414880D01*
X150634819Y-111414880D02*
X150634819Y-111319642D01*
X150634819Y-111319642D02*
X150682438Y-111176785D01*
X150682438Y-111176785D02*
X150730057Y-111129166D01*
X150634819Y-110272023D02*
X150634819Y-110462499D01*
X150634819Y-110462499D02*
X150682438Y-110557737D01*
X150682438Y-110557737D02*
X150730057Y-110605356D01*
X150730057Y-110605356D02*
X150872914Y-110700594D01*
X150872914Y-110700594D02*
X151063390Y-110748213D01*
X151063390Y-110748213D02*
X151444342Y-110748213D01*
X151444342Y-110748213D02*
X151539580Y-110700594D01*
X151539580Y-110700594D02*
X151587200Y-110652975D01*
X151587200Y-110652975D02*
X151634819Y-110557737D01*
X151634819Y-110557737D02*
X151634819Y-110367261D01*
X151634819Y-110367261D02*
X151587200Y-110272023D01*
X151587200Y-110272023D02*
X151539580Y-110224404D01*
X151539580Y-110224404D02*
X151444342Y-110176785D01*
X151444342Y-110176785D02*
X151206247Y-110176785D01*
X151206247Y-110176785D02*
X151111009Y-110224404D01*
X151111009Y-110224404D02*
X151063390Y-110272023D01*
X151063390Y-110272023D02*
X151015771Y-110367261D01*
X151015771Y-110367261D02*
X151015771Y-110557737D01*
X151015771Y-110557737D02*
X151063390Y-110652975D01*
X151063390Y-110652975D02*
X151111009Y-110700594D01*
X151111009Y-110700594D02*
X151206247Y-110748213D01*
X186107142Y-99804819D02*
X185773809Y-99328628D01*
X185535714Y-99804819D02*
X185535714Y-98804819D01*
X185535714Y-98804819D02*
X185916666Y-98804819D01*
X185916666Y-98804819D02*
X186011904Y-98852438D01*
X186011904Y-98852438D02*
X186059523Y-98900057D01*
X186059523Y-98900057D02*
X186107142Y-98995295D01*
X186107142Y-98995295D02*
X186107142Y-99138152D01*
X186107142Y-99138152D02*
X186059523Y-99233390D01*
X186059523Y-99233390D02*
X186011904Y-99281009D01*
X186011904Y-99281009D02*
X185916666Y-99328628D01*
X185916666Y-99328628D02*
X185535714Y-99328628D01*
X187059523Y-99804819D02*
X186488095Y-99804819D01*
X186773809Y-99804819D02*
X186773809Y-98804819D01*
X186773809Y-98804819D02*
X186678571Y-98947676D01*
X186678571Y-98947676D02*
X186583333Y-99042914D01*
X186583333Y-99042914D02*
X186488095Y-99090533D01*
X187964285Y-98804819D02*
X187488095Y-98804819D01*
X187488095Y-98804819D02*
X187440476Y-99281009D01*
X187440476Y-99281009D02*
X187488095Y-99233390D01*
X187488095Y-99233390D02*
X187583333Y-99185771D01*
X187583333Y-99185771D02*
X187821428Y-99185771D01*
X187821428Y-99185771D02*
X187916666Y-99233390D01*
X187916666Y-99233390D02*
X187964285Y-99281009D01*
X187964285Y-99281009D02*
X188011904Y-99376247D01*
X188011904Y-99376247D02*
X188011904Y-99614342D01*
X188011904Y-99614342D02*
X187964285Y-99709580D01*
X187964285Y-99709580D02*
X187916666Y-99757200D01*
X187916666Y-99757200D02*
X187821428Y-99804819D01*
X187821428Y-99804819D02*
X187583333Y-99804819D01*
X187583333Y-99804819D02*
X187488095Y-99757200D01*
X187488095Y-99757200D02*
X187440476Y-99709580D01*
X185804819Y-81892857D02*
X185328628Y-82226190D01*
X185804819Y-82464285D02*
X184804819Y-82464285D01*
X184804819Y-82464285D02*
X184804819Y-82083333D01*
X184804819Y-82083333D02*
X184852438Y-81988095D01*
X184852438Y-81988095D02*
X184900057Y-81940476D01*
X184900057Y-81940476D02*
X184995295Y-81892857D01*
X184995295Y-81892857D02*
X185138152Y-81892857D01*
X185138152Y-81892857D02*
X185233390Y-81940476D01*
X185233390Y-81940476D02*
X185281009Y-81988095D01*
X185281009Y-81988095D02*
X185328628Y-82083333D01*
X185328628Y-82083333D02*
X185328628Y-82464285D01*
X185804819Y-80940476D02*
X185804819Y-81511904D01*
X185804819Y-81226190D02*
X184804819Y-81226190D01*
X184804819Y-81226190D02*
X184947676Y-81321428D01*
X184947676Y-81321428D02*
X185042914Y-81416666D01*
X185042914Y-81416666D02*
X185090533Y-81511904D01*
X185804819Y-79988095D02*
X185804819Y-80559523D01*
X185804819Y-80273809D02*
X184804819Y-80273809D01*
X184804819Y-80273809D02*
X184947676Y-80369047D01*
X184947676Y-80369047D02*
X185042914Y-80464285D01*
X185042914Y-80464285D02*
X185090533Y-80559523D01*
X139039580Y-47704166D02*
X139087200Y-47751785D01*
X139087200Y-47751785D02*
X139134819Y-47894642D01*
X139134819Y-47894642D02*
X139134819Y-47989880D01*
X139134819Y-47989880D02*
X139087200Y-48132737D01*
X139087200Y-48132737D02*
X138991961Y-48227975D01*
X138991961Y-48227975D02*
X138896723Y-48275594D01*
X138896723Y-48275594D02*
X138706247Y-48323213D01*
X138706247Y-48323213D02*
X138563390Y-48323213D01*
X138563390Y-48323213D02*
X138372914Y-48275594D01*
X138372914Y-48275594D02*
X138277676Y-48227975D01*
X138277676Y-48227975D02*
X138182438Y-48132737D01*
X138182438Y-48132737D02*
X138134819Y-47989880D01*
X138134819Y-47989880D02*
X138134819Y-47894642D01*
X138134819Y-47894642D02*
X138182438Y-47751785D01*
X138182438Y-47751785D02*
X138230057Y-47704166D01*
X138230057Y-47323213D02*
X138182438Y-47275594D01*
X138182438Y-47275594D02*
X138134819Y-47180356D01*
X138134819Y-47180356D02*
X138134819Y-46942261D01*
X138134819Y-46942261D02*
X138182438Y-46847023D01*
X138182438Y-46847023D02*
X138230057Y-46799404D01*
X138230057Y-46799404D02*
X138325295Y-46751785D01*
X138325295Y-46751785D02*
X138420533Y-46751785D01*
X138420533Y-46751785D02*
X138563390Y-46799404D01*
X138563390Y-46799404D02*
X139134819Y-47370832D01*
X139134819Y-47370832D02*
X139134819Y-46751785D01*
X132454819Y-111166666D02*
X131978628Y-111499999D01*
X132454819Y-111738094D02*
X131454819Y-111738094D01*
X131454819Y-111738094D02*
X131454819Y-111357142D01*
X131454819Y-111357142D02*
X131502438Y-111261904D01*
X131502438Y-111261904D02*
X131550057Y-111214285D01*
X131550057Y-111214285D02*
X131645295Y-111166666D01*
X131645295Y-111166666D02*
X131788152Y-111166666D01*
X131788152Y-111166666D02*
X131883390Y-111214285D01*
X131883390Y-111214285D02*
X131931009Y-111261904D01*
X131931009Y-111261904D02*
X131978628Y-111357142D01*
X131978628Y-111357142D02*
X131978628Y-111738094D01*
X131883390Y-110595237D02*
X131835771Y-110690475D01*
X131835771Y-110690475D02*
X131788152Y-110738094D01*
X131788152Y-110738094D02*
X131692914Y-110785713D01*
X131692914Y-110785713D02*
X131645295Y-110785713D01*
X131645295Y-110785713D02*
X131550057Y-110738094D01*
X131550057Y-110738094D02*
X131502438Y-110690475D01*
X131502438Y-110690475D02*
X131454819Y-110595237D01*
X131454819Y-110595237D02*
X131454819Y-110404761D01*
X131454819Y-110404761D02*
X131502438Y-110309523D01*
X131502438Y-110309523D02*
X131550057Y-110261904D01*
X131550057Y-110261904D02*
X131645295Y-110214285D01*
X131645295Y-110214285D02*
X131692914Y-110214285D01*
X131692914Y-110214285D02*
X131788152Y-110261904D01*
X131788152Y-110261904D02*
X131835771Y-110309523D01*
X131835771Y-110309523D02*
X131883390Y-110404761D01*
X131883390Y-110404761D02*
X131883390Y-110595237D01*
X131883390Y-110595237D02*
X131931009Y-110690475D01*
X131931009Y-110690475D02*
X131978628Y-110738094D01*
X131978628Y-110738094D02*
X132073866Y-110785713D01*
X132073866Y-110785713D02*
X132264342Y-110785713D01*
X132264342Y-110785713D02*
X132359580Y-110738094D01*
X132359580Y-110738094D02*
X132407200Y-110690475D01*
X132407200Y-110690475D02*
X132454819Y-110595237D01*
X132454819Y-110595237D02*
X132454819Y-110404761D01*
X132454819Y-110404761D02*
X132407200Y-110309523D01*
X132407200Y-110309523D02*
X132359580Y-110261904D01*
X132359580Y-110261904D02*
X132264342Y-110214285D01*
X132264342Y-110214285D02*
X132073866Y-110214285D01*
X132073866Y-110214285D02*
X131978628Y-110261904D01*
X131978628Y-110261904D02*
X131931009Y-110309523D01*
X131931009Y-110309523D02*
X131883390Y-110404761D01*
X133831009Y-48308333D02*
X133831009Y-48641666D01*
X134354819Y-48641666D02*
X133354819Y-48641666D01*
X133354819Y-48641666D02*
X133354819Y-48165476D01*
X133831009Y-47451190D02*
X133878628Y-47308333D01*
X133878628Y-47308333D02*
X133926247Y-47260714D01*
X133926247Y-47260714D02*
X134021485Y-47213095D01*
X134021485Y-47213095D02*
X134164342Y-47213095D01*
X134164342Y-47213095D02*
X134259580Y-47260714D01*
X134259580Y-47260714D02*
X134307200Y-47308333D01*
X134307200Y-47308333D02*
X134354819Y-47403571D01*
X134354819Y-47403571D02*
X134354819Y-47784523D01*
X134354819Y-47784523D02*
X133354819Y-47784523D01*
X133354819Y-47784523D02*
X133354819Y-47451190D01*
X133354819Y-47451190D02*
X133402438Y-47355952D01*
X133402438Y-47355952D02*
X133450057Y-47308333D01*
X133450057Y-47308333D02*
X133545295Y-47260714D01*
X133545295Y-47260714D02*
X133640533Y-47260714D01*
X133640533Y-47260714D02*
X133735771Y-47308333D01*
X133735771Y-47308333D02*
X133783390Y-47355952D01*
X133783390Y-47355952D02*
X133831009Y-47451190D01*
X133831009Y-47451190D02*
X133831009Y-47784523D01*
X134354819Y-46260714D02*
X134354819Y-46832142D01*
X134354819Y-46546428D02*
X133354819Y-46546428D01*
X133354819Y-46546428D02*
X133497676Y-46641666D01*
X133497676Y-46641666D02*
X133592914Y-46736904D01*
X133592914Y-46736904D02*
X133640533Y-46832142D01*
X148704819Y-53416666D02*
X148228628Y-53749999D01*
X148704819Y-53988094D02*
X147704819Y-53988094D01*
X147704819Y-53988094D02*
X147704819Y-53607142D01*
X147704819Y-53607142D02*
X147752438Y-53511904D01*
X147752438Y-53511904D02*
X147800057Y-53464285D01*
X147800057Y-53464285D02*
X147895295Y-53416666D01*
X147895295Y-53416666D02*
X148038152Y-53416666D01*
X148038152Y-53416666D02*
X148133390Y-53464285D01*
X148133390Y-53464285D02*
X148181009Y-53511904D01*
X148181009Y-53511904D02*
X148228628Y-53607142D01*
X148228628Y-53607142D02*
X148228628Y-53988094D01*
X147704819Y-53083332D02*
X147704819Y-52464285D01*
X147704819Y-52464285D02*
X148085771Y-52797618D01*
X148085771Y-52797618D02*
X148085771Y-52654761D01*
X148085771Y-52654761D02*
X148133390Y-52559523D01*
X148133390Y-52559523D02*
X148181009Y-52511904D01*
X148181009Y-52511904D02*
X148276247Y-52464285D01*
X148276247Y-52464285D02*
X148514342Y-52464285D01*
X148514342Y-52464285D02*
X148609580Y-52511904D01*
X148609580Y-52511904D02*
X148657200Y-52559523D01*
X148657200Y-52559523D02*
X148704819Y-52654761D01*
X148704819Y-52654761D02*
X148704819Y-52940475D01*
X148704819Y-52940475D02*
X148657200Y-53035713D01*
X148657200Y-53035713D02*
X148609580Y-53083332D01*
X189370833Y-52879580D02*
X189323214Y-52927200D01*
X189323214Y-52927200D02*
X189180357Y-52974819D01*
X189180357Y-52974819D02*
X189085119Y-52974819D01*
X189085119Y-52974819D02*
X188942262Y-52927200D01*
X188942262Y-52927200D02*
X188847024Y-52831961D01*
X188847024Y-52831961D02*
X188799405Y-52736723D01*
X188799405Y-52736723D02*
X188751786Y-52546247D01*
X188751786Y-52546247D02*
X188751786Y-52403390D01*
X188751786Y-52403390D02*
X188799405Y-52212914D01*
X188799405Y-52212914D02*
X188847024Y-52117676D01*
X188847024Y-52117676D02*
X188942262Y-52022438D01*
X188942262Y-52022438D02*
X189085119Y-51974819D01*
X189085119Y-51974819D02*
X189180357Y-51974819D01*
X189180357Y-51974819D02*
X189323214Y-52022438D01*
X189323214Y-52022438D02*
X189370833Y-52070057D01*
X190227976Y-52308152D02*
X190227976Y-52974819D01*
X189989881Y-51927200D02*
X189751786Y-52641485D01*
X189751786Y-52641485D02*
X190370833Y-52641485D01*
X137614819Y-62816904D02*
X138424342Y-62816904D01*
X138424342Y-62816904D02*
X138519580Y-62769285D01*
X138519580Y-62769285D02*
X138567200Y-62721666D01*
X138567200Y-62721666D02*
X138614819Y-62626428D01*
X138614819Y-62626428D02*
X138614819Y-62435952D01*
X138614819Y-62435952D02*
X138567200Y-62340714D01*
X138567200Y-62340714D02*
X138519580Y-62293095D01*
X138519580Y-62293095D02*
X138424342Y-62245476D01*
X138424342Y-62245476D02*
X137614819Y-62245476D01*
X138614819Y-61245476D02*
X138614819Y-61816904D01*
X138614819Y-61531190D02*
X137614819Y-61531190D01*
X137614819Y-61531190D02*
X137757676Y-61626428D01*
X137757676Y-61626428D02*
X137852914Y-61721666D01*
X137852914Y-61721666D02*
X137900533Y-61816904D01*
X124954819Y-61238094D02*
X123954819Y-61238094D01*
X123954819Y-61238094D02*
X123954819Y-60999999D01*
X123954819Y-60999999D02*
X124002438Y-60857142D01*
X124002438Y-60857142D02*
X124097676Y-60761904D01*
X124097676Y-60761904D02*
X124192914Y-60714285D01*
X124192914Y-60714285D02*
X124383390Y-60666666D01*
X124383390Y-60666666D02*
X124526247Y-60666666D01*
X124526247Y-60666666D02*
X124716723Y-60714285D01*
X124716723Y-60714285D02*
X124811961Y-60761904D01*
X124811961Y-60761904D02*
X124907200Y-60857142D01*
X124907200Y-60857142D02*
X124954819Y-60999999D01*
X124954819Y-60999999D02*
X124954819Y-61238094D01*
X124954819Y-59714285D02*
X124954819Y-60285713D01*
X124954819Y-59999999D02*
X123954819Y-59999999D01*
X123954819Y-59999999D02*
X124097676Y-60095237D01*
X124097676Y-60095237D02*
X124192914Y-60190475D01*
X124192914Y-60190475D02*
X124240533Y-60285713D01*
X199416666Y-85074819D02*
X199416666Y-85789104D01*
X199416666Y-85789104D02*
X199369047Y-85931961D01*
X199369047Y-85931961D02*
X199273809Y-86027200D01*
X199273809Y-86027200D02*
X199130952Y-86074819D01*
X199130952Y-86074819D02*
X199035714Y-86074819D01*
X199797619Y-85074819D02*
X200464285Y-85074819D01*
X200464285Y-85074819D02*
X200035714Y-86074819D01*
X199416666Y-57049819D02*
X199416666Y-57764104D01*
X199416666Y-57764104D02*
X199369047Y-57906961D01*
X199369047Y-57906961D02*
X199273809Y-58002200D01*
X199273809Y-58002200D02*
X199130952Y-58049819D01*
X199130952Y-58049819D02*
X199035714Y-58049819D01*
X199940476Y-58049819D02*
X200130952Y-58049819D01*
X200130952Y-58049819D02*
X200226190Y-58002200D01*
X200226190Y-58002200D02*
X200273809Y-57954580D01*
X200273809Y-57954580D02*
X200369047Y-57811723D01*
X200369047Y-57811723D02*
X200416666Y-57621247D01*
X200416666Y-57621247D02*
X200416666Y-57240295D01*
X200416666Y-57240295D02*
X200369047Y-57145057D01*
X200369047Y-57145057D02*
X200321428Y-57097438D01*
X200321428Y-57097438D02*
X200226190Y-57049819D01*
X200226190Y-57049819D02*
X200035714Y-57049819D01*
X200035714Y-57049819D02*
X199940476Y-57097438D01*
X199940476Y-57097438D02*
X199892857Y-57145057D01*
X199892857Y-57145057D02*
X199845238Y-57240295D01*
X199845238Y-57240295D02*
X199845238Y-57478390D01*
X199845238Y-57478390D02*
X199892857Y-57573628D01*
X199892857Y-57573628D02*
X199940476Y-57621247D01*
X199940476Y-57621247D02*
X200035714Y-57668866D01*
X200035714Y-57668866D02*
X200226190Y-57668866D01*
X200226190Y-57668866D02*
X200321428Y-57621247D01*
X200321428Y-57621247D02*
X200369047Y-57573628D01*
X200369047Y-57573628D02*
X200416666Y-57478390D01*
X185679580Y-92879166D02*
X185727200Y-92926785D01*
X185727200Y-92926785D02*
X185774819Y-93069642D01*
X185774819Y-93069642D02*
X185774819Y-93164880D01*
X185774819Y-93164880D02*
X185727200Y-93307737D01*
X185727200Y-93307737D02*
X185631961Y-93402975D01*
X185631961Y-93402975D02*
X185536723Y-93450594D01*
X185536723Y-93450594D02*
X185346247Y-93498213D01*
X185346247Y-93498213D02*
X185203390Y-93498213D01*
X185203390Y-93498213D02*
X185012914Y-93450594D01*
X185012914Y-93450594D02*
X184917676Y-93402975D01*
X184917676Y-93402975D02*
X184822438Y-93307737D01*
X184822438Y-93307737D02*
X184774819Y-93164880D01*
X184774819Y-93164880D02*
X184774819Y-93069642D01*
X184774819Y-93069642D02*
X184822438Y-92926785D01*
X184822438Y-92926785D02*
X184870057Y-92879166D01*
X185774819Y-92402975D02*
X185774819Y-92212499D01*
X185774819Y-92212499D02*
X185727200Y-92117261D01*
X185727200Y-92117261D02*
X185679580Y-92069642D01*
X185679580Y-92069642D02*
X185536723Y-91974404D01*
X185536723Y-91974404D02*
X185346247Y-91926785D01*
X185346247Y-91926785D02*
X184965295Y-91926785D01*
X184965295Y-91926785D02*
X184870057Y-91974404D01*
X184870057Y-91974404D02*
X184822438Y-92022023D01*
X184822438Y-92022023D02*
X184774819Y-92117261D01*
X184774819Y-92117261D02*
X184774819Y-92307737D01*
X184774819Y-92307737D02*
X184822438Y-92402975D01*
X184822438Y-92402975D02*
X184870057Y-92450594D01*
X184870057Y-92450594D02*
X184965295Y-92498213D01*
X184965295Y-92498213D02*
X185203390Y-92498213D01*
X185203390Y-92498213D02*
X185298628Y-92450594D01*
X185298628Y-92450594D02*
X185346247Y-92402975D01*
X185346247Y-92402975D02*
X185393866Y-92307737D01*
X185393866Y-92307737D02*
X185393866Y-92117261D01*
X185393866Y-92117261D02*
X185346247Y-92022023D01*
X185346247Y-92022023D02*
X185298628Y-91974404D01*
X185298628Y-91974404D02*
X185203390Y-91926785D01*
X165789580Y-111204166D02*
X165837200Y-111251785D01*
X165837200Y-111251785D02*
X165884819Y-111394642D01*
X165884819Y-111394642D02*
X165884819Y-111489880D01*
X165884819Y-111489880D02*
X165837200Y-111632737D01*
X165837200Y-111632737D02*
X165741961Y-111727975D01*
X165741961Y-111727975D02*
X165646723Y-111775594D01*
X165646723Y-111775594D02*
X165456247Y-111823213D01*
X165456247Y-111823213D02*
X165313390Y-111823213D01*
X165313390Y-111823213D02*
X165122914Y-111775594D01*
X165122914Y-111775594D02*
X165027676Y-111727975D01*
X165027676Y-111727975D02*
X164932438Y-111632737D01*
X164932438Y-111632737D02*
X164884819Y-111489880D01*
X164884819Y-111489880D02*
X164884819Y-111394642D01*
X164884819Y-111394642D02*
X164932438Y-111251785D01*
X164932438Y-111251785D02*
X164980057Y-111204166D01*
X164884819Y-110870832D02*
X164884819Y-110204166D01*
X164884819Y-110204166D02*
X165884819Y-110632737D01*
X143331009Y-48358333D02*
X143331009Y-48691666D01*
X143854819Y-48691666D02*
X142854819Y-48691666D01*
X142854819Y-48691666D02*
X142854819Y-48215476D01*
X143331009Y-47501190D02*
X143378628Y-47358333D01*
X143378628Y-47358333D02*
X143426247Y-47310714D01*
X143426247Y-47310714D02*
X143521485Y-47263095D01*
X143521485Y-47263095D02*
X143664342Y-47263095D01*
X143664342Y-47263095D02*
X143759580Y-47310714D01*
X143759580Y-47310714D02*
X143807200Y-47358333D01*
X143807200Y-47358333D02*
X143854819Y-47453571D01*
X143854819Y-47453571D02*
X143854819Y-47834523D01*
X143854819Y-47834523D02*
X142854819Y-47834523D01*
X142854819Y-47834523D02*
X142854819Y-47501190D01*
X142854819Y-47501190D02*
X142902438Y-47405952D01*
X142902438Y-47405952D02*
X142950057Y-47358333D01*
X142950057Y-47358333D02*
X143045295Y-47310714D01*
X143045295Y-47310714D02*
X143140533Y-47310714D01*
X143140533Y-47310714D02*
X143235771Y-47358333D01*
X143235771Y-47358333D02*
X143283390Y-47405952D01*
X143283390Y-47405952D02*
X143331009Y-47501190D01*
X143331009Y-47501190D02*
X143331009Y-47834523D01*
X143188152Y-46405952D02*
X143854819Y-46405952D01*
X142807200Y-46644047D02*
X143521485Y-46882142D01*
X143521485Y-46882142D02*
X143521485Y-46263095D01*
X188539580Y-106180357D02*
X188587200Y-106227976D01*
X188587200Y-106227976D02*
X188634819Y-106370833D01*
X188634819Y-106370833D02*
X188634819Y-106466071D01*
X188634819Y-106466071D02*
X188587200Y-106608928D01*
X188587200Y-106608928D02*
X188491961Y-106704166D01*
X188491961Y-106704166D02*
X188396723Y-106751785D01*
X188396723Y-106751785D02*
X188206247Y-106799404D01*
X188206247Y-106799404D02*
X188063390Y-106799404D01*
X188063390Y-106799404D02*
X187872914Y-106751785D01*
X187872914Y-106751785D02*
X187777676Y-106704166D01*
X187777676Y-106704166D02*
X187682438Y-106608928D01*
X187682438Y-106608928D02*
X187634819Y-106466071D01*
X187634819Y-106466071D02*
X187634819Y-106370833D01*
X187634819Y-106370833D02*
X187682438Y-106227976D01*
X187682438Y-106227976D02*
X187730057Y-106180357D01*
X188634819Y-105227976D02*
X188634819Y-105799404D01*
X188634819Y-105513690D02*
X187634819Y-105513690D01*
X187634819Y-105513690D02*
X187777676Y-105608928D01*
X187777676Y-105608928D02*
X187872914Y-105704166D01*
X187872914Y-105704166D02*
X187920533Y-105799404D01*
X187634819Y-104608928D02*
X187634819Y-104513690D01*
X187634819Y-104513690D02*
X187682438Y-104418452D01*
X187682438Y-104418452D02*
X187730057Y-104370833D01*
X187730057Y-104370833D02*
X187825295Y-104323214D01*
X187825295Y-104323214D02*
X188015771Y-104275595D01*
X188015771Y-104275595D02*
X188253866Y-104275595D01*
X188253866Y-104275595D02*
X188444342Y-104323214D01*
X188444342Y-104323214D02*
X188539580Y-104370833D01*
X188539580Y-104370833D02*
X188587200Y-104418452D01*
X188587200Y-104418452D02*
X188634819Y-104513690D01*
X188634819Y-104513690D02*
X188634819Y-104608928D01*
X188634819Y-104608928D02*
X188587200Y-104704166D01*
X188587200Y-104704166D02*
X188539580Y-104751785D01*
X188539580Y-104751785D02*
X188444342Y-104799404D01*
X188444342Y-104799404D02*
X188253866Y-104847023D01*
X188253866Y-104847023D02*
X188015771Y-104847023D01*
X188015771Y-104847023D02*
X187825295Y-104799404D01*
X187825295Y-104799404D02*
X187730057Y-104751785D01*
X187730057Y-104751785D02*
X187682438Y-104704166D01*
X187682438Y-104704166D02*
X187634819Y-104608928D01*
X127704819Y-111166666D02*
X127228628Y-111499999D01*
X127704819Y-111738094D02*
X126704819Y-111738094D01*
X126704819Y-111738094D02*
X126704819Y-111357142D01*
X126704819Y-111357142D02*
X126752438Y-111261904D01*
X126752438Y-111261904D02*
X126800057Y-111214285D01*
X126800057Y-111214285D02*
X126895295Y-111166666D01*
X126895295Y-111166666D02*
X127038152Y-111166666D01*
X127038152Y-111166666D02*
X127133390Y-111214285D01*
X127133390Y-111214285D02*
X127181009Y-111261904D01*
X127181009Y-111261904D02*
X127228628Y-111357142D01*
X127228628Y-111357142D02*
X127228628Y-111738094D01*
X126704819Y-110261904D02*
X126704819Y-110738094D01*
X126704819Y-110738094D02*
X127181009Y-110785713D01*
X127181009Y-110785713D02*
X127133390Y-110738094D01*
X127133390Y-110738094D02*
X127085771Y-110642856D01*
X127085771Y-110642856D02*
X127085771Y-110404761D01*
X127085771Y-110404761D02*
X127133390Y-110309523D01*
X127133390Y-110309523D02*
X127181009Y-110261904D01*
X127181009Y-110261904D02*
X127276247Y-110214285D01*
X127276247Y-110214285D02*
X127514342Y-110214285D01*
X127514342Y-110214285D02*
X127609580Y-110261904D01*
X127609580Y-110261904D02*
X127657200Y-110309523D01*
X127657200Y-110309523D02*
X127704819Y-110404761D01*
X127704819Y-110404761D02*
X127704819Y-110642856D01*
X127704819Y-110642856D02*
X127657200Y-110738094D01*
X127657200Y-110738094D02*
X127609580Y-110785713D01*
X142204819Y-111166666D02*
X141728628Y-111499999D01*
X142204819Y-111738094D02*
X141204819Y-111738094D01*
X141204819Y-111738094D02*
X141204819Y-111357142D01*
X141204819Y-111357142D02*
X141252438Y-111261904D01*
X141252438Y-111261904D02*
X141300057Y-111214285D01*
X141300057Y-111214285D02*
X141395295Y-111166666D01*
X141395295Y-111166666D02*
X141538152Y-111166666D01*
X141538152Y-111166666D02*
X141633390Y-111214285D01*
X141633390Y-111214285D02*
X141681009Y-111261904D01*
X141681009Y-111261904D02*
X141728628Y-111357142D01*
X141728628Y-111357142D02*
X141728628Y-111738094D01*
X141204819Y-110309523D02*
X141204819Y-110499999D01*
X141204819Y-110499999D02*
X141252438Y-110595237D01*
X141252438Y-110595237D02*
X141300057Y-110642856D01*
X141300057Y-110642856D02*
X141442914Y-110738094D01*
X141442914Y-110738094D02*
X141633390Y-110785713D01*
X141633390Y-110785713D02*
X142014342Y-110785713D01*
X142014342Y-110785713D02*
X142109580Y-110738094D01*
X142109580Y-110738094D02*
X142157200Y-110690475D01*
X142157200Y-110690475D02*
X142204819Y-110595237D01*
X142204819Y-110595237D02*
X142204819Y-110404761D01*
X142204819Y-110404761D02*
X142157200Y-110309523D01*
X142157200Y-110309523D02*
X142109580Y-110261904D01*
X142109580Y-110261904D02*
X142014342Y-110214285D01*
X142014342Y-110214285D02*
X141776247Y-110214285D01*
X141776247Y-110214285D02*
X141681009Y-110261904D01*
X141681009Y-110261904D02*
X141633390Y-110309523D01*
X141633390Y-110309523D02*
X141585771Y-110404761D01*
X141585771Y-110404761D02*
X141585771Y-110595237D01*
X141585771Y-110595237D02*
X141633390Y-110690475D01*
X141633390Y-110690475D02*
X141681009Y-110738094D01*
X141681009Y-110738094D02*
X141776247Y-110785713D01*
X148081009Y-48308333D02*
X148081009Y-48641666D01*
X148604819Y-48641666D02*
X147604819Y-48641666D01*
X147604819Y-48641666D02*
X147604819Y-48165476D01*
X148081009Y-47451190D02*
X148128628Y-47308333D01*
X148128628Y-47308333D02*
X148176247Y-47260714D01*
X148176247Y-47260714D02*
X148271485Y-47213095D01*
X148271485Y-47213095D02*
X148414342Y-47213095D01*
X148414342Y-47213095D02*
X148509580Y-47260714D01*
X148509580Y-47260714D02*
X148557200Y-47308333D01*
X148557200Y-47308333D02*
X148604819Y-47403571D01*
X148604819Y-47403571D02*
X148604819Y-47784523D01*
X148604819Y-47784523D02*
X147604819Y-47784523D01*
X147604819Y-47784523D02*
X147604819Y-47451190D01*
X147604819Y-47451190D02*
X147652438Y-47355952D01*
X147652438Y-47355952D02*
X147700057Y-47308333D01*
X147700057Y-47308333D02*
X147795295Y-47260714D01*
X147795295Y-47260714D02*
X147890533Y-47260714D01*
X147890533Y-47260714D02*
X147985771Y-47308333D01*
X147985771Y-47308333D02*
X148033390Y-47355952D01*
X148033390Y-47355952D02*
X148081009Y-47451190D01*
X148081009Y-47451190D02*
X148081009Y-47784523D01*
X147604819Y-46879761D02*
X147604819Y-46260714D01*
X147604819Y-46260714D02*
X147985771Y-46594047D01*
X147985771Y-46594047D02*
X147985771Y-46451190D01*
X147985771Y-46451190D02*
X148033390Y-46355952D01*
X148033390Y-46355952D02*
X148081009Y-46308333D01*
X148081009Y-46308333D02*
X148176247Y-46260714D01*
X148176247Y-46260714D02*
X148414342Y-46260714D01*
X148414342Y-46260714D02*
X148509580Y-46308333D01*
X148509580Y-46308333D02*
X148557200Y-46355952D01*
X148557200Y-46355952D02*
X148604819Y-46451190D01*
X148604819Y-46451190D02*
X148604819Y-46736904D01*
X148604819Y-46736904D02*
X148557200Y-46832142D01*
X148557200Y-46832142D02*
X148509580Y-46879761D01*
X186766666Y-84904819D02*
X186766666Y-85619104D01*
X186766666Y-85619104D02*
X186719047Y-85761961D01*
X186719047Y-85761961D02*
X186623809Y-85857200D01*
X186623809Y-85857200D02*
X186480952Y-85904819D01*
X186480952Y-85904819D02*
X186385714Y-85904819D01*
X187242857Y-85904819D02*
X187242857Y-84904819D01*
X187242857Y-84904819D02*
X187623809Y-84904819D01*
X187623809Y-84904819D02*
X187719047Y-84952438D01*
X187719047Y-84952438D02*
X187766666Y-85000057D01*
X187766666Y-85000057D02*
X187814285Y-85095295D01*
X187814285Y-85095295D02*
X187814285Y-85238152D01*
X187814285Y-85238152D02*
X187766666Y-85333390D01*
X187766666Y-85333390D02*
X187719047Y-85381009D01*
X187719047Y-85381009D02*
X187623809Y-85428628D01*
X187623809Y-85428628D02*
X187242857Y-85428628D01*
X188766666Y-85904819D02*
X188195238Y-85904819D01*
X188480952Y-85904819D02*
X188480952Y-84904819D01*
X188480952Y-84904819D02*
X188385714Y-85047676D01*
X188385714Y-85047676D02*
X188290476Y-85142914D01*
X188290476Y-85142914D02*
X188195238Y-85190533D01*
X137039580Y-111129166D02*
X137087200Y-111176785D01*
X137087200Y-111176785D02*
X137134819Y-111319642D01*
X137134819Y-111319642D02*
X137134819Y-111414880D01*
X137134819Y-111414880D02*
X137087200Y-111557737D01*
X137087200Y-111557737D02*
X136991961Y-111652975D01*
X136991961Y-111652975D02*
X136896723Y-111700594D01*
X136896723Y-111700594D02*
X136706247Y-111748213D01*
X136706247Y-111748213D02*
X136563390Y-111748213D01*
X136563390Y-111748213D02*
X136372914Y-111700594D01*
X136372914Y-111700594D02*
X136277676Y-111652975D01*
X136277676Y-111652975D02*
X136182438Y-111557737D01*
X136182438Y-111557737D02*
X136134819Y-111414880D01*
X136134819Y-111414880D02*
X136134819Y-111319642D01*
X136134819Y-111319642D02*
X136182438Y-111176785D01*
X136182438Y-111176785D02*
X136230057Y-111129166D01*
X136134819Y-110224404D02*
X136134819Y-110700594D01*
X136134819Y-110700594D02*
X136611009Y-110748213D01*
X136611009Y-110748213D02*
X136563390Y-110700594D01*
X136563390Y-110700594D02*
X136515771Y-110605356D01*
X136515771Y-110605356D02*
X136515771Y-110367261D01*
X136515771Y-110367261D02*
X136563390Y-110272023D01*
X136563390Y-110272023D02*
X136611009Y-110224404D01*
X136611009Y-110224404D02*
X136706247Y-110176785D01*
X136706247Y-110176785D02*
X136944342Y-110176785D01*
X136944342Y-110176785D02*
X137039580Y-110224404D01*
X137039580Y-110224404D02*
X137087200Y-110272023D01*
X137087200Y-110272023D02*
X137134819Y-110367261D01*
X137134819Y-110367261D02*
X137134819Y-110605356D01*
X137134819Y-110605356D02*
X137087200Y-110700594D01*
X137087200Y-110700594D02*
X137039580Y-110748213D01*
X129081009Y-48308333D02*
X129081009Y-48641666D01*
X129604819Y-48641666D02*
X128604819Y-48641666D01*
X128604819Y-48641666D02*
X128604819Y-48165476D01*
X129081009Y-47451190D02*
X129128628Y-47308333D01*
X129128628Y-47308333D02*
X129176247Y-47260714D01*
X129176247Y-47260714D02*
X129271485Y-47213095D01*
X129271485Y-47213095D02*
X129414342Y-47213095D01*
X129414342Y-47213095D02*
X129509580Y-47260714D01*
X129509580Y-47260714D02*
X129557200Y-47308333D01*
X129557200Y-47308333D02*
X129604819Y-47403571D01*
X129604819Y-47403571D02*
X129604819Y-47784523D01*
X129604819Y-47784523D02*
X128604819Y-47784523D01*
X128604819Y-47784523D02*
X128604819Y-47451190D01*
X128604819Y-47451190D02*
X128652438Y-47355952D01*
X128652438Y-47355952D02*
X128700057Y-47308333D01*
X128700057Y-47308333D02*
X128795295Y-47260714D01*
X128795295Y-47260714D02*
X128890533Y-47260714D01*
X128890533Y-47260714D02*
X128985771Y-47308333D01*
X128985771Y-47308333D02*
X129033390Y-47355952D01*
X129033390Y-47355952D02*
X129081009Y-47451190D01*
X129081009Y-47451190D02*
X129081009Y-47784523D01*
X128700057Y-46832142D02*
X128652438Y-46784523D01*
X128652438Y-46784523D02*
X128604819Y-46689285D01*
X128604819Y-46689285D02*
X128604819Y-46451190D01*
X128604819Y-46451190D02*
X128652438Y-46355952D01*
X128652438Y-46355952D02*
X128700057Y-46308333D01*
X128700057Y-46308333D02*
X128795295Y-46260714D01*
X128795295Y-46260714D02*
X128890533Y-46260714D01*
X128890533Y-46260714D02*
X129033390Y-46308333D01*
X129033390Y-46308333D02*
X129604819Y-46879761D01*
X129604819Y-46879761D02*
X129604819Y-46260714D01*
X193454819Y-106217857D02*
X192978628Y-106551190D01*
X193454819Y-106789285D02*
X192454819Y-106789285D01*
X192454819Y-106789285D02*
X192454819Y-106408333D01*
X192454819Y-106408333D02*
X192502438Y-106313095D01*
X192502438Y-106313095D02*
X192550057Y-106265476D01*
X192550057Y-106265476D02*
X192645295Y-106217857D01*
X192645295Y-106217857D02*
X192788152Y-106217857D01*
X192788152Y-106217857D02*
X192883390Y-106265476D01*
X192883390Y-106265476D02*
X192931009Y-106313095D01*
X192931009Y-106313095D02*
X192978628Y-106408333D01*
X192978628Y-106408333D02*
X192978628Y-106789285D01*
X193454819Y-105265476D02*
X193454819Y-105836904D01*
X193454819Y-105551190D02*
X192454819Y-105551190D01*
X192454819Y-105551190D02*
X192597676Y-105646428D01*
X192597676Y-105646428D02*
X192692914Y-105741666D01*
X192692914Y-105741666D02*
X192740533Y-105836904D01*
X192788152Y-104408333D02*
X193454819Y-104408333D01*
X192407200Y-104646428D02*
X193121485Y-104884523D01*
X193121485Y-104884523D02*
X193121485Y-104265476D01*
X190554819Y-81892857D02*
X190078628Y-82226190D01*
X190554819Y-82464285D02*
X189554819Y-82464285D01*
X189554819Y-82464285D02*
X189554819Y-82083333D01*
X189554819Y-82083333D02*
X189602438Y-81988095D01*
X189602438Y-81988095D02*
X189650057Y-81940476D01*
X189650057Y-81940476D02*
X189745295Y-81892857D01*
X189745295Y-81892857D02*
X189888152Y-81892857D01*
X189888152Y-81892857D02*
X189983390Y-81940476D01*
X189983390Y-81940476D02*
X190031009Y-81988095D01*
X190031009Y-81988095D02*
X190078628Y-82083333D01*
X190078628Y-82083333D02*
X190078628Y-82464285D01*
X190554819Y-80940476D02*
X190554819Y-81511904D01*
X190554819Y-81226190D02*
X189554819Y-81226190D01*
X189554819Y-81226190D02*
X189697676Y-81321428D01*
X189697676Y-81321428D02*
X189792914Y-81416666D01*
X189792914Y-81416666D02*
X189840533Y-81511904D01*
X189650057Y-80559523D02*
X189602438Y-80511904D01*
X189602438Y-80511904D02*
X189554819Y-80416666D01*
X189554819Y-80416666D02*
X189554819Y-80178571D01*
X189554819Y-80178571D02*
X189602438Y-80083333D01*
X189602438Y-80083333D02*
X189650057Y-80035714D01*
X189650057Y-80035714D02*
X189745295Y-79988095D01*
X189745295Y-79988095D02*
X189840533Y-79988095D01*
X189840533Y-79988095D02*
X189983390Y-80035714D01*
X189983390Y-80035714D02*
X190554819Y-80607142D01*
X190554819Y-80607142D02*
X190554819Y-79988095D01*
X173857142Y-129209580D02*
X173809523Y-129257200D01*
X173809523Y-129257200D02*
X173666666Y-129304819D01*
X173666666Y-129304819D02*
X173571428Y-129304819D01*
X173571428Y-129304819D02*
X173428571Y-129257200D01*
X173428571Y-129257200D02*
X173333333Y-129161961D01*
X173333333Y-129161961D02*
X173285714Y-129066723D01*
X173285714Y-129066723D02*
X173238095Y-128876247D01*
X173238095Y-128876247D02*
X173238095Y-128733390D01*
X173238095Y-128733390D02*
X173285714Y-128542914D01*
X173285714Y-128542914D02*
X173333333Y-128447676D01*
X173333333Y-128447676D02*
X173428571Y-128352438D01*
X173428571Y-128352438D02*
X173571428Y-128304819D01*
X173571428Y-128304819D02*
X173666666Y-128304819D01*
X173666666Y-128304819D02*
X173809523Y-128352438D01*
X173809523Y-128352438D02*
X173857142Y-128400057D01*
X174809523Y-129304819D02*
X174238095Y-129304819D01*
X174523809Y-129304819D02*
X174523809Y-128304819D01*
X174523809Y-128304819D02*
X174428571Y-128447676D01*
X174428571Y-128447676D02*
X174333333Y-128542914D01*
X174333333Y-128542914D02*
X174238095Y-128590533D01*
X175190476Y-128400057D02*
X175238095Y-128352438D01*
X175238095Y-128352438D02*
X175333333Y-128304819D01*
X175333333Y-128304819D02*
X175571428Y-128304819D01*
X175571428Y-128304819D02*
X175666666Y-128352438D01*
X175666666Y-128352438D02*
X175714285Y-128400057D01*
X175714285Y-128400057D02*
X175761904Y-128495295D01*
X175761904Y-128495295D02*
X175761904Y-128590533D01*
X175761904Y-128590533D02*
X175714285Y-128733390D01*
X175714285Y-128733390D02*
X175142857Y-129304819D01*
X175142857Y-129304819D02*
X175761904Y-129304819D01*
X141583333Y-64104819D02*
X141250000Y-63628628D01*
X141011905Y-64104819D02*
X141011905Y-63104819D01*
X141011905Y-63104819D02*
X141392857Y-63104819D01*
X141392857Y-63104819D02*
X141488095Y-63152438D01*
X141488095Y-63152438D02*
X141535714Y-63200057D01*
X141535714Y-63200057D02*
X141583333Y-63295295D01*
X141583333Y-63295295D02*
X141583333Y-63438152D01*
X141583333Y-63438152D02*
X141535714Y-63533390D01*
X141535714Y-63533390D02*
X141488095Y-63581009D01*
X141488095Y-63581009D02*
X141392857Y-63628628D01*
X141392857Y-63628628D02*
X141011905Y-63628628D01*
X142535714Y-64104819D02*
X141964286Y-64104819D01*
X142250000Y-64104819D02*
X142250000Y-63104819D01*
X142250000Y-63104819D02*
X142154762Y-63247676D01*
X142154762Y-63247676D02*
X142059524Y-63342914D01*
X142059524Y-63342914D02*
X141964286Y-63390533D01*
X161204819Y-111642857D02*
X160728628Y-111976190D01*
X161204819Y-112214285D02*
X160204819Y-112214285D01*
X160204819Y-112214285D02*
X160204819Y-111833333D01*
X160204819Y-111833333D02*
X160252438Y-111738095D01*
X160252438Y-111738095D02*
X160300057Y-111690476D01*
X160300057Y-111690476D02*
X160395295Y-111642857D01*
X160395295Y-111642857D02*
X160538152Y-111642857D01*
X160538152Y-111642857D02*
X160633390Y-111690476D01*
X160633390Y-111690476D02*
X160681009Y-111738095D01*
X160681009Y-111738095D02*
X160728628Y-111833333D01*
X160728628Y-111833333D02*
X160728628Y-112214285D01*
X161204819Y-110690476D02*
X161204819Y-111261904D01*
X161204819Y-110976190D02*
X160204819Y-110976190D01*
X160204819Y-110976190D02*
X160347676Y-111071428D01*
X160347676Y-111071428D02*
X160442914Y-111166666D01*
X160442914Y-111166666D02*
X160490533Y-111261904D01*
X160204819Y-110071428D02*
X160204819Y-109976190D01*
X160204819Y-109976190D02*
X160252438Y-109880952D01*
X160252438Y-109880952D02*
X160300057Y-109833333D01*
X160300057Y-109833333D02*
X160395295Y-109785714D01*
X160395295Y-109785714D02*
X160585771Y-109738095D01*
X160585771Y-109738095D02*
X160823866Y-109738095D01*
X160823866Y-109738095D02*
X161014342Y-109785714D01*
X161014342Y-109785714D02*
X161109580Y-109833333D01*
X161109580Y-109833333D02*
X161157200Y-109880952D01*
X161157200Y-109880952D02*
X161204819Y-109976190D01*
X161204819Y-109976190D02*
X161204819Y-110071428D01*
X161204819Y-110071428D02*
X161157200Y-110166666D01*
X161157200Y-110166666D02*
X161109580Y-110214285D01*
X161109580Y-110214285D02*
X161014342Y-110261904D01*
X161014342Y-110261904D02*
X160823866Y-110309523D01*
X160823866Y-110309523D02*
X160585771Y-110309523D01*
X160585771Y-110309523D02*
X160395295Y-110261904D01*
X160395295Y-110261904D02*
X160300057Y-110214285D01*
X160300057Y-110214285D02*
X160252438Y-110166666D01*
X160252438Y-110166666D02*
X160204819Y-110071428D01*
X198104819Y-106217857D02*
X197628628Y-106551190D01*
X198104819Y-106789285D02*
X197104819Y-106789285D01*
X197104819Y-106789285D02*
X197104819Y-106408333D01*
X197104819Y-106408333D02*
X197152438Y-106313095D01*
X197152438Y-106313095D02*
X197200057Y-106265476D01*
X197200057Y-106265476D02*
X197295295Y-106217857D01*
X197295295Y-106217857D02*
X197438152Y-106217857D01*
X197438152Y-106217857D02*
X197533390Y-106265476D01*
X197533390Y-106265476D02*
X197581009Y-106313095D01*
X197581009Y-106313095D02*
X197628628Y-106408333D01*
X197628628Y-106408333D02*
X197628628Y-106789285D01*
X198104819Y-105265476D02*
X198104819Y-105836904D01*
X198104819Y-105551190D02*
X197104819Y-105551190D01*
X197104819Y-105551190D02*
X197247676Y-105646428D01*
X197247676Y-105646428D02*
X197342914Y-105741666D01*
X197342914Y-105741666D02*
X197390533Y-105836904D01*
X197104819Y-104932142D02*
X197104819Y-104313095D01*
X197104819Y-104313095D02*
X197485771Y-104646428D01*
X197485771Y-104646428D02*
X197485771Y-104503571D01*
X197485771Y-104503571D02*
X197533390Y-104408333D01*
X197533390Y-104408333D02*
X197581009Y-104360714D01*
X197581009Y-104360714D02*
X197676247Y-104313095D01*
X197676247Y-104313095D02*
X197914342Y-104313095D01*
X197914342Y-104313095D02*
X198009580Y-104360714D01*
X198009580Y-104360714D02*
X198057200Y-104408333D01*
X198057200Y-104408333D02*
X198104819Y-104503571D01*
X198104819Y-104503571D02*
X198104819Y-104789285D01*
X198104819Y-104789285D02*
X198057200Y-104884523D01*
X198057200Y-104884523D02*
X198009580Y-104932142D01*
X193795833Y-76179580D02*
X193748214Y-76227200D01*
X193748214Y-76227200D02*
X193605357Y-76274819D01*
X193605357Y-76274819D02*
X193510119Y-76274819D01*
X193510119Y-76274819D02*
X193367262Y-76227200D01*
X193367262Y-76227200D02*
X193272024Y-76131961D01*
X193272024Y-76131961D02*
X193224405Y-76036723D01*
X193224405Y-76036723D02*
X193176786Y-75846247D01*
X193176786Y-75846247D02*
X193176786Y-75703390D01*
X193176786Y-75703390D02*
X193224405Y-75512914D01*
X193224405Y-75512914D02*
X193272024Y-75417676D01*
X193272024Y-75417676D02*
X193367262Y-75322438D01*
X193367262Y-75322438D02*
X193510119Y-75274819D01*
X193510119Y-75274819D02*
X193605357Y-75274819D01*
X193605357Y-75274819D02*
X193748214Y-75322438D01*
X193748214Y-75322438D02*
X193795833Y-75370057D01*
X194367262Y-75703390D02*
X194272024Y-75655771D01*
X194272024Y-75655771D02*
X194224405Y-75608152D01*
X194224405Y-75608152D02*
X194176786Y-75512914D01*
X194176786Y-75512914D02*
X194176786Y-75465295D01*
X194176786Y-75465295D02*
X194224405Y-75370057D01*
X194224405Y-75370057D02*
X194272024Y-75322438D01*
X194272024Y-75322438D02*
X194367262Y-75274819D01*
X194367262Y-75274819D02*
X194557738Y-75274819D01*
X194557738Y-75274819D02*
X194652976Y-75322438D01*
X194652976Y-75322438D02*
X194700595Y-75370057D01*
X194700595Y-75370057D02*
X194748214Y-75465295D01*
X194748214Y-75465295D02*
X194748214Y-75512914D01*
X194748214Y-75512914D02*
X194700595Y-75608152D01*
X194700595Y-75608152D02*
X194652976Y-75655771D01*
X194652976Y-75655771D02*
X194557738Y-75703390D01*
X194557738Y-75703390D02*
X194367262Y-75703390D01*
X194367262Y-75703390D02*
X194272024Y-75751009D01*
X194272024Y-75751009D02*
X194224405Y-75798628D01*
X194224405Y-75798628D02*
X194176786Y-75893866D01*
X194176786Y-75893866D02*
X194176786Y-76084342D01*
X194176786Y-76084342D02*
X194224405Y-76179580D01*
X194224405Y-76179580D02*
X194272024Y-76227200D01*
X194272024Y-76227200D02*
X194367262Y-76274819D01*
X194367262Y-76274819D02*
X194557738Y-76274819D01*
X194557738Y-76274819D02*
X194652976Y-76227200D01*
X194652976Y-76227200D02*
X194700595Y-76179580D01*
X194700595Y-76179580D02*
X194748214Y-76084342D01*
X194748214Y-76084342D02*
X194748214Y-75893866D01*
X194748214Y-75893866D02*
X194700595Y-75798628D01*
X194700595Y-75798628D02*
X194652976Y-75751009D01*
X194652976Y-75751009D02*
X194557738Y-75703390D01*
X134454819Y-52166666D02*
X133978628Y-52499999D01*
X134454819Y-52738094D02*
X133454819Y-52738094D01*
X133454819Y-52738094D02*
X133454819Y-52357142D01*
X133454819Y-52357142D02*
X133502438Y-52261904D01*
X133502438Y-52261904D02*
X133550057Y-52214285D01*
X133550057Y-52214285D02*
X133645295Y-52166666D01*
X133645295Y-52166666D02*
X133788152Y-52166666D01*
X133788152Y-52166666D02*
X133883390Y-52214285D01*
X133883390Y-52214285D02*
X133931009Y-52261904D01*
X133931009Y-52261904D02*
X133978628Y-52357142D01*
X133978628Y-52357142D02*
X133978628Y-52738094D01*
X133550057Y-51785713D02*
X133502438Y-51738094D01*
X133502438Y-51738094D02*
X133454819Y-51642856D01*
X133454819Y-51642856D02*
X133454819Y-51404761D01*
X133454819Y-51404761D02*
X133502438Y-51309523D01*
X133502438Y-51309523D02*
X133550057Y-51261904D01*
X133550057Y-51261904D02*
X133645295Y-51214285D01*
X133645295Y-51214285D02*
X133740533Y-51214285D01*
X133740533Y-51214285D02*
X133883390Y-51261904D01*
X133883390Y-51261904D02*
X134454819Y-51833332D01*
X134454819Y-51833332D02*
X134454819Y-51214285D01*
X186107142Y-96054819D02*
X185773809Y-95578628D01*
X185535714Y-96054819D02*
X185535714Y-95054819D01*
X185535714Y-95054819D02*
X185916666Y-95054819D01*
X185916666Y-95054819D02*
X186011904Y-95102438D01*
X186011904Y-95102438D02*
X186059523Y-95150057D01*
X186059523Y-95150057D02*
X186107142Y-95245295D01*
X186107142Y-95245295D02*
X186107142Y-95388152D01*
X186107142Y-95388152D02*
X186059523Y-95483390D01*
X186059523Y-95483390D02*
X186011904Y-95531009D01*
X186011904Y-95531009D02*
X185916666Y-95578628D01*
X185916666Y-95578628D02*
X185535714Y-95578628D01*
X187059523Y-96054819D02*
X186488095Y-96054819D01*
X186773809Y-96054819D02*
X186773809Y-95054819D01*
X186773809Y-95054819D02*
X186678571Y-95197676D01*
X186678571Y-95197676D02*
X186583333Y-95292914D01*
X186583333Y-95292914D02*
X186488095Y-95340533D01*
X187916666Y-95054819D02*
X187726190Y-95054819D01*
X187726190Y-95054819D02*
X187630952Y-95102438D01*
X187630952Y-95102438D02*
X187583333Y-95150057D01*
X187583333Y-95150057D02*
X187488095Y-95292914D01*
X187488095Y-95292914D02*
X187440476Y-95483390D01*
X187440476Y-95483390D02*
X187440476Y-95864342D01*
X187440476Y-95864342D02*
X187488095Y-95959580D01*
X187488095Y-95959580D02*
X187535714Y-96007200D01*
X187535714Y-96007200D02*
X187630952Y-96054819D01*
X187630952Y-96054819D02*
X187821428Y-96054819D01*
X187821428Y-96054819D02*
X187916666Y-96007200D01*
X187916666Y-96007200D02*
X187964285Y-95959580D01*
X187964285Y-95959580D02*
X188011904Y-95864342D01*
X188011904Y-95864342D02*
X188011904Y-95626247D01*
X188011904Y-95626247D02*
X187964285Y-95531009D01*
X187964285Y-95531009D02*
X187916666Y-95483390D01*
X187916666Y-95483390D02*
X187821428Y-95435771D01*
X187821428Y-95435771D02*
X187630952Y-95435771D01*
X187630952Y-95435771D02*
X187535714Y-95483390D01*
X187535714Y-95483390D02*
X187488095Y-95531009D01*
X187488095Y-95531009D02*
X187440476Y-95626247D01*
D13*
X134420000Y-129700000D02*
X134420000Y-115500000D01*
X134420000Y-115500000D02*
X120220000Y-115500000D01*
X120220000Y-129700000D02*
X134420000Y-129700000D01*
X120220000Y-115500000D02*
X120220000Y-129700000D01*
D14*
X180050000Y-53475000D02*
X181150000Y-53475000D01*
X181500000Y-53550000D02*
X183600000Y-53550000D01*
X181500000Y-56500000D02*
X181500000Y-53550000D01*
X183600000Y-53550000D02*
X183600000Y-56500000D01*
X183600000Y-56500000D02*
X181500000Y-56500000D01*
X153925000Y-60250000D02*
X153925000Y-59150000D01*
X154000000Y-58800000D02*
X154000000Y-56700000D01*
X156950000Y-58800000D02*
X154000000Y-58800000D01*
X154000000Y-56700000D02*
X156950000Y-56700000D01*
X156950000Y-56700000D02*
X156950000Y-58800000D01*
D12*
X125842263Y-104292263D02*
X125850000Y-72300000D01*
X127307737Y-70842263D02*
X182292263Y-70842263D01*
X182269224Y-105750319D02*
X127300000Y-105750000D01*
X183750000Y-72300000D02*
X183750000Y-104300000D01*
X125850000Y-72300000D02*
G75*
G02*
X127307737Y-70842263I1457736J1D01*
G01*
X127300000Y-105750000D02*
G75*
G02*
X125842263Y-104292263I-1J1457736D01*
G01*
X182292263Y-70842263D02*
G75*
G02*
X183750037Y-72300000I37J-1457737D01*
G01*
X183749999Y-104300000D02*
G75*
G02*
X182269224Y-105750319I-1480799J30800D01*
G01*
D13*
X157320000Y-115500000D02*
X157320000Y-129700000D01*
X157320000Y-129700000D02*
X171520000Y-129700000D01*
X171520000Y-115500000D02*
X157320000Y-115500000D01*
X171520000Y-129700000D02*
X171520000Y-115500000D01*
X138770000Y-115500000D02*
X138770000Y-129700000D01*
X138770000Y-129700000D02*
X152970000Y-129700000D01*
X152970000Y-115500000D02*
X138770000Y-115500000D01*
X152970000Y-129700000D02*
X152970000Y-115500000D01*
D14*
X179300000Y-110350000D02*
X182600000Y-110350000D01*
X179300000Y-114550000D02*
X179300000Y-110350000D01*
X179300000Y-119550000D02*
X179300000Y-126750000D01*
X179300000Y-126750000D02*
X181600000Y-126750000D01*
D12*
X185250000Y-129150000D02*
X185250000Y-129150000D01*
X185250000Y-129250000D02*
X185250000Y-129250000D01*
D14*
X190100000Y-110350000D02*
X193700000Y-110350000D01*
X193700000Y-110350000D02*
X193700000Y-114550000D01*
X193700000Y-119550000D02*
X193700000Y-126750000D01*
X193700000Y-126750000D02*
X191600000Y-126750000D01*
D12*
X185250000Y-129150000D02*
G75*
G02*
X185250000Y-129250000I0J-50000D01*
G01*
X185250000Y-129250000D02*
G75*
G02*
X185250000Y-129150000I0J50000D01*
G01*
X186150000Y-31500000D02*
X186150000Y-34800000D01*
X186150000Y-43500000D02*
X186150000Y-42600000D01*
X189000000Y-28500000D02*
X189000000Y-31500000D01*
X189000000Y-31500000D02*
X186150000Y-31500000D01*
X194000000Y-28500000D02*
X189000000Y-28500000D01*
X194000000Y-31500000D02*
X194000000Y-28500000D01*
X196580000Y-31500000D02*
X194000000Y-31500000D01*
X196600000Y-32400000D02*
X196580000Y-31500000D01*
X196600000Y-42000000D02*
X196600000Y-43500000D01*
X196600000Y-43500000D02*
X186150000Y-43500000D01*
X170150000Y-31500000D02*
X170150000Y-34800000D01*
X170150000Y-43500000D02*
X170150000Y-42600000D01*
X173000000Y-28500000D02*
X173000000Y-31500000D01*
X173000000Y-31500000D02*
X170150000Y-31500000D01*
X178000000Y-28500000D02*
X173000000Y-28500000D01*
X178000000Y-31500000D02*
X178000000Y-28500000D01*
X180580000Y-31500000D02*
X178000000Y-31500000D01*
X180600000Y-32400000D02*
X180580000Y-31500000D01*
X180600000Y-42000000D02*
X180600000Y-43500000D01*
X180600000Y-43500000D02*
X170150000Y-43500000D01*
X154150000Y-31500000D02*
X154150000Y-34800000D01*
X154150000Y-43500000D02*
X154150000Y-42600000D01*
X157000000Y-28500000D02*
X157000000Y-31500000D01*
X157000000Y-31500000D02*
X154150000Y-31500000D01*
X162000000Y-28500000D02*
X157000000Y-28500000D01*
X162000000Y-31500000D02*
X162000000Y-28500000D01*
X164580000Y-31500000D02*
X162000000Y-31500000D01*
X164600000Y-32400000D02*
X164580000Y-31500000D01*
X164600000Y-42000000D02*
X164600000Y-43500000D01*
X164600000Y-43500000D02*
X154150000Y-43500000D01*
X138150000Y-31500000D02*
X138150000Y-34800000D01*
X138150000Y-43500000D02*
X138150000Y-42600000D01*
X141000000Y-28500000D02*
X141000000Y-31500000D01*
X141000000Y-31500000D02*
X138150000Y-31500000D01*
X146000000Y-28500000D02*
X141000000Y-28500000D01*
X146000000Y-31500000D02*
X146000000Y-28500000D01*
X148580000Y-31500000D02*
X146000000Y-31500000D01*
X148600000Y-32400000D02*
X148580000Y-31500000D01*
X148600000Y-42000000D02*
X148600000Y-43500000D01*
X148600000Y-43500000D02*
X138150000Y-43500000D01*
X122150000Y-31500000D02*
X122150000Y-34800000D01*
X122150000Y-43500000D02*
X122150000Y-42600000D01*
X125000000Y-28500000D02*
X125000000Y-31500000D01*
X125000000Y-31500000D02*
X122150000Y-31500000D01*
X130000000Y-28500000D02*
X125000000Y-28500000D01*
X130000000Y-31500000D02*
X130000000Y-28500000D01*
X132580000Y-31500000D02*
X130000000Y-31500000D01*
X132600000Y-32400000D02*
X132580000Y-31500000D01*
X132600000Y-42000000D02*
X132600000Y-43500000D01*
X132600000Y-43500000D02*
X122150000Y-43500000D01*
D13*
X191295000Y-71732500D02*
X190965000Y-71492500D01*
X191295000Y-71252500D01*
X191295000Y-71732500D01*
G36*
X191295000Y-71732500D02*
G01*
X190965000Y-71492500D01*
X191295000Y-71252500D01*
X191295000Y-71732500D01*
G37*
X191135000Y-76672500D02*
X190960000Y-76672500D01*
X191135000Y-72052500D02*
X191135000Y-76672500D01*
X190960000Y-72052500D02*
X191135000Y-72052500D01*
X188090000Y-76672500D02*
X187915000Y-76672500D01*
X187915000Y-76672500D02*
X187915000Y-72052500D01*
X187915000Y-72052500D02*
X188090000Y-72052500D01*
X195640000Y-98740000D02*
X195160000Y-98740000D01*
X195400000Y-98410000D01*
X195640000Y-98740000D01*
G36*
X195640000Y-98740000D02*
G01*
X195160000Y-98740000D01*
X195400000Y-98410000D01*
X195640000Y-98740000D01*
G37*
X194810000Y-98610000D02*
X191590000Y-98610000D01*
X194810000Y-98410000D02*
X194810000Y-98610000D01*
X194810000Y-95390000D02*
X194810000Y-95590000D01*
X191590000Y-98610000D02*
X191590000Y-98410000D01*
X191590000Y-95590000D02*
X191590000Y-95390000D01*
X191590000Y-95390000D02*
X194810000Y-95390000D01*
X142485000Y-53477064D02*
X142485000Y-53022936D01*
X141015000Y-53477064D02*
X141015000Y-53022936D01*
X174723752Y-121365000D02*
X174201248Y-121365000D01*
X174723752Y-122835000D02*
X174201248Y-122835000D01*
X141201248Y-66515000D02*
X141723752Y-66515000D01*
X141201248Y-67985000D02*
X141723752Y-67985000D01*
X149865000Y-56776248D02*
X149865000Y-57298752D01*
X151335000Y-56776248D02*
X151335000Y-57298752D01*
X144015000Y-111227064D02*
X144015000Y-110772936D01*
X145485000Y-111227064D02*
X145485000Y-110772936D01*
X198370000Y-72870000D02*
X199750000Y-72870000D01*
X198370000Y-74250000D02*
X198370000Y-72870000D01*
X198370000Y-75520000D02*
X198370000Y-78170000D01*
X198370000Y-75520000D02*
X201130000Y-75520000D01*
X198370000Y-78170000D02*
X201130000Y-78170000D01*
X201130000Y-75520000D02*
X201130000Y-78170000D01*
X153515000Y-110772936D02*
X153515000Y-111227064D01*
X154985000Y-110772936D02*
X154985000Y-111227064D01*
X148765000Y-110701248D02*
X148765000Y-111223752D01*
X150235000Y-110701248D02*
X150235000Y-111223752D01*
X186522936Y-100265000D02*
X186977064Y-100265000D01*
X186522936Y-101735000D02*
X186977064Y-101735000D01*
X186265000Y-81477064D02*
X186265000Y-81022936D01*
X187735000Y-81477064D02*
X187735000Y-81022936D01*
X136265000Y-47276248D02*
X136265000Y-47798752D01*
X137735000Y-47276248D02*
X137735000Y-47798752D01*
X129515000Y-111227064D02*
X129515000Y-110772936D01*
X130985000Y-111227064D02*
X130985000Y-110772936D01*
X131540000Y-47213748D02*
X131540000Y-47736252D01*
X132960000Y-47213748D02*
X132960000Y-47736252D01*
X145765000Y-53477064D02*
X145765000Y-53022936D01*
X147235000Y-53477064D02*
X147235000Y-53022936D01*
X189276248Y-53465000D02*
X189798752Y-53465000D01*
X189276248Y-54935000D02*
X189798752Y-54935000D01*
X129420000Y-59520000D02*
X129420000Y-64590000D01*
X129420000Y-64590000D02*
X137160000Y-64590000D01*
X137160000Y-59520000D02*
X129420000Y-59520000D01*
X137160000Y-61055000D02*
X137160000Y-59520000D01*
X137160000Y-64590000D02*
X137160000Y-63055000D01*
X137220000Y-55820000D02*
X129360000Y-55820000D01*
X129360000Y-68290000D01*
X137220000Y-68290000D01*
X137220000Y-55820000D01*
X137160000Y-63055000D02*
G75*
G02*
X137160000Y-61055000I0J1000000D01*
G01*
X125390000Y-57750000D02*
X125390000Y-65160000D01*
X125390000Y-65160000D02*
X127610000Y-65160000D01*
X127610000Y-65160000D02*
X127610000Y-57750000D01*
X198370000Y-86620000D02*
X199750000Y-86620000D01*
X198370000Y-88000000D02*
X198370000Y-86620000D01*
X198370000Y-89270000D02*
X198370000Y-94460000D01*
X198370000Y-89270000D02*
X201130000Y-89270000D01*
X198370000Y-94460000D02*
X201130000Y-94460000D01*
X201130000Y-89270000D02*
X201130000Y-94460000D01*
X198370000Y-58595000D02*
X199750000Y-58595000D01*
X198370000Y-59975000D02*
X198370000Y-58595000D01*
X198370000Y-61245000D02*
X198370000Y-63895000D01*
X198370000Y-61245000D02*
X201130000Y-61245000D01*
X198370000Y-63895000D02*
X201130000Y-63895000D01*
X201130000Y-61245000D02*
X201130000Y-63895000D01*
X186265000Y-92973752D02*
X186265000Y-92451248D01*
X187735000Y-92973752D02*
X187735000Y-92451248D01*
X163015000Y-110776248D02*
X163015000Y-111298752D01*
X164485000Y-110776248D02*
X164485000Y-111298752D01*
X141040000Y-47263748D02*
X141040000Y-47786252D01*
X142460000Y-47263748D02*
X142460000Y-47786252D01*
X185765000Y-105276248D02*
X185765000Y-105798752D01*
X187235000Y-105276248D02*
X187235000Y-105798752D01*
X124765000Y-110772936D02*
X124765000Y-111227064D01*
X126235000Y-110772936D02*
X126235000Y-111227064D01*
X139265000Y-110772936D02*
X139265000Y-111227064D01*
X140735000Y-110772936D02*
X140735000Y-111227064D01*
X145790000Y-47213748D02*
X145790000Y-47736252D01*
X147210000Y-47213748D02*
X147210000Y-47736252D01*
X186200000Y-86250000D02*
X189000000Y-86250000D01*
X186200000Y-88250000D02*
X186200000Y-86250000D01*
X189000000Y-86250000D02*
X189000000Y-88250000D01*
X189000000Y-88250000D02*
X186200000Y-88250000D01*
X134265000Y-110701248D02*
X134265000Y-111223752D01*
X135735000Y-110701248D02*
X135735000Y-111223752D01*
X126790000Y-47213748D02*
X126790000Y-47736252D01*
X128210000Y-47213748D02*
X128210000Y-47736252D01*
X190515000Y-105802064D02*
X190515000Y-105347936D01*
X191985000Y-105802064D02*
X191985000Y-105347936D01*
X191015000Y-81477064D02*
X191015000Y-81022936D01*
X192485000Y-81477064D02*
X192485000Y-81022936D01*
X174723752Y-126365000D02*
X174201248Y-126365000D01*
X174723752Y-127835000D02*
X174201248Y-127835000D01*
X141977064Y-61265000D02*
X141522936Y-61265000D01*
X141977064Y-62735000D02*
X141522936Y-62735000D01*
X158265000Y-111227064D02*
X158265000Y-110772936D01*
X159735000Y-111227064D02*
X159735000Y-110772936D01*
X195265000Y-105347936D02*
X195265000Y-105802064D01*
X196735000Y-105347936D02*
X196735000Y-105802064D01*
X193701248Y-76765000D02*
X194223752Y-76765000D01*
X193701248Y-78235000D02*
X194223752Y-78235000D01*
X131515000Y-52227064D02*
X131515000Y-51772936D01*
X132985000Y-52227064D02*
X132985000Y-51772936D01*
X186522936Y-96515000D02*
X186977064Y-96515000D01*
X186522936Y-97985000D02*
X186977064Y-97985000D01*
%LPC*%
G36*
X187450000Y-86500000D02*
G01*
X187750000Y-86500000D01*
X187750000Y-88000000D01*
X187450000Y-88000000D01*
X187450000Y-86500000D01*
G37*
D15*
X129860000Y-117520000D03*
X123510000Y-120060000D03*
D16*
X132400000Y-122600000D03*
D17*
X127320000Y-122600000D03*
D16*
X122240000Y-122600000D03*
D18*
X180600000Y-54050000D03*
X180600000Y-54700000D03*
X180600000Y-55350000D03*
X180600000Y-56000000D03*
X184500000Y-56000000D03*
X184500000Y-55350000D03*
X184500000Y-54700000D03*
X184500000Y-54050000D03*
D19*
X154500000Y-59700000D03*
X155150000Y-59700000D03*
X155800000Y-59700000D03*
X156450000Y-59700000D03*
X156450000Y-55800000D03*
X155800000Y-55800000D03*
X155150000Y-55800000D03*
X154500000Y-55800000D03*
D20*
X128300000Y-73300000D03*
X128300000Y-103300000D03*
X181300000Y-73300000D03*
X181300000Y-103300000D03*
D21*
X128000000Y-79380000D03*
X128000000Y-81920000D03*
X128000000Y-84460000D03*
X128000000Y-87000000D03*
X128000000Y-89540000D03*
X128000000Y-92080000D03*
X128000000Y-94620000D03*
X128000000Y-97160000D03*
D16*
X159340000Y-122600000D03*
D17*
X164420000Y-122600000D03*
D16*
X169500000Y-122600000D03*
D15*
X160610000Y-120060000D03*
X166960000Y-117520000D03*
D16*
X140790000Y-122600000D03*
D17*
X145870000Y-122600000D03*
D16*
X150950000Y-122600000D03*
D15*
X142060000Y-120060000D03*
X148410000Y-117520000D03*
D22*
X185250000Y-127950000D03*
D23*
X187750000Y-127950000D03*
X190250000Y-127950000D03*
X184000000Y-110050000D03*
X189000000Y-110050000D03*
X182750000Y-127950000D03*
D24*
X179900000Y-117050000D03*
X193100000Y-117050000D03*
D25*
X191500000Y-34500000D03*
X191500000Y-40500000D03*
D26*
X196850000Y-34300000D03*
D27*
X186150000Y-40800000D03*
D28*
X196850000Y-40500000D03*
D25*
X175500000Y-34500000D03*
X175500000Y-40500000D03*
D26*
X180850000Y-34300000D03*
D27*
X170150000Y-40800000D03*
D28*
X180850000Y-40500000D03*
D25*
X159500000Y-34500000D03*
X159500000Y-40500000D03*
D26*
X164850000Y-34300000D03*
D27*
X154150000Y-40800000D03*
D28*
X164850000Y-40500000D03*
D25*
X143500000Y-34500000D03*
X143500000Y-40500000D03*
D26*
X148850000Y-34300000D03*
D27*
X138150000Y-40800000D03*
D28*
X148850000Y-40500000D03*
D25*
X127500000Y-34500000D03*
X127500000Y-40500000D03*
D26*
X132850000Y-34300000D03*
D27*
X122150000Y-40800000D03*
D28*
X132850000Y-40500000D03*
D29*
X190500000Y-77225000D03*
X189850000Y-77225000D03*
X189200000Y-77225000D03*
X188550000Y-77225000D03*
X188550000Y-71500000D03*
X189200000Y-71500000D03*
X189850000Y-71500000D03*
X190500000Y-71500000D03*
D30*
X191000000Y-98000000D03*
X191000000Y-97500000D03*
X191000000Y-97000000D03*
X191000000Y-96500000D03*
X191000000Y-96000000D03*
X195400000Y-96000000D03*
X195400000Y-96500000D03*
X195400000Y-97000000D03*
X195400000Y-97500000D03*
X195400000Y-98000000D03*
D31*
X141750000Y-52250000D03*
X141750000Y-54250000D03*
D32*
X120000000Y-53000000D03*
D33*
X175500000Y-122100000D03*
X173425000Y-122100000D03*
D34*
X140425000Y-67250000D03*
X142500000Y-67250000D03*
D35*
X150600000Y-56000000D03*
X150600000Y-58075000D03*
D31*
X144750000Y-112000000D03*
X144750000Y-110000000D03*
D36*
X199750000Y-74250000D03*
D25*
X199750000Y-76790000D03*
D37*
X154250000Y-110000000D03*
X154250000Y-112000000D03*
D35*
X149500000Y-109925000D03*
X149500000Y-112000000D03*
D38*
X185750000Y-101000000D03*
X187750000Y-101000000D03*
D31*
X187000000Y-82250000D03*
X187000000Y-80250000D03*
D35*
X137000000Y-46500000D03*
X137000000Y-48575000D03*
D31*
X130250000Y-112000000D03*
X130250000Y-110000000D03*
D39*
X132250000Y-46450000D03*
X132250000Y-48500000D03*
D31*
X146500000Y-54250000D03*
X146500000Y-52250000D03*
D34*
X188500000Y-54200000D03*
X190575000Y-54200000D03*
D32*
X169000000Y-111000000D03*
D40*
X135830000Y-57610000D03*
X133290000Y-57610000D03*
X130750000Y-57610000D03*
X130750000Y-66500000D03*
X133290000Y-66500000D03*
X135830000Y-66500000D03*
D41*
X126500000Y-63250000D03*
X126500000Y-57750000D03*
D36*
X199750000Y-88000000D03*
D25*
X199750000Y-90540000D03*
X199750000Y-93080000D03*
D32*
X120000000Y-111000000D03*
D36*
X199750000Y-59975000D03*
D25*
X199750000Y-62515000D03*
D42*
X187000000Y-93750000D03*
X187000000Y-91675000D03*
D35*
X163750000Y-110000000D03*
X163750000Y-112075000D03*
D39*
X141750000Y-46500000D03*
X141750000Y-48550000D03*
D35*
X186500000Y-104500000D03*
X186500000Y-106575000D03*
D37*
X125500000Y-110000000D03*
X125500000Y-112000000D03*
X140000000Y-110000000D03*
X140000000Y-112000000D03*
D39*
X146500000Y-46450000D03*
X146500000Y-48500000D03*
D43*
X186950000Y-87250000D03*
X188250000Y-87250000D03*
D35*
X135000000Y-109925000D03*
X135000000Y-112000000D03*
D39*
X127500000Y-46450000D03*
X127500000Y-48500000D03*
D31*
X191250000Y-106575000D03*
X191250000Y-104575000D03*
D32*
X169000000Y-53000000D03*
D31*
X191750000Y-82250000D03*
X191750000Y-80250000D03*
D33*
X175500000Y-127100000D03*
X173425000Y-127100000D03*
D44*
X142750000Y-62000000D03*
X140750000Y-62000000D03*
D31*
X159000000Y-112000000D03*
X159000000Y-110000000D03*
D37*
X196000000Y-104575000D03*
X196000000Y-106575000D03*
D34*
X192925000Y-77500000D03*
X195000000Y-77500000D03*
D31*
X132250000Y-53000000D03*
X132250000Y-51000000D03*
D38*
X185750000Y-97250000D03*
X187750000Y-97250000D03*
D36*
X121270000Y-106130000D03*
D45*
X118730000Y-106130000D03*
X121270000Y-103590000D03*
X118730000Y-103590000D03*
X121270000Y-101050000D03*
X118730000Y-101050000D03*
X121270000Y-98510000D03*
X118730000Y-98510000D03*
X121270000Y-95970000D03*
X118730000Y-95970000D03*
X121270000Y-93430000D03*
X118730000Y-93430000D03*
X121270000Y-90890000D03*
X118730000Y-90890000D03*
X121270000Y-88350000D03*
X118730000Y-88350000D03*
X121270000Y-85810000D03*
X118730000Y-85810000D03*
X121270000Y-83270000D03*
X118730000Y-83270000D03*
X121270000Y-80730000D03*
X118730000Y-80730000D03*
X121270000Y-78190000D03*
X118730000Y-78190000D03*
X121270000Y-75650000D03*
X118730000Y-75650000D03*
X121270000Y-73110000D03*
X118730000Y-73110000D03*
X121270000Y-70570000D03*
X118730000Y-70570000D03*
X121270000Y-68030000D03*
X118730000Y-68030000D03*
X121270000Y-65490000D03*
X118730000Y-65490000D03*
X121270000Y-62950000D03*
X118730000Y-62950000D03*
X121270000Y-60410000D03*
X118730000Y-60410000D03*
X121270000Y-57870000D03*
X118730000Y-57870000D03*
%LPD*%
M02*
