<?xml version="1.0" standalone="no"?>
 <!DOCTYPE svg PUBLIC "-//W3C//DTD SVG 1.1//EN" 
 "http://www.w3.org/Graphics/SVG/1.1/DTD/svg11.dtd"> 
<svg
  xmlns:svg="http://www.w3.org/2000/svg"
  xmlns="http://www.w3.org/2000/svg"
  xmlns:xlink="http://www.w3.org/1999/xlink"
  version="1.1"
  width="297.0022mm" height="210.0072mm" viewBox="0.0000 0.0000 297.0022 210.0072">
<title>SVG Image created as protosync-screen-gpio.svg date 2026/05/15 15:54:40 </title>
  <desc>Image generated by Eeschema-SVG </desc>
<g style="fill:#000000; fill-opacity:1.0000;stroke:#000000; stroke-opacity:1.0000;
stroke-linecap:round; stroke-linejoin:round;"
 transform="translate(0 0) scale(1 1)">
</g>
<g style="fill:#840000; fill-opacity:1.0000; 
stroke:#840000; stroke-width:0.1524; stroke-opacity:1; 
stroke-linecap:round; stroke-linejoin:round;">
<rect x="170.180000" y="87.503000" width="0.863600" height="0.254000" rx="0.000000" />
<rect x="170.180000" y="90.043000" width="0.863600" height="0.254000" rx="0.000000" />
<path style="fill:none; 
stroke:#840000; stroke-width:0.1524; stroke-opacity:1; 
stroke-linecap:round; stroke-linejoin:round;fill:none"
d="M 171.4500,87.6300
171.0436,87.6300
" /> 
<path style="fill:none; 
stroke:#840000; stroke-width:0.1524; stroke-opacity:1; 
stroke-linecap:round; stroke-linejoin:round;fill:none"
d="M 171.4500,90.1700
171.0436,90.1700
" /> 
</g>
<g style="fill:none; 
stroke:#840000; stroke-width:0.1524; stroke-opacity:1; 
stroke-linecap:round; stroke-linejoin:round;">
<path d="M171.4500 87.6300
L175.2600 87.6300
" />
</g>
<g style="fill:none; 
stroke:#A90000; stroke-width:0.1524; stroke-opacity:1; 
stroke-linecap:round; stroke-linejoin:round;">
<text x="173.3550" y="87.3760"
textLength="1.4127" font-size="1.6933" lengthAdjust="spacingAndGlyphs"
text-anchor="middle" opacity="0" stroke-opacity="0">1</text>
<g class="stroked-text"><desc>1</desc>
<path d="M173.7179 87.2125
L172.9922 87.2125
" />
<path d="M173.3550 87.2125
L173.3550 85.9425
" />
<path d="M173.3550 85.9425
L173.2341 86.1240
" />
<path d="M173.2341 86.1240
L173.1131 86.2449
" />
<path d="M173.1131 86.2449
L172.9922 86.3054
" />
</g></g>
<g style="fill:none; 
stroke:#840000; stroke-width:0.1524; stroke-opacity:1; 
stroke-linecap:round; stroke-linejoin:round;">
<path d="M171.4500 90.1700
L175.2600 90.1700
" />
</g>
<g style="fill:none; 
stroke:#A90000; stroke-width:0.1524; stroke-opacity:1; 
stroke-linecap:round; stroke-linejoin:round;">
<text x="173.3550" y="89.9160"
textLength="1.4127" font-size="1.6933" lengthAdjust="spacingAndGlyphs"
text-anchor="middle" opacity="0" stroke-opacity="0">2</text>
<g class="stroked-text"><desc>2</desc>
<path d="M172.9922 88.6035
L173.0526 88.5430
" />
<path d="M173.0526 88.5430
L173.1736 88.4825
" />
<path d="M173.1736 88.4825
L173.4760 88.4825
" />
<path d="M173.4760 88.4825
L173.5969 88.5430
" />
<path d="M173.5969 88.5430
L173.6574 88.6035
" />
<path d="M173.6574 88.6035
L173.7179 88.7244
" />
<path d="M173.7179 88.7244
L173.7179 88.8454
" />
<path d="M173.7179 88.8454
L173.6574 89.0268
" />
<path d="M173.6574 89.0268
L172.9317 89.7525
" />
<path d="M172.9317 89.7525
L173.7179 89.7525
" />
</g></g>
<g style="fill:none; 
stroke:#006464; stroke-width:0.1524; stroke-opacity:1; 
stroke-linecap:round; stroke-linejoin:round;">
<text x="170.8150" y="83.1850"
textLength="2.3803" font-size="1.6933" lengthAdjust="spacingAndGlyphs"
text-anchor="middle" opacity="0" stroke-opacity="0">J8</text>
<g class="stroked-text"><desc>J8</desc>
<path d="M170.3917 81.8595
L170.3917 82.7667
" />
<path d="M170.3917 82.7667
L170.3312 82.9481
" />
<path d="M170.3312 82.9481
L170.2103 83.0691
" />
<path d="M170.2103 83.0691
L170.0288 83.1295
" />
<path d="M170.0288 83.1295
L169.9079 83.1295
" />
<path d="M171.1779 82.4038
L171.0569 82.3433
" />
<path d="M171.0569 82.3433
L170.9964 82.2829
" />
<path d="M170.9964 82.2829
L170.9360 82.1619
" />
<path d="M170.9360 82.1619
L170.9360 82.1014
" />
<path d="M170.9360 82.1014
L170.9964 81.9805
" />
<path d="M170.9964 81.9805
L171.0569 81.9200
" />
<path d="M171.0569 81.9200
L171.1779 81.8595
" />
<path d="M171.1779 81.8595
L171.4198 81.8595
" />
<path d="M171.4198 81.8595
L171.5407 81.9200
" />
<path d="M171.5407 81.9200
L171.6012 81.9805
" />
<path d="M171.6012 81.9805
L171.6617 82.1014
" />
<path d="M171.6617 82.1014
L171.6617 82.1619
" />
<path d="M171.6617 82.1619
L171.6012 82.2829
" />
<path d="M171.6012 82.2829
L171.5407 82.3433
" />
<path d="M171.5407 82.3433
L171.4198 82.4038
" />
<path d="M171.4198 82.4038
L171.1779 82.4038
" />
<path d="M171.1779 82.4038
L171.0569 82.4643
" />
<path d="M171.0569 82.4643
L170.9964 82.5248
" />
<path d="M170.9964 82.5248
L170.9360 82.6457
" />
<path d="M170.9360 82.6457
L170.9360 82.8876
" />
<path d="M170.9360 82.8876
L170.9964 83.0086
" />
<path d="M170.9964 83.0086
L171.0569 83.0691
" />
<path d="M171.0569 83.0691
L171.1779 83.1295
" />
<path d="M171.1779 83.1295
L171.4198 83.1295
" />
<path d="M171.4198 83.1295
L171.5407 83.0691
" />
<path d="M171.5407 83.0691
L171.6012 83.0086
" />
<path d="M171.6012 83.0086
L171.6617 82.8876
" />
<path d="M171.6617 82.8876
L171.6617 82.6457
" />
<path d="M171.6617 82.6457
L171.6012 82.5248
" />
<path d="M171.6012 82.5248
L171.5407 82.4643
" />
<path d="M171.5407 82.4643
L171.4198 82.4038
" />
</g><text x="170.8150" y="85.7250"
textLength="15.7453" font-size="1.6933" lengthAdjust="spacingAndGlyphs"
text-anchor="middle" opacity="0" stroke-opacity="0">Conn_01x02_Pin</text>
<g class="stroked-text"><desc>Conn_01x02_Pin</desc>
<path d="M164.0720 85.5486
L164.0116 85.6091
" />
<path d="M164.0116 85.6091
L163.8301 85.6695
" />
<path d="M163.8301 85.6695
L163.7092 85.6695
" />
<path d="M163.7092 85.6695
L163.5278 85.6091
" />
<path d="M163.5278 85.6091
L163.4068 85.4881
" />
<path d="M163.4068 85.4881
L163.3463 85.3671
" />
<path d="M163.3463 85.3671
L163.2859 85.1252
" />
<path d="M163.2859 85.1252
L163.2859 84.9438
" />
<path d="M163.2859 84.9438
L163.3463 84.7019
" />
<path d="M163.3463 84.7019
L163.4068 84.5810
" />
<path d="M163.4068 84.5810
L163.5278 84.4600
" />
<path d="M163.5278 84.4600
L163.7092 84.3995
" />
<path d="M163.7092 84.3995
L163.8301 84.3995
" />
<path d="M163.8301 84.3995
L164.0116 84.4600
" />
<path d="M164.0116 84.4600
L164.0720 84.5205
" />
<path d="M164.7978 85.6695
L164.6768 85.6091
" />
<path d="M164.6768 85.6091
L164.6163 85.5486
" />
<path d="M164.6163 85.5486
L164.5559 85.4276
" />
<path d="M164.5559 85.4276
L164.5559 85.0648
" />
<path d="M164.5559 85.0648
L164.6163 84.9438
" />
<path d="M164.6163 84.9438
L164.6768 84.8833
" />
<path d="M164.6768 84.8833
L164.7978 84.8229
" />
<path d="M164.7978 84.8229
L164.9792 84.8229
" />
<path d="M164.9792 84.8229
L165.1001 84.8833
" />
<path d="M165.1001 84.8833
L165.1606 84.9438
" />
<path d="M165.1606 84.9438
L165.2211 85.0648
" />
<path d="M165.2211 85.0648
L165.2211 85.4276
" />
<path d="M165.2211 85.4276
L165.1606 85.5486
" />
<path d="M165.1606 85.5486
L165.1001 85.6091
" />
<path d="M165.1001 85.6091
L164.9792 85.6695
" />
<path d="M164.9792 85.6695
L164.7978 85.6695
" />
<path d="M165.7653 84.8229
L165.7653 85.6695
" />
<path d="M165.7653 84.9438
L165.8258 84.8833
" />
<path d="M165.8258 84.8833
L165.9468 84.8229
" />
<path d="M165.9468 84.8229
L166.1282 84.8229
" />
<path d="M166.1282 84.8229
L166.2491 84.8833
" />
<path d="M166.2491 84.8833
L166.3096 85.0043
" />
<path d="M166.3096 85.0043
L166.3096 85.6695
" />
<path d="M166.9143 84.8229
L166.9143 85.6695
" />
<path d="M166.9143 84.9438
L166.9748 84.8833
" />
<path d="M166.9748 84.8833
L167.0958 84.8229
" />
<path d="M167.0958 84.8229
L167.2772 84.8229
" />
<path d="M167.2772 84.8229
L167.3981 84.8833
" />
<path d="M167.3981 84.8833
L167.4586 85.0043
" />
<path d="M167.4586 85.0043
L167.4586 85.6695
" />
<path d="M167.7610 85.7905
L168.7286 85.7905
" />
<path d="M169.2728 84.3995
L169.3938 84.3995
" />
<path d="M169.3938 84.3995
L169.5147 84.4600
" />
<path d="M169.5147 84.4600
L169.5752 84.5205
" />
<path d="M169.5752 84.5205
L169.6357 84.6414
" />
<path d="M169.6357 84.6414
L169.6962 84.8833
" />
<path d="M169.6962 84.8833
L169.6962 85.1857
" />
<path d="M169.6962 85.1857
L169.6357 85.4276
" />
<path d="M169.6357 85.4276
L169.5752 85.5486
" />
<path d="M169.5752 85.5486
L169.5147 85.6091
" />
<path d="M169.5147 85.6091
L169.3938 85.6695
" />
<path d="M169.3938 85.6695
L169.2728 85.6695
" />
<path d="M169.2728 85.6695
L169.1519 85.6091
" />
<path d="M169.1519 85.6091
L169.0914 85.5486
" />
<path d="M169.0914 85.5486
L169.0309 85.4276
" />
<path d="M169.0309 85.4276
L168.9705 85.1857
" />
<path d="M168.9705 85.1857
L168.9705 84.8833
" />
<path d="M168.9705 84.8833
L169.0309 84.6414
" />
<path d="M169.0309 84.6414
L169.0914 84.5205
" />
<path d="M169.0914 84.5205
L169.1519 84.4600
" />
<path d="M169.1519 84.4600
L169.2728 84.3995
" />
<path d="M170.9057 85.6695
L170.1800 85.6695
" />
<path d="M170.5428 85.6695
L170.5428 84.3995
" />
<path d="M170.5428 84.3995
L170.4219 84.5810
" />
<path d="M170.4219 84.5810
L170.3009 84.7019
" />
<path d="M170.3009 84.7019
L170.1800 84.7624
" />
<path d="M171.3290 85.6695
L171.9942 84.8229
" />
<path d="M171.3290 84.8229
L171.9942 85.6695
" />
<path d="M172.7199 84.3995
L172.8409 84.3995
" />
<path d="M172.8409 84.3995
L172.9618 84.4600
" />
<path d="M172.9618 84.4600
L173.0223 84.5205
" />
<path d="M173.0223 84.5205
L173.0828 84.6414
" />
<path d="M173.0828 84.6414
L173.1433 84.8833
" />
<path d="M173.1433 84.8833
L173.1433 85.1857
" />
<path d="M173.1433 85.1857
L173.0828 85.4276
" />
<path d="M173.0828 85.4276
L173.0223 85.5486
" />
<path d="M173.0223 85.5486
L172.9618 85.6091
" />
<path d="M172.9618 85.6091
L172.8409 85.6695
" />
<path d="M172.8409 85.6695
L172.7199 85.6695
" />
<path d="M172.7199 85.6695
L172.5990 85.6091
" />
<path d="M172.5990 85.6091
L172.5385 85.5486
" />
<path d="M172.5385 85.5486
L172.4780 85.4276
" />
<path d="M172.4780 85.4276
L172.4176 85.1857
" />
<path d="M172.4176 85.1857
L172.4176 84.8833
" />
<path d="M172.4176 84.8833
L172.4780 84.6414
" />
<path d="M172.4780 84.6414
L172.5385 84.5205
" />
<path d="M172.5385 84.5205
L172.5990 84.4600
" />
<path d="M172.5990 84.4600
L172.7199 84.3995
" />
<path d="M173.6271 84.5205
L173.6875 84.4600
" />
<path d="M173.6875 84.4600
L173.8085 84.3995
" />
<path d="M173.8085 84.3995
L174.1109 84.3995
" />
<path d="M174.1109 84.3995
L174.2318 84.4600
" />
<path d="M174.2318 84.4600
L174.2923 84.5205
" />
<path d="M174.2923 84.5205
L174.3528 84.6414
" />
<path d="M174.3528 84.6414
L174.3528 84.7624
" />
<path d="M174.3528 84.7624
L174.2923 84.9438
" />
<path d="M174.2923 84.9438
L173.5666 85.6695
" />
<path d="M173.5666 85.6695
L174.3528 85.6695
" />
<path d="M174.5947 85.7905
L175.5623 85.7905
" />
<path d="M175.8646 85.6695
L175.8646 84.3995
" />
<path d="M175.8646 84.3995
L176.3484 84.3995
" />
<path d="M176.3484 84.3995
L176.4694 84.4600
" />
<path d="M176.4694 84.4600
L176.5299 84.5205
" />
<path d="M176.5299 84.5205
L176.5903 84.6414
" />
<path d="M176.5903 84.6414
L176.5903 84.8229
" />
<path d="M176.5903 84.8229
L176.5299 84.9438
" />
<path d="M176.5299 84.9438
L176.4694 85.0043
" />
<path d="M176.4694 85.0043
L176.3484 85.0648
" />
<path d="M176.3484 85.0648
L175.8646 85.0648
" />
<path d="M177.1346 85.6695
L177.1346 84.8229
" />
<path d="M177.1346 84.3995
L177.0742 84.4600
" />
<path d="M177.0742 84.4600
L177.1346 84.5205
" />
<path d="M177.1346 84.5205
L177.1951 84.4600
" />
<path d="M177.1951 84.4600
L177.1346 84.3995
" />
<path d="M177.1346 84.3995
L177.1346 84.5205
" />
<path d="M177.7394 84.8229
L177.7394 85.6695
" />
<path d="M177.7394 84.9438
L177.7999 84.8833
" />
<path d="M177.7999 84.8833
L177.9209 84.8229
" />
<path d="M177.9209 84.8229
L178.1023 84.8229
" />
<path d="M178.1023 84.8229
L178.2232 84.8833
" />
<path d="M178.2232 84.8833
L178.2837 85.0043
" />
<path d="M178.2837 85.0043
L178.2837 85.6695
" />
</g><path style="fill:none; 
stroke:#840000; stroke-width:0.1524; stroke-opacity:1; 
stroke-linecap:round; stroke-linejoin:round;fill:none"
d="M 177.8000,95.2500
177.8000,96.5200
179.0700,96.5200
177.8000,97.7900
176.5300,96.5200
177.8000,96.5200
" /> 
</g>
<g style="fill:none; 
stroke:#840000; stroke-width:0.1524; stroke-opacity:1; 
stroke-linecap:round; stroke-linejoin:round;">
<path d="M177.8000 95.2500
L177.8000 95.2500
" />
</g>
<g style="fill:none; 
stroke:#006464; stroke-width:0.1524; stroke-opacity:1; 
stroke-linecap:round; stroke-linejoin:round;">
<text x="177.9143" y="100.2094"
textLength="4.0737" font-size="1.6933" lengthAdjust="spacingAndGlyphs"
text-anchor="middle" opacity="0" stroke-opacity="0">GND</text>
<g class="stroked-text"><desc>GND</desc>
<path d="M176.9467 98.9444
L176.8257 98.8839
" />
<path d="M176.8257 98.8839
L176.6443 98.8839
" />
<path d="M176.6443 98.8839
L176.4629 98.9444
" />
<path d="M176.4629 98.9444
L176.3419 99.0654
" />
<path d="M176.3419 99.0654
L176.2814 99.1863
" />
<path d="M176.2814 99.1863
L176.2210 99.4282
" />
<path d="M176.2210 99.4282
L176.2210 99.6096
" />
<path d="M176.2210 99.6096
L176.2814 99.8515
" />
<path d="M176.2814 99.8515
L176.3419 99.9725
" />
<path d="M176.3419 99.9725
L176.4629 100.0935
" />
<path d="M176.4629 100.0935
L176.6443 100.1539
" />
<path d="M176.6443 100.1539
L176.7652 100.1539
" />
<path d="M176.7652 100.1539
L176.9467 100.0935
" />
<path d="M176.9467 100.0935
L177.0071 100.0330
" />
<path d="M177.0071 100.0330
L177.0071 99.6096
" />
<path d="M177.0071 99.6096
L176.7652 99.6096
" />
<path d="M177.5514 100.1539
L177.5514 98.8839
" />
<path d="M177.5514 98.8839
L178.2771 100.1539
" />
<path d="M178.2771 100.1539
L178.2771 98.8839
" />
<path d="M178.8819 100.1539
L178.8819 98.8839
" />
<path d="M178.8819 98.8839
L179.1843 98.8839
" />
<path d="M179.1843 98.8839
L179.3657 98.9444
" />
<path d="M179.3657 98.9444
L179.4867 99.0654
" />
<path d="M179.4867 99.0654
L179.5472 99.1863
" />
<path d="M179.5472 99.1863
L179.6076 99.4282
" />
<path d="M179.6076 99.4282
L179.6076 99.6096
" />
<path d="M179.6076 99.6096
L179.5472 99.8515
" />
<path d="M179.5472 99.8515
L179.4867 99.9725
" />
<path d="M179.4867 99.9725
L179.3657 100.0935
" />
<path d="M179.3657 100.0935
L179.1843 100.1539
" />
<path d="M179.1843 100.1539
L178.8819 100.1539
" />
</g><path style="fill:none; 
stroke:#840000; stroke-width:0.1524; stroke-opacity:1; 
stroke-linecap:round; stroke-linejoin:round;fill:none"
d="M 177.8000,119.3800
177.8000,120.6500
179.0700,120.6500
177.8000,121.9200
176.5300,120.6500
177.8000,120.6500
" /> 
</g>
<g style="fill:none; 
stroke:#840000; stroke-width:0.1524; stroke-opacity:1; 
stroke-linecap:round; stroke-linejoin:round;">
<path d="M177.8000 119.3800
L177.8000 119.3800
" />
</g>
<g style="fill:none; 
stroke:#006464; stroke-width:0.1524; stroke-opacity:1; 
stroke-linecap:round; stroke-linejoin:round;">
<text x="177.9143" y="124.3394"
textLength="4.0737" font-size="1.6933" lengthAdjust="spacingAndGlyphs"
text-anchor="middle" opacity="0" stroke-opacity="0">GND</text>
<g class="stroked-text"><desc>GND</desc>
<path d="M176.9467 123.0744
L176.8257 123.0139
" />
<path d="M176.8257 123.0139
L176.6443 123.0139
" />
<path d="M176.6443 123.0139
L176.4629 123.0744
" />
<path d="M176.4629 123.0744
L176.3419 123.1954
" />
<path d="M176.3419 123.1954
L176.2814 123.3163
" />
<path d="M176.2814 123.3163
L176.2210 123.5582
" />
<path d="M176.2210 123.5582
L176.2210 123.7396
" />
<path d="M176.2210 123.7396
L176.2814 123.9815
" />
<path d="M176.2814 123.9815
L176.3419 124.1025
" />
<path d="M176.3419 124.1025
L176.4629 124.2235
" />
<path d="M176.4629 124.2235
L176.6443 124.2839
" />
<path d="M176.6443 124.2839
L176.7652 124.2839
" />
<path d="M176.7652 124.2839
L176.9467 124.2235
" />
<path d="M176.9467 124.2235
L177.0071 124.1630
" />
<path d="M177.0071 124.1630
L177.0071 123.7396
" />
<path d="M177.0071 123.7396
L176.7652 123.7396
" />
<path d="M177.5514 124.2839
L177.5514 123.0139
" />
<path d="M177.5514 123.0139
L178.2771 124.2839
" />
<path d="M178.2771 124.2839
L178.2771 123.0139
" />
<path d="M178.8819 124.2839
L178.8819 123.0139
" />
<path d="M178.8819 123.0139
L179.1843 123.0139
" />
<path d="M179.1843 123.0139
L179.3657 123.0744
" />
<path d="M179.3657 123.0744
L179.4867 123.1954
" />
<path d="M179.4867 123.1954
L179.5472 123.3163
" />
<path d="M179.5472 123.3163
L179.6076 123.5582
" />
<path d="M179.6076 123.5582
L179.6076 123.7396
" />
<path d="M179.6076 123.7396
L179.5472 123.9815
" />
<path d="M179.5472 123.9815
L179.4867 124.1025
" />
<path d="M179.4867 124.1025
L179.3657 124.2235
" />
<path d="M179.3657 124.2235
L179.1843 124.2839
" />
<path d="M179.1843 124.2839
L178.8819 124.2839
" />
</g></g>
<g style="fill:#840000; fill-opacity:1.0000; 
stroke:#840000; stroke-width:0.1524; stroke-opacity:1; 
stroke-linecap:round; stroke-linejoin:round;">
<rect x="170.180000" y="111.633000" width="0.863600" height="0.254000" rx="0.000000" />
<rect x="170.180000" y="114.173000" width="0.863600" height="0.254000" rx="0.000000" />
<path style="fill:none; 
stroke:#840000; stroke-width:0.1524; stroke-opacity:1; 
stroke-linecap:round; stroke-linejoin:round;fill:none"
d="M 171.4500,111.7600
171.0436,111.7600
" /> 
<path style="fill:none; 
stroke:#840000; stroke-width:0.1524; stroke-opacity:1; 
stroke-linecap:round; stroke-linejoin:round;fill:none"
d="M 171.4500,114.3000
171.0436,114.3000
" /> 
</g>
<g style="fill:none; 
stroke:#840000; stroke-width:0.1524; stroke-opacity:1; 
stroke-linecap:round; stroke-linejoin:round;">
<path d="M171.4500 111.7600
L175.2600 111.7600
" />
</g>
<g style="fill:none; 
stroke:#A90000; stroke-width:0.1524; stroke-opacity:1; 
stroke-linecap:round; stroke-linejoin:round;">
<text x="173.3550" y="111.5060"
textLength="1.4127" font-size="1.6933" lengthAdjust="spacingAndGlyphs"
text-anchor="middle" opacity="0" stroke-opacity="0">1</text>
<g class="stroked-text"><desc>1</desc>
<path d="M173.7179 111.3425
L172.9922 111.3425
" />
<path d="M173.3550 111.3425
L173.3550 110.0725
" />
<path d="M173.3550 110.0725
L173.2341 110.2540
" />
<path d="M173.2341 110.2540
L173.1131 110.3749
" />
<path d="M173.1131 110.3749
L172.9922 110.4354
" />
</g></g>
<g style="fill:none; 
stroke:#840000; stroke-width:0.1524; stroke-opacity:1; 
stroke-linecap:round; stroke-linejoin:round;">
<path d="M171.4500 114.3000
L175.2600 114.3000
" />
</g>
<g style="fill:none; 
stroke:#A90000; stroke-width:0.1524; stroke-opacity:1; 
stroke-linecap:round; stroke-linejoin:round;">
<text x="173.3550" y="114.0460"
textLength="1.4127" font-size="1.6933" lengthAdjust="spacingAndGlyphs"
text-anchor="middle" opacity="0" stroke-opacity="0">2</text>
<g class="stroked-text"><desc>2</desc>
<path d="M172.9922 112.7335
L173.0526 112.6730
" />
<path d="M173.0526 112.6730
L173.1736 112.6125
" />
<path d="M173.1736 112.6125
L173.4760 112.6125
" />
<path d="M173.4760 112.6125
L173.5969 112.6730
" />
<path d="M173.5969 112.6730
L173.6574 112.7335
" />
<path d="M173.6574 112.7335
L173.7179 112.8544
" />
<path d="M173.7179 112.8544
L173.7179 112.9754
" />
<path d="M173.7179 112.9754
L173.6574 113.1568
" />
<path d="M173.6574 113.1568
L172.9317 113.8825
" />
<path d="M172.9317 113.8825
L173.7179 113.8825
" />
</g></g>
<g style="fill:none; 
stroke:#006464; stroke-width:0.1524; stroke-opacity:1; 
stroke-linecap:round; stroke-linejoin:round;">
<text x="170.8150" y="107.3150"
textLength="2.3803" font-size="1.6933" lengthAdjust="spacingAndGlyphs"
text-anchor="middle" opacity="0" stroke-opacity="0">J9</text>
<g class="stroked-text"><desc>J9</desc>
<path d="M170.3917 105.9895
L170.3917 106.8967
" />
<path d="M170.3917 106.8967
L170.3312 107.0781
" />
<path d="M170.3312 107.0781
L170.2103 107.1991
" />
<path d="M170.2103 107.1991
L170.0288 107.2595
" />
<path d="M170.0288 107.2595
L169.9079 107.2595
" />
<path d="M171.0569 107.2595
L171.2988 107.2595
" />
<path d="M171.2988 107.2595
L171.4198 107.1991
" />
<path d="M171.4198 107.1991
L171.4802 107.1386
" />
<path d="M171.4802 107.1386
L171.6012 106.9571
" />
<path d="M171.6012 106.9571
L171.6617 106.7152
" />
<path d="M171.6617 106.7152
L171.6617 106.2314
" />
<path d="M171.6617 106.2314
L171.6012 106.1105
" />
<path d="M171.6012 106.1105
L171.5407 106.0500
" />
<path d="M171.5407 106.0500
L171.4198 105.9895
" />
<path d="M171.4198 105.9895
L171.1779 105.9895
" />
<path d="M171.1779 105.9895
L171.0569 106.0500
" />
<path d="M171.0569 106.0500
L170.9964 106.1105
" />
<path d="M170.9964 106.1105
L170.9360 106.2314
" />
<path d="M170.9360 106.2314
L170.9360 106.5338
" />
<path d="M170.9360 106.5338
L170.9964 106.6548
" />
<path d="M170.9964 106.6548
L171.0569 106.7152
" />
<path d="M171.0569 106.7152
L171.1779 106.7757
" />
<path d="M171.1779 106.7757
L171.4198 106.7757
" />
<path d="M171.4198 106.7757
L171.5407 106.7152
" />
<path d="M171.5407 106.7152
L171.6012 106.6548
" />
<path d="M171.6012 106.6548
L171.6617 106.5338
" />
</g><text x="170.8150" y="109.8550"
textLength="15.7453" font-size="1.6933" lengthAdjust="spacingAndGlyphs"
text-anchor="middle" opacity="0" stroke-opacity="0">Conn_01x02_Pin</text>
<g class="stroked-text"><desc>Conn_01x02_Pin</desc>
<path d="M164.0720 109.6786
L164.0116 109.7391
" />
<path d="M164.0116 109.7391
L163.8301 109.7995
" />
<path d="M163.8301 109.7995
L163.7092 109.7995
" />
<path d="M163.7092 109.7995
L163.5278 109.7391
" />
<path d="M163.5278 109.7391
L163.4068 109.6181
" />
<path d="M163.4068 109.6181
L163.3463 109.4971
" />
<path d="M163.3463 109.4971
L163.2859 109.2552
" />
<path d="M163.2859 109.2552
L163.2859 109.0738
" />
<path d="M163.2859 109.0738
L163.3463 108.8319
" />
<path d="M163.3463 108.8319
L163.4068 108.7110
" />
<path d="M163.4068 108.7110
L163.5278 108.5900
" />
<path d="M163.5278 108.5900
L163.7092 108.5295
" />
<path d="M163.7092 108.5295
L163.8301 108.5295
" />
<path d="M163.8301 108.5295
L164.0116 108.5900
" />
<path d="M164.0116 108.5900
L164.0720 108.6505
" />
<path d="M164.7978 109.7995
L164.6768 109.7391
" />
<path d="M164.6768 109.7391
L164.6163 109.6786
" />
<path d="M164.6163 109.6786
L164.5559 109.5576
" />
<path d="M164.5559 109.5576
L164.5559 109.1948
" />
<path d="M164.5559 109.1948
L164.6163 109.0738
" />
<path d="M164.6163 109.0738
L164.6768 109.0133
" />
<path d="M164.6768 109.0133
L164.7978 108.9529
" />
<path d="M164.7978 108.9529
L164.9792 108.9529
" />
<path d="M164.9792 108.9529
L165.1001 109.0133
" />
<path d="M165.1001 109.0133
L165.1606 109.0738
" />
<path d="M165.1606 109.0738
L165.2211 109.1948
" />
<path d="M165.2211 109.1948
L165.2211 109.5576
" />
<path d="M165.2211 109.5576
L165.1606 109.6786
" />
<path d="M165.1606 109.6786
L165.1001 109.7391
" />
<path d="M165.1001 109.7391
L164.9792 109.7995
" />
<path d="M164.9792 109.7995
L164.7978 109.7995
" />
<path d="M165.7653 108.9529
L165.7653 109.7995
" />
<path d="M165.7653 109.0738
L165.8258 109.0133
" />
<path d="M165.8258 109.0133
L165.9468 108.9529
" />
<path d="M165.9468 108.9529
L166.1282 108.9529
" />
<path d="M166.1282 108.9529
L166.2491 109.0133
" />
<path d="M166.2491 109.0133
L166.3096 109.1343
" />
<path d="M166.3096 109.1343
L166.3096 109.7995
" />
<path d="M166.9143 108.9529
L166.9143 109.7995
" />
<path d="M166.9143 109.0738
L166.9748 109.0133
" />
<path d="M166.9748 109.0133
L167.0958 108.9529
" />
<path d="M167.0958 108.9529
L167.2772 108.9529
" />
<path d="M167.2772 108.9529
L167.3981 109.0133
" />
<path d="M167.3981 109.0133
L167.4586 109.1343
" />
<path d="M167.4586 109.1343
L167.4586 109.7995
" />
<path d="M167.7610 109.9205
L168.7286 109.9205
" />
<path d="M169.2728 108.5295
L169.3938 108.5295
" />
<path d="M169.3938 108.5295
L169.5147 108.5900
" />
<path d="M169.5147 108.5900
L169.5752 108.6505
" />
<path d="M169.5752 108.6505
L169.6357 108.7714
" />
<path d="M169.6357 108.7714
L169.6962 109.0133
" />
<path d="M169.6962 109.0133
L169.6962 109.3157
" />
<path d="M169.6962 109.3157
L169.6357 109.5576
" />
<path d="M169.6357 109.5576
L169.5752 109.6786
" />
<path d="M169.5752 109.6786
L169.5147 109.7391
" />
<path d="M169.5147 109.7391
L169.3938 109.7995
" />
<path d="M169.3938 109.7995
L169.2728 109.7995
" />
<path d="M169.2728 109.7995
L169.1519 109.7391
" />
<path d="M169.1519 109.7391
L169.0914 109.6786
" />
<path d="M169.0914 109.6786
L169.0309 109.5576
" />
<path d="M169.0309 109.5576
L168.9705 109.3157
" />
<path d="M168.9705 109.3157
L168.9705 109.0133
" />
<path d="M168.9705 109.0133
L169.0309 108.7714
" />
<path d="M169.0309 108.7714
L169.0914 108.6505
" />
<path d="M169.0914 108.6505
L169.1519 108.5900
" />
<path d="M169.1519 108.5900
L169.2728 108.5295
" />
<path d="M170.9057 109.7995
L170.1800 109.7995
" />
<path d="M170.5428 109.7995
L170.5428 108.5295
" />
<path d="M170.5428 108.5295
L170.4219 108.7110
" />
<path d="M170.4219 108.7110
L170.3009 108.8319
" />
<path d="M170.3009 108.8319
L170.1800 108.8924
" />
<path d="M171.3290 109.7995
L171.9942 108.9529
" />
<path d="M171.3290 108.9529
L171.9942 109.7995
" />
<path d="M172.7199 108.5295
L172.8409 108.5295
" />
<path d="M172.8409 108.5295
L172.9618 108.5900
" />
<path d="M172.9618 108.5900
L173.0223 108.6505
" />
<path d="M173.0223 108.6505
L173.0828 108.7714
" />
<path d="M173.0828 108.7714
L173.1433 109.0133
" />
<path d="M173.1433 109.0133
L173.1433 109.3157
" />
<path d="M173.1433 109.3157
L173.0828 109.5576
" />
<path d="M173.0828 109.5576
L173.0223 109.6786
" />
<path d="M173.0223 109.6786
L172.9618 109.7391
" />
<path d="M172.9618 109.7391
L172.8409 109.7995
" />
<path d="M172.8409 109.7995
L172.7199 109.7995
" />
<path d="M172.7199 109.7995
L172.5990 109.7391
" />
<path d="M172.5990 109.7391
L172.5385 109.6786
" />
<path d="M172.5385 109.6786
L172.4780 109.5576
" />
<path d="M172.4780 109.5576
L172.4176 109.3157
" />
<path d="M172.4176 109.3157
L172.4176 109.0133
" />
<path d="M172.4176 109.0133
L172.4780 108.7714
" />
<path d="M172.4780 108.7714
L172.5385 108.6505
" />
<path d="M172.5385 108.6505
L172.5990 108.5900
" />
<path d="M172.5990 108.5900
L172.7199 108.5295
" />
<path d="M173.6271 108.6505
L173.6875 108.5900
" />
<path d="M173.6875 108.5900
L173.8085 108.5295
" />
<path d="M173.8085 108.5295
L174.1109 108.5295
" />
<path d="M174.1109 108.5295
L174.2318 108.5900
" />
<path d="M174.2318 108.5900
L174.2923 108.6505
" />
<path d="M174.2923 108.6505
L174.3528 108.7714
" />
<path d="M174.3528 108.7714
L174.3528 108.8924
" />
<path d="M174.3528 108.8924
L174.2923 109.0738
" />
<path d="M174.2923 109.0738
L173.5666 109.7995
" />
<path d="M173.5666 109.7995
L174.3528 109.7995
" />
<path d="M174.5947 109.9205
L175.5623 109.9205
" />
<path d="M175.8646 109.7995
L175.8646 108.5295
" />
<path d="M175.8646 108.5295
L176.3484 108.5295
" />
<path d="M176.3484 108.5295
L176.4694 108.5900
" />
<path d="M176.4694 108.5900
L176.5299 108.6505
" />
<path d="M176.5299 108.6505
L176.5903 108.7714
" />
<path d="M176.5903 108.7714
L176.5903 108.9529
" />
<path d="M176.5903 108.9529
L176.5299 109.0738
" />
<path d="M176.5299 109.0738
L176.4694 109.1343
" />
<path d="M176.4694 109.1343
L176.3484 109.1948
" />
<path d="M176.3484 109.1948
L175.8646 109.1948
" />
<path d="M177.1346 109.7995
L177.1346 108.9529
" />
<path d="M177.1346 108.5295
L177.0742 108.5900
" />
<path d="M177.0742 108.5900
L177.1346 108.6505
" />
<path d="M177.1346 108.6505
L177.1951 108.5900
" />
<path d="M177.1951 108.5900
L177.1346 108.5295
" />
<path d="M177.1346 108.5295
L177.1346 108.6505
" />
<path d="M177.7394 108.9529
L177.7394 109.7995
" />
<path d="M177.7394 109.0738
L177.7999 109.0133
" />
<path d="M177.7999 109.0133
L177.9209 108.9529
" />
<path d="M177.9209 108.9529
L178.1023 108.9529
" />
<path d="M178.1023 108.9529
L178.2232 109.0133
" />
<path d="M178.2232 109.0133
L178.2837 109.1343
" />
<path d="M178.2837 109.1343
L178.2837 109.7995
" />
</g><path style="fill:none; 
stroke:#840000; stroke-width:0.1524; stroke-opacity:1; 
stroke-linecap:round; stroke-linejoin:round;fill:none"
d="M 114.3000,127.0000
114.3000,128.2700
115.5700,128.2700
114.3000,129.5400
113.0300,128.2700
114.3000,128.2700
" /> 
</g>
<g style="fill:none; 
stroke:#840000; stroke-width:0.1524; stroke-opacity:1; 
stroke-linecap:round; stroke-linejoin:round;">
<path d="M114.3000 127.0000
L114.3000 127.0000
" />
</g>
<g style="fill:none; 
stroke:#006464; stroke-width:0.1524; stroke-opacity:1; 
stroke-linecap:round; stroke-linejoin:round;">
<text x="114.4143" y="131.9594"
textLength="4.0737" font-size="1.6933" lengthAdjust="spacingAndGlyphs"
text-anchor="middle" opacity="0" stroke-opacity="0">GND</text>
<g class="stroked-text"><desc>GND</desc>
<path d="M113.4467 130.6944
L113.3257 130.6339
" />
<path d="M113.3257 130.6339
L113.1443 130.6339
" />
<path d="M113.1443 130.6339
L112.9629 130.6944
" />
<path d="M112.9629 130.6944
L112.8419 130.8154
" />
<path d="M112.8419 130.8154
L112.7814 130.9363
" />
<path d="M112.7814 130.9363
L112.7210 131.1782
" />
<path d="M112.7210 131.1782
L112.7210 131.3596
" />
<path d="M112.7210 131.3596
L112.7814 131.6015
" />
<path d="M112.7814 131.6015
L112.8419 131.7225
" />
<path d="M112.8419 131.7225
L112.9629 131.8435
" />
<path d="M112.9629 131.8435
L113.1443 131.9039
" />
<path d="M113.1443 131.9039
L113.2652 131.9039
" />
<path d="M113.2652 131.9039
L113.4467 131.8435
" />
<path d="M113.4467 131.8435
L113.5071 131.7830
" />
<path d="M113.5071 131.7830
L113.5071 131.3596
" />
<path d="M113.5071 131.3596
L113.2652 131.3596
" />
<path d="M114.0514 131.9039
L114.0514 130.6339
" />
<path d="M114.0514 130.6339
L114.7771 131.9039
" />
<path d="M114.7771 131.9039
L114.7771 130.6339
" />
<path d="M115.3819 131.9039
L115.3819 130.6339
" />
<path d="M115.3819 130.6339
L115.6843 130.6339
" />
<path d="M115.6843 130.6339
L115.8657 130.6944
" />
<path d="M115.8657 130.6944
L115.9867 130.8154
" />
<path d="M115.9867 130.8154
L116.0472 130.9363
" />
<path d="M116.0472 130.9363
L116.1076 131.1782
" />
<path d="M116.1076 131.1782
L116.1076 131.3596
" />
<path d="M116.1076 131.3596
L116.0472 131.6015
" />
<path d="M116.0472 131.6015
L115.9867 131.7225
" />
<path d="M115.9867 131.7225
L115.8657 131.8435
" />
<path d="M115.8657 131.8435
L115.6843 131.9039
" />
<path d="M115.6843 131.9039
L115.3819 131.9039
" />
</g></g>
<g style="fill:#FFFFC2; fill-opacity:1.0000; stroke:none;">
<rect x="123.190000" y="85.090000" width="16.510000" height="27.940000" rx="0.000000" />
</g>
<g style="fill:none; 
stroke:#840000; stroke-width:0.1524; stroke-opacity:1; 
stroke-linecap:round; stroke-linejoin:round;">
<rect x="123.190000" y="85.090000" width="16.510000" height="27.940000" rx="0.000000" />
<g transform="rotate(-90.000000 137.1600 99.0600)">
<text x="137.1600" y="99.6950"
textLength="16.7130" font-size="1.6933" lengthAdjust="spacingAndGlyphs"
text-anchor="middle" opacity="0" stroke-opacity="0">2" 240×320 LCD</text>
</g>
<g class="stroked-text"><desc>2" 240×320 LCD</desc>
<path d="M136.5905 107.0729
L136.5300 107.0125
" />
<path d="M136.5300 107.0125
L136.4695 106.8915
" />
<path d="M136.4695 106.8915
L136.4695 106.5891
" />
<path d="M136.4695 106.5891
L136.5300 106.4682
" />
<path d="M136.5300 106.4682
L136.5905 106.4077
" />
<path d="M136.5905 106.4077
L136.7114 106.3472
" />
<path d="M136.7114 106.3472
L136.8324 106.3472
" />
<path d="M136.8324 106.3472
L137.0138 106.4077
" />
<path d="M137.0138 106.4077
L137.7395 107.1334
" />
<path d="M137.7395 107.1334
L137.7395 106.3472
" />
<path d="M136.4695 105.8634
L136.7114 105.8634
" />
<path d="M136.4695 105.3796
L136.7114 105.3796
" />
<path d="M136.5905 103.9282
L136.5300 103.8678
" />
<path d="M136.5300 103.8678
L136.4695 103.7468
" />
<path d="M136.4695 103.7468
L136.4695 103.4444
" />
<path d="M136.4695 103.4444
L136.5300 103.3235
" />
<path d="M136.5300 103.3235
L136.5905 103.2630
" />
<path d="M136.5905 103.2630
L136.7114 103.2025
" />
<path d="M136.7114 103.2025
L136.8324 103.2025
" />
<path d="M136.8324 103.2025
L137.0138 103.2630
" />
<path d="M137.0138 103.2630
L137.7395 103.9887
" />
<path d="M137.7395 103.9887
L137.7395 103.2025
" />
<path d="M136.8929 102.1140
L137.7395 102.1140
" />
<path d="M136.4091 102.4164
L137.3162 102.7187
" />
<path d="M137.3162 102.7187
L137.3162 101.9326
" />
<path d="M136.4695 101.2069
L136.4695 101.0859
" />
<path d="M136.4695 101.0859
L136.5300 100.9650
" />
<path d="M136.5300 100.9650
L136.5905 100.9045
" />
<path d="M136.5905 100.9045
L136.7114 100.8440
" />
<path d="M136.7114 100.8440
L136.9533 100.7835
" />
<path d="M136.9533 100.7835
L137.2557 100.7835
" />
<path d="M137.2557 100.7835
L137.4976 100.8440
" />
<path d="M137.4976 100.8440
L137.6186 100.9045
" />
<path d="M137.6186 100.9045
L137.6791 100.9650
" />
<path d="M137.6791 100.9650
L137.7395 101.0859
" />
<path d="M137.7395 101.0859
L137.7395 101.2069
" />
<path d="M137.7395 101.2069
L137.6791 101.3278
" />
<path d="M137.6791 101.3278
L137.6186 101.3883
" />
<path d="M137.6186 101.3883
L137.4976 101.4488
" />
<path d="M137.4976 101.4488
L137.2557 101.5092
" />
<path d="M137.2557 101.5092
L136.9533 101.5092
" />
<path d="M136.9533 101.5092
L136.7114 101.4488
" />
<path d="M136.7114 101.4488
L136.5905 101.3883
" />
<path d="M136.5905 101.3883
L136.5300 101.3278
" />
<path d="M136.5300 101.3278
L136.4695 101.2069
" />
<path d="M136.8929 100.1183
L137.6186 99.3926
" />
<path d="M136.8929 99.3926
L137.6186 100.1183
" />
<path d="M136.4695 98.7878
L136.4695 98.0016
" />
<path d="M136.4695 98.0016
L136.9533 98.4250
" />
<path d="M136.9533 98.4250
L136.9533 98.2435
" />
<path d="M136.9533 98.2435
L137.0138 98.1226
" />
<path d="M137.0138 98.1226
L137.0743 98.0621
" />
<path d="M137.0743 98.0621
L137.1952 98.0016
" />
<path d="M137.1952 98.0016
L137.4976 98.0016
" />
<path d="M137.4976 98.0016
L137.6186 98.0621
" />
<path d="M137.6186 98.0621
L137.6791 98.1226
" />
<path d="M137.6791 98.1226
L137.7395 98.2435
" />
<path d="M137.7395 98.2435
L137.7395 98.6064
" />
<path d="M137.7395 98.6064
L137.6791 98.7273
" />
<path d="M137.6791 98.7273
L137.6186 98.7878
" />
<path d="M136.5905 97.5178
L136.5300 97.4574
" />
<path d="M136.5300 97.4574
L136.4695 97.3364
" />
<path d="M136.4695 97.3364
L136.4695 97.0340
" />
<path d="M136.4695 97.0340
L136.5300 96.9131
" />
<path d="M136.5300 96.9131
L136.5905 96.8526
" />
<path d="M136.5905 96.8526
L136.7114 96.7921
" />
<path d="M136.7114 96.7921
L136.8324 96.7921
" />
<path d="M136.8324 96.7921
L137.0138 96.8526
" />
<path d="M137.0138 96.8526
L137.7395 97.5783
" />
<path d="M137.7395 97.5783
L137.7395 96.7921
" />
<path d="M136.4695 96.0060
L136.4695 95.8850
" />
<path d="M136.4695 95.8850
L136.5300 95.7641
" />
<path d="M136.5300 95.7641
L136.5905 95.7036
" />
<path d="M136.5905 95.7036
L136.7114 95.6431
" />
<path d="M136.7114 95.6431
L136.9533 95.5826
" />
<path d="M136.9533 95.5826
L137.2557 95.5826
" />
<path d="M137.2557 95.5826
L137.4976 95.6431
" />
<path d="M137.4976 95.6431
L137.6186 95.7036
" />
<path d="M137.6186 95.7036
L137.6791 95.7641
" />
<path d="M137.6791 95.7641
L137.7395 95.8850
" />
<path d="M137.7395 95.8850
L137.7395 96.0060
" />
<path d="M137.7395 96.0060
L137.6791 96.1269
" />
<path d="M137.6791 96.1269
L137.6186 96.1874
" />
<path d="M137.6186 96.1874
L137.4976 96.2479
" />
<path d="M137.4976 96.2479
L137.2557 96.3083
" />
<path d="M137.2557 96.3083
L136.9533 96.3083
" />
<path d="M136.9533 96.3083
L136.7114 96.2479
" />
<path d="M136.7114 96.2479
L136.5905 96.1874
" />
<path d="M136.5905 96.1874
L136.5300 96.1269
" />
<path d="M136.5300 96.1269
L136.4695 96.0060
" />
<path d="M137.7395 93.4660
L137.7395 94.0708
" />
<path d="M137.7395 94.0708
L136.4695 94.0708
" />
<path d="M137.6186 92.3170
L137.6791 92.3774
" />
<path d="M137.6791 92.3774
L137.7395 92.5589
" />
<path d="M137.7395 92.5589
L137.7395 92.6798
" />
<path d="M137.7395 92.6798
L137.6791 92.8612
" />
<path d="M137.6791 92.8612
L137.5581 92.9822
" />
<path d="M137.5581 92.9822
L137.4371 93.0427
" />
<path d="M137.4371 93.0427
L137.1952 93.1031
" />
<path d="M137.1952 93.1031
L137.0138 93.1031
" />
<path d="M137.0138 93.1031
L136.7719 93.0427
" />
<path d="M136.7719 93.0427
L136.6510 92.9822
" />
<path d="M136.6510 92.9822
L136.5300 92.8612
" />
<path d="M136.5300 92.8612
L136.4695 92.6798
" />
<path d="M136.4695 92.6798
L136.4695 92.5589
" />
<path d="M136.4695 92.5589
L136.5300 92.3774
" />
<path d="M136.5300 92.3774
L136.5905 92.3170
" />
<path d="M137.7395 91.7727
L136.4695 91.7727
" />
<path d="M136.4695 91.7727
L136.4695 91.4703
" />
<path d="M136.4695 91.4703
L136.5300 91.2889
" />
<path d="M136.5300 91.2889
L136.6510 91.1679
" />
<path d="M136.6510 91.1679
L136.7719 91.1074
" />
<path d="M136.7719 91.1074
L137.0138 91.0470
" />
<path d="M137.0138 91.0470
L137.1952 91.0470
" />
<path d="M137.1952 91.0470
L137.4371 91.1074
" />
<path d="M137.4371 91.1074
L137.5581 91.1679
" />
<path d="M137.5581 91.1679
L137.6791 91.2889
" />
<path d="M137.6791 91.2889
L137.7395 91.4703
" />
<path d="M137.7395 91.4703
L137.7395 91.7727
" />
</g><path d="M123.1900 90.1700
L120.6500 90.1700
" />
</g>
<g style="fill:none; 
stroke:#006464; stroke-width:0.1524; stroke-opacity:1; 
stroke-linecap:round; stroke-linejoin:round;">
<text x="123.6980" y="90.8050"
textLength="3.8318" font-size="1.6933" lengthAdjust="spacingAndGlyphs"
text-anchor="start" opacity="0" stroke-opacity="0">VCC</text>
<g class="stroked-text"><desc>VCC</desc>
<path d="M123.9191 89.4795
L124.3424 90.7495
" />
<path d="M124.3424 90.7495
L124.7658 89.4795
" />
<path d="M125.9148 90.6286
L125.8544 90.6891
" />
<path d="M125.8544 90.6891
L125.6729 90.7495
" />
<path d="M125.6729 90.7495
L125.5520 90.7495
" />
<path d="M125.5520 90.7495
L125.3706 90.6891
" />
<path d="M125.3706 90.6891
L125.2496 90.5681
" />
<path d="M125.2496 90.5681
L125.1891 90.4471
" />
<path d="M125.1891 90.4471
L125.1287 90.2052
" />
<path d="M125.1287 90.2052
L125.1287 90.0238
" />
<path d="M125.1287 90.0238
L125.1891 89.7819
" />
<path d="M125.1891 89.7819
L125.2496 89.6610
" />
<path d="M125.2496 89.6610
L125.3706 89.5400
" />
<path d="M125.3706 89.5400
L125.5520 89.4795
" />
<path d="M125.5520 89.4795
L125.6729 89.4795
" />
<path d="M125.6729 89.4795
L125.8544 89.5400
" />
<path d="M125.8544 89.5400
L125.9148 89.6005
" />
<path d="M127.1848 90.6286
L127.1244 90.6891
" />
<path d="M127.1244 90.6891
L126.9429 90.7495
" />
<path d="M126.9429 90.7495
L126.8220 90.7495
" />
<path d="M126.8220 90.7495
L126.6406 90.6891
" />
<path d="M126.6406 90.6891
L126.5196 90.5681
" />
<path d="M126.5196 90.5681
L126.4591 90.4471
" />
<path d="M126.4591 90.4471
L126.3987 90.2052
" />
<path d="M126.3987 90.2052
L126.3987 90.0238
" />
<path d="M126.3987 90.0238
L126.4591 89.7819
" />
<path d="M126.4591 89.7819
L126.5196 89.6610
" />
<path d="M126.5196 89.6610
L126.6406 89.5400
" />
<path d="M126.6406 89.5400
L126.8220 89.4795
" />
<path d="M126.8220 89.4795
L126.9429 89.4795
" />
<path d="M126.9429 89.4795
L127.1244 89.5400
" />
<path d="M127.1244 89.5400
L127.1848 89.6005
" />
</g></g>
<g style="fill:none; 
stroke:#A90000; stroke-width:0.1524; stroke-opacity:1; 
stroke-linecap:round; stroke-linejoin:round;">
<text x="121.9200" y="89.9160"
textLength="1.4127" font-size="1.6933" lengthAdjust="spacingAndGlyphs"
text-anchor="middle" opacity="0" stroke-opacity="0">1</text>
<g class="stroked-text"><desc>1</desc>
<path d="M122.2829 89.7525
L121.5572 89.7525
" />
<path d="M121.9200 89.7525
L121.9200 88.4825
" />
<path d="M121.9200 88.4825
L121.7991 88.6640
" />
<path d="M121.7991 88.6640
L121.6781 88.7849
" />
<path d="M121.6781 88.7849
L121.5572 88.8454
" />
</g></g>
<g style="fill:none; 
stroke:#840000; stroke-width:0.1524; stroke-opacity:1; 
stroke-linecap:round; stroke-linejoin:round;">
<path d="M123.1900 92.7100
L120.6500 92.7100
" />
</g>
<g style="fill:none; 
stroke:#006464; stroke-width:0.1524; stroke-opacity:1; 
stroke-linecap:round; stroke-linejoin:round;">
<text x="123.6980" y="93.3450"
textLength="4.0737" font-size="1.6933" lengthAdjust="spacingAndGlyphs"
text-anchor="start" opacity="0" stroke-opacity="0">GND</text>
<g class="stroked-text"><desc>GND</desc>
<path d="M124.7658 92.0800
L124.6448 92.0195
" />
<path d="M124.6448 92.0195
L124.4634 92.0195
" />
<path d="M124.4634 92.0195
L124.2820 92.0800
" />
<path d="M124.2820 92.0800
L124.1610 92.2010
" />
<path d="M124.1610 92.2010
L124.1005 92.3219
" />
<path d="M124.1005 92.3219
L124.0401 92.5638
" />
<path d="M124.0401 92.5638
L124.0401 92.7452
" />
<path d="M124.0401 92.7452
L124.1005 92.9871
" />
<path d="M124.1005 92.9871
L124.1610 93.1081
" />
<path d="M124.1610 93.1081
L124.2820 93.2291
" />
<path d="M124.2820 93.2291
L124.4634 93.2895
" />
<path d="M124.4634 93.2895
L124.5843 93.2895
" />
<path d="M124.5843 93.2895
L124.7658 93.2291
" />
<path d="M124.7658 93.2291
L124.8262 93.1686
" />
<path d="M124.8262 93.1686
L124.8262 92.7452
" />
<path d="M124.8262 92.7452
L124.5843 92.7452
" />
<path d="M125.3705 93.2895
L125.3705 92.0195
" />
<path d="M125.3705 92.0195
L126.0962 93.2895
" />
<path d="M126.0962 93.2895
L126.0962 92.0195
" />
<path d="M126.7010 93.2895
L126.7010 92.0195
" />
<path d="M126.7010 92.0195
L127.0034 92.0195
" />
<path d="M127.0034 92.0195
L127.1848 92.0800
" />
<path d="M127.1848 92.0800
L127.3058 92.2010
" />
<path d="M127.3058 92.2010
L127.3663 92.3219
" />
<path d="M127.3663 92.3219
L127.4267 92.5638
" />
<path d="M127.4267 92.5638
L127.4267 92.7452
" />
<path d="M127.4267 92.7452
L127.3663 92.9871
" />
<path d="M127.3663 92.9871
L127.3058 93.1081
" />
<path d="M127.3058 93.1081
L127.1848 93.2291
" />
<path d="M127.1848 93.2291
L127.0034 93.2895
" />
<path d="M127.0034 93.2895
L126.7010 93.2895
" />
</g></g>
<g style="fill:none; 
stroke:#A90000; stroke-width:0.1524; stroke-opacity:1; 
stroke-linecap:round; stroke-linejoin:round;">
<text x="121.9200" y="92.4560"
textLength="1.4127" font-size="1.6933" lengthAdjust="spacingAndGlyphs"
text-anchor="middle" opacity="0" stroke-opacity="0">2</text>
<g class="stroked-text"><desc>2</desc>
<path d="M121.5572 91.1435
L121.6176 91.0830
" />
<path d="M121.6176 91.0830
L121.7386 91.0225
" />
<path d="M121.7386 91.0225
L122.0410 91.0225
" />
<path d="M122.0410 91.0225
L122.1619 91.0830
" />
<path d="M122.1619 91.0830
L122.2224 91.1435
" />
<path d="M122.2224 91.1435
L122.2829 91.2644
" />
<path d="M122.2829 91.2644
L122.2829 91.3854
" />
<path d="M122.2829 91.3854
L122.2224 91.5668
" />
<path d="M122.2224 91.5668
L121.4967 92.2925
" />
<path d="M121.4967 92.2925
L122.2829 92.2925
" />
</g></g>
<g style="fill:none; 
stroke:#840000; stroke-width:0.1524; stroke-opacity:1; 
stroke-linecap:round; stroke-linejoin:round;">
<path d="M123.1900 95.2500
L120.6500 95.2500
" />
</g>
<g style="fill:none; 
stroke:#006464; stroke-width:0.1524; stroke-opacity:1; 
stroke-linecap:round; stroke-linejoin:round;">
<text x="123.6980" y="95.8850"
textLength="3.4085" font-size="1.6933" lengthAdjust="spacingAndGlyphs"
text-anchor="start" opacity="0" stroke-opacity="0">DIN</text>
<g class="stroked-text"><desc>DIN</desc>
<path d="M124.1005 95.8295
L124.1005 94.5595
" />
<path d="M124.1005 94.5595
L124.4029 94.5595
" />
<path d="M124.4029 94.5595
L124.5843 94.6200
" />
<path d="M124.5843 94.6200
L124.7053 94.7410
" />
<path d="M124.7053 94.7410
L124.7658 94.8619
" />
<path d="M124.7658 94.8619
L124.8262 95.1038
" />
<path d="M124.8262 95.1038
L124.8262 95.2852
" />
<path d="M124.8262 95.2852
L124.7658 95.5271
" />
<path d="M124.7658 95.5271
L124.7053 95.6481
" />
<path d="M124.7053 95.6481
L124.5843 95.7691
" />
<path d="M124.5843 95.7691
L124.4029 95.8295
" />
<path d="M124.4029 95.8295
L124.1005 95.8295
" />
<path d="M125.3705 95.8295
L125.3705 94.5595
" />
<path d="M125.9753 95.8295
L125.9753 94.5595
" />
<path d="M125.9753 94.5595
L126.7010 95.8295
" />
<path d="M126.7010 95.8295
L126.7010 94.5595
" />
</g></g>
<g style="fill:none; 
stroke:#A90000; stroke-width:0.1524; stroke-opacity:1; 
stroke-linecap:round; stroke-linejoin:round;">
<text x="121.9200" y="94.9960"
textLength="1.4127" font-size="1.6933" lengthAdjust="spacingAndGlyphs"
text-anchor="middle" opacity="0" stroke-opacity="0">3</text>
<g class="stroked-text"><desc>3</desc>
<path d="M121.4967 93.5625
L122.2829 93.5625
" />
<path d="M122.2829 93.5625
L121.8595 94.0463
" />
<path d="M121.8595 94.0463
L122.0410 94.0463
" />
<path d="M122.0410 94.0463
L122.1619 94.1068
" />
<path d="M122.1619 94.1068
L122.2224 94.1673
" />
<path d="M122.2224 94.1673
L122.2829 94.2882
" />
<path d="M122.2829 94.2882
L122.2829 94.5906
" />
<path d="M122.2829 94.5906
L122.2224 94.7116
" />
<path d="M122.2224 94.7116
L122.1619 94.7721
" />
<path d="M122.1619 94.7721
L122.0410 94.8325
" />
<path d="M122.0410 94.8325
L121.6781 94.8325
" />
<path d="M121.6781 94.8325
L121.5572 94.7721
" />
<path d="M121.5572 94.7721
L121.4967 94.7116
" />
</g></g>
<g style="fill:none; 
stroke:#840000; stroke-width:0.1524; stroke-opacity:1; 
stroke-linecap:round; stroke-linejoin:round;">
<path d="M123.1900 97.7900
L120.6500 97.7900
" />
</g>
<g style="fill:none; 
stroke:#006464; stroke-width:0.1524; stroke-opacity:1; 
stroke-linecap:round; stroke-linejoin:round;">
<text x="123.6980" y="98.4250"
textLength="3.7713" font-size="1.6933" lengthAdjust="spacingAndGlyphs"
text-anchor="start" opacity="0" stroke-opacity="0">CLK</text>
<g class="stroked-text"><desc>CLK</desc>
<path d="M124.8262 98.2486
L124.7658 98.3091
" />
<path d="M124.7658 98.3091
L124.5843 98.3695
" />
<path d="M124.5843 98.3695
L124.4634 98.3695
" />
<path d="M124.4634 98.3695
L124.2820 98.3091
" />
<path d="M124.2820 98.3091
L124.1610 98.1881
" />
<path d="M124.1610 98.1881
L124.1005 98.0671
" />
<path d="M124.1005 98.0671
L124.0401 97.8252
" />
<path d="M124.0401 97.8252
L124.0401 97.6438
" />
<path d="M124.0401 97.6438
L124.1005 97.4019
" />
<path d="M124.1005 97.4019
L124.1610 97.2810
" />
<path d="M124.1610 97.2810
L124.2820 97.1600
" />
<path d="M124.2820 97.1600
L124.4634 97.0995
" />
<path d="M124.4634 97.0995
L124.5843 97.0995
" />
<path d="M124.5843 97.0995
L124.7658 97.1600
" />
<path d="M124.7658 97.1600
L124.8262 97.2205
" />
<path d="M125.9753 98.3695
L125.3705 98.3695
" />
<path d="M125.3705 98.3695
L125.3705 97.0995
" />
<path d="M126.3986 98.3695
L126.3986 97.0995
" />
<path d="M127.1243 98.3695
L126.5801 97.6438
" />
<path d="M127.1243 97.0995
L126.3986 97.8252
" />
</g></g>
<g style="fill:none; 
stroke:#A90000; stroke-width:0.1524; stroke-opacity:1; 
stroke-linecap:round; stroke-linejoin:round;">
<text x="121.9200" y="97.5360"
textLength="1.4127" font-size="1.6933" lengthAdjust="spacingAndGlyphs"
text-anchor="middle" opacity="0" stroke-opacity="0">4</text>
<g class="stroked-text"><desc>4</desc>
<path d="M122.1619 96.5259
L122.1619 97.3725
" />
<path d="M121.8595 96.0421
L121.5572 96.9492
" />
<path d="M121.5572 96.9492
L122.3433 96.9492
" />
</g></g>
<g style="fill:none; 
stroke:#840000; stroke-width:0.1524; stroke-opacity:1; 
stroke-linecap:round; stroke-linejoin:round;">
<path d="M123.1900 100.3300
L120.6500 100.3300
" />
</g>
<g style="fill:none; 
stroke:#006464; stroke-width:0.1524; stroke-opacity:1; 
stroke-linecap:round; stroke-linejoin:round;">
<text x="123.6980" y="100.9650"
textLength="2.6827" font-size="1.6933" lengthAdjust="spacingAndGlyphs"
text-anchor="start" opacity="0" stroke-opacity="0">CS</text>
<g class="stroked-text"><desc>CS</desc>
<path d="M124.8262 100.7886
L124.7658 100.8491
" />
<path d="M124.7658 100.8491
L124.5843 100.9095
" />
<path d="M124.5843 100.9095
L124.4634 100.9095
" />
<path d="M124.4634 100.9095
L124.2820 100.8491
" />
<path d="M124.2820 100.8491
L124.1610 100.7281
" />
<path d="M124.1610 100.7281
L124.1005 100.6071
" />
<path d="M124.1005 100.6071
L124.0401 100.3652
" />
<path d="M124.0401 100.3652
L124.0401 100.1838
" />
<path d="M124.0401 100.1838
L124.1005 99.9419
" />
<path d="M124.1005 99.9419
L124.1610 99.8210
" />
<path d="M124.1610 99.8210
L124.2820 99.7000
" />
<path d="M124.2820 99.7000
L124.4634 99.6395
" />
<path d="M124.4634 99.6395
L124.5843 99.6395
" />
<path d="M124.5843 99.6395
L124.7658 99.7000
" />
<path d="M124.7658 99.7000
L124.8262 99.7605
" />
<path d="M125.3101 100.8491
L125.4915 100.9095
" />
<path d="M125.4915 100.9095
L125.7939 100.9095
" />
<path d="M125.7939 100.9095
L125.9148 100.8491
" />
<path d="M125.9148 100.8491
L125.9753 100.7886
" />
<path d="M125.9753 100.7886
L126.0358 100.6676
" />
<path d="M126.0358 100.6676
L126.0358 100.5467
" />
<path d="M126.0358 100.5467
L125.9753 100.4257
" />
<path d="M125.9753 100.4257
L125.9148 100.3652
" />
<path d="M125.9148 100.3652
L125.7939 100.3048
" />
<path d="M125.7939 100.3048
L125.5520 100.2443
" />
<path d="M125.5520 100.2443
L125.4310 100.1838
" />
<path d="M125.4310 100.1838
L125.3705 100.1233
" />
<path d="M125.3705 100.1233
L125.3101 100.0024
" />
<path d="M125.3101 100.0024
L125.3101 99.8814
" />
<path d="M125.3101 99.8814
L125.3705 99.7605
" />
<path d="M125.3705 99.7605
L125.4310 99.7000
" />
<path d="M125.4310 99.7000
L125.5520 99.6395
" />
<path d="M125.5520 99.6395
L125.8543 99.6395
" />
<path d="M125.8543 99.6395
L126.0358 99.7000
" />
</g></g>
<g style="fill:none; 
stroke:#A90000; stroke-width:0.1524; stroke-opacity:1; 
stroke-linecap:round; stroke-linejoin:round;">
<text x="121.9200" y="100.0760"
textLength="1.4127" font-size="1.6933" lengthAdjust="spacingAndGlyphs"
text-anchor="middle" opacity="0" stroke-opacity="0">5</text>
<g class="stroked-text"><desc>5</desc>
<path d="M122.2224 98.6425
L121.6176 98.6425
" />
<path d="M121.6176 98.6425
L121.5572 99.2473
" />
<path d="M121.5572 99.2473
L121.6176 99.1868
" />
<path d="M121.6176 99.1868
L121.7386 99.1263
" />
<path d="M121.7386 99.1263
L122.0410 99.1263
" />
<path d="M122.0410 99.1263
L122.1619 99.1868
" />
<path d="M122.1619 99.1868
L122.2224 99.2473
" />
<path d="M122.2224 99.2473
L122.2829 99.3682
" />
<path d="M122.2829 99.3682
L122.2829 99.6706
" />
<path d="M122.2829 99.6706
L122.2224 99.7916
" />
<path d="M122.2224 99.7916
L122.1619 99.8521
" />
<path d="M122.1619 99.8521
L122.0410 99.9125
" />
<path d="M122.0410 99.9125
L121.7386 99.9125
" />
<path d="M121.7386 99.9125
L121.6176 99.8521
" />
<path d="M121.6176 99.8521
L121.5572 99.7916
" />
</g></g>
<g style="fill:none; 
stroke:#840000; stroke-width:0.1524; stroke-opacity:1; 
stroke-linecap:round; stroke-linejoin:round;">
<path d="M123.1900 102.8700
L120.6500 102.8700
" />
</g>
<g style="fill:none; 
stroke:#006464; stroke-width:0.1524; stroke-opacity:1; 
stroke-linecap:round; stroke-linejoin:round;">
<text x="123.6980" y="103.5050"
textLength="2.7432" font-size="1.6933" lengthAdjust="spacingAndGlyphs"
text-anchor="start" opacity="0" stroke-opacity="0">DC</text>
<g class="stroked-text"><desc>DC</desc>
<path d="M124.1005 103.4495
L124.1005 102.1795
" />
<path d="M124.1005 102.1795
L124.4029 102.1795
" />
<path d="M124.4029 102.1795
L124.5843 102.2400
" />
<path d="M124.5843 102.2400
L124.7053 102.3610
" />
<path d="M124.7053 102.3610
L124.7658 102.4819
" />
<path d="M124.7658 102.4819
L124.8262 102.7238
" />
<path d="M124.8262 102.7238
L124.8262 102.9052
" />
<path d="M124.8262 102.9052
L124.7658 103.1471
" />
<path d="M124.7658 103.1471
L124.7053 103.2681
" />
<path d="M124.7053 103.2681
L124.5843 103.3891
" />
<path d="M124.5843 103.3891
L124.4029 103.4495
" />
<path d="M124.4029 103.4495
L124.1005 103.4495
" />
<path d="M126.0962 103.3286
L126.0358 103.3891
" />
<path d="M126.0358 103.3891
L125.8543 103.4495
" />
<path d="M125.8543 103.4495
L125.7334 103.4495
" />
<path d="M125.7334 103.4495
L125.5520 103.3891
" />
<path d="M125.5520 103.3891
L125.4310 103.2681
" />
<path d="M125.4310 103.2681
L125.3705 103.1471
" />
<path d="M125.3705 103.1471
L125.3101 102.9052
" />
<path d="M125.3101 102.9052
L125.3101 102.7238
" />
<path d="M125.3101 102.7238
L125.3705 102.4819
" />
<path d="M125.3705 102.4819
L125.4310 102.3610
" />
<path d="M125.4310 102.3610
L125.5520 102.2400
" />
<path d="M125.5520 102.2400
L125.7334 102.1795
" />
<path d="M125.7334 102.1795
L125.8543 102.1795
" />
<path d="M125.8543 102.1795
L126.0358 102.2400
" />
<path d="M126.0358 102.2400
L126.0962 102.3005
" />
</g></g>
<g style="fill:none; 
stroke:#A90000; stroke-width:0.1524; stroke-opacity:1; 
stroke-linecap:round; stroke-linejoin:round;">
<text x="121.9200" y="102.6160"
textLength="1.4127" font-size="1.6933" lengthAdjust="spacingAndGlyphs"
text-anchor="middle" opacity="0" stroke-opacity="0">6</text>
<g class="stroked-text"><desc>6</desc>
<path d="M122.1619 101.1825
L121.9200 101.1825
" />
<path d="M121.9200 101.1825
L121.7991 101.2430
" />
<path d="M121.7991 101.2430
L121.7386 101.3035
" />
<path d="M121.7386 101.3035
L121.6176 101.4849
" />
<path d="M121.6176 101.4849
L121.5572 101.7268
" />
<path d="M121.5572 101.7268
L121.5572 102.2106
" />
<path d="M121.5572 102.2106
L121.6176 102.3316
" />
<path d="M121.6176 102.3316
L121.6781 102.3921
" />
<path d="M121.6781 102.3921
L121.7991 102.4525
" />
<path d="M121.7991 102.4525
L122.0410 102.4525
" />
<path d="M122.0410 102.4525
L122.1619 102.3921
" />
<path d="M122.1619 102.3921
L122.2224 102.3316
" />
<path d="M122.2224 102.3316
L122.2829 102.2106
" />
<path d="M122.2829 102.2106
L122.2829 101.9082
" />
<path d="M122.2829 101.9082
L122.2224 101.7873
" />
<path d="M122.2224 101.7873
L122.1619 101.7268
" />
<path d="M122.1619 101.7268
L122.0410 101.6663
" />
<path d="M122.0410 101.6663
L121.7991 101.6663
" />
<path d="M121.7991 101.6663
L121.6781 101.7268
" />
<path d="M121.6781 101.7268
L121.6176 101.7873
" />
<path d="M121.6176 101.7873
L121.5572 101.9082
" />
</g></g>
<g style="fill:none; 
stroke:#840000; stroke-width:0.1524; stroke-opacity:1; 
stroke-linecap:round; stroke-linejoin:round;">
<path d="M123.1900 105.4100
L120.6500 105.4100
" />
</g>
<g style="fill:none; 
stroke:#006464; stroke-width:0.1524; stroke-opacity:1; 
stroke-linecap:round; stroke-linejoin:round;">
<text x="123.6980" y="106.0450"
textLength="3.6503" font-size="1.6933" lengthAdjust="spacingAndGlyphs"
text-anchor="start" opacity="0" stroke-opacity="0">RST</text>
<g class="stroked-text"><desc>RST</desc>
<path d="M124.8262 105.9895
L124.4029 105.3848
" />
<path d="M124.1005 105.9895
L124.1005 104.7195
" />
<path d="M124.1005 104.7195
L124.5843 104.7195
" />
<path d="M124.5843 104.7195
L124.7053 104.7800
" />
<path d="M124.7053 104.7800
L124.7658 104.8405
" />
<path d="M124.7658 104.8405
L124.8262 104.9614
" />
<path d="M124.8262 104.9614
L124.8262 105.1429
" />
<path d="M124.8262 105.1429
L124.7658 105.2638
" />
<path d="M124.7658 105.2638
L124.7053 105.3243
" />
<path d="M124.7053 105.3243
L124.5843 105.3848
" />
<path d="M124.5843 105.3848
L124.1005 105.3848
" />
<path d="M125.3101 105.9291
L125.4915 105.9895
" />
<path d="M125.4915 105.9895
L125.7939 105.9895
" />
<path d="M125.7939 105.9895
L125.9148 105.9291
" />
<path d="M125.9148 105.9291
L125.9753 105.8686
" />
<path d="M125.9753 105.8686
L126.0358 105.7476
" />
<path d="M126.0358 105.7476
L126.0358 105.6267
" />
<path d="M126.0358 105.6267
L125.9753 105.5057
" />
<path d="M125.9753 105.5057
L125.9148 105.4452
" />
<path d="M125.9148 105.4452
L125.7939 105.3848
" />
<path d="M125.7939 105.3848
L125.5520 105.3243
" />
<path d="M125.5520 105.3243
L125.4310 105.2638
" />
<path d="M125.4310 105.2638
L125.3705 105.2033
" />
<path d="M125.3705 105.2033
L125.3101 105.0824
" />
<path d="M125.3101 105.0824
L125.3101 104.9614
" />
<path d="M125.3101 104.9614
L125.3705 104.8405
" />
<path d="M125.3705 104.8405
L125.4310 104.7800
" />
<path d="M125.4310 104.7800
L125.5520 104.7195
" />
<path d="M125.5520 104.7195
L125.8543 104.7195
" />
<path d="M125.8543 104.7195
L126.0358 104.7800
" />
<path d="M126.3986 104.7195
L127.1243 104.7195
" />
<path d="M126.7615 105.9895
L126.7615 104.7195
" />
</g></g>
<g style="fill:none; 
stroke:#A90000; stroke-width:0.1524; stroke-opacity:1; 
stroke-linecap:round; stroke-linejoin:round;">
<text x="121.9200" y="105.1560"
textLength="1.4127" font-size="1.6933" lengthAdjust="spacingAndGlyphs"
text-anchor="middle" opacity="0" stroke-opacity="0">7</text>
<g class="stroked-text"><desc>7</desc>
<path d="M121.4967 103.7225
L122.3433 103.7225
" />
<path d="M122.3433 103.7225
L121.7991 104.9925
" />
</g></g>
<g style="fill:none; 
stroke:#840000; stroke-width:0.1524; stroke-opacity:1; 
stroke-linecap:round; stroke-linejoin:round;">
<path d="M123.1900 107.9500
L120.6500 107.9500
" />
</g>
<g style="fill:none; 
stroke:#006464; stroke-width:0.1524; stroke-opacity:1; 
stroke-linecap:round; stroke-linejoin:round;">
<text x="123.6980" y="108.5850"
textLength="2.5013" font-size="1.6933" lengthAdjust="spacingAndGlyphs"
text-anchor="start" opacity="0" stroke-opacity="0">BL</text>
<g class="stroked-text"><desc>BL</desc>
<path d="M124.5239 107.8643
L124.7053 107.9248
" />
<path d="M124.7053 107.9248
L124.7658 107.9852
" />
<path d="M124.7658 107.9852
L124.8262 108.1062
" />
<path d="M124.8262 108.1062
L124.8262 108.2876
" />
<path d="M124.8262 108.2876
L124.7658 108.4086
" />
<path d="M124.7658 108.4086
L124.7053 108.4691
" />
<path d="M124.7053 108.4691
L124.5843 108.5295
" />
<path d="M124.5843 108.5295
L124.1005 108.5295
" />
<path d="M124.1005 108.5295
L124.1005 107.2595
" />
<path d="M124.1005 107.2595
L124.5239 107.2595
" />
<path d="M124.5239 107.2595
L124.6448 107.3200
" />
<path d="M124.6448 107.3200
L124.7053 107.3805
" />
<path d="M124.7053 107.3805
L124.7658 107.5014
" />
<path d="M124.7658 107.5014
L124.7658 107.6224
" />
<path d="M124.7658 107.6224
L124.7053 107.7433
" />
<path d="M124.7053 107.7433
L124.6448 107.8038
" />
<path d="M124.6448 107.8038
L124.5239 107.8643
" />
<path d="M124.5239 107.8643
L124.1005 107.8643
" />
<path d="M125.9753 108.5295
L125.3705 108.5295
" />
<path d="M125.3705 108.5295
L125.3705 107.2595
" />
</g></g>
<g style="fill:none; 
stroke:#A90000; stroke-width:0.1524; stroke-opacity:1; 
stroke-linecap:round; stroke-linejoin:round;">
<text x="121.9200" y="107.6960"
textLength="1.4127" font-size="1.6933" lengthAdjust="spacingAndGlyphs"
text-anchor="middle" opacity="0" stroke-opacity="0">8</text>
<g class="stroked-text"><desc>8</desc>
<path d="M121.7991 106.8068
L121.6781 106.7463
" />
<path d="M121.6781 106.7463
L121.6176 106.6859
" />
<path d="M121.6176 106.6859
L121.5572 106.5649
" />
<path d="M121.5572 106.5649
L121.5572 106.5044
" />
<path d="M121.5572 106.5044
L121.6176 106.3835
" />
<path d="M121.6176 106.3835
L121.6781 106.3230
" />
<path d="M121.6781 106.3230
L121.7991 106.2625
" />
<path d="M121.7991 106.2625
L122.0410 106.2625
" />
<path d="M122.0410 106.2625
L122.1619 106.3230
" />
<path d="M122.1619 106.3230
L122.2224 106.3835
" />
<path d="M122.2224 106.3835
L122.2829 106.5044
" />
<path d="M122.2829 106.5044
L122.2829 106.5649
" />
<path d="M122.2829 106.5649
L122.2224 106.6859
" />
<path d="M122.2224 106.6859
L122.1619 106.7463
" />
<path d="M122.1619 106.7463
L122.0410 106.8068
" />
<path d="M122.0410 106.8068
L121.7991 106.8068
" />
<path d="M121.7991 106.8068
L121.6781 106.8673
" />
<path d="M121.6781 106.8673
L121.6176 106.9278
" />
<path d="M121.6176 106.9278
L121.5572 107.0487
" />
<path d="M121.5572 107.0487
L121.5572 107.2906
" />
<path d="M121.5572 107.2906
L121.6176 107.4116
" />
<path d="M121.6176 107.4116
L121.6781 107.4721
" />
<path d="M121.6781 107.4721
L121.7991 107.5325
" />
<path d="M121.7991 107.5325
L122.0410 107.5325
" />
<path d="M122.0410 107.5325
L122.1619 107.4721
" />
<path d="M122.1619 107.4721
L122.2224 107.4116
" />
<path d="M122.2224 107.4116
L122.2829 107.2906
" />
<path d="M122.2829 107.2906
L122.2829 107.0487
" />
<path d="M122.2829 107.0487
L122.2224 106.9278
" />
<path d="M122.2224 106.9278
L122.1619 106.8673
" />
<path d="M122.1619 106.8673
L122.0410 106.8068
" />
</g></g>
<g style="fill:none; 
stroke:#006464; stroke-width:0.1524; stroke-opacity:1; 
stroke-linecap:round; stroke-linejoin:round;">
<text x="142.3512" y="97.1549"
textLength="2.7432" font-size="1.6933" lengthAdjust="spacingAndGlyphs"
text-anchor="middle" opacity="0" stroke-opacity="0">U4</text>
<g class="stroked-text"><desc>U4</desc>
<path d="M141.3835 95.8294
L141.3835 96.8575
" />
<path d="M141.3835 96.8575
L141.4440 96.9785
" />
<path d="M141.4440 96.9785
L141.5045 97.0390
" />
<path d="M141.5045 97.0390
L141.6254 97.0994
" />
<path d="M141.6254 97.0994
L141.8673 97.0994
" />
<path d="M141.8673 97.0994
L141.9883 97.0390
" />
<path d="M141.9883 97.0390
L142.0488 96.9785
" />
<path d="M142.0488 96.9785
L142.1092 96.8575
" />
<path d="M142.1092 96.8575
L142.1092 95.8294
" />
<path d="M143.2583 96.2528
L143.2583 97.0994
" />
<path d="M142.9559 95.7690
L142.6536 96.6761
" />
<path d="M142.6536 96.6761
L143.4397 96.6761
" />
</g><text x="141.5347" y="99.6949"
textLength="1.1103" font-size="1.6933" lengthAdjust="spacingAndGlyphs"
text-anchor="middle" opacity="0" stroke-opacity="0">~</text>
<g class="stroked-text"><desc>~</desc>
<path d="M141.2021 99.1556
L141.2626 99.0951
" />
<path d="M141.2626 99.0951
L141.3835 99.0347
" />
<path d="M141.3835 99.0347
L141.6254 99.1556
" />
<path d="M141.6254 99.1556
L141.7464 99.0951
" />
<path d="M141.7464 99.0951
L141.8069 99.0347
" />
</g><path style="fill:none; 
stroke:#840000; stroke-width:0.1524; stroke-opacity:1; 
stroke-linecap:round; stroke-linejoin:round;fill:none"
d="M 113.5380,77.4700
114.3000,76.2000
" /> 
<path style="fill:none; 
stroke:#840000; stroke-width:0.1524; stroke-opacity:1; 
stroke-linecap:round; stroke-linejoin:round;fill:none"
d="M 114.3000,76.2000
115.0620,77.4700
" /> 
<path style="fill:none; 
stroke:#840000; stroke-width:0.1524; stroke-opacity:1; 
stroke-linecap:round; stroke-linejoin:round;fill:none"
d="M 114.3000,78.7400
114.3000,76.2000
" /> 
</g>
<g style="fill:none; 
stroke:#840000; stroke-width:0.1524; stroke-opacity:1; 
stroke-linecap:round; stroke-linejoin:round;">
<path d="M114.3000 78.7400
L114.3000 78.7400
" />
</g>
<g style="fill:none; 
stroke:#006464; stroke-width:0.1524; stroke-opacity:1; 
stroke-linecap:round; stroke-linejoin:round;">
<text x="114.3000" y="74.2950"
textLength="5.8880" font-size="1.6933" lengthAdjust="spacingAndGlyphs"
text-anchor="middle" opacity="0" stroke-opacity="0">+3.3V</text>
<g class="stroked-text"><desc>+3.3V</desc>
<path d="M111.7599 73.7557
L112.7276 73.7557
" />
<path d="M112.2437 74.2395
L112.2437 73.2719
" />
<path d="M113.2114 72.9695
L113.9976 72.9695
" />
<path d="M113.9976 72.9695
L113.5742 73.4533
" />
<path d="M113.5742 73.4533
L113.7557 73.4533
" />
<path d="M113.7557 73.4533
L113.8766 73.5138
" />
<path d="M113.8766 73.5138
L113.9371 73.5743
" />
<path d="M113.9371 73.5743
L113.9976 73.6952
" />
<path d="M113.9976 73.6952
L113.9976 73.9976
" />
<path d="M113.9976 73.9976
L113.9371 74.1186
" />
<path d="M113.9371 74.1186
L113.8766 74.1791
" />
<path d="M113.8766 74.1791
L113.7557 74.2395
" />
<path d="M113.7557 74.2395
L113.3928 74.2395
" />
<path d="M113.3928 74.2395
L113.2719 74.1791
" />
<path d="M113.2719 74.1791
L113.2114 74.1186
" />
<path d="M114.5418 74.1186
L114.6023 74.1791
" />
<path d="M114.6023 74.1791
L114.5418 74.2395
" />
<path d="M114.5418 74.2395
L114.4814 74.1791
" />
<path d="M114.4814 74.1791
L114.5418 74.1186
" />
<path d="M114.5418 74.1186
L114.5418 74.2395
" />
<path d="M115.0257 72.9695
L115.8119 72.9695
" />
<path d="M115.8119 72.9695
L115.3885 73.4533
" />
<path d="M115.3885 73.4533
L115.5700 73.4533
" />
<path d="M115.5700 73.4533
L115.6909 73.5138
" />
<path d="M115.6909 73.5138
L115.7514 73.5743
" />
<path d="M115.7514 73.5743
L115.8119 73.6952
" />
<path d="M115.8119 73.6952
L115.8119 73.9976
" />
<path d="M115.8119 73.9976
L115.7514 74.1186
" />
<path d="M115.7514 74.1186
L115.6909 74.1791
" />
<path d="M115.6909 74.1791
L115.5700 74.2395
" />
<path d="M115.5700 74.2395
L115.2071 74.2395
" />
<path d="M115.2071 74.2395
L115.0862 74.1791
" />
<path d="M115.0862 74.1791
L115.0257 74.1186
" />
<path d="M116.1747 72.9695
L116.5980 74.2395
" />
<path d="M116.5980 74.2395
L117.0214 72.9695
" />
</g></g>
<g style="fill:none; 
stroke:#725600; stroke-width:0.1524; stroke-opacity:1; 
stroke-linecap:round; stroke-linejoin:round;">
<text x="188.3410" y="88.2650"
textLength="3.3480" font-size="1.6933" lengthAdjust="spacingAndGlyphs"
text-anchor="start" opacity="0" stroke-opacity="0">IO1</text>
<g class="stroked-text"><desc>IO1</desc>
<path d="M188.7435 88.2095
L188.7435 86.9395
" />
<path d="M189.5902 86.9395
L189.8321 86.9395
" />
<path d="M189.8321 86.9395
L189.9531 87.0000
" />
<path d="M189.9531 87.0000
L190.0740 87.1210
" />
<path d="M190.0740 87.1210
L190.1345 87.3629
" />
<path d="M190.1345 87.3629
L190.1345 87.7862
" />
<path d="M190.1345 87.7862
L190.0740 88.0281
" />
<path d="M190.0740 88.0281
L189.9531 88.1491
" />
<path d="M189.9531 88.1491
L189.8321 88.2095
" />
<path d="M189.8321 88.2095
L189.5902 88.2095
" />
<path d="M189.5902 88.2095
L189.4693 88.1491
" />
<path d="M189.4693 88.1491
L189.3483 88.0281
" />
<path d="M189.3483 88.0281
L189.2879 87.7862
" />
<path d="M189.2879 87.7862
L189.2879 87.3629
" />
<path d="M189.2879 87.3629
L189.3483 87.1210
" />
<path d="M189.3483 87.1210
L189.4693 87.0000
" />
<path d="M189.4693 87.0000
L189.5902 86.9395
" />
<path d="M191.3441 88.2095
L190.6184 88.2095
" />
<path d="M190.9812 88.2095
L190.9812 86.9395
" />
<path d="M190.9812 86.9395
L190.8603 87.1210
" />
<path d="M190.8603 87.1210
L190.7393 87.2419
" />
<path d="M190.7393 87.2419
L190.6184 87.3024
" />
</g><path style="fill:none; 
stroke:#725600; stroke-width:0.1524; stroke-opacity:1; 
stroke-linecap:round; stroke-linejoin:round;fill:none"
d="M 186.6900,87.6300
187.3250,88.2650
187.9600,88.2650
187.9600,86.9950
187.3250,86.9950
Z" /> 
</g>
<g style="fill:none; 
stroke:#725600; stroke-width:0.1524; stroke-opacity:1; 
stroke-linecap:round; stroke-linejoin:round;">
<text x="188.3410" y="112.3950"
textLength="3.3480" font-size="1.6933" lengthAdjust="spacingAndGlyphs"
text-anchor="start" opacity="0" stroke-opacity="0">IO2</text>
<g class="stroked-text"><desc>IO2</desc>
<path d="M188.7435 112.3395
L188.7435 111.0695
" />
<path d="M189.5902 111.0695
L189.8321 111.0695
" />
<path d="M189.8321 111.0695
L189.9531 111.1300
" />
<path d="M189.9531 111.1300
L190.0740 111.2510
" />
<path d="M190.0740 111.2510
L190.1345 111.4929
" />
<path d="M190.1345 111.4929
L190.1345 111.9162
" />
<path d="M190.1345 111.9162
L190.0740 112.1581
" />
<path d="M190.0740 112.1581
L189.9531 112.2791
" />
<path d="M189.9531 112.2791
L189.8321 112.3395
" />
<path d="M189.8321 112.3395
L189.5902 112.3395
" />
<path d="M189.5902 112.3395
L189.4693 112.2791
" />
<path d="M189.4693 112.2791
L189.3483 112.1581
" />
<path d="M189.3483 112.1581
L189.2879 111.9162
" />
<path d="M189.2879 111.9162
L189.2879 111.4929
" />
<path d="M189.2879 111.4929
L189.3483 111.2510
" />
<path d="M189.3483 111.2510
L189.4693 111.1300
" />
<path d="M189.4693 111.1300
L189.5902 111.0695
" />
<path d="M190.6184 111.1905
L190.6788 111.1300
" />
<path d="M190.6788 111.1300
L190.7998 111.0695
" />
<path d="M190.7998 111.0695
L191.1022 111.0695
" />
<path d="M191.1022 111.0695
L191.2231 111.1300
" />
<path d="M191.2231 111.1300
L191.2836 111.1905
" />
<path d="M191.2836 111.1905
L191.3441 111.3114
" />
<path d="M191.3441 111.3114
L191.3441 111.4324
" />
<path d="M191.3441 111.4324
L191.2836 111.6138
" />
<path d="M191.2836 111.6138
L190.5579 112.3395
" />
<path d="M190.5579 112.3395
L191.3441 112.3395
" />
</g><path style="fill:none; 
stroke:#725600; stroke-width:0.1524; stroke-opacity:1; 
stroke-linecap:round; stroke-linejoin:round;fill:none"
d="M 186.6900,111.7600
187.3250,112.3950
187.9600,112.3950
187.9600,111.1250
187.3250,111.1250
Z" /> 
</g>
<g style="fill:none; 
stroke:#725600; stroke-width:0.1524; stroke-opacity:1; 
stroke-linecap:round; stroke-linejoin:round;">
<text x="85.9790" y="103.5050"
textLength="2.7432" font-size="1.6933" lengthAdjust="spacingAndGlyphs"
text-anchor="end" opacity="0" stroke-opacity="0">DC</text>
<g class="stroked-text"><desc>DC</desc>
<path d="M83.6411 103.4495
L83.6411 102.1795
" />
<path d="M83.6411 102.1795
L83.9435 102.1795
" />
<path d="M83.9435 102.1795
L84.1249 102.2400
" />
<path d="M84.1249 102.2400
L84.2459 102.3610
" />
<path d="M84.2459 102.3610
L84.3064 102.4819
" />
<path d="M84.3064 102.4819
L84.3668 102.7238
" />
<path d="M84.3668 102.7238
L84.3668 102.9052
" />
<path d="M84.3668 102.9052
L84.3064 103.1471
" />
<path d="M84.3064 103.1471
L84.2459 103.2681
" />
<path d="M84.2459 103.2681
L84.1249 103.3891
" />
<path d="M84.1249 103.3891
L83.9435 103.4495
" />
<path d="M83.9435 103.4495
L83.6411 103.4495
" />
<path d="M85.6368 103.3286
L85.5764 103.3891
" />
<path d="M85.5764 103.3891
L85.3949 103.4495
" />
<path d="M85.3949 103.4495
L85.2740 103.4495
" />
<path d="M85.2740 103.4495
L85.0926 103.3891
" />
<path d="M85.0926 103.3891
L84.9716 103.2681
" />
<path d="M84.9716 103.2681
L84.9111 103.1471
" />
<path d="M84.9111 103.1471
L84.8507 102.9052
" />
<path d="M84.8507 102.9052
L84.8507 102.7238
" />
<path d="M84.8507 102.7238
L84.9111 102.4819
" />
<path d="M84.9111 102.4819
L84.9716 102.3610
" />
<path d="M84.9716 102.3610
L85.0926 102.2400
" />
<path d="M85.0926 102.2400
L85.2740 102.1795
" />
<path d="M85.2740 102.1795
L85.3949 102.1795
" />
<path d="M85.3949 102.1795
L85.5764 102.2400
" />
<path d="M85.5764 102.2400
L85.6368 102.3005
" />
</g><path style="fill:none; 
stroke:#725600; stroke-width:0.1524; stroke-opacity:1; 
stroke-linecap:round; stroke-linejoin:round;fill:none"
d="M 87.6300,102.8700
86.9950,102.2350
86.3600,102.2350
86.3600,103.5050
86.9950,103.5050
Z" /> 
</g>
<g style="fill:none; 
stroke:#725600; stroke-width:0.1524; stroke-opacity:1; 
stroke-linecap:round; stroke-linejoin:round;">
<text x="85.9790" y="100.9650"
textLength="2.6827" font-size="1.6933" lengthAdjust="spacingAndGlyphs"
text-anchor="end" opacity="0" stroke-opacity="0">CS</text>
<g class="stroked-text"><desc>CS</desc>
<path d="M84.4273 100.7886
L84.3669 100.8491
" />
<path d="M84.3669 100.8491
L84.1854 100.9095
" />
<path d="M84.1854 100.9095
L84.0645 100.9095
" />
<path d="M84.0645 100.9095
L83.8831 100.8491
" />
<path d="M83.8831 100.8491
L83.7621 100.7281
" />
<path d="M83.7621 100.7281
L83.7016 100.6071
" />
<path d="M83.7016 100.6071
L83.6412 100.3652
" />
<path d="M83.6412 100.3652
L83.6412 100.1838
" />
<path d="M83.6412 100.1838
L83.7016 99.9419
" />
<path d="M83.7016 99.9419
L83.7621 99.8210
" />
<path d="M83.7621 99.8210
L83.8831 99.7000
" />
<path d="M83.8831 99.7000
L84.0645 99.6395
" />
<path d="M84.0645 99.6395
L84.1854 99.6395
" />
<path d="M84.1854 99.6395
L84.3669 99.7000
" />
<path d="M84.3669 99.7000
L84.4273 99.7605
" />
<path d="M84.9112 100.8491
L85.0926 100.9095
" />
<path d="M85.0926 100.9095
L85.3950 100.9095
" />
<path d="M85.3950 100.9095
L85.5159 100.8491
" />
<path d="M85.5159 100.8491
L85.5764 100.7886
" />
<path d="M85.5764 100.7886
L85.6369 100.6676
" />
<path d="M85.6369 100.6676
L85.6369 100.5467
" />
<path d="M85.6369 100.5467
L85.5764 100.4257
" />
<path d="M85.5764 100.4257
L85.5159 100.3652
" />
<path d="M85.5159 100.3652
L85.3950 100.3048
" />
<path d="M85.3950 100.3048
L85.1531 100.2443
" />
<path d="M85.1531 100.2443
L85.0321 100.1838
" />
<path d="M85.0321 100.1838
L84.9716 100.1233
" />
<path d="M84.9716 100.1233
L84.9112 100.0024
" />
<path d="M84.9112 100.0024
L84.9112 99.8814
" />
<path d="M84.9112 99.8814
L84.9716 99.7605
" />
<path d="M84.9716 99.7605
L85.0321 99.7000
" />
<path d="M85.0321 99.7000
L85.1531 99.6395
" />
<path d="M85.1531 99.6395
L85.4554 99.6395
" />
<path d="M85.4554 99.6395
L85.6369 99.7000
" />
</g><path style="fill:none; 
stroke:#725600; stroke-width:0.1524; stroke-opacity:1; 
stroke-linecap:round; stroke-linejoin:round;fill:none"
d="M 87.6300,100.3300
86.9950,99.6950
86.3600,99.6950
86.3600,100.9650
86.9950,100.9650
Z" /> 
</g>
<g style="fill:none; 
stroke:#725600; stroke-width:0.1524; stroke-opacity:1; 
stroke-linecap:round; stroke-linejoin:round;">
<text x="85.9790" y="95.8850"
textLength="3.4085" font-size="1.6933" lengthAdjust="spacingAndGlyphs"
text-anchor="end" opacity="0" stroke-opacity="0">DIN</text>
<g class="stroked-text"><desc>DIN</desc>
<path d="M82.9758 95.8295
L82.9758 94.5595
" />
<path d="M82.9758 94.5595
L83.2782 94.5595
" />
<path d="M83.2782 94.5595
L83.4596 94.6200
" />
<path d="M83.4596 94.6200
L83.5806 94.7410
" />
<path d="M83.5806 94.7410
L83.6411 94.8619
" />
<path d="M83.6411 94.8619
L83.7015 95.1038
" />
<path d="M83.7015 95.1038
L83.7015 95.2852
" />
<path d="M83.7015 95.2852
L83.6411 95.5271
" />
<path d="M83.6411 95.5271
L83.5806 95.6481
" />
<path d="M83.5806 95.6481
L83.4596 95.7691
" />
<path d="M83.4596 95.7691
L83.2782 95.8295
" />
<path d="M83.2782 95.8295
L82.9758 95.8295
" />
<path d="M84.2458 95.8295
L84.2458 94.5595
" />
<path d="M84.8506 95.8295
L84.8506 94.5595
" />
<path d="M84.8506 94.5595
L85.5763 95.8295
" />
<path d="M85.5763 95.8295
L85.5763 94.5595
" />
</g><path style="fill:none; 
stroke:#725600; stroke-width:0.1524; stroke-opacity:1; 
stroke-linecap:round; stroke-linejoin:round;fill:none"
d="M 87.6300,95.2500
86.9950,94.6150
86.3600,94.6150
86.3600,95.8850
86.9950,95.8850
Z" /> 
</g>
<g style="fill:none; 
stroke:#725600; stroke-width:0.1524; stroke-opacity:1; 
stroke-linecap:round; stroke-linejoin:round;">
<text x="85.9790" y="106.0450"
textLength="3.6503" font-size="1.6933" lengthAdjust="spacingAndGlyphs"
text-anchor="end" opacity="0" stroke-opacity="0">RST</text>
<g class="stroked-text"><desc>RST</desc>
<path d="M83.4597 105.9895
L83.0364 105.3848
" />
<path d="M82.7340 105.9895
L82.7340 104.7195
" />
<path d="M82.7340 104.7195
L83.2178 104.7195
" />
<path d="M83.2178 104.7195
L83.3388 104.7800
" />
<path d="M83.3388 104.7800
L83.3993 104.8405
" />
<path d="M83.3993 104.8405
L83.4597 104.9614
" />
<path d="M83.4597 104.9614
L83.4597 105.1429
" />
<path d="M83.4597 105.1429
L83.3993 105.2638
" />
<path d="M83.3993 105.2638
L83.3388 105.3243
" />
<path d="M83.3388 105.3243
L83.2178 105.3848
" />
<path d="M83.2178 105.3848
L82.7340 105.3848
" />
<path d="M83.9436 105.9291
L84.1250 105.9895
" />
<path d="M84.1250 105.9895
L84.4274 105.9895
" />
<path d="M84.4274 105.9895
L84.5483 105.9291
" />
<path d="M84.5483 105.9291
L84.6088 105.8686
" />
<path d="M84.6088 105.8686
L84.6693 105.7476
" />
<path d="M84.6693 105.7476
L84.6693 105.6267
" />
<path d="M84.6693 105.6267
L84.6088 105.5057
" />
<path d="M84.6088 105.5057
L84.5483 105.4452
" />
<path d="M84.5483 105.4452
L84.4274 105.3848
" />
<path d="M84.4274 105.3848
L84.1855 105.3243
" />
<path d="M84.1855 105.3243
L84.0645 105.2638
" />
<path d="M84.0645 105.2638
L84.0040 105.2033
" />
<path d="M84.0040 105.2033
L83.9436 105.0824
" />
<path d="M83.9436 105.0824
L83.9436 104.9614
" />
<path d="M83.9436 104.9614
L84.0040 104.8405
" />
<path d="M84.0040 104.8405
L84.0645 104.7800
" />
<path d="M84.0645 104.7800
L84.1855 104.7195
" />
<path d="M84.1855 104.7195
L84.4878 104.7195
" />
<path d="M84.4878 104.7195
L84.6693 104.7800
" />
<path d="M85.0321 104.7195
L85.7578 104.7195
" />
<path d="M85.3950 105.9895
L85.3950 104.7195
" />
</g><path style="fill:none; 
stroke:#725600; stroke-width:0.1524; stroke-opacity:1; 
stroke-linecap:round; stroke-linejoin:round;fill:none"
d="M 87.6300,105.4100
86.9950,104.7750
86.3600,104.7750
86.3600,106.0450
86.9950,106.0450
Z" /> 
</g>
<g style="fill:none; 
stroke:#725600; stroke-width:0.1524; stroke-opacity:1; 
stroke-linecap:round; stroke-linejoin:round;">
<text x="85.9790" y="108.5850"
textLength="2.5013" font-size="1.6933" lengthAdjust="spacingAndGlyphs"
text-anchor="end" opacity="0" stroke-opacity="0">BL</text>
<g class="stroked-text"><desc>BL</desc>
<path d="M84.3064 107.8643
L84.4878 107.9248
" />
<path d="M84.4878 107.9248
L84.5483 107.9852
" />
<path d="M84.5483 107.9852
L84.6087 108.1062
" />
<path d="M84.6087 108.1062
L84.6087 108.2876
" />
<path d="M84.6087 108.2876
L84.5483 108.4086
" />
<path d="M84.5483 108.4086
L84.4878 108.4691
" />
<path d="M84.4878 108.4691
L84.3668 108.5295
" />
<path d="M84.3668 108.5295
L83.8830 108.5295
" />
<path d="M83.8830 108.5295
L83.8830 107.2595
" />
<path d="M83.8830 107.2595
L84.3064 107.2595
" />
<path d="M84.3064 107.2595
L84.4273 107.3200
" />
<path d="M84.4273 107.3200
L84.4878 107.3805
" />
<path d="M84.4878 107.3805
L84.5483 107.5014
" />
<path d="M84.5483 107.5014
L84.5483 107.6224
" />
<path d="M84.5483 107.6224
L84.4878 107.7433
" />
<path d="M84.4878 107.7433
L84.4273 107.8038
" />
<path d="M84.4273 107.8038
L84.3064 107.8643
" />
<path d="M84.3064 107.8643
L83.8830 107.8643
" />
<path d="M85.7578 108.5295
L85.1530 108.5295
" />
<path d="M85.1530 108.5295
L85.1530 107.2595
" />
</g><path style="fill:none; 
stroke:#725600; stroke-width:0.1524; stroke-opacity:1; 
stroke-linecap:round; stroke-linejoin:round;fill:none"
d="M 87.6300,107.9500
86.9950,107.3150
86.3600,107.3150
86.3600,108.5850
86.9950,108.5850
Z" /> 
</g>
<g style="fill:none; 
stroke:#725600; stroke-width:0.1524; stroke-opacity:1; 
stroke-linecap:round; stroke-linejoin:round;">
<text x="85.9790" y="98.4250"
textLength="3.7713" font-size="1.6933" lengthAdjust="spacingAndGlyphs"
text-anchor="end" opacity="0" stroke-opacity="0">CLK</text>
<g class="stroked-text"><desc>CLK</desc>
<path d="M83.3387 98.2486
L83.2783 98.3091
" />
<path d="M83.2783 98.3091
L83.0968 98.3695
" />
<path d="M83.0968 98.3695
L82.9759 98.3695
" />
<path d="M82.9759 98.3695
L82.7945 98.3091
" />
<path d="M82.7945 98.3091
L82.6735 98.1881
" />
<path d="M82.6735 98.1881
L82.6130 98.0671
" />
<path d="M82.6130 98.0671
L82.5526 97.8252
" />
<path d="M82.5526 97.8252
L82.5526 97.6438
" />
<path d="M82.5526 97.6438
L82.6130 97.4019
" />
<path d="M82.6130 97.4019
L82.6735 97.2810
" />
<path d="M82.6735 97.2810
L82.7945 97.1600
" />
<path d="M82.7945 97.1600
L82.9759 97.0995
" />
<path d="M82.9759 97.0995
L83.0968 97.0995
" />
<path d="M83.0968 97.0995
L83.2783 97.1600
" />
<path d="M83.2783 97.1600
L83.3387 97.2205
" />
<path d="M84.4878 98.3695
L83.8830 98.3695
" />
<path d="M83.8830 98.3695
L83.8830 97.0995
" />
<path d="M84.9111 98.3695
L84.9111 97.0995
" />
<path d="M85.6368 98.3695
L85.0926 97.6438
" />
<path d="M85.6368 97.0995
L84.9111 97.8252
" />
</g><path style="fill:none; 
stroke:#725600; stroke-width:0.1524; stroke-opacity:1; 
stroke-linecap:round; stroke-linejoin:round;fill:none"
d="M 87.6300,97.7900
86.9950,97.1550
86.3600,97.1550
86.3600,98.4250
86.9950,98.4250
Z" /> 
</g>
<g style="fill:none; 
stroke:#009600; stroke-width:0.1524; stroke-opacity:1; 
stroke-linecap:round; stroke-linejoin:round;">
<path d="M87.6300 102.8700
L120.6500 102.8700
" />
<path d="M87.6300 105.4100
L120.6500 105.4100
" />
<path d="M87.6300 100.3300
L120.6500 100.3300
" />
<path d="M87.6300 107.9500
L120.6500 107.9500
" />
<path d="M87.6300 95.2500
L120.6500 95.2500
" />
<path d="M87.6300 97.7900
L120.6500 97.7900
" />
<path d="M175.2600 90.1700
L177.8000 90.1700
" />
<path d="M175.2600 87.6300
L186.6900 87.6300
" />
<path d="M177.8000 90.1700
L177.8000 95.2500
" />
<path d="M175.2600 114.3000
L177.8000 114.3000
" />
<path d="M175.2600 111.7600
L186.6900 111.7600
" />
<path d="M177.8000 114.3000
L177.8000 119.3800
" />
<path d="M120.6500 92.7100
L114.3000 92.7100
" />
<path d="M114.3000 92.7100
L114.3000 127.0000
" />
<path d="M114.3000 90.1700
L120.6500 90.1700
" />
<path d="M114.3000 78.7400
L114.3000 90.1700
" />
</g> 
</svg>
