<svg xmlns:svg="http://www.w3.org/2000/svg" xmlns="http://www.w3.org/2000/svg" xmlns:xlink="http://www.w3.org/1999/xlink" version="1.1" viewBox="55.19 70.22 177.74 52.49">
<title>SVG Image created as protosync-buttons.svg date 2026/05/15 15:54:40 </title>
  <desc>Image generated by Eeschema-SVG </desc>
<g style="fill:#000000; fill-opacity:1.0000;stroke:#000000; stroke-opacity:1.0000; stroke-linecap:round; stroke-linejoin:round;" transform="translate(0 0) scale(1 1)">
</g>
<g style="fill:none;  stroke:#840000; stroke-width:0.2540; stroke-opacity:1;  stroke-linecap:round; stroke-linejoin:round;">
<rect x="194.564000" y="87.630000" width="2.032000" height="5.080000" rx="0.000000"/>
</g>
<g style="fill:none;  stroke:#840000; stroke-width:0.1524; stroke-opacity:1;  stroke-linecap:round; stroke-linejoin:round;">
<path d="M195.5800 87.6300 L195.5800 86.3600 "/>
<path d="M195.5800 92.7100 L195.5800 93.9800 "/>
</g>
<g style="fill:none;  stroke:#006464; stroke-width:0.1524; stroke-opacity:1;  stroke-linecap:round; stroke-linejoin:round;">
<text x="199.4709" y="89.5349" textLength="2.6827" font-size="1.6933" lengthAdjust="spacingAndGlyphs" text-anchor="middle" opacity="0" stroke-opacity="0">R7</text>
<g class="stroked-text"><desc>R7</desc>
<path d="M199.2592 89.4794 L198.8359 88.8747 "/>
<path d="M198.5335 89.4794 L198.5335 88.2094 "/>
<path d="M198.5335 88.2094 L199.0173 88.2094 "/>
<path d="M199.0173 88.2094 L199.1383 88.2699 "/>
<path d="M199.1383 88.2699 L199.1988 88.3304 "/>
<path d="M199.1988 88.3304 L199.2592 88.4513 "/>
<path d="M199.2592 88.4513 L199.2592 88.6328 "/>
<path d="M199.2592 88.6328 L199.1988 88.7537 "/>
<path d="M199.1988 88.7537 L199.1383 88.8142 "/>
<path d="M199.1383 88.8142 L199.0173 88.8747 "/>
<path d="M199.0173 88.8747 L198.5335 88.8747 "/>
<path d="M199.6826 88.2094 L200.5292 88.2094 "/>
<path d="M200.5292 88.2094 L199.9850 89.4794 "/>
</g><text x="199.9547" y="92.0749" textLength="3.6503" font-size="1.6933" lengthAdjust="spacingAndGlyphs" text-anchor="middle" opacity="0" stroke-opacity="0">10k</text>
<g class="stroked-text"><desc>10k</desc>
<path d="M199.1988 92.0194 L198.4731 92.0194 "/>
<path d="M198.8359 92.0194 L198.8359 90.7494 "/>
<path d="M198.8359 90.7494 L198.7150 90.9309 "/>
<path d="M198.7150 90.9309 L198.5940 91.0518 "/>
<path d="M198.5940 91.0518 L198.4731 91.1123 "/>
<path d="M199.9849 90.7494 L200.1059 90.7494 "/>
<path d="M200.1059 90.7494 L200.2268 90.8099 "/>
<path d="M200.2268 90.8099 L200.2873 90.8704 "/>
<path d="M200.2873 90.8704 L200.3478 90.9913 "/>
<path d="M200.3478 90.9913 L200.4083 91.2332 "/>
<path d="M200.4083 91.2332 L200.4083 91.5356 "/>
<path d="M200.4083 91.5356 L200.3478 91.7775 "/>
<path d="M200.3478 91.7775 L200.2873 91.8985 "/>
<path d="M200.2873 91.8985 L200.2268 91.9590 "/>
<path d="M200.2268 91.9590 L200.1059 92.0194 "/>
<path d="M200.1059 92.0194 L199.9849 92.0194 "/>
<path d="M199.9849 92.0194 L199.8640 91.9590 "/>
<path d="M199.8640 91.9590 L199.8035 91.8985 "/>
<path d="M199.8035 91.8985 L199.7430 91.7775 "/>
<path d="M199.7430 91.7775 L199.6826 91.5356 "/>
<path d="M199.6826 91.5356 L199.6826 91.2332 "/>
<path d="M199.6826 91.2332 L199.7430 90.9913 "/>
<path d="M199.7430 90.9913 L199.8035 90.8704 "/>
<path d="M199.8035 90.8704 L199.8640 90.8099 "/>
<path d="M199.8640 90.8099 L199.9849 90.7494 "/>
<path d="M200.9525 92.0194 L200.9525 90.7494 "/>
<path d="M201.0735 91.5356 L201.4363 92.0194 "/>
<path d="M201.4363 91.1728 L200.9525 91.6566 "/>
</g><path style="fill:none;  stroke:#840000; stroke-width:0.1524; stroke-opacity:1;  stroke-linecap:round; stroke-linejoin:round;fill:none" d="M 215.9000,116.8400 215.9000,118.1100 217.1700,118.1100 215.9000,119.3800 214.6300,118.1100 215.9000,118.1100 "/> 
</g>
<g style="fill:none;  stroke:#840000; stroke-width:0.1524; stroke-opacity:1;  stroke-linecap:round; stroke-linejoin:round;">
<path d="M215.9000 116.8400 L215.9000 116.8400 "/>
</g>
<g style="fill:none;  stroke:#006464; stroke-width:0.1524; stroke-opacity:1;  stroke-linecap:round; stroke-linejoin:round;">
<text x="215.9000" y="122.5550" textLength="4.0737" font-size="1.6933" lengthAdjust="spacingAndGlyphs" text-anchor="middle" opacity="0" stroke-opacity="0">GND</text>
<g class="stroked-text"><desc>GND</desc>
<path d="M214.9324 121.2900 L214.8114 121.2295 "/>
<path d="M214.8114 121.2295 L214.6300 121.2295 "/>
<path d="M214.6300 121.2295 L214.4486 121.2900 "/>
<path d="M214.4486 121.2900 L214.3276 121.4110 "/>
<path d="M214.3276 121.4110 L214.2671 121.5319 "/>
<path d="M214.2671 121.5319 L214.2067 121.7738 "/>
<path d="M214.2067 121.7738 L214.2067 121.9552 "/>
<path d="M214.2067 121.9552 L214.2671 122.1971 "/>
<path d="M214.2671 122.1971 L214.3276 122.3181 "/>
<path d="M214.3276 122.3181 L214.4486 122.4391 "/>
<path d="M214.4486 122.4391 L214.6300 122.4995 "/>
<path d="M214.6300 122.4995 L214.7509 122.4995 "/>
<path d="M214.7509 122.4995 L214.9324 122.4391 "/>
<path d="M214.9324 122.4391 L214.9928 122.3786 "/>
<path d="M214.9928 122.3786 L214.9928 121.9552 "/>
<path d="M214.9928 121.9552 L214.7509 121.9552 "/>
<path d="M215.5371 122.4995 L215.5371 121.2295 "/>
<path d="M215.5371 121.2295 L216.2628 122.4995 "/>
<path d="M216.2628 122.4995 L216.2628 121.2295 "/>
<path d="M216.8676 122.4995 L216.8676 121.2295 "/>
<path d="M216.8676 121.2295 L217.1700 121.2295 "/>
<path d="M217.1700 121.2295 L217.3514 121.2900 "/>
<path d="M217.3514 121.2900 L217.4724 121.4110 "/>
<path d="M217.4724 121.4110 L217.5329 121.5319 "/>
<path d="M217.5329 121.5319 L217.5933 121.7738 "/>
<path d="M217.5933 121.7738 L217.5933 121.9552 "/>
<path d="M217.5933 121.9552 L217.5329 122.1971 "/>
<path d="M217.5329 122.1971 L217.4724 122.3181 "/>
<path d="M217.4724 122.3181 L217.3514 122.4391 "/>
<path d="M217.3514 122.4391 L217.1700 122.4995 "/>
<path d="M217.1700 122.4995 L216.8676 122.4995 "/>
</g><path style="fill:none;  stroke:#840000; stroke-width:0.5080; stroke-opacity:1;  stroke-linecap:round; stroke-linejoin:round;fill:none" d="M 150.3680,105.9180 154.4320,105.9180 "/> 
<path style="fill:none;  stroke:#840000; stroke-width:0.5080; stroke-opacity:1;  stroke-linecap:round; stroke-linejoin:round;fill:none" d="M 150.3680,107.4420 154.4320,107.4420 "/> 
</g>
<g style="fill:none;  stroke:#840000; stroke-width:0.1524; stroke-opacity:1;  stroke-linecap:round; stroke-linejoin:round;">
<path d="M152.4000 105.6640 L152.4000 102.8700 "/>
<path d="M152.4000 107.6960 L152.4000 110.4900 "/>
</g>
<g style="fill:none;  stroke:#006464; stroke-width:0.1524; stroke-opacity:1;  stroke-linecap:round; stroke-linejoin:round;">
<text x="157.5609" y="106.0449" textLength="2.6827" font-size="1.6933" lengthAdjust="spacingAndGlyphs" text-anchor="middle" opacity="0" stroke-opacity="0">C6</text>
<g class="stroked-text"><desc>C6</desc>
<path d="M157.3492 105.8685 L157.2888 105.9290 "/>
<path d="M157.2888 105.9290 L157.1073 105.9894 "/>
<path d="M157.1073 105.9894 L156.9864 105.9894 "/>
<path d="M156.9864 105.9894 L156.8050 105.9290 "/>
<path d="M156.8050 105.9290 L156.6840 105.8080 "/>
<path d="M156.6840 105.8080 L156.6235 105.6870 "/>
<path d="M156.6235 105.6870 L156.5631 105.4451 "/>
<path d="M156.5631 105.4451 L156.5631 105.2637 "/>
<path d="M156.5631 105.2637 L156.6235 105.0218 "/>
<path d="M156.6235 105.0218 L156.6840 104.9009 "/>
<path d="M156.6840 104.9009 L156.8050 104.7799 "/>
<path d="M156.8050 104.7799 L156.9864 104.7194 "/>
<path d="M156.9864 104.7194 L157.1073 104.7194 "/>
<path d="M157.1073 104.7194 L157.2888 104.7799 "/>
<path d="M157.2888 104.7799 L157.3492 104.8404 "/>
<path d="M158.4378 104.7194 L158.1959 104.7194 "/>
<path d="M158.1959 104.7194 L158.0750 104.7799 "/>
<path d="M158.0750 104.7799 L158.0145 104.8404 "/>
<path d="M158.0145 104.8404 L157.8935 105.0218 "/>
<path d="M157.8935 105.0218 L157.8331 105.2637 "/>
<path d="M157.8331 105.2637 L157.8331 105.7475 "/>
<path d="M157.8331 105.7475 L157.8935 105.8685 "/>
<path d="M157.8935 105.8685 L157.9540 105.9290 "/>
<path d="M157.9540 105.9290 L158.0750 105.9894 "/>
<path d="M158.0750 105.9894 L158.3169 105.9894 "/>
<path d="M158.3169 105.9894 L158.4378 105.9290 "/>
<path d="M158.4378 105.9290 L158.4983 105.8685 "/>
<path d="M158.4983 105.8685 L158.5588 105.7475 "/>
<path d="M158.5588 105.7475 L158.5588 105.4451 "/>
<path d="M158.5588 105.4451 L158.4983 105.3242 "/>
<path d="M158.4983 105.3242 L158.4378 105.2637 "/>
<path d="M158.4378 105.2637 L158.3169 105.2032 "/>
<path d="M158.3169 105.2032 L158.0750 105.2032 "/>
<path d="M158.0750 105.2032 L157.9540 105.2637 "/>
<path d="M157.9540 105.2637 L157.8935 105.3242 "/>
<path d="M157.8935 105.3242 L157.8331 105.4451 "/>
</g><text x="157.5004" y="108.5849" textLength="2.5617" font-size="1.6933" lengthAdjust="spacingAndGlyphs" text-anchor="middle" opacity="0" stroke-opacity="0">1n</text>
<g class="stroked-text"><desc>1n</desc>
<path d="M157.2888 108.5294 L156.5631 108.5294 "/>
<path d="M156.9259 108.5294 L156.9259 107.2594 "/>
<path d="M156.9259 107.2594 L156.8050 107.4409 "/>
<path d="M156.8050 107.4409 L156.6840 107.5618 "/>
<path d="M156.6840 107.5618 L156.5631 107.6223 "/>
<path d="M157.8330 107.6828 L157.8330 108.5294 "/>
<path d="M157.8330 107.8037 L157.8935 107.7432 "/>
<path d="M157.8935 107.7432 L158.0145 107.6828 "/>
<path d="M158.0145 107.6828 L158.1959 107.6828 "/>
<path d="M158.1959 107.6828 L158.3168 107.7432 "/>
<path d="M158.3168 107.7432 L158.3773 107.8642 "/>
<path d="M158.3773 107.8642 L158.3773 108.5294 "/>
</g><path style="fill:none;  stroke:#840000; stroke-width:0.1524; stroke-opacity:1;  stroke-linecap:round; stroke-linejoin:round;fill:none" d="M 152.4000,116.8400 152.4000,118.1100 153.6700,118.1100 152.4000,119.3800 151.1300,118.1100 152.4000,118.1100 "/> 
</g>
<g style="fill:none;  stroke:#840000; stroke-width:0.1524; stroke-opacity:1;  stroke-linecap:round; stroke-linejoin:round;">
<path d="M152.4000 116.8400 L152.4000 116.8400 "/>
</g>
<g style="fill:none;  stroke:#006464; stroke-width:0.1524; stroke-opacity:1;  stroke-linecap:round; stroke-linejoin:round;">
<text x="152.4000" y="122.5550" textLength="4.0737" font-size="1.6933" lengthAdjust="spacingAndGlyphs" text-anchor="middle" opacity="0" stroke-opacity="0">GND</text>
<g class="stroked-text"><desc>GND</desc>
<path d="M151.4324 121.2900 L151.3114 121.2295 "/>
<path d="M151.3114 121.2295 L151.1300 121.2295 "/>
<path d="M151.1300 121.2295 L150.9486 121.2900 "/>
<path d="M150.9486 121.2900 L150.8276 121.4110 "/>
<path d="M150.8276 121.4110 L150.7671 121.5319 "/>
<path d="M150.7671 121.5319 L150.7067 121.7738 "/>
<path d="M150.7067 121.7738 L150.7067 121.9552 "/>
<path d="M150.7067 121.9552 L150.7671 122.1971 "/>
<path d="M150.7671 122.1971 L150.8276 122.3181 "/>
<path d="M150.8276 122.3181 L150.9486 122.4391 "/>
<path d="M150.9486 122.4391 L151.1300 122.4995 "/>
<path d="M151.1300 122.4995 L151.2509 122.4995 "/>
<path d="M151.2509 122.4995 L151.4324 122.4391 "/>
<path d="M151.4324 122.4391 L151.4928 122.3786 "/>
<path d="M151.4928 122.3786 L151.4928 121.9552 "/>
<path d="M151.4928 121.9552 L151.2509 121.9552 "/>
<path d="M152.0371 122.4995 L152.0371 121.2295 "/>
<path d="M152.0371 121.2295 L152.7628 122.4995 "/>
<path d="M152.7628 122.4995 L152.7628 121.2295 "/>
<path d="M153.3676 122.4995 L153.3676 121.2295 "/>
<path d="M153.3676 121.2295 L153.6700 121.2295 "/>
<path d="M153.6700 121.2295 L153.8514 121.2900 "/>
<path d="M153.8514 121.2900 L153.9724 121.4110 "/>
<path d="M153.9724 121.4110 L154.0329 121.5319 "/>
<path d="M154.0329 121.5319 L154.0933 121.7738 "/>
<path d="M154.0933 121.7738 L154.0933 121.9552 "/>
<path d="M154.0933 121.9552 L154.0329 122.1971 "/>
<path d="M154.0329 122.1971 L153.9724 122.3181 "/>
<path d="M153.9724 122.3181 L153.8514 122.4391 "/>
<path d="M153.8514 122.4391 L153.6700 122.4995 "/>
<path d="M153.6700 122.4995 L153.3676 122.4995 "/>
</g><path style="fill:none;  stroke:#840000; stroke-width:0.1524; stroke-opacity:1;  stroke-linecap:round; stroke-linejoin:round;fill:none" d="M 195.5800,116.8400 195.5800,118.1100 196.8500,118.1100 195.5800,119.3800 194.3100,118.1100 195.5800,118.1100 "/> 
</g>
<g style="fill:none;  stroke:#840000; stroke-width:0.1524; stroke-opacity:1;  stroke-linecap:round; stroke-linejoin:round;">
<path d="M195.5800 116.8400 L195.5800 116.8400 "/>
</g>
<g style="fill:none;  stroke:#006464; stroke-width:0.1524; stroke-opacity:1;  stroke-linecap:round; stroke-linejoin:round;">
<text x="195.5800" y="122.5550" textLength="4.0737" font-size="1.6933" lengthAdjust="spacingAndGlyphs" text-anchor="middle" opacity="0" stroke-opacity="0">GND</text>
<g class="stroked-text"><desc>GND</desc>
<path d="M194.6124 121.2900 L194.4914 121.2295 "/>
<path d="M194.4914 121.2295 L194.3100 121.2295 "/>
<path d="M194.3100 121.2295 L194.1286 121.2900 "/>
<path d="M194.1286 121.2900 L194.0076 121.4110 "/>
<path d="M194.0076 121.4110 L193.9471 121.5319 "/>
<path d="M193.9471 121.5319 L193.8867 121.7738 "/>
<path d="M193.8867 121.7738 L193.8867 121.9552 "/>
<path d="M193.8867 121.9552 L193.9471 122.1971 "/>
<path d="M193.9471 122.1971 L194.0076 122.3181 "/>
<path d="M194.0076 122.3181 L194.1286 122.4391 "/>
<path d="M194.1286 122.4391 L194.3100 122.4995 "/>
<path d="M194.3100 122.4995 L194.4309 122.4995 "/>
<path d="M194.4309 122.4995 L194.6124 122.4391 "/>
<path d="M194.6124 122.4391 L194.6728 122.3786 "/>
<path d="M194.6728 122.3786 L194.6728 121.9552 "/>
<path d="M194.6728 121.9552 L194.4309 121.9552 "/>
<path d="M195.2171 122.4995 L195.2171 121.2295 "/>
<path d="M195.2171 121.2295 L195.9428 122.4995 "/>
<path d="M195.9428 122.4995 L195.9428 121.2295 "/>
<path d="M196.5476 122.4995 L196.5476 121.2295 "/>
<path d="M196.5476 121.2295 L196.8500 121.2295 "/>
<path d="M196.8500 121.2295 L197.0314 121.2900 "/>
<path d="M197.0314 121.2900 L197.1524 121.4110 "/>
<path d="M197.1524 121.4110 L197.2129 121.5319 "/>
<path d="M197.2129 121.5319 L197.2733 121.7738 "/>
<path d="M197.2733 121.7738 L197.2733 121.9552 "/>
<path d="M197.2733 121.9552 L197.2129 122.1971 "/>
<path d="M197.2129 122.1971 L197.1524 122.3181 "/>
<path d="M197.1524 122.3181 L197.0314 122.4391 "/>
<path d="M197.0314 122.4391 L196.8500 122.4995 "/>
<path d="M196.8500 122.4995 L196.5476 122.4995 "/>
</g></g>
<g style="fill:none;  stroke:#840000; stroke-width:0.1524; stroke-opacity:1;  stroke-linecap:round; stroke-linejoin:round;">
<circle cx="195.5800" cy="104.6480" r="0.5080"/> 
<path style="fill:none;  stroke:#840000; stroke-width:0.1524; stroke-opacity:1;  stroke-linecap:round; stroke-linejoin:round;fill:none" d="M 196.8500,106.6800 198.6280,106.6800 "/> 
<circle cx="195.5800" cy="108.7120" r="0.5080"/> 
<path style="fill:none;  stroke:#840000; stroke-width:0.1524; stroke-opacity:1;  stroke-linecap:round; stroke-linejoin:round;fill:none" d="M 196.8500,109.2200 196.8500,104.1400 "/> 
<path d="M195.5800 104.1400 L195.5800 101.6000 "/>
<path d="M195.5800 109.2200 L195.5800 111.7600 "/>
</g>
<g style="fill:none;  stroke:#006464; stroke-width:0.1524; stroke-opacity:1;  stroke-linecap:round; stroke-linejoin:round;">
<text x="192.2636" y="108.5851" textLength="4.0736" font-size="1.6933" lengthAdjust="spacingAndGlyphs" text-anchor="middle" opacity="0" stroke-opacity="0">SW3</text>
<g class="stroked-text"><desc>SW3</desc>
<path d="M190.5703 108.4692 L190.7517 108.5296 "/>
<path d="M190.7517 108.5296 L191.0541 108.5296 "/>
<path d="M191.0541 108.5296 L191.1750 108.4692 "/>
<path d="M191.1750 108.4692 L191.2355 108.4087 "/>
<path d="M191.2355 108.4087 L191.2960 108.2877 "/>
<path d="M191.2960 108.2877 L191.2960 108.1668 "/>
<path d="M191.2960 108.1668 L191.2355 108.0458 "/>
<path d="M191.2355 108.0458 L191.1750 107.9853 "/>
<path d="M191.1750 107.9853 L191.0541 107.9249 "/>
<path d="M191.0541 107.9249 L190.8122 107.8644 "/>
<path d="M190.8122 107.8644 L190.6912 107.8039 "/>
<path d="M190.6912 107.8039 L190.6307 107.7434 "/>
<path d="M190.6307 107.7434 L190.5703 107.6225 "/>
<path d="M190.5703 107.6225 L190.5703 107.5015 "/>
<path d="M190.5703 107.5015 L190.6307 107.3806 "/>
<path d="M190.6307 107.3806 L190.6912 107.3201 "/>
<path d="M190.6912 107.3201 L190.8122 107.2596 "/>
<path d="M190.8122 107.2596 L191.1145 107.2596 "/>
<path d="M191.1145 107.2596 L191.2960 107.3201 "/>
<path d="M191.7193 107.2596 L192.0217 108.5296 "/>
<path d="M192.0217 108.5296 L192.2636 107.6225 "/>
<path d="M192.2636 107.6225 L192.5055 108.5296 "/>
<path d="M192.5055 108.5296 L192.8079 107.2596 "/>
<path d="M193.1707 107.2596 L193.9569 107.2596 "/>
<path d="M193.9569 107.2596 L193.5335 107.7434 "/>
<path d="M193.5335 107.7434 L193.7150 107.7434 "/>
<path d="M193.7150 107.7434 L193.8359 107.8039 "/>
<path d="M193.8359 107.8039 L193.8964 107.8644 "/>
<path d="M193.8964 107.8644 L193.9569 107.9853 "/>
<path d="M193.9569 107.9853 L193.9569 108.2877 "/>
<path d="M193.9569 108.2877 L193.8964 108.4087 "/>
<path d="M193.8964 108.4087 L193.8359 108.4692 "/>
<path d="M193.8359 108.4692 L193.7150 108.5296 "/>
<path d="M193.7150 108.5296 L193.3521 108.5296 "/>
<path d="M193.3521 108.5296 L193.2312 108.4692 "/>
<path d="M193.2312 108.4692 L193.1707 108.4087 "/>
</g><text x="190.0865" y="106.0451" textLength="8.4278" font-size="1.6933" lengthAdjust="spacingAndGlyphs" text-anchor="middle" opacity="0" stroke-opacity="0">SW_Push</text>
<g class="stroked-text"><desc>SW_Push</desc>
<path d="M186.2161 105.9292 L186.3975 105.9896 "/>
<path d="M186.3975 105.9896 L186.6999 105.9896 "/>
<path d="M186.6999 105.9896 L186.8208 105.9292 "/>
<path d="M186.8208 105.9292 L186.8813 105.8687 "/>
<path d="M186.8813 105.8687 L186.9418 105.7477 "/>
<path d="M186.9418 105.7477 L186.9418 105.6268 "/>
<path d="M186.9418 105.6268 L186.8813 105.5058 "/>
<path d="M186.8813 105.5058 L186.8208 105.4453 "/>
<path d="M186.8208 105.4453 L186.6999 105.3849 "/>
<path d="M186.6999 105.3849 L186.4580 105.3244 "/>
<path d="M186.4580 105.3244 L186.3370 105.2639 "/>
<path d="M186.3370 105.2639 L186.2765 105.2034 "/>
<path d="M186.2765 105.2034 L186.2161 105.0825 "/>
<path d="M186.2161 105.0825 L186.2161 104.9615 "/>
<path d="M186.2161 104.9615 L186.2765 104.8406 "/>
<path d="M186.2765 104.8406 L186.3370 104.7801 "/>
<path d="M186.3370 104.7801 L186.4580 104.7196 "/>
<path d="M186.4580 104.7196 L186.7603 104.7196 "/>
<path d="M186.7603 104.7196 L186.9418 104.7801 "/>
<path d="M187.3651 104.7196 L187.6675 105.9896 "/>
<path d="M187.6675 105.9896 L187.9094 105.0825 "/>
<path d="M187.9094 105.0825 L188.1513 105.9896 "/>
<path d="M188.1513 105.9896 L188.4537 104.7196 "/>
<path d="M188.6351 106.1106 L189.6027 106.1106 "/>
<path d="M189.9050 105.9896 L189.9050 104.7196 "/>
<path d="M189.9050 104.7196 L190.3888 104.7196 "/>
<path d="M190.3888 104.7196 L190.5098 104.7801 "/>
<path d="M190.5098 104.7801 L190.5703 104.8406 "/>
<path d="M190.5703 104.8406 L190.6307 104.9615 "/>
<path d="M190.6307 104.9615 L190.6307 105.1430 "/>
<path d="M190.6307 105.1430 L190.5703 105.2639 "/>
<path d="M190.5703 105.2639 L190.5098 105.3244 "/>
<path d="M190.5098 105.3244 L190.3888 105.3849 "/>
<path d="M190.3888 105.3849 L189.9050 105.3849 "/>
<path d="M191.7193 105.1430 L191.7193 105.9896 "/>
<path d="M191.1750 105.1430 L191.1750 105.8082 "/>
<path d="M191.1750 105.8082 L191.2355 105.9292 "/>
<path d="M191.2355 105.9292 L191.3565 105.9896 "/>
<path d="M191.3565 105.9896 L191.5379 105.9896 "/>
<path d="M191.5379 105.9896 L191.6588 105.9292 "/>
<path d="M191.6588 105.9292 L191.7193 105.8687 "/>
<path d="M192.2636 105.9292 L192.3845 105.9896 "/>
<path d="M192.3845 105.9896 L192.6264 105.9896 "/>
<path d="M192.6264 105.9896 L192.7474 105.9292 "/>
<path d="M192.7474 105.9292 L192.8078 105.8082 "/>
<path d="M192.8078 105.8082 L192.8078 105.7477 "/>
<path d="M192.8078 105.7477 L192.7474 105.6268 "/>
<path d="M192.7474 105.6268 L192.6264 105.5663 "/>
<path d="M192.6264 105.5663 L192.4450 105.5663 "/>
<path d="M192.4450 105.5663 L192.3240 105.5058 "/>
<path d="M192.3240 105.5058 L192.2636 105.3849 "/>
<path d="M192.2636 105.3849 L192.2636 105.3244 "/>
<path d="M192.2636 105.3244 L192.3240 105.2034 "/>
<path d="M192.3240 105.2034 L192.4450 105.1430 "/>
<path d="M192.4450 105.1430 L192.6264 105.1430 "/>
<path d="M192.6264 105.1430 L192.7474 105.2034 "/>
<path d="M193.3521 105.9896 L193.3521 104.7196 "/>
<path d="M193.8964 105.9896 L193.8964 105.3244 "/>
<path d="M193.8964 105.3244 L193.8359 105.2034 "/>
<path d="M193.8359 105.2034 L193.7150 105.1430 "/>
<path d="M193.7150 105.1430 L193.5336 105.1430 "/>
<path d="M193.5336 105.1430 L193.4126 105.2034 "/>
<path d="M193.4126 105.2034 L193.3521 105.2639 "/>
</g><path style="fill:none;  stroke:#840000; stroke-width:0.5080; stroke-opacity:1;  stroke-linecap:round; stroke-linejoin:round;fill:none" d="M 213.8680,105.9180 217.9320,105.9180 "/> 
<path style="fill:none;  stroke:#840000; stroke-width:0.5080; stroke-opacity:1;  stroke-linecap:round; stroke-linejoin:round;fill:none" d="M 213.8680,107.4420 217.9320,107.4420 "/> 
</g>
<g style="fill:none;  stroke:#840000; stroke-width:0.1524; stroke-opacity:1;  stroke-linecap:round; stroke-linejoin:round;">
<path d="M215.9000 105.6640 L215.9000 102.8700 "/>
<path d="M215.9000 107.6960 L215.9000 110.4900 "/>
</g>
<g style="fill:none;  stroke:#006464; stroke-width:0.1524; stroke-opacity:1;  stroke-linecap:round; stroke-linejoin:round;">
<text x="221.0609" y="106.0449" textLength="2.6827" font-size="1.6933" lengthAdjust="spacingAndGlyphs" text-anchor="middle" opacity="0" stroke-opacity="0">C7</text>
<g class="stroked-text"><desc>C7</desc>
<path d="M220.8492 105.8685 L220.7888 105.9290 "/>
<path d="M220.7888 105.9290 L220.6073 105.9894 "/>
<path d="M220.6073 105.9894 L220.4864 105.9894 "/>
<path d="M220.4864 105.9894 L220.3050 105.9290 "/>
<path d="M220.3050 105.9290 L220.1840 105.8080 "/>
<path d="M220.1840 105.8080 L220.1235 105.6870 "/>
<path d="M220.1235 105.6870 L220.0631 105.4451 "/>
<path d="M220.0631 105.4451 L220.0631 105.2637 "/>
<path d="M220.0631 105.2637 L220.1235 105.0218 "/>
<path d="M220.1235 105.0218 L220.1840 104.9009 "/>
<path d="M220.1840 104.9009 L220.3050 104.7799 "/>
<path d="M220.3050 104.7799 L220.4864 104.7194 "/>
<path d="M220.4864 104.7194 L220.6073 104.7194 "/>
<path d="M220.6073 104.7194 L220.7888 104.7799 "/>
<path d="M220.7888 104.7799 L220.8492 104.8404 "/>
<path d="M221.2726 104.7194 L222.1192 104.7194 "/>
<path d="M222.1192 104.7194 L221.5750 105.9894 "/>
</g><text x="221.0004" y="108.5849" textLength="2.5617" font-size="1.6933" lengthAdjust="spacingAndGlyphs" text-anchor="middle" opacity="0" stroke-opacity="0">1n</text>
<g class="stroked-text"><desc>1n</desc>
<path d="M220.7888 108.5294 L220.0631 108.5294 "/>
<path d="M220.4259 108.5294 L220.4259 107.2594 "/>
<path d="M220.4259 107.2594 L220.3050 107.4409 "/>
<path d="M220.3050 107.4409 L220.1840 107.5618 "/>
<path d="M220.1840 107.5618 L220.0631 107.6223 "/>
<path d="M221.3330 107.6828 L221.3330 108.5294 "/>
<path d="M221.3330 107.8037 L221.3935 107.7432 "/>
<path d="M221.3935 107.7432 L221.5145 107.6828 "/>
<path d="M221.5145 107.6828 L221.6959 107.6828 "/>
<path d="M221.6959 107.6828 L221.8168 107.7432 "/>
<path d="M221.8168 107.7432 L221.8773 107.8642 "/>
<path d="M221.8773 107.8642 L221.8773 108.5294 "/>
</g></g>
<g style="fill:none;  stroke:#840000; stroke-width:0.2540; stroke-opacity:1;  stroke-linecap:round; stroke-linejoin:round;">
<rect x="204.470000" y="98.044000" width="5.080000" height="2.032000" rx="0.000000"/>
</g>
<g style="fill:none;  stroke:#840000; stroke-width:0.1524; stroke-opacity:1;  stroke-linecap:round; stroke-linejoin:round;">
<path d="M204.4700 99.0600 L203.2000 99.0600 "/>
<path d="M209.5500 99.0600 L210.8200 99.0600 "/>
</g>
<g style="fill:none;  stroke:#006464; stroke-width:0.1524; stroke-opacity:1;  stroke-linecap:round; stroke-linejoin:round;">
<text x="207.0100" y="93.3449" textLength="3.8922" font-size="1.6933" lengthAdjust="spacingAndGlyphs" text-anchor="middle" opacity="0" stroke-opacity="0">R10</text>
<g class="stroked-text"><desc>R10</desc>
<path d="M206.1935 93.2894 L205.7702 92.6847 "/>
<path d="M205.4678 93.2894 L205.4678 92.0194 "/>
<path d="M205.4678 92.0194 L205.9516 92.0194 "/>
<path d="M205.9516 92.0194 L206.0726 92.0799 "/>
<path d="M206.0726 92.0799 L206.1331 92.1404 "/>
<path d="M206.1331 92.1404 L206.1935 92.2613 "/>
<path d="M206.1935 92.2613 L206.1935 92.4428 "/>
<path d="M206.1935 92.4428 L206.1331 92.5637 "/>
<path d="M206.1331 92.5637 L206.0726 92.6242 "/>
<path d="M206.0726 92.6242 L205.9516 92.6847 "/>
<path d="M205.9516 92.6847 L205.4678 92.6847 "/>
<path d="M207.4031 93.2894 L206.6774 93.2894 "/>
<path d="M207.0402 93.2894 L207.0402 92.0194 "/>
<path d="M207.0402 92.0194 L206.9193 92.2009 "/>
<path d="M206.9193 92.2009 L206.7983 92.3218 "/>
<path d="M206.7983 92.3218 L206.6774 92.3823 "/>
<path d="M208.1892 92.0194 L208.3102 92.0194 "/>
<path d="M208.3102 92.0194 L208.4311 92.0799 "/>
<path d="M208.4311 92.0799 L208.4916 92.1404 "/>
<path d="M208.4916 92.1404 L208.5521 92.2613 "/>
<path d="M208.5521 92.2613 L208.6126 92.5032 "/>
<path d="M208.6126 92.5032 L208.6126 92.8056 "/>
<path d="M208.6126 92.8056 L208.5521 93.0475 "/>
<path d="M208.5521 93.0475 L208.4916 93.1685 "/>
<path d="M208.4916 93.1685 L208.4311 93.2290 "/>
<path d="M208.4311 93.2290 L208.3102 93.2894 "/>
<path d="M208.3102 93.2894 L208.1892 93.2894 "/>
<path d="M208.1892 93.2894 L208.0683 93.2290 "/>
<path d="M208.0683 93.2290 L208.0078 93.1685 "/>
<path d="M208.0078 93.1685 L207.9473 93.0475 "/>
<path d="M207.9473 93.0475 L207.8869 92.8056 "/>
<path d="M207.8869 92.8056 L207.8869 92.5032 "/>
<path d="M207.8869 92.5032 L207.9473 92.2613 "/>
<path d="M207.9473 92.2613 L208.0078 92.1404 "/>
<path d="M208.0078 92.1404 L208.0683 92.0799 "/>
<path d="M208.0683 92.0799 L208.1892 92.0194 "/>
</g><text x="207.0100" y="95.8849" textLength="2.4408" font-size="1.6933" lengthAdjust="spacingAndGlyphs" text-anchor="middle" opacity="0" stroke-opacity="0">1k</text>
<g class="stroked-text"><desc>1k</desc>
<path d="M206.8588 95.8294 L206.1331 95.8294 "/>
<path d="M206.4959 95.8294 L206.4959 94.5594 "/>
<path d="M206.4959 94.5594 L206.3750 94.7409 "/>
<path d="M206.3750 94.7409 L206.2540 94.8618 "/>
<path d="M206.2540 94.8618 L206.1331 94.9223 "/>
<path d="M207.4030 95.8294 L207.4030 94.5594 "/>
<path d="M207.5240 95.3456 L207.8868 95.8294 "/>
<path d="M207.8868 94.9828 L207.4030 95.4666 "/>
</g><path style="fill:none;  stroke:#840000; stroke-width:0.1524; stroke-opacity:1;  stroke-linecap:round; stroke-linejoin:round;fill:none" d="M 194.8180,74.9300 195.5800,73.6600 "/> 
<path style="fill:none;  stroke:#840000; stroke-width:0.1524; stroke-opacity:1;  stroke-linecap:round; stroke-linejoin:round;fill:none" d="M 195.5800,73.6600 196.3420,74.9300 "/> 
<path style="fill:none;  stroke:#840000; stroke-width:0.1524; stroke-opacity:1;  stroke-linecap:round; stroke-linejoin:round;fill:none" d="M 195.5800,76.2000 195.5800,73.6600 "/> 
</g>
<g style="fill:none;  stroke:#840000; stroke-width:0.1524; stroke-opacity:1;  stroke-linecap:round; stroke-linejoin:round;">
<path d="M195.5800 76.2000 L195.5800 76.2000 "/>
</g>
<g style="fill:none;  stroke:#006464; stroke-width:0.1524; stroke-opacity:1;  stroke-linecap:round; stroke-linejoin:round;">
<text x="195.5800" y="71.7550" textLength="5.8880" font-size="1.6933" lengthAdjust="spacingAndGlyphs" text-anchor="middle" opacity="0" stroke-opacity="0">+3.3V</text>
<g class="stroked-text"><desc>+3.3V</desc>
<path d="M193.0399 71.2157 L194.0076 71.2157 "/>
<path d="M193.5237 71.6995 L193.5237 70.7319 "/>
<path d="M194.4914 70.4295 L195.2776 70.4295 "/>
<path d="M195.2776 70.4295 L194.8542 70.9133 "/>
<path d="M194.8542 70.9133 L195.0357 70.9133 "/>
<path d="M195.0357 70.9133 L195.1566 70.9738 "/>
<path d="M195.1566 70.9738 L195.2171 71.0343 "/>
<path d="M195.2171 71.0343 L195.2776 71.1552 "/>
<path d="M195.2776 71.1552 L195.2776 71.4576 "/>
<path d="M195.2776 71.4576 L195.2171 71.5786 "/>
<path d="M195.2171 71.5786 L195.1566 71.6391 "/>
<path d="M195.1566 71.6391 L195.0357 71.6995 "/>
<path d="M195.0357 71.6995 L194.6728 71.6995 "/>
<path d="M194.6728 71.6995 L194.5519 71.6391 "/>
<path d="M194.5519 71.6391 L194.4914 71.5786 "/>
<path d="M195.8218 71.5786 L195.8823 71.6391 "/>
<path d="M195.8823 71.6391 L195.8218 71.6995 "/>
<path d="M195.8218 71.6995 L195.7614 71.6391 "/>
<path d="M195.7614 71.6391 L195.8218 71.5786 "/>
<path d="M195.8218 71.5786 L195.8218 71.6995 "/>
<path d="M196.3057 70.4295 L197.0919 70.4295 "/>
<path d="M197.0919 70.4295 L196.6685 70.9133 "/>
<path d="M196.6685 70.9133 L196.8500 70.9133 "/>
<path d="M196.8500 70.9133 L196.9709 70.9738 "/>
<path d="M196.9709 70.9738 L197.0314 71.0343 "/>
<path d="M197.0314 71.0343 L197.0919 71.1552 "/>
<path d="M197.0919 71.1552 L197.0919 71.4576 "/>
<path d="M197.0919 71.4576 L197.0314 71.5786 "/>
<path d="M197.0314 71.5786 L196.9709 71.6391 "/>
<path d="M196.9709 71.6391 L196.8500 71.6995 "/>
<path d="M196.8500 71.6995 L196.4871 71.6995 "/>
<path d="M196.4871 71.6995 L196.3662 71.6391 "/>
<path d="M196.3662 71.6391 L196.3057 71.5786 "/>
<path d="M197.4547 70.4295 L197.8780 71.6995 "/>
<path d="M197.8780 71.6995 L198.3014 70.4295 "/>
</g></g>
<g style="fill:none;  stroke:#840000; stroke-width:0.1524; stroke-opacity:1;  stroke-linecap:round; stroke-linejoin:round;">
<circle cx="64.7700" cy="104.6480" r="0.5080"/> 
<path style="fill:none;  stroke:#840000; stroke-width:0.1524; stroke-opacity:1;  stroke-linecap:round; stroke-linejoin:round;fill:none" d="M 66.0400,106.6800 67.8180,106.6800 "/> 
<circle cx="64.7700" cy="108.7120" r="0.5080"/> 
<path style="fill:none;  stroke:#840000; stroke-width:0.1524; stroke-opacity:1;  stroke-linecap:round; stroke-linejoin:round;fill:none" d="M 66.0400,109.2200 66.0400,104.1400 "/> 
<path d="M64.7700 104.1400 L64.7700 101.6000 "/>
<path d="M64.7700 109.2200 L64.7700 111.7600 "/>
</g>
<g style="fill:none;  stroke:#006464; stroke-width:0.1524; stroke-opacity:1;  stroke-linecap:round; stroke-linejoin:round;">
<text x="61.4536" y="108.5851" textLength="4.0736" font-size="1.6933" lengthAdjust="spacingAndGlyphs" text-anchor="middle" opacity="0" stroke-opacity="0">SW1</text>
<g class="stroked-text"><desc>SW1</desc>
<path d="M59.7603 108.4692 L59.9417 108.5296 "/>
<path d="M59.9417 108.5296 L60.2441 108.5296 "/>
<path d="M60.2441 108.5296 L60.3650 108.4692 "/>
<path d="M60.3650 108.4692 L60.4255 108.4087 "/>
<path d="M60.4255 108.4087 L60.4860 108.2877 "/>
<path d="M60.4860 108.2877 L60.4860 108.1668 "/>
<path d="M60.4860 108.1668 L60.4255 108.0458 "/>
<path d="M60.4255 108.0458 L60.3650 107.9853 "/>
<path d="M60.3650 107.9853 L60.2441 107.9249 "/>
<path d="M60.2441 107.9249 L60.0022 107.8644 "/>
<path d="M60.0022 107.8644 L59.8812 107.8039 "/>
<path d="M59.8812 107.8039 L59.8207 107.7434 "/>
<path d="M59.8207 107.7434 L59.7603 107.6225 "/>
<path d="M59.7603 107.6225 L59.7603 107.5015 "/>
<path d="M59.7603 107.5015 L59.8207 107.3806 "/>
<path d="M59.8207 107.3806 L59.8812 107.3201 "/>
<path d="M59.8812 107.3201 L60.0022 107.2596 "/>
<path d="M60.0022 107.2596 L60.3045 107.2596 "/>
<path d="M60.3045 107.2596 L60.4860 107.3201 "/>
<path d="M60.9093 107.2596 L61.2117 108.5296 "/>
<path d="M61.2117 108.5296 L61.4536 107.6225 "/>
<path d="M61.4536 107.6225 L61.6955 108.5296 "/>
<path d="M61.6955 108.5296 L61.9979 107.2596 "/>
<path d="M63.1469 108.5296 L62.4212 108.5296 "/>
<path d="M62.7840 108.5296 L62.7840 107.2596 "/>
<path d="M62.7840 107.2596 L62.6631 107.4411 "/>
<path d="M62.6631 107.4411 L62.5421 107.5620 "/>
<path d="M62.5421 107.5620 L62.4212 107.6225 "/>
</g><text x="59.2765" y="106.0451" textLength="8.4278" font-size="1.6933" lengthAdjust="spacingAndGlyphs" text-anchor="middle" opacity="0" stroke-opacity="0">SW_Push</text>
<g class="stroked-text"><desc>SW_Push</desc>
<path d="M55.4061 105.9292 L55.5875 105.9896 "/>
<path d="M55.5875 105.9896 L55.8899 105.9896 "/>
<path d="M55.8899 105.9896 L56.0108 105.9292 "/>
<path d="M56.0108 105.9292 L56.0713 105.8687 "/>
<path d="M56.0713 105.8687 L56.1318 105.7477 "/>
<path d="M56.1318 105.7477 L56.1318 105.6268 "/>
<path d="M56.1318 105.6268 L56.0713 105.5058 "/>
<path d="M56.0713 105.5058 L56.0108 105.4453 "/>
<path d="M56.0108 105.4453 L55.8899 105.3849 "/>
<path d="M55.8899 105.3849 L55.6480 105.3244 "/>
<path d="M55.6480 105.3244 L55.5270 105.2639 "/>
<path d="M55.5270 105.2639 L55.4665 105.2034 "/>
<path d="M55.4665 105.2034 L55.4061 105.0825 "/>
<path d="M55.4061 105.0825 L55.4061 104.9615 "/>
<path d="M55.4061 104.9615 L55.4665 104.8406 "/>
<path d="M55.4665 104.8406 L55.5270 104.7801 "/>
<path d="M55.5270 104.7801 L55.6480 104.7196 "/>
<path d="M55.6480 104.7196 L55.9503 104.7196 "/>
<path d="M55.9503 104.7196 L56.1318 104.7801 "/>
<path d="M56.5551 104.7196 L56.8575 105.9896 "/>
<path d="M56.8575 105.9896 L57.0994 105.0825 "/>
<path d="M57.0994 105.0825 L57.3413 105.9896 "/>
<path d="M57.3413 105.9896 L57.6437 104.7196 "/>
<path d="M57.8251 106.1106 L58.7927 106.1106 "/>
<path d="M59.0950 105.9896 L59.0950 104.7196 "/>
<path d="M59.0950 104.7196 L59.5788 104.7196 "/>
<path d="M59.5788 104.7196 L59.6998 104.7801 "/>
<path d="M59.6998 104.7801 L59.7603 104.8406 "/>
<path d="M59.7603 104.8406 L59.8207 104.9615 "/>
<path d="M59.8207 104.9615 L59.8207 105.1430 "/>
<path d="M59.8207 105.1430 L59.7603 105.2639 "/>
<path d="M59.7603 105.2639 L59.6998 105.3244 "/>
<path d="M59.6998 105.3244 L59.5788 105.3849 "/>
<path d="M59.5788 105.3849 L59.0950 105.3849 "/>
<path d="M60.9093 105.1430 L60.9093 105.9896 "/>
<path d="M60.3650 105.1430 L60.3650 105.8082 "/>
<path d="M60.3650 105.8082 L60.4255 105.9292 "/>
<path d="M60.4255 105.9292 L60.5465 105.9896 "/>
<path d="M60.5465 105.9896 L60.7279 105.9896 "/>
<path d="M60.7279 105.9896 L60.8488 105.9292 "/>
<path d="M60.8488 105.9292 L60.9093 105.8687 "/>
<path d="M61.4536 105.9292 L61.5745 105.9896 "/>
<path d="M61.5745 105.9896 L61.8164 105.9896 "/>
<path d="M61.8164 105.9896 L61.9374 105.9292 "/>
<path d="M61.9374 105.9292 L61.9978 105.8082 "/>
<path d="M61.9978 105.8082 L61.9978 105.7477 "/>
<path d="M61.9978 105.7477 L61.9374 105.6268 "/>
<path d="M61.9374 105.6268 L61.8164 105.5663 "/>
<path d="M61.8164 105.5663 L61.6350 105.5663 "/>
<path d="M61.6350 105.5663 L61.5140 105.5058 "/>
<path d="M61.5140 105.5058 L61.4536 105.3849 "/>
<path d="M61.4536 105.3849 L61.4536 105.3244 "/>
<path d="M61.4536 105.3244 L61.5140 105.2034 "/>
<path d="M61.5140 105.2034 L61.6350 105.1430 "/>
<path d="M61.6350 105.1430 L61.8164 105.1430 "/>
<path d="M61.8164 105.1430 L61.9374 105.2034 "/>
<path d="M62.5421 105.9896 L62.5421 104.7196 "/>
<path d="M63.0864 105.9896 L63.0864 105.3244 "/>
<path d="M63.0864 105.3244 L63.0259 105.2034 "/>
<path d="M63.0259 105.2034 L62.9050 105.1430 "/>
<path d="M62.9050 105.1430 L62.7236 105.1430 "/>
<path d="M62.7236 105.1430 L62.6026 105.2034 "/>
<path d="M62.6026 105.2034 L62.5421 105.2639 "/>
</g><path style="fill:none;  stroke:#840000; stroke-width:0.1524; stroke-opacity:1;  stroke-linecap:round; stroke-linejoin:round;fill:none" d="M 85.0900,116.8400 85.0900,118.1100 86.3600,118.1100 85.0900,119.3800 83.8200,118.1100 85.0900,118.1100 "/> 
</g>
<g style="fill:none;  stroke:#840000; stroke-width:0.1524; stroke-opacity:1;  stroke-linecap:round; stroke-linejoin:round;">
<path d="M85.0900 116.8400 L85.0900 116.8400 "/>
</g>
<g style="fill:none;  stroke:#006464; stroke-width:0.1524; stroke-opacity:1;  stroke-linecap:round; stroke-linejoin:round;">
<text x="85.0900" y="122.5550" textLength="4.0737" font-size="1.6933" lengthAdjust="spacingAndGlyphs" text-anchor="middle" opacity="0" stroke-opacity="0">GND</text>
<g class="stroked-text"><desc>GND</desc>
<path d="M84.1224 121.2900 L84.0014 121.2295 "/>
<path d="M84.0014 121.2295 L83.8200 121.2295 "/>
<path d="M83.8200 121.2295 L83.6386 121.2900 "/>
<path d="M83.6386 121.2900 L83.5176 121.4110 "/>
<path d="M83.5176 121.4110 L83.4571 121.5319 "/>
<path d="M83.4571 121.5319 L83.3967 121.7738 "/>
<path d="M83.3967 121.7738 L83.3967 121.9552 "/>
<path d="M83.3967 121.9552 L83.4571 122.1971 "/>
<path d="M83.4571 122.1971 L83.5176 122.3181 "/>
<path d="M83.5176 122.3181 L83.6386 122.4391 "/>
<path d="M83.6386 122.4391 L83.8200 122.4995 "/>
<path d="M83.8200 122.4995 L83.9409 122.4995 "/>
<path d="M83.9409 122.4995 L84.1224 122.4391 "/>
<path d="M84.1224 122.4391 L84.1828 122.3786 "/>
<path d="M84.1828 122.3786 L84.1828 121.9552 "/>
<path d="M84.1828 121.9552 L83.9409 121.9552 "/>
<path d="M84.7271 122.4995 L84.7271 121.2295 "/>
<path d="M84.7271 121.2295 L85.4528 122.4995 "/>
<path d="M85.4528 122.4995 L85.4528 121.2295 "/>
<path d="M86.0576 122.4995 L86.0576 121.2295 "/>
<path d="M86.0576 121.2295 L86.3600 121.2295 "/>
<path d="M86.3600 121.2295 L86.5414 121.2900 "/>
<path d="M86.5414 121.2900 L86.6624 121.4110 "/>
<path d="M86.6624 121.4110 L86.7229 121.5319 "/>
<path d="M86.7229 121.5319 L86.7833 121.7738 "/>
<path d="M86.7833 121.7738 L86.7833 121.9552 "/>
<path d="M86.7833 121.9552 L86.7229 122.1971 "/>
<path d="M86.7229 122.1971 L86.6624 122.3181 "/>
<path d="M86.6624 122.3181 L86.5414 122.4391 "/>
<path d="M86.5414 122.4391 L86.3600 122.4995 "/>
<path d="M86.3600 122.4995 L86.0576 122.4995 "/>
</g><path style="fill:none;  stroke:#840000; stroke-width:0.1524; stroke-opacity:1;  stroke-linecap:round; stroke-linejoin:round;fill:none" d="M 64.7700,116.8400 64.7700,118.1100 66.0400,118.1100 64.7700,119.3800 63.5000,118.1100 64.7700,118.1100 "/> 
</g>
<g style="fill:none;  stroke:#840000; stroke-width:0.1524; stroke-opacity:1;  stroke-linecap:round; stroke-linejoin:round;">
<path d="M64.7700 116.8400 L64.7700 116.8400 "/>
</g>
<g style="fill:none;  stroke:#006464; stroke-width:0.1524; stroke-opacity:1;  stroke-linecap:round; stroke-linejoin:round;">
<text x="64.7700" y="122.5550" textLength="4.0737" font-size="1.6933" lengthAdjust="spacingAndGlyphs" text-anchor="middle" opacity="0" stroke-opacity="0">GND</text>
<g class="stroked-text"><desc>GND</desc>
<path d="M63.8024 121.2900 L63.6814 121.2295 "/>
<path d="M63.6814 121.2295 L63.5000 121.2295 "/>
<path d="M63.5000 121.2295 L63.3186 121.2900 "/>
<path d="M63.3186 121.2900 L63.1976 121.4110 "/>
<path d="M63.1976 121.4110 L63.1371 121.5319 "/>
<path d="M63.1371 121.5319 L63.0767 121.7738 "/>
<path d="M63.0767 121.7738 L63.0767 121.9552 "/>
<path d="M63.0767 121.9552 L63.1371 122.1971 "/>
<path d="M63.1371 122.1971 L63.1976 122.3181 "/>
<path d="M63.1976 122.3181 L63.3186 122.4391 "/>
<path d="M63.3186 122.4391 L63.5000 122.4995 "/>
<path d="M63.5000 122.4995 L63.6209 122.4995 "/>
<path d="M63.6209 122.4995 L63.8024 122.4391 "/>
<path d="M63.8024 122.4391 L63.8628 122.3786 "/>
<path d="M63.8628 122.3786 L63.8628 121.9552 "/>
<path d="M63.8628 121.9552 L63.6209 121.9552 "/>
<path d="M64.4071 122.4995 L64.4071 121.2295 "/>
<path d="M64.4071 121.2295 L65.1328 122.4995 "/>
<path d="M65.1328 122.4995 L65.1328 121.2295 "/>
<path d="M65.7376 122.4995 L65.7376 121.2295 "/>
<path d="M65.7376 121.2295 L66.0400 121.2295 "/>
<path d="M66.0400 121.2295 L66.2214 121.2900 "/>
<path d="M66.2214 121.2900 L66.3424 121.4110 "/>
<path d="M66.3424 121.4110 L66.4029 121.5319 "/>
<path d="M66.4029 121.5319 L66.4633 121.7738 "/>
<path d="M66.4633 121.7738 L66.4633 121.9552 "/>
<path d="M66.4633 121.9552 L66.4029 122.1971 "/>
<path d="M66.4029 122.1971 L66.3424 122.3181 "/>
<path d="M66.3424 122.3181 L66.2214 122.4391 "/>
<path d="M66.2214 122.4391 L66.0400 122.4995 "/>
<path d="M66.0400 122.4995 L65.7376 122.4995 "/>
</g><path style="fill:none;  stroke:#840000; stroke-width:0.1524; stroke-opacity:1;  stroke-linecap:round; stroke-linejoin:round;fill:none" d="M 64.0080,74.9300 64.7700,73.6600 "/> 
<path style="fill:none;  stroke:#840000; stroke-width:0.1524; stroke-opacity:1;  stroke-linecap:round; stroke-linejoin:round;fill:none" d="M 64.7700,73.6600 65.5320,74.9300 "/> 
<path style="fill:none;  stroke:#840000; stroke-width:0.1524; stroke-opacity:1;  stroke-linecap:round; stroke-linejoin:round;fill:none" d="M 64.7700,76.2000 64.7700,73.6600 "/> 
</g>
<g style="fill:none;  stroke:#840000; stroke-width:0.1524; stroke-opacity:1;  stroke-linecap:round; stroke-linejoin:round;">
<path d="M64.7700 76.2000 L64.7700 76.2000 "/>
</g>
<g style="fill:none;  stroke:#006464; stroke-width:0.1524; stroke-opacity:1;  stroke-linecap:round; stroke-linejoin:round;">
<text x="64.7700" y="71.7550" textLength="5.8880" font-size="1.6933" lengthAdjust="spacingAndGlyphs" text-anchor="middle" opacity="0" stroke-opacity="0">+3.3V</text>
<g class="stroked-text"><desc>+3.3V</desc>
<path d="M62.2299 71.2157 L63.1976 71.2157 "/>
<path d="M62.7137 71.6995 L62.7137 70.7319 "/>
<path d="M63.6814 70.4295 L64.4676 70.4295 "/>
<path d="M64.4676 70.4295 L64.0442 70.9133 "/>
<path d="M64.0442 70.9133 L64.2257 70.9133 "/>
<path d="M64.2257 70.9133 L64.3466 70.9738 "/>
<path d="M64.3466 70.9738 L64.4071 71.0343 "/>
<path d="M64.4071 71.0343 L64.4676 71.1552 "/>
<path d="M64.4676 71.1552 L64.4676 71.4576 "/>
<path d="M64.4676 71.4576 L64.4071 71.5786 "/>
<path d="M64.4071 71.5786 L64.3466 71.6391 "/>
<path d="M64.3466 71.6391 L64.2257 71.6995 "/>
<path d="M64.2257 71.6995 L63.8628 71.6995 "/>
<path d="M63.8628 71.6995 L63.7419 71.6391 "/>
<path d="M63.7419 71.6391 L63.6814 71.5786 "/>
<path d="M65.0118 71.5786 L65.0723 71.6391 "/>
<path d="M65.0723 71.6391 L65.0118 71.6995 "/>
<path d="M65.0118 71.6995 L64.9514 71.6391 "/>
<path d="M64.9514 71.6391 L65.0118 71.5786 "/>
<path d="M65.0118 71.5786 L65.0118 71.6995 "/>
<path d="M65.4957 70.4295 L66.2819 70.4295 "/>
<path d="M66.2819 70.4295 L65.8585 70.9133 "/>
<path d="M65.8585 70.9133 L66.0400 70.9133 "/>
<path d="M66.0400 70.9133 L66.1609 70.9738 "/>
<path d="M66.1609 70.9738 L66.2214 71.0343 "/>
<path d="M66.2214 71.0343 L66.2819 71.1552 "/>
<path d="M66.2819 71.1552 L66.2819 71.4576 "/>
<path d="M66.2819 71.4576 L66.2214 71.5786 "/>
<path d="M66.2214 71.5786 L66.1609 71.6391 "/>
<path d="M66.1609 71.6391 L66.0400 71.6995 "/>
<path d="M66.0400 71.6995 L65.6771 71.6995 "/>
<path d="M65.6771 71.6995 L65.5562 71.6391 "/>
<path d="M65.5562 71.6391 L65.4957 71.5786 "/>
<path d="M66.6447 70.4295 L67.0680 71.6995 "/>
<path d="M67.0680 71.6995 L67.4914 70.4295 "/>
</g></g>
<g style="fill:none;  stroke:#840000; stroke-width:0.2540; stroke-opacity:1;  stroke-linecap:round; stroke-linejoin:round;">
<rect x="63.754000" y="87.630000" width="2.032000" height="5.080000" rx="0.000000"/>
</g>
<g style="fill:none;  stroke:#840000; stroke-width:0.1524; stroke-opacity:1;  stroke-linecap:round; stroke-linejoin:round;">
<path d="M64.7700 87.6300 L64.7700 86.3600 "/>
<path d="M64.7700 92.7100 L64.7700 93.9800 "/>
</g>
<g style="fill:none;  stroke:#006464; stroke-width:0.1524; stroke-opacity:1;  stroke-linecap:round; stroke-linejoin:round;">
<text x="68.6609" y="89.5349" textLength="2.6827" font-size="1.6933" lengthAdjust="spacingAndGlyphs" text-anchor="middle" opacity="0" stroke-opacity="0">R5</text>
<g class="stroked-text"><desc>R5</desc>
<path d="M68.4492 89.4794 L68.0259 88.8747 "/>
<path d="M67.7235 89.4794 L67.7235 88.2094 "/>
<path d="M67.7235 88.2094 L68.2073 88.2094 "/>
<path d="M68.2073 88.2094 L68.3283 88.2699 "/>
<path d="M68.3283 88.2699 L68.3888 88.3304 "/>
<path d="M68.3888 88.3304 L68.4492 88.4513 "/>
<path d="M68.4492 88.4513 L68.4492 88.6328 "/>
<path d="M68.4492 88.6328 L68.3888 88.7537 "/>
<path d="M68.3888 88.7537 L68.3283 88.8142 "/>
<path d="M68.3283 88.8142 L68.2073 88.8747 "/>
<path d="M68.2073 88.8747 L67.7235 88.8747 "/>
<path d="M69.5983 88.2094 L68.9935 88.2094 "/>
<path d="M68.9935 88.2094 L68.9331 88.8142 "/>
<path d="M68.9331 88.8142 L68.9935 88.7537 "/>
<path d="M68.9935 88.7537 L69.1145 88.6932 "/>
<path d="M69.1145 88.6932 L69.4169 88.6932 "/>
<path d="M69.4169 88.6932 L69.5378 88.7537 "/>
<path d="M69.5378 88.7537 L69.5983 88.8142 "/>
<path d="M69.5983 88.8142 L69.6588 88.9351 "/>
<path d="M69.6588 88.9351 L69.6588 89.2375 "/>
<path d="M69.6588 89.2375 L69.5983 89.3585 "/>
<path d="M69.5983 89.3585 L69.5378 89.4190 "/>
<path d="M69.5378 89.4190 L69.4169 89.4794 "/>
<path d="M69.4169 89.4794 L69.1145 89.4794 "/>
<path d="M69.1145 89.4794 L68.9935 89.4190 "/>
<path d="M68.9935 89.4190 L68.9331 89.3585 "/>
</g><text x="69.1447" y="92.0749" textLength="3.6503" font-size="1.6933" lengthAdjust="spacingAndGlyphs" text-anchor="middle" opacity="0" stroke-opacity="0">10k</text>
<g class="stroked-text"><desc>10k</desc>
<path d="M68.3888 92.0194 L67.6631 92.0194 "/>
<path d="M68.0259 92.0194 L68.0259 90.7494 "/>
<path d="M68.0259 90.7494 L67.9050 90.9309 "/>
<path d="M67.9050 90.9309 L67.7840 91.0518 "/>
<path d="M67.7840 91.0518 L67.6631 91.1123 "/>
<path d="M69.1749 90.7494 L69.2959 90.7494 "/>
<path d="M69.2959 90.7494 L69.4168 90.8099 "/>
<path d="M69.4168 90.8099 L69.4773 90.8704 "/>
<path d="M69.4773 90.8704 L69.5378 90.9913 "/>
<path d="M69.5378 90.9913 L69.5983 91.2332 "/>
<path d="M69.5983 91.2332 L69.5983 91.5356 "/>
<path d="M69.5983 91.5356 L69.5378 91.7775 "/>
<path d="M69.5378 91.7775 L69.4773 91.8985 "/>
<path d="M69.4773 91.8985 L69.4168 91.9590 "/>
<path d="M69.4168 91.9590 L69.2959 92.0194 "/>
<path d="M69.2959 92.0194 L69.1749 92.0194 "/>
<path d="M69.1749 92.0194 L69.0540 91.9590 "/>
<path d="M69.0540 91.9590 L68.9935 91.8985 "/>
<path d="M68.9935 91.8985 L68.9330 91.7775 "/>
<path d="M68.9330 91.7775 L68.8726 91.5356 "/>
<path d="M68.8726 91.5356 L68.8726 91.2332 "/>
<path d="M68.8726 91.2332 L68.9330 90.9913 "/>
<path d="M68.9330 90.9913 L68.9935 90.8704 "/>
<path d="M68.9935 90.8704 L69.0540 90.8099 "/>
<path d="M69.0540 90.8099 L69.1749 90.7494 "/>
<path d="M70.1425 92.0194 L70.1425 90.7494 "/>
<path d="M70.2635 91.5356 L70.6263 92.0194 "/>
<path d="M70.6263 91.1728 L70.1425 91.6566 "/>
</g></g>
<g style="fill:none;  stroke:#840000; stroke-width:0.2540; stroke-opacity:1;  stroke-linecap:round; stroke-linejoin:round;">
<rect x="73.660000" y="98.044000" width="5.080000" height="2.032000" rx="0.000000"/>
</g>
<g style="fill:none;  stroke:#840000; stroke-width:0.1524; stroke-opacity:1;  stroke-linecap:round; stroke-linejoin:round;">
<path d="M73.6600 99.0600 L72.3900 99.0600 "/>
<path d="M78.7400 99.0600 L80.0100 99.0600 "/>
</g>
<g style="fill:none;  stroke:#006464; stroke-width:0.1524; stroke-opacity:1;  stroke-linecap:round; stroke-linejoin:round;">
<text x="76.1999" y="93.3449" textLength="2.6827" font-size="1.6933" lengthAdjust="spacingAndGlyphs" text-anchor="middle" opacity="0" stroke-opacity="0">R8</text>
<g class="stroked-text"><desc>R8</desc>
<path d="M75.9882 93.2894 L75.5649 92.6847 "/>
<path d="M75.2625 93.2894 L75.2625 92.0194 "/>
<path d="M75.2625 92.0194 L75.7463 92.0194 "/>
<path d="M75.7463 92.0194 L75.8673 92.0799 "/>
<path d="M75.8673 92.0799 L75.9278 92.1404 "/>
<path d="M75.9278 92.1404 L75.9882 92.2613 "/>
<path d="M75.9882 92.2613 L75.9882 92.4428 "/>
<path d="M75.9882 92.4428 L75.9278 92.5637 "/>
<path d="M75.9278 92.5637 L75.8673 92.6242 "/>
<path d="M75.8673 92.6242 L75.7463 92.6847 "/>
<path d="M75.7463 92.6847 L75.2625 92.6847 "/>
<path d="M76.7140 92.5637 L76.5930 92.5032 "/>
<path d="M76.5930 92.5032 L76.5325 92.4428 "/>
<path d="M76.5325 92.4428 L76.4721 92.3218 "/>
<path d="M76.4721 92.3218 L76.4721 92.2613 "/>
<path d="M76.4721 92.2613 L76.5325 92.1404 "/>
<path d="M76.5325 92.1404 L76.5930 92.0799 "/>
<path d="M76.5930 92.0799 L76.7140 92.0194 "/>
<path d="M76.7140 92.0194 L76.9559 92.0194 "/>
<path d="M76.9559 92.0194 L77.0768 92.0799 "/>
<path d="M77.0768 92.0799 L77.1373 92.1404 "/>
<path d="M77.1373 92.1404 L77.1978 92.2613 "/>
<path d="M77.1978 92.2613 L77.1978 92.3218 "/>
<path d="M77.1978 92.3218 L77.1373 92.4428 "/>
<path d="M77.1373 92.4428 L77.0768 92.5032 "/>
<path d="M77.0768 92.5032 L76.9559 92.5637 "/>
<path d="M76.9559 92.5637 L76.7140 92.5637 "/>
<path d="M76.7140 92.5637 L76.5930 92.6242 "/>
<path d="M76.5930 92.6242 L76.5325 92.6847 "/>
<path d="M76.5325 92.6847 L76.4721 92.8056 "/>
<path d="M76.4721 92.8056 L76.4721 93.0475 "/>
<path d="M76.4721 93.0475 L76.5325 93.1685 "/>
<path d="M76.5325 93.1685 L76.5930 93.2290 "/>
<path d="M76.5930 93.2290 L76.7140 93.2894 "/>
<path d="M76.7140 93.2894 L76.9559 93.2894 "/>
<path d="M76.9559 93.2894 L77.0768 93.2290 "/>
<path d="M77.0768 93.2290 L77.1373 93.1685 "/>
<path d="M77.1373 93.1685 L77.1978 93.0475 "/>
<path d="M77.1978 93.0475 L77.1978 92.8056 "/>
<path d="M77.1978 92.8056 L77.1373 92.6847 "/>
<path d="M77.1373 92.6847 L77.0768 92.6242 "/>
<path d="M77.0768 92.6242 L76.9559 92.5637 "/>
</g><text x="76.2000" y="95.8849" textLength="2.4408" font-size="1.6933" lengthAdjust="spacingAndGlyphs" text-anchor="middle" opacity="0" stroke-opacity="0">1k</text>
<g class="stroked-text"><desc>1k</desc>
<path d="M76.0488 95.8294 L75.3231 95.8294 "/>
<path d="M75.6859 95.8294 L75.6859 94.5594 "/>
<path d="M75.6859 94.5594 L75.5650 94.7409 "/>
<path d="M75.5650 94.7409 L75.4440 94.8618 "/>
<path d="M75.4440 94.8618 L75.3231 94.9223 "/>
<path d="M76.5930 95.8294 L76.5930 94.5594 "/>
<path d="M76.7140 95.3456 L77.0768 95.8294 "/>
<path d="M77.0768 94.9828 L76.5930 95.4666 "/>
</g><path style="fill:none;  stroke:#840000; stroke-width:0.1524; stroke-opacity:1;  stroke-linecap:round; stroke-linejoin:round;fill:none" d="M 132.0800,116.8400 132.0800,118.1100 133.3500,118.1100 132.0800,119.3800 130.8100,118.1100 132.0800,118.1100 "/> 
</g>
<g style="fill:none;  stroke:#840000; stroke-width:0.1524; stroke-opacity:1;  stroke-linecap:round; stroke-linejoin:round;">
<path d="M132.0800 116.8400 L132.0800 116.8400 "/>
</g>
<g style="fill:none;  stroke:#006464; stroke-width:0.1524; stroke-opacity:1;  stroke-linecap:round; stroke-linejoin:round;">
<text x="132.0800" y="122.5550" textLength="4.0737" font-size="1.6933" lengthAdjust="spacingAndGlyphs" text-anchor="middle" opacity="0" stroke-opacity="0">GND</text>
<g class="stroked-text"><desc>GND</desc>
<path d="M131.1124 121.2900 L130.9914 121.2295 "/>
<path d="M130.9914 121.2295 L130.8100 121.2295 "/>
<path d="M130.8100 121.2295 L130.6286 121.2900 "/>
<path d="M130.6286 121.2900 L130.5076 121.4110 "/>
<path d="M130.5076 121.4110 L130.4471 121.5319 "/>
<path d="M130.4471 121.5319 L130.3867 121.7738 "/>
<path d="M130.3867 121.7738 L130.3867 121.9552 "/>
<path d="M130.3867 121.9552 L130.4471 122.1971 "/>
<path d="M130.4471 122.1971 L130.5076 122.3181 "/>
<path d="M130.5076 122.3181 L130.6286 122.4391 "/>
<path d="M130.6286 122.4391 L130.8100 122.4995 "/>
<path d="M130.8100 122.4995 L130.9309 122.4995 "/>
<path d="M130.9309 122.4995 L131.1124 122.4391 "/>
<path d="M131.1124 122.4391 L131.1728 122.3786 "/>
<path d="M131.1728 122.3786 L131.1728 121.9552 "/>
<path d="M131.1728 121.9552 L130.9309 121.9552 "/>
<path d="M131.7171 122.4995 L131.7171 121.2295 "/>
<path d="M131.7171 121.2295 L132.4428 122.4995 "/>
<path d="M132.4428 122.4995 L132.4428 121.2295 "/>
<path d="M133.0476 122.4995 L133.0476 121.2295 "/>
<path d="M133.0476 121.2295 L133.3500 121.2295 "/>
<path d="M133.3500 121.2295 L133.5314 121.2900 "/>
<path d="M133.5314 121.2900 L133.6524 121.4110 "/>
<path d="M133.6524 121.4110 L133.7129 121.5319 "/>
<path d="M133.7129 121.5319 L133.7733 121.7738 "/>
<path d="M133.7733 121.7738 L133.7733 121.9552 "/>
<path d="M133.7733 121.9552 L133.7129 122.1971 "/>
<path d="M133.7129 122.1971 L133.6524 122.3181 "/>
<path d="M133.6524 122.3181 L133.5314 122.4391 "/>
<path d="M133.5314 122.4391 L133.3500 122.4995 "/>
<path d="M133.3500 122.4995 L133.0476 122.4995 "/>
</g><path style="fill:none;  stroke:#840000; stroke-width:0.5080; stroke-opacity:1;  stroke-linecap:round; stroke-linejoin:round;fill:none" d="M 83.0580,105.9180 87.1220,105.9180 "/> 
<path style="fill:none;  stroke:#840000; stroke-width:0.5080; stroke-opacity:1;  stroke-linecap:round; stroke-linejoin:round;fill:none" d="M 83.0580,107.4420 87.1220,107.4420 "/> 
</g>
<g style="fill:none;  stroke:#840000; stroke-width:0.1524; stroke-opacity:1;  stroke-linecap:round; stroke-linejoin:round;">
<path d="M85.0900 105.6640 L85.0900 102.8700 "/>
<path d="M85.0900 107.6960 L85.0900 110.4900 "/>
</g>
<g style="fill:none;  stroke:#006464; stroke-width:0.1524; stroke-opacity:1;  stroke-linecap:round; stroke-linejoin:round;">
<text x="90.2509" y="106.0449" textLength="2.6827" font-size="1.6933" lengthAdjust="spacingAndGlyphs" text-anchor="middle" opacity="0" stroke-opacity="0">C5</text>
<g class="stroked-text"><desc>C5</desc>
<path d="M90.0392 105.8685 L89.9788 105.9290 "/>
<path d="M89.9788 105.9290 L89.7973 105.9894 "/>
<path d="M89.7973 105.9894 L89.6764 105.9894 "/>
<path d="M89.6764 105.9894 L89.4950 105.9290 "/>
<path d="M89.4950 105.9290 L89.3740 105.8080 "/>
<path d="M89.3740 105.8080 L89.3135 105.6870 "/>
<path d="M89.3135 105.6870 L89.2531 105.4451 "/>
<path d="M89.2531 105.4451 L89.2531 105.2637 "/>
<path d="M89.2531 105.2637 L89.3135 105.0218 "/>
<path d="M89.3135 105.0218 L89.3740 104.9009 "/>
<path d="M89.3740 104.9009 L89.4950 104.7799 "/>
<path d="M89.4950 104.7799 L89.6764 104.7194 "/>
<path d="M89.6764 104.7194 L89.7973 104.7194 "/>
<path d="M89.7973 104.7194 L89.9788 104.7799 "/>
<path d="M89.9788 104.7799 L90.0392 104.8404 "/>
<path d="M91.1883 104.7194 L90.5835 104.7194 "/>
<path d="M90.5835 104.7194 L90.5231 105.3242 "/>
<path d="M90.5231 105.3242 L90.5835 105.2637 "/>
<path d="M90.5835 105.2637 L90.7045 105.2032 "/>
<path d="M90.7045 105.2032 L91.0069 105.2032 "/>
<path d="M91.0069 105.2032 L91.1278 105.2637 "/>
<path d="M91.1278 105.2637 L91.1883 105.3242 "/>
<path d="M91.1883 105.3242 L91.2488 105.4451 "/>
<path d="M91.2488 105.4451 L91.2488 105.7475 "/>
<path d="M91.2488 105.7475 L91.1883 105.8685 "/>
<path d="M91.1883 105.8685 L91.1278 105.9290 "/>
<path d="M91.1278 105.9290 L91.0069 105.9894 "/>
<path d="M91.0069 105.9894 L90.7045 105.9894 "/>
<path d="M90.7045 105.9894 L90.5835 105.9290 "/>
<path d="M90.5835 105.9290 L90.5231 105.8685 "/>
</g><text x="90.1904" y="108.5849" textLength="2.5617" font-size="1.6933" lengthAdjust="spacingAndGlyphs" text-anchor="middle" opacity="0" stroke-opacity="0">1n</text>
<g class="stroked-text"><desc>1n</desc>
<path d="M89.9788 108.5294 L89.2531 108.5294 "/>
<path d="M89.6159 108.5294 L89.6159 107.2594 "/>
<path d="M89.6159 107.2594 L89.4950 107.4409 "/>
<path d="M89.4950 107.4409 L89.3740 107.5618 "/>
<path d="M89.3740 107.5618 L89.2531 107.6223 "/>
<path d="M90.5230 107.6828 L90.5230 108.5294 "/>
<path d="M90.5230 107.8037 L90.5835 107.7432 "/>
<path d="M90.5835 107.7432 L90.7045 107.6828 "/>
<path d="M90.7045 107.6828 L90.8859 107.6828 "/>
<path d="M90.8859 107.6828 L91.0068 107.7432 "/>
<path d="M91.0068 107.7432 L91.0673 107.8642 "/>
<path d="M91.0673 107.8642 L91.0673 108.5294 "/>
</g></g>
<g style="fill:none;  stroke:#840000; stroke-width:0.2540; stroke-opacity:1;  stroke-linecap:round; stroke-linejoin:round;">
<rect x="140.970000" y="98.044000" width="5.080000" height="2.032000" rx="0.000000"/>
</g>
<g style="fill:none;  stroke:#840000; stroke-width:0.1524; stroke-opacity:1;  stroke-linecap:round; stroke-linejoin:round;">
<path d="M140.9700 99.0600 L139.7000 99.0600 "/>
<path d="M146.0500 99.0600 L147.3200 99.0600 "/>
</g>
<g style="fill:none;  stroke:#006464; stroke-width:0.1524; stroke-opacity:1;  stroke-linecap:round; stroke-linejoin:round;">
<text x="143.5099" y="93.3449" textLength="2.6827" font-size="1.6933" lengthAdjust="spacingAndGlyphs" text-anchor="middle" opacity="0" stroke-opacity="0">R9</text>
<g class="stroked-text"><desc>R9</desc>
<path d="M143.2982 93.2894 L142.8749 92.6847 "/>
<path d="M142.5725 93.2894 L142.5725 92.0194 "/>
<path d="M142.5725 92.0194 L143.0563 92.0194 "/>
<path d="M143.0563 92.0194 L143.1773 92.0799 "/>
<path d="M143.1773 92.0799 L143.2378 92.1404 "/>
<path d="M143.2378 92.1404 L143.2982 92.2613 "/>
<path d="M143.2982 92.2613 L143.2982 92.4428 "/>
<path d="M143.2982 92.4428 L143.2378 92.5637 "/>
<path d="M143.2378 92.5637 L143.1773 92.6242 "/>
<path d="M143.1773 92.6242 L143.0563 92.6847 "/>
<path d="M143.0563 92.6847 L142.5725 92.6847 "/>
<path d="M143.9030 93.2894 L144.1449 93.2894 "/>
<path d="M144.1449 93.2894 L144.2659 93.2290 "/>
<path d="M144.2659 93.2290 L144.3263 93.1685 "/>
<path d="M144.3263 93.1685 L144.4473 92.9870 "/>
<path d="M144.4473 92.9870 L144.5078 92.7451 "/>
<path d="M144.5078 92.7451 L144.5078 92.2613 "/>
<path d="M144.5078 92.2613 L144.4473 92.1404 "/>
<path d="M144.4473 92.1404 L144.3868 92.0799 "/>
<path d="M144.3868 92.0799 L144.2659 92.0194 "/>
<path d="M144.2659 92.0194 L144.0240 92.0194 "/>
<path d="M144.0240 92.0194 L143.9030 92.0799 "/>
<path d="M143.9030 92.0799 L143.8425 92.1404 "/>
<path d="M143.8425 92.1404 L143.7821 92.2613 "/>
<path d="M143.7821 92.2613 L143.7821 92.5637 "/>
<path d="M143.7821 92.5637 L143.8425 92.6847 "/>
<path d="M143.8425 92.6847 L143.9030 92.7451 "/>
<path d="M143.9030 92.7451 L144.0240 92.8056 "/>
<path d="M144.0240 92.8056 L144.2659 92.8056 "/>
<path d="M144.2659 92.8056 L144.3868 92.7451 "/>
<path d="M144.3868 92.7451 L144.4473 92.6847 "/>
<path d="M144.4473 92.6847 L144.5078 92.5637 "/>
</g><text x="143.5100" y="95.8849" textLength="2.4408" font-size="1.6933" lengthAdjust="spacingAndGlyphs" text-anchor="middle" opacity="0" stroke-opacity="0">1k</text>
<g class="stroked-text"><desc>1k</desc>
<path d="M143.3588 95.8294 L142.6331 95.8294 "/>
<path d="M142.9959 95.8294 L142.9959 94.5594 "/>
<path d="M142.9959 94.5594 L142.8750 94.7409 "/>
<path d="M142.8750 94.7409 L142.7540 94.8618 "/>
<path d="M142.7540 94.8618 L142.6331 94.9223 "/>
<path d="M143.9030 95.8294 L143.9030 94.5594 "/>
<path d="M144.0240 95.3456 L144.3868 95.8294 "/>
<path d="M144.3868 94.9828 L143.9030 95.4666 "/>
</g></g>
<g style="fill:none;  stroke:#840000; stroke-width:0.2540; stroke-opacity:1;  stroke-linecap:round; stroke-linejoin:round;">
<rect x="131.064000" y="87.630000" width="2.032000" height="5.080000" rx="0.000000"/>
</g>
<g style="fill:none;  stroke:#840000; stroke-width:0.1524; stroke-opacity:1;  stroke-linecap:round; stroke-linejoin:round;">
<path d="M132.0800 87.6300 L132.0800 86.3600 "/>
<path d="M132.0800 92.7100 L132.0800 93.9800 "/>
</g>
<g style="fill:none;  stroke:#006464; stroke-width:0.1524; stroke-opacity:1;  stroke-linecap:round; stroke-linejoin:round;">
<text x="135.9709" y="89.5349" textLength="2.6827" font-size="1.6933" lengthAdjust="spacingAndGlyphs" text-anchor="middle" opacity="0" stroke-opacity="0">R6</text>
<g class="stroked-text"><desc>R6</desc>
<path d="M135.7592 89.4794 L135.3359 88.8747 "/>
<path d="M135.0335 89.4794 L135.0335 88.2094 "/>
<path d="M135.0335 88.2094 L135.5173 88.2094 "/>
<path d="M135.5173 88.2094 L135.6383 88.2699 "/>
<path d="M135.6383 88.2699 L135.6988 88.3304 "/>
<path d="M135.6988 88.3304 L135.7592 88.4513 "/>
<path d="M135.7592 88.4513 L135.7592 88.6328 "/>
<path d="M135.7592 88.6328 L135.6988 88.7537 "/>
<path d="M135.6988 88.7537 L135.6383 88.8142 "/>
<path d="M135.6383 88.8142 L135.5173 88.8747 "/>
<path d="M135.5173 88.8747 L135.0335 88.8747 "/>
<path d="M136.8478 88.2094 L136.6059 88.2094 "/>
<path d="M136.6059 88.2094 L136.4850 88.2699 "/>
<path d="M136.4850 88.2699 L136.4245 88.3304 "/>
<path d="M136.4245 88.3304 L136.3035 88.5118 "/>
<path d="M136.3035 88.5118 L136.2431 88.7537 "/>
<path d="M136.2431 88.7537 L136.2431 89.2375 "/>
<path d="M136.2431 89.2375 L136.3035 89.3585 "/>
<path d="M136.3035 89.3585 L136.3640 89.4190 "/>
<path d="M136.3640 89.4190 L136.4850 89.4794 "/>
<path d="M136.4850 89.4794 L136.7269 89.4794 "/>
<path d="M136.7269 89.4794 L136.8478 89.4190 "/>
<path d="M136.8478 89.4190 L136.9083 89.3585 "/>
<path d="M136.9083 89.3585 L136.9688 89.2375 "/>
<path d="M136.9688 89.2375 L136.9688 88.9351 "/>
<path d="M136.9688 88.9351 L136.9083 88.8142 "/>
<path d="M136.9083 88.8142 L136.8478 88.7537 "/>
<path d="M136.8478 88.7537 L136.7269 88.6932 "/>
<path d="M136.7269 88.6932 L136.4850 88.6932 "/>
<path d="M136.4850 88.6932 L136.3640 88.7537 "/>
<path d="M136.3640 88.7537 L136.3035 88.8142 "/>
<path d="M136.3035 88.8142 L136.2431 88.9351 "/>
</g><text x="136.4547" y="92.0749" textLength="3.6503" font-size="1.6933" lengthAdjust="spacingAndGlyphs" text-anchor="middle" opacity="0" stroke-opacity="0">10k</text>
<g class="stroked-text"><desc>10k</desc>
<path d="M135.6988 92.0194 L134.9731 92.0194 "/>
<path d="M135.3359 92.0194 L135.3359 90.7494 "/>
<path d="M135.3359 90.7494 L135.2150 90.9309 "/>
<path d="M135.2150 90.9309 L135.0940 91.0518 "/>
<path d="M135.0940 91.0518 L134.9731 91.1123 "/>
<path d="M136.4849 90.7494 L136.6059 90.7494 "/>
<path d="M136.6059 90.7494 L136.7268 90.8099 "/>
<path d="M136.7268 90.8099 L136.7873 90.8704 "/>
<path d="M136.7873 90.8704 L136.8478 90.9913 "/>
<path d="M136.8478 90.9913 L136.9083 91.2332 "/>
<path d="M136.9083 91.2332 L136.9083 91.5356 "/>
<path d="M136.9083 91.5356 L136.8478 91.7775 "/>
<path d="M136.8478 91.7775 L136.7873 91.8985 "/>
<path d="M136.7873 91.8985 L136.7268 91.9590 "/>
<path d="M136.7268 91.9590 L136.6059 92.0194 "/>
<path d="M136.6059 92.0194 L136.4849 92.0194 "/>
<path d="M136.4849 92.0194 L136.3640 91.9590 "/>
<path d="M136.3640 91.9590 L136.3035 91.8985 "/>
<path d="M136.3035 91.8985 L136.2430 91.7775 "/>
<path d="M136.2430 91.7775 L136.1826 91.5356 "/>
<path d="M136.1826 91.5356 L136.1826 91.2332 "/>
<path d="M136.1826 91.2332 L136.2430 90.9913 "/>
<path d="M136.2430 90.9913 L136.3035 90.8704 "/>
<path d="M136.3035 90.8704 L136.3640 90.8099 "/>
<path d="M136.3640 90.8099 L136.4849 90.7494 "/>
<path d="M137.4525 92.0194 L137.4525 90.7494 "/>
<path d="M137.5735 91.5356 L137.9363 92.0194 "/>
<path d="M137.9363 91.1728 L137.4525 91.6566 "/>
</g><path style="fill:none;  stroke:#840000; stroke-width:0.1524; stroke-opacity:1;  stroke-linecap:round; stroke-linejoin:round;fill:none" d="M 131.3180,74.9300 132.0800,73.6600 "/> 
<path style="fill:none;  stroke:#840000; stroke-width:0.1524; stroke-opacity:1;  stroke-linecap:round; stroke-linejoin:round;fill:none" d="M 132.0800,73.6600 132.8420,74.9300 "/> 
<path style="fill:none;  stroke:#840000; stroke-width:0.1524; stroke-opacity:1;  stroke-linecap:round; stroke-linejoin:round;fill:none" d="M 132.0800,76.2000 132.0800,73.6600 "/> 
</g>
<g style="fill:none;  stroke:#840000; stroke-width:0.1524; stroke-opacity:1;  stroke-linecap:round; stroke-linejoin:round;">
<path d="M132.0800 76.2000 L132.0800 76.2000 "/>
</g>
<g style="fill:none;  stroke:#006464; stroke-width:0.1524; stroke-opacity:1;  stroke-linecap:round; stroke-linejoin:round;">
<text x="132.0800" y="71.7550" textLength="5.8880" font-size="1.6933" lengthAdjust="spacingAndGlyphs" text-anchor="middle" opacity="0" stroke-opacity="0">+3.3V</text>
<g class="stroked-text"><desc>+3.3V</desc>
<path d="M129.5399 71.2157 L130.5076 71.2157 "/>
<path d="M130.0237 71.6995 L130.0237 70.7319 "/>
<path d="M130.9914 70.4295 L131.7776 70.4295 "/>
<path d="M131.7776 70.4295 L131.3542 70.9133 "/>
<path d="M131.3542 70.9133 L131.5357 70.9133 "/>
<path d="M131.5357 70.9133 L131.6566 70.9738 "/>
<path d="M131.6566 70.9738 L131.7171 71.0343 "/>
<path d="M131.7171 71.0343 L131.7776 71.1552 "/>
<path d="M131.7776 71.1552 L131.7776 71.4576 "/>
<path d="M131.7776 71.4576 L131.7171 71.5786 "/>
<path d="M131.7171 71.5786 L131.6566 71.6391 "/>
<path d="M131.6566 71.6391 L131.5357 71.6995 "/>
<path d="M131.5357 71.6995 L131.1728 71.6995 "/>
<path d="M131.1728 71.6995 L131.0519 71.6391 "/>
<path d="M131.0519 71.6391 L130.9914 71.5786 "/>
<path d="M132.3218 71.5786 L132.3823 71.6391 "/>
<path d="M132.3823 71.6391 L132.3218 71.6995 "/>
<path d="M132.3218 71.6995 L132.2614 71.6391 "/>
<path d="M132.2614 71.6391 L132.3218 71.5786 "/>
<path d="M132.3218 71.5786 L132.3218 71.6995 "/>
<path d="M132.8057 70.4295 L133.5919 70.4295 "/>
<path d="M133.5919 70.4295 L133.1685 70.9133 "/>
<path d="M133.1685 70.9133 L133.3500 70.9133 "/>
<path d="M133.3500 70.9133 L133.4709 70.9738 "/>
<path d="M133.4709 70.9738 L133.5314 71.0343 "/>
<path d="M133.5314 71.0343 L133.5919 71.1552 "/>
<path d="M133.5919 71.1552 L133.5919 71.4576 "/>
<path d="M133.5919 71.4576 L133.5314 71.5786 "/>
<path d="M133.5314 71.5786 L133.4709 71.6391 "/>
<path d="M133.4709 71.6391 L133.3500 71.6995 "/>
<path d="M133.3500 71.6995 L132.9871 71.6995 "/>
<path d="M132.9871 71.6995 L132.8662 71.6391 "/>
<path d="M132.8662 71.6391 L132.8057 71.5786 "/>
<path d="M133.9547 70.4295 L134.3780 71.6995 "/>
<path d="M134.3780 71.6995 L134.8014 70.4295 "/>
</g></g>
<g style="fill:none;  stroke:#840000; stroke-width:0.1524; stroke-opacity:1;  stroke-linecap:round; stroke-linejoin:round;">
<circle cx="132.0800" cy="104.6480" r="0.5080"/> 
<path style="fill:none;  stroke:#840000; stroke-width:0.1524; stroke-opacity:1;  stroke-linecap:round; stroke-linejoin:round;fill:none" d="M 133.3500,106.6800 135.1280,106.6800 "/> 
<circle cx="132.0800" cy="108.7120" r="0.5080"/> 
<path style="fill:none;  stroke:#840000; stroke-width:0.1524; stroke-opacity:1;  stroke-linecap:round; stroke-linejoin:round;fill:none" d="M 133.3500,109.2200 133.3500,104.1400 "/> 
<path d="M132.0800 104.1400 L132.0800 101.6000 "/>
<path d="M132.0800 109.2200 L132.0800 111.7600 "/>
</g>
<g style="fill:none;  stroke:#006464; stroke-width:0.1524; stroke-opacity:1;  stroke-linecap:round; stroke-linejoin:round;">
<text x="128.7636" y="108.5851" textLength="4.0736" font-size="1.6933" lengthAdjust="spacingAndGlyphs" text-anchor="middle" opacity="0" stroke-opacity="0">SW2</text>
<g class="stroked-text"><desc>SW2</desc>
<path d="M127.0703 108.4692 L127.2517 108.5296 "/>
<path d="M127.2517 108.5296 L127.5541 108.5296 "/>
<path d="M127.5541 108.5296 L127.6750 108.4692 "/>
<path d="M127.6750 108.4692 L127.7355 108.4087 "/>
<path d="M127.7355 108.4087 L127.7960 108.2877 "/>
<path d="M127.7960 108.2877 L127.7960 108.1668 "/>
<path d="M127.7960 108.1668 L127.7355 108.0458 "/>
<path d="M127.7355 108.0458 L127.6750 107.9853 "/>
<path d="M127.6750 107.9853 L127.5541 107.9249 "/>
<path d="M127.5541 107.9249 L127.3122 107.8644 "/>
<path d="M127.3122 107.8644 L127.1912 107.8039 "/>
<path d="M127.1912 107.8039 L127.1307 107.7434 "/>
<path d="M127.1307 107.7434 L127.0703 107.6225 "/>
<path d="M127.0703 107.6225 L127.0703 107.5015 "/>
<path d="M127.0703 107.5015 L127.1307 107.3806 "/>
<path d="M127.1307 107.3806 L127.1912 107.3201 "/>
<path d="M127.1912 107.3201 L127.3122 107.2596 "/>
<path d="M127.3122 107.2596 L127.6145 107.2596 "/>
<path d="M127.6145 107.2596 L127.7960 107.3201 "/>
<path d="M128.2193 107.2596 L128.5217 108.5296 "/>
<path d="M128.5217 108.5296 L128.7636 107.6225 "/>
<path d="M128.7636 107.6225 L129.0055 108.5296 "/>
<path d="M129.0055 108.5296 L129.3079 107.2596 "/>
<path d="M129.7312 107.3806 L129.7916 107.3201 "/>
<path d="M129.7916 107.3201 L129.9126 107.2596 "/>
<path d="M129.9126 107.2596 L130.2150 107.2596 "/>
<path d="M130.2150 107.2596 L130.3359 107.3201 "/>
<path d="M130.3359 107.3201 L130.3964 107.3806 "/>
<path d="M130.3964 107.3806 L130.4569 107.5015 "/>
<path d="M130.4569 107.5015 L130.4569 107.6225 "/>
<path d="M130.4569 107.6225 L130.3964 107.8039 "/>
<path d="M130.3964 107.8039 L129.6707 108.5296 "/>
<path d="M129.6707 108.5296 L130.4569 108.5296 "/>
</g><text x="126.5865" y="106.0451" textLength="8.4278" font-size="1.6933" lengthAdjust="spacingAndGlyphs" text-anchor="middle" opacity="0" stroke-opacity="0">SW_Push</text>
<g class="stroked-text"><desc>SW_Push</desc>
<path d="M122.7161 105.9292 L122.8975 105.9896 "/>
<path d="M122.8975 105.9896 L123.1999 105.9896 "/>
<path d="M123.1999 105.9896 L123.3208 105.9292 "/>
<path d="M123.3208 105.9292 L123.3813 105.8687 "/>
<path d="M123.3813 105.8687 L123.4418 105.7477 "/>
<path d="M123.4418 105.7477 L123.4418 105.6268 "/>
<path d="M123.4418 105.6268 L123.3813 105.5058 "/>
<path d="M123.3813 105.5058 L123.3208 105.4453 "/>
<path d="M123.3208 105.4453 L123.1999 105.3849 "/>
<path d="M123.1999 105.3849 L122.9580 105.3244 "/>
<path d="M122.9580 105.3244 L122.8370 105.2639 "/>
<path d="M122.8370 105.2639 L122.7765 105.2034 "/>
<path d="M122.7765 105.2034 L122.7161 105.0825 "/>
<path d="M122.7161 105.0825 L122.7161 104.9615 "/>
<path d="M122.7161 104.9615 L122.7765 104.8406 "/>
<path d="M122.7765 104.8406 L122.8370 104.7801 "/>
<path d="M122.8370 104.7801 L122.9580 104.7196 "/>
<path d="M122.9580 104.7196 L123.2603 104.7196 "/>
<path d="M123.2603 104.7196 L123.4418 104.7801 "/>
<path d="M123.8651 104.7196 L124.1675 105.9896 "/>
<path d="M124.1675 105.9896 L124.4094 105.0825 "/>
<path d="M124.4094 105.0825 L124.6513 105.9896 "/>
<path d="M124.6513 105.9896 L124.9537 104.7196 "/>
<path d="M125.1351 106.1106 L126.1027 106.1106 "/>
<path d="M126.4050 105.9896 L126.4050 104.7196 "/>
<path d="M126.4050 104.7196 L126.8888 104.7196 "/>
<path d="M126.8888 104.7196 L127.0098 104.7801 "/>
<path d="M127.0098 104.7801 L127.0703 104.8406 "/>
<path d="M127.0703 104.8406 L127.1307 104.9615 "/>
<path d="M127.1307 104.9615 L127.1307 105.1430 "/>
<path d="M127.1307 105.1430 L127.0703 105.2639 "/>
<path d="M127.0703 105.2639 L127.0098 105.3244 "/>
<path d="M127.0098 105.3244 L126.8888 105.3849 "/>
<path d="M126.8888 105.3849 L126.4050 105.3849 "/>
<path d="M128.2193 105.1430 L128.2193 105.9896 "/>
<path d="M127.6750 105.1430 L127.6750 105.8082 "/>
<path d="M127.6750 105.8082 L127.7355 105.9292 "/>
<path d="M127.7355 105.9292 L127.8565 105.9896 "/>
<path d="M127.8565 105.9896 L128.0379 105.9896 "/>
<path d="M128.0379 105.9896 L128.1588 105.9292 "/>
<path d="M128.1588 105.9292 L128.2193 105.8687 "/>
<path d="M128.7636 105.9292 L128.8845 105.9896 "/>
<path d="M128.8845 105.9896 L129.1264 105.9896 "/>
<path d="M129.1264 105.9896 L129.2474 105.9292 "/>
<path d="M129.2474 105.9292 L129.3078 105.8082 "/>
<path d="M129.3078 105.8082 L129.3078 105.7477 "/>
<path d="M129.3078 105.7477 L129.2474 105.6268 "/>
<path d="M129.2474 105.6268 L129.1264 105.5663 "/>
<path d="M129.1264 105.5663 L128.9450 105.5663 "/>
<path d="M128.9450 105.5663 L128.8240 105.5058 "/>
<path d="M128.8240 105.5058 L128.7636 105.3849 "/>
<path d="M128.7636 105.3849 L128.7636 105.3244 "/>
<path d="M128.7636 105.3244 L128.8240 105.2034 "/>
<path d="M128.8240 105.2034 L128.9450 105.1430 "/>
<path d="M128.9450 105.1430 L129.1264 105.1430 "/>
<path d="M129.1264 105.1430 L129.2474 105.2034 "/>
<path d="M129.8521 105.9896 L129.8521 104.7196 "/>
<path d="M130.3964 105.9896 L130.3964 105.3244 "/>
<path d="M130.3964 105.3244 L130.3359 105.2034 "/>
<path d="M130.3359 105.2034 L130.2150 105.1430 "/>
<path d="M130.2150 105.1430 L130.0336 105.1430 "/>
<path d="M130.0336 105.1430 L129.9126 105.2034 "/>
<path d="M129.9126 105.2034 L129.8521 105.2639 "/>
</g></g>
<g style="fill:none;  stroke:#725600; stroke-width:0.1524; stroke-opacity:1;  stroke-linecap:round; stroke-linejoin:round;">
<text x="228.9810" y="99.6950" textLength="4.0736" font-size="1.6933" lengthAdjust="spacingAndGlyphs" text-anchor="start" opacity="0" stroke-opacity="0">SW3</text>
<g class="stroked-text"><desc>SW3</desc>
<path d="M229.3231 99.5791 L229.5045 99.6395 "/>
<path d="M229.5045 99.6395 L229.8069 99.6395 "/>
<path d="M229.8069 99.6395 L229.9278 99.5791 "/>
<path d="M229.9278 99.5791 L229.9883 99.5186 "/>
<path d="M229.9883 99.5186 L230.0488 99.3976 "/>
<path d="M230.0488 99.3976 L230.0488 99.2767 "/>
<path d="M230.0488 99.2767 L229.9883 99.1557 "/>
<path d="M229.9883 99.1557 L229.9278 99.0952 "/>
<path d="M229.9278 99.0952 L229.8069 99.0348 "/>
<path d="M229.8069 99.0348 L229.5650 98.9743 "/>
<path d="M229.5650 98.9743 L229.4440 98.9138 "/>
<path d="M229.4440 98.9138 L229.3835 98.8533 "/>
<path d="M229.3835 98.8533 L229.3231 98.7324 "/>
<path d="M229.3231 98.7324 L229.3231 98.6114 "/>
<path d="M229.3231 98.6114 L229.3835 98.4905 "/>
<path d="M229.3835 98.4905 L229.4440 98.4300 "/>
<path d="M229.4440 98.4300 L229.5650 98.3695 "/>
<path d="M229.5650 98.3695 L229.8673 98.3695 "/>
<path d="M229.8673 98.3695 L230.0488 98.4300 "/>
<path d="M230.4721 98.3695 L230.7745 99.6395 "/>
<path d="M230.7745 99.6395 L231.0164 98.7324 "/>
<path d="M231.0164 98.7324 L231.2583 99.6395 "/>
<path d="M231.2583 99.6395 L231.5607 98.3695 "/>
<path d="M231.9235 98.3695 L232.7097 98.3695 "/>
<path d="M232.7097 98.3695 L232.2863 98.8533 "/>
<path d="M232.2863 98.8533 L232.4678 98.8533 "/>
<path d="M232.4678 98.8533 L232.5887 98.9138 "/>
<path d="M232.5887 98.9138 L232.6492 98.9743 "/>
<path d="M232.6492 98.9743 L232.7097 99.0952 "/>
<path d="M232.7097 99.0952 L232.7097 99.3976 "/>
<path d="M232.7097 99.3976 L232.6492 99.5186 "/>
<path d="M232.6492 99.5186 L232.5887 99.5791 "/>
<path d="M232.5887 99.5791 L232.4678 99.6395 "/>
<path d="M232.4678 99.6395 L232.1049 99.6395 "/>
<path d="M232.1049 99.6395 L231.9840 99.5791 "/>
<path d="M231.9840 99.5791 L231.9235 99.5186 "/>
</g><path style="fill:none;  stroke:#725600; stroke-width:0.1524; stroke-opacity:1;  stroke-linecap:round; stroke-linejoin:round;fill:none" d="M 228.6000,99.0600 227.9650,98.4250 227.3300,98.4250 227.3300,99.6950 227.9650,99.6950 Z"/> 
</g>
<g style="fill:none;  stroke:#725600; stroke-width:0.1524; stroke-opacity:1;  stroke-linecap:round; stroke-linejoin:round;">
<text x="165.4810" y="99.6950" textLength="4.0736" font-size="1.6933" lengthAdjust="spacingAndGlyphs" text-anchor="start" opacity="0" stroke-opacity="0">SW2</text>
<g class="stroked-text"><desc>SW2</desc>
<path d="M165.8231 99.5791 L166.0045 99.6395 "/>
<path d="M166.0045 99.6395 L166.3069 99.6395 "/>
<path d="M166.3069 99.6395 L166.4278 99.5791 "/>
<path d="M166.4278 99.5791 L166.4883 99.5186 "/>
<path d="M166.4883 99.5186 L166.5488 99.3976 "/>
<path d="M166.5488 99.3976 L166.5488 99.2767 "/>
<path d="M166.5488 99.2767 L166.4883 99.1557 "/>
<path d="M166.4883 99.1557 L166.4278 99.0952 "/>
<path d="M166.4278 99.0952 L166.3069 99.0348 "/>
<path d="M166.3069 99.0348 L166.0650 98.9743 "/>
<path d="M166.0650 98.9743 L165.9440 98.9138 "/>
<path d="M165.9440 98.9138 L165.8835 98.8533 "/>
<path d="M165.8835 98.8533 L165.8231 98.7324 "/>
<path d="M165.8231 98.7324 L165.8231 98.6114 "/>
<path d="M165.8231 98.6114 L165.8835 98.4905 "/>
<path d="M165.8835 98.4905 L165.9440 98.4300 "/>
<path d="M165.9440 98.4300 L166.0650 98.3695 "/>
<path d="M166.0650 98.3695 L166.3673 98.3695 "/>
<path d="M166.3673 98.3695 L166.5488 98.4300 "/>
<path d="M166.9721 98.3695 L167.2745 99.6395 "/>
<path d="M167.2745 99.6395 L167.5164 98.7324 "/>
<path d="M167.5164 98.7324 L167.7583 99.6395 "/>
<path d="M167.7583 99.6395 L168.0607 98.3695 "/>
<path d="M168.4840 98.4905 L168.5444 98.4300 "/>
<path d="M168.5444 98.4300 L168.6654 98.3695 "/>
<path d="M168.6654 98.3695 L168.9678 98.3695 "/>
<path d="M168.9678 98.3695 L169.0887 98.4300 "/>
<path d="M169.0887 98.4300 L169.1492 98.4905 "/>
<path d="M169.1492 98.4905 L169.2097 98.6114 "/>
<path d="M169.2097 98.6114 L169.2097 98.7324 "/>
<path d="M169.2097 98.7324 L169.1492 98.9138 "/>
<path d="M169.1492 98.9138 L168.4235 99.6395 "/>
<path d="M168.4235 99.6395 L169.2097 99.6395 "/>
</g><path style="fill:none;  stroke:#725600; stroke-width:0.1524; stroke-opacity:1;  stroke-linecap:round; stroke-linejoin:round;fill:none" d="M 165.1000,99.0600 164.4650,98.4250 163.8300,98.4250 163.8300,99.6950 164.4650,99.6950 Z"/> 
</g>
<g style="fill:none;  stroke:#725600; stroke-width:0.1524; stroke-opacity:1;  stroke-linecap:round; stroke-linejoin:round;">
<text x="98.1710" y="99.6950" textLength="4.0736" font-size="1.6933" lengthAdjust="spacingAndGlyphs" text-anchor="start" opacity="0" stroke-opacity="0">SW1</text>
<g class="stroked-text"><desc>SW1</desc>
<path d="M98.5131 99.5791 L98.6945 99.6395 "/>
<path d="M98.6945 99.6395 L98.9969 99.6395 "/>
<path d="M98.9969 99.6395 L99.1178 99.5791 "/>
<path d="M99.1178 99.5791 L99.1783 99.5186 "/>
<path d="M99.1783 99.5186 L99.2388 99.3976 "/>
<path d="M99.2388 99.3976 L99.2388 99.2767 "/>
<path d="M99.2388 99.2767 L99.1783 99.1557 "/>
<path d="M99.1783 99.1557 L99.1178 99.0952 "/>
<path d="M99.1178 99.0952 L98.9969 99.0348 "/>
<path d="M98.9969 99.0348 L98.7550 98.9743 "/>
<path d="M98.7550 98.9743 L98.6340 98.9138 "/>
<path d="M98.6340 98.9138 L98.5735 98.8533 "/>
<path d="M98.5735 98.8533 L98.5131 98.7324 "/>
<path d="M98.5131 98.7324 L98.5131 98.6114 "/>
<path d="M98.5131 98.6114 L98.5735 98.4905 "/>
<path d="M98.5735 98.4905 L98.6340 98.4300 "/>
<path d="M98.6340 98.4300 L98.7550 98.3695 "/>
<path d="M98.7550 98.3695 L99.0573 98.3695 "/>
<path d="M99.0573 98.3695 L99.2388 98.4300 "/>
<path d="M99.6621 98.3695 L99.9645 99.6395 "/>
<path d="M99.9645 99.6395 L100.2064 98.7324 "/>
<path d="M100.2064 98.7324 L100.4483 99.6395 "/>
<path d="M100.4483 99.6395 L100.7507 98.3695 "/>
<path d="M101.8997 99.6395 L101.1740 99.6395 "/>
<path d="M101.5368 99.6395 L101.5368 98.3695 "/>
<path d="M101.5368 98.3695 L101.4159 98.5510 "/>
<path d="M101.4159 98.5510 L101.2949 98.6719 "/>
<path d="M101.2949 98.6719 L101.1740 98.7324 "/>
</g><path style="fill:none;  stroke:#725600; stroke-width:0.1524; stroke-opacity:1;  stroke-linecap:round; stroke-linejoin:round;fill:none" d="M 97.7900,99.0600 97.1550,98.4250 96.5200,98.4250 96.5200,99.6950 97.1550,99.6950 Z"/> 
</g>
<g style="fill:none;  stroke:#009600; stroke-width:0.1524; stroke-opacity:1;  stroke-linecap:round; stroke-linejoin:round;">
<path d="M85.0900 110.4900 L85.0900 116.8400 "/>
<path d="M80.0100 99.0600 L85.0900 99.0600 "/>
<path d="M64.7700 111.7600 L64.7700 116.8400 "/>
<path d="M152.4000 99.0600 L152.4000 102.8700 "/>
<path d="M152.4000 110.4900 L152.4000 116.8400 "/>
<path d="M152.4000 99.0600 L163.8300 99.0600 "/>
<path d="M64.7700 99.0600 L64.7700 101.6000 "/>
<path d="M64.7700 99.0600 L72.3900 99.0600 "/>
<path d="M64.7700 76.2000 L64.7700 86.3600 "/>
<path d="M64.7700 93.9800 L64.7700 99.0600 "/>
<path d="M147.3200 99.0600 L152.4000 99.0600 "/>
<path d="M195.5800 93.9800 L195.5800 99.0600 "/>
<path d="M195.5800 99.0600 L203.2000 99.0600 "/>
<path d="M85.0900 99.0600 L85.0900 102.8700 "/>
<path d="M195.5800 76.2000 L195.5800 86.3600 "/>
<path d="M195.5800 111.7600 L195.5800 116.8400 "/>
<path d="M195.5800 99.0600 L195.5800 101.6000 "/>
<path d="M132.0800 99.0600 L139.7000 99.0600 "/>
<path d="M215.9000 99.0600 L227.3300 99.0600 "/>
<path d="M215.9000 99.0600 L215.9000 102.8700 "/>
<path d="M85.0900 99.0600 L96.5200 99.0600 "/>
<path d="M132.0800 93.9800 L132.0800 99.0600 "/>
<path d="M215.9000 110.4900 L215.9000 116.8400 "/>
<path d="M132.0800 99.0600 L132.0800 101.6000 "/>
<path d="M132.0800 111.7600 L132.0800 116.8400 "/>
<path d="M210.8200 99.0600 L215.9000 99.0600 "/>
<path d="M132.0800 76.2000 L132.0800 86.3600 "/>
</g>
<g style="fill:#009600; fill-opacity:1.0000;  stroke:#009600; stroke-width:0.1524; stroke-opacity:1;  stroke-linecap:round; stroke-linejoin:round;">
<circle cx="152.4000" cy="99.0600" r="0.4572"/> 
<circle cx="195.5800" cy="99.0600" r="0.4572"/> 
<circle cx="215.9000" cy="99.0600" r="0.4572"/> 
<circle cx="64.7700" cy="99.0600" r="0.4572"/> 
<circle cx="85.0900" cy="99.0600" r="0.4572"/> 
<circle cx="132.0800" cy="99.0600" r="0.4572"/> 
</g> 
</svg>