<svg xmlns:svg="http://www.w3.org/2000/svg" xmlns="http://www.w3.org/2000/svg" xmlns:xlink="http://www.w3.org/1999/xlink" version="1.1" viewBox="71.47 52.39 108.4 83">
<title>SVG Image created as protosync-clock.svg date 2026/05/15 15:54:40 </title>
  <desc>Image generated by Eeschema-SVG </desc>
<g style="fill:#000000; fill-opacity:1.0000;stroke:#000000; stroke-opacity:1.0000; stroke-linecap:round; stroke-linejoin:round;" transform="translate(0 0) scale(1 1)">
<path style="fill:none;  stroke:#840000; stroke-width:0.5080; stroke-opacity:1;  stroke-linecap:round; stroke-linejoin:round;fill:none" d="M 94.7420,93.2180 90.6780,93.2180 "/> 
<path style="fill:none;  stroke:#840000; stroke-width:0.5080; stroke-opacity:1;  stroke-linecap:round; stroke-linejoin:round;fill:none" d="M 94.7420,94.7420 90.6780,94.7420 "/> 
</g>
<g style="fill:none;  stroke:#840000; stroke-width:0.1524; stroke-opacity:1;  stroke-linecap:round; stroke-linejoin:round;">
<path d="M92.7100 92.9640 L92.7100 90.1700 "/>
<path d="M92.7100 94.9960 L92.7100 97.7900 "/>
</g>
<g style="fill:none;  stroke:#006464; stroke-width:0.1524; stroke-opacity:1;  stroke-linecap:round; stroke-linejoin:round;">
<text x="87.5490" y="93.3449" textLength="2.6827" font-size="1.6933" lengthAdjust="spacingAndGlyphs" text-anchor="middle" opacity="0" stroke-opacity="0">C4</text>
<g class="stroked-text"><desc>C4</desc>
<path d="M87.3373 93.1685 L87.2769 93.2290 "/>
<path d="M87.2769 93.2290 L87.0954 93.2894 "/>
<path d="M87.0954 93.2894 L86.9745 93.2894 "/>
<path d="M86.9745 93.2894 L86.7931 93.2290 "/>
<path d="M86.7931 93.2290 L86.6721 93.1080 "/>
<path d="M86.6721 93.1080 L86.6116 92.9870 "/>
<path d="M86.6116 92.9870 L86.5512 92.7451 "/>
<path d="M86.5512 92.7451 L86.5512 92.5637 "/>
<path d="M86.5512 92.5637 L86.6116 92.3218 "/>
<path d="M86.6116 92.3218 L86.6721 92.2009 "/>
<path d="M86.6721 92.2009 L86.7931 92.0799 "/>
<path d="M86.7931 92.0799 L86.9745 92.0194 "/>
<path d="M86.9745 92.0194 L87.0954 92.0194 "/>
<path d="M87.0954 92.0194 L87.2769 92.0799 "/>
<path d="M87.2769 92.0799 L87.3373 92.1404 "/>
<path d="M88.4259 92.4428 L88.4259 93.2894 "/>
<path d="M88.1235 91.9590 L87.8212 92.8661 "/>
<path d="M87.8212 92.8661 L88.6073 92.8661 "/>
</g><text x="86.7024" y="95.8849" textLength="4.3760" font-size="1.6933" lengthAdjust="spacingAndGlyphs" text-anchor="middle" opacity="0" stroke-opacity="0">0.1u</text>
<g class="stroked-text"><desc>0.1u</desc>
<path d="M85.1602 94.5594 L85.2812 94.5594 "/>
<path d="M85.2812 94.5594 L85.4021 94.6199 "/>
<path d="M85.4021 94.6199 L85.4626 94.6804 "/>
<path d="M85.4626 94.6804 L85.5231 94.8013 "/>
<path d="M85.5231 94.8013 L85.5836 95.0432 "/>
<path d="M85.5836 95.0432 L85.5836 95.3456 "/>
<path d="M85.5836 95.3456 L85.5231 95.5875 "/>
<path d="M85.5231 95.5875 L85.4626 95.7085 "/>
<path d="M85.4626 95.7085 L85.4021 95.7690 "/>
<path d="M85.4021 95.7690 L85.2812 95.8294 "/>
<path d="M85.2812 95.8294 L85.1602 95.8294 "/>
<path d="M85.1602 95.8294 L85.0393 95.7690 "/>
<path d="M85.0393 95.7690 L84.9788 95.7085 "/>
<path d="M84.9788 95.7085 L84.9183 95.5875 "/>
<path d="M84.9183 95.5875 L84.8579 95.3456 "/>
<path d="M84.8579 95.3456 L84.8579 95.0432 "/>
<path d="M84.8579 95.0432 L84.9183 94.8013 "/>
<path d="M84.9183 94.8013 L84.9788 94.6804 "/>
<path d="M84.9788 94.6804 L85.0393 94.6199 "/>
<path d="M85.0393 94.6199 L85.1602 94.5594 "/>
<path d="M86.1278 95.7085 L86.1883 95.7690 "/>
<path d="M86.1883 95.7690 L86.1278 95.8294 "/>
<path d="M86.1278 95.8294 L86.0674 95.7690 "/>
<path d="M86.0674 95.7690 L86.1278 95.7085 "/>
<path d="M86.1278 95.7085 L86.1278 95.8294 "/>
<path d="M87.3979 95.8294 L86.6722 95.8294 "/>
<path d="M87.0350 95.8294 L87.0350 94.5594 "/>
<path d="M87.0350 94.5594 L86.9141 94.7409 "/>
<path d="M86.9141 94.7409 L86.7931 94.8618 "/>
<path d="M86.7931 94.8618 L86.6722 94.9223 "/>
<path d="M88.4864 94.9828 L88.4864 95.8294 "/>
<path d="M87.9421 94.9828 L87.9421 95.6480 "/>
<path d="M87.9421 95.6480 L88.0026 95.7690 "/>
<path d="M88.0026 95.7690 L88.1236 95.8294 "/>
<path d="M88.1236 95.8294 L88.3050 95.8294 "/>
<path d="M88.3050 95.8294 L88.4259 95.7690 "/>
<path d="M88.4259 95.7690 L88.4864 95.7085 "/>
</g><path style="fill:none;  stroke:#840000; stroke-width:0.1524; stroke-opacity:1;  stroke-linecap:round; stroke-linejoin:round;fill:none" d="M 93.4720,86.3600 92.7100,85.0900 "/> 
<path style="fill:none;  stroke:#840000; stroke-width:0.1524; stroke-opacity:1;  stroke-linecap:round; stroke-linejoin:round;fill:none" d="M 92.7100,85.0900 91.9480,86.3600 "/> 
<path style="fill:none;  stroke:#840000; stroke-width:0.1524; stroke-opacity:1;  stroke-linecap:round; stroke-linejoin:round;fill:none" d="M 92.7100,87.6300 92.7100,85.0900 "/> 
</g>
<g style="fill:none;  stroke:#840000; stroke-width:0.1524; stroke-opacity:1;  stroke-linecap:round; stroke-linejoin:round;">
<path d="M92.7100 87.6300 L92.7100 87.6300 "/>
</g>
<g style="fill:none;  stroke:#006464; stroke-width:0.1524; stroke-opacity:1;  stroke-linecap:round; stroke-linejoin:round;">
<text x="92.3416" y="83.9406" textLength="4.0737" font-size="1.6933" lengthAdjust="spacingAndGlyphs" text-anchor="middle" opacity="0" stroke-opacity="0">+5V</text>
<g class="stroked-text"><desc>+5V</desc>
<path d="M90.7087 83.4013 L91.6764 83.4013 "/>
<path d="M91.1925 83.8851 L91.1925 82.9175 "/>
<path d="M92.8859 82.6151 L92.2811 82.6151 "/>
<path d="M92.2811 82.6151 L92.2207 83.2199 "/>
<path d="M92.2207 83.2199 L92.2811 83.1594 "/>
<path d="M92.2811 83.1594 L92.4021 83.0989 "/>
<path d="M92.4021 83.0989 L92.7045 83.0989 "/>
<path d="M92.7045 83.0989 L92.8254 83.1594 "/>
<path d="M92.8254 83.1594 L92.8859 83.2199 "/>
<path d="M92.8859 83.2199 L92.9464 83.3408 "/>
<path d="M92.9464 83.3408 L92.9464 83.6432 "/>
<path d="M92.9464 83.6432 L92.8859 83.7642 "/>
<path d="M92.8859 83.7642 L92.8254 83.8247 "/>
<path d="M92.8254 83.8247 L92.7045 83.8851 "/>
<path d="M92.7045 83.8851 L92.4021 83.8851 "/>
<path d="M92.4021 83.8851 L92.2811 83.8247 "/>
<path d="M92.2811 83.8247 L92.2207 83.7642 "/>
<path d="M93.3092 82.6151 L93.7325 83.8851 "/>
<path d="M93.7325 83.8851 L94.1559 82.6151 "/>
</g><path style="fill:#FFFFC2; fill-opacity:1.0000; stroke:none;fill-rule:evenodd;" d="M 143.5100,60.9600 143.5100,68.5800 151.1300,64.7700 Z"/> 
<path style="fill:none;  stroke:#840000; stroke-width:0.2540; stroke-opacity:1;  stroke-linecap:round; stroke-linejoin:round;fill:none" d="M 143.5100,60.9600 143.5100,68.5800 151.1300,64.7700 Z"/> 
<path style="fill:none;  stroke:#840000; stroke-width:0.1524; stroke-opacity:1;  stroke-linecap:round; stroke-linejoin:round;fill:none" d="M 144.7800,66.0400 146.6850,66.0400 146.6850,63.5000 147.3200,63.5000 "/> 
<path style="fill:none;  stroke:#840000; stroke-width:0.1524; stroke-opacity:1;  stroke-linecap:round; stroke-linejoin:round;fill:none" d="M 145.4150,66.0400 145.4150,63.5000 146.6850,63.5000 "/> 
</g>
<g style="fill:none;  stroke:#840000; stroke-width:0.1524; stroke-opacity:1;  stroke-linecap:round; stroke-linejoin:round;">
<path d="M143.5100 64.7700 L138.4300 64.7700 "/>
</g>
<g style="fill:none;  stroke:#A90000; stroke-width:0.1524; stroke-opacity:1;  stroke-linecap:round; stroke-linejoin:round;">
<text x="140.9700" y="64.5160" textLength="1.4127" font-size="1.6933" lengthAdjust="spacingAndGlyphs" text-anchor="middle" opacity="0" stroke-opacity="0">1</text>
<g class="stroked-text"><desc>1</desc>
<path d="M141.3329 64.3525 L140.6072 64.3525 "/>
<path d="M140.9700 64.3525 L140.9700 63.0825 "/>
<path d="M140.9700 63.0825 L140.8491 63.2640 "/>
<path d="M140.8491 63.2640 L140.7281 63.3849 "/>
<path d="M140.7281 63.3849 L140.6072 63.4454 "/>
</g></g>
<g style="fill:none;  stroke:#840000; stroke-width:0.1524; stroke-opacity:1;  stroke-linecap:round; stroke-linejoin:round;">
<path d="M151.1300 64.7700 L156.2100 64.7700 "/>
</g>
<g style="fill:none;  stroke:#A90000; stroke-width:0.1524; stroke-opacity:1;  stroke-linecap:round; stroke-linejoin:round;">
<text x="153.6700" y="64.5160" textLength="1.4127" font-size="1.6933" lengthAdjust="spacingAndGlyphs" text-anchor="middle" opacity="0" stroke-opacity="0">7</text>
<g class="stroked-text"><desc>7</desc>
<path d="M153.2467 63.0825 L154.0933 63.0825 "/>
<path d="M154.0933 63.0825 L153.5491 64.3525 "/>
</g></g>
<g style="fill:none;  stroke:#006464; stroke-width:0.1524; stroke-opacity:1;  stroke-linecap:round; stroke-linejoin:round;">
<text x="145.7076" y="56.7317" textLength="4.3761" font-size="1.6933" lengthAdjust="spacingAndGlyphs" text-anchor="middle" opacity="0" stroke-opacity="0">IC2A</text>
<g class="stroked-text"><desc>IC2A</desc>
<path d="M143.9235 56.6762 L143.9235 55.4062 "/>
<path d="M145.2540 56.5553 L145.1936 56.6158 "/>
<path d="M145.1936 56.6158 L145.0121 56.6762 "/>
<path d="M145.0121 56.6762 L144.8912 56.6762 "/>
<path d="M144.8912 56.6762 L144.7098 56.6158 "/>
<path d="M144.7098 56.6158 L144.5888 56.4948 "/>
<path d="M144.5888 56.4948 L144.5283 56.3738 "/>
<path d="M144.5283 56.3738 L144.4679 56.1319 "/>
<path d="M144.4679 56.1319 L144.4679 55.9505 "/>
<path d="M144.4679 55.9505 L144.5283 55.7086 "/>
<path d="M144.5283 55.7086 L144.5888 55.5877 "/>
<path d="M144.5888 55.5877 L144.7098 55.4667 "/>
<path d="M144.7098 55.4667 L144.8912 55.4062 "/>
<path d="M144.8912 55.4062 L145.0121 55.4062 "/>
<path d="M145.0121 55.4062 L145.1936 55.4667 "/>
<path d="M145.1936 55.4667 L145.2540 55.5272 "/>
<path d="M145.7379 55.5272 L145.7983 55.4667 "/>
<path d="M145.7983 55.4667 L145.9193 55.4062 "/>
<path d="M145.9193 55.4062 L146.2217 55.4062 "/>
<path d="M146.2217 55.4062 L146.3426 55.4667 "/>
<path d="M146.3426 55.4667 L146.4031 55.5272 "/>
<path d="M146.4031 55.5272 L146.4636 55.6481 "/>
<path d="M146.4636 55.6481 L146.4636 55.7691 "/>
<path d="M146.4636 55.7691 L146.4031 55.9505 "/>
<path d="M146.4031 55.9505 L145.6774 56.6762 "/>
<path d="M145.6774 56.6762 L146.4636 56.6762 "/>
<path d="M146.9474 56.3134 L147.5521 56.3134 "/>
<path d="M146.8264 56.6762 L147.2497 55.4062 "/>
<path d="M147.2497 55.4062 L147.6731 56.6762 "/>
</g><text x="150.2433" y="59.0177" textLength="13.4474" font-size="1.6933" lengthAdjust="spacingAndGlyphs" text-anchor="middle" opacity="0" stroke-opacity="0">SN74LVC3G17</text>
<g class="stroked-text"><desc>SN74LVC3G17</desc>
<path d="M143.8631 58.9018 L144.0445 58.9622 "/>
<path d="M144.0445 58.9622 L144.3469 58.9622 "/>
<path d="M144.3469 58.9622 L144.4678 58.9018 "/>
<path d="M144.4678 58.9018 L144.5283 58.8413 "/>
<path d="M144.5283 58.8413 L144.5888 58.7203 "/>
<path d="M144.5888 58.7203 L144.5888 58.5994 "/>
<path d="M144.5888 58.5994 L144.5283 58.4784 "/>
<path d="M144.5283 58.4784 L144.4678 58.4179 "/>
<path d="M144.4678 58.4179 L144.3469 58.3575 "/>
<path d="M144.3469 58.3575 L144.1050 58.2970 "/>
<path d="M144.1050 58.2970 L143.9840 58.2365 "/>
<path d="M143.9840 58.2365 L143.9235 58.1760 "/>
<path d="M143.9235 58.1760 L143.8631 58.0551 "/>
<path d="M143.8631 58.0551 L143.8631 57.9341 "/>
<path d="M143.8631 57.9341 L143.9235 57.8132 "/>
<path d="M143.9235 57.8132 L143.9840 57.7527 "/>
<path d="M143.9840 57.7527 L144.1050 57.6922 "/>
<path d="M144.1050 57.6922 L144.4073 57.6922 "/>
<path d="M144.4073 57.6922 L144.5888 57.7527 "/>
<path d="M145.1330 58.9622 L145.1330 57.6922 "/>
<path d="M145.1330 57.6922 L145.8587 58.9622 "/>
<path d="M145.8587 58.9622 L145.8587 57.6922 "/>
<path d="M146.3426 57.6922 L147.1892 57.6922 "/>
<path d="M147.1892 57.6922 L146.6450 58.9622 "/>
<path d="M148.2173 58.1156 L148.2173 58.9622 "/>
<path d="M147.9149 57.6318 L147.6126 58.5389 "/>
<path d="M147.6126 58.5389 L148.3987 58.5389 "/>
<path d="M149.4873 58.9622 L148.8825 58.9622 "/>
<path d="M148.8825 58.9622 L148.8825 57.6922 "/>
<path d="M149.7292 57.6922 L150.1525 58.9622 "/>
<path d="M150.1525 58.9622 L150.5759 57.6922 "/>
<path d="M151.7249 58.8413 L151.6645 58.9018 "/>
<path d="M151.6645 58.9018 L151.4830 58.9622 "/>
<path d="M151.4830 58.9622 L151.3621 58.9622 "/>
<path d="M151.3621 58.9622 L151.1807 58.9018 "/>
<path d="M151.1807 58.9018 L151.0597 58.7808 "/>
<path d="M151.0597 58.7808 L150.9992 58.6598 "/>
<path d="M150.9992 58.6598 L150.9388 58.4179 "/>
<path d="M150.9388 58.4179 L150.9388 58.2365 "/>
<path d="M150.9388 58.2365 L150.9992 57.9946 "/>
<path d="M150.9992 57.9946 L151.0597 57.8737 "/>
<path d="M151.0597 57.8737 L151.1807 57.7527 "/>
<path d="M151.1807 57.7527 L151.3621 57.6922 "/>
<path d="M151.3621 57.6922 L151.4830 57.6922 "/>
<path d="M151.4830 57.6922 L151.6645 57.7527 "/>
<path d="M151.6645 57.7527 L151.7249 57.8132 "/>
<path d="M152.1483 57.6922 L152.9345 57.6922 "/>
<path d="M152.9345 57.6922 L152.5111 58.1760 "/>
<path d="M152.5111 58.1760 L152.6926 58.1760 "/>
<path d="M152.6926 58.1760 L152.8135 58.2365 "/>
<path d="M152.8135 58.2365 L152.8740 58.2970 "/>
<path d="M152.8740 58.2970 L152.9345 58.4179 "/>
<path d="M152.9345 58.4179 L152.9345 58.7203 "/>
<path d="M152.9345 58.7203 L152.8740 58.8413 "/>
<path d="M152.8740 58.8413 L152.8135 58.9018 "/>
<path d="M152.8135 58.9018 L152.6926 58.9622 "/>
<path d="M152.6926 58.9622 L152.3297 58.9622 "/>
<path d="M152.3297 58.9622 L152.2088 58.9018 "/>
<path d="M152.2088 58.9018 L152.1483 58.8413 "/>
<path d="M154.1440 57.7527 L154.0230 57.6922 "/>
<path d="M154.0230 57.6922 L153.8416 57.6922 "/>
<path d="M153.8416 57.6922 L153.6602 57.7527 "/>
<path d="M153.6602 57.7527 L153.5392 57.8737 "/>
<path d="M153.5392 57.8737 L153.4787 57.9946 "/>
<path d="M153.4787 57.9946 L153.4183 58.2365 "/>
<path d="M153.4183 58.2365 L153.4183 58.4179 "/>
<path d="M153.4183 58.4179 L153.4787 58.6598 "/>
<path d="M153.4787 58.6598 L153.5392 58.7808 "/>
<path d="M153.5392 58.7808 L153.6602 58.9018 "/>
<path d="M153.6602 58.9018 L153.8416 58.9622 "/>
<path d="M153.8416 58.9622 L153.9625 58.9622 "/>
<path d="M153.9625 58.9622 L154.1440 58.9018 "/>
<path d="M154.1440 58.9018 L154.2044 58.8413 "/>
<path d="M154.2044 58.8413 L154.2044 58.4179 "/>
<path d="M154.2044 58.4179 L153.9625 58.4179 "/>
<path d="M155.4140 58.9622 L154.6883 58.9622 "/>
<path d="M155.0511 58.9622 L155.0511 57.6922 "/>
<path d="M155.0511 57.6922 L154.9302 57.8737 "/>
<path d="M154.9302 57.8737 L154.8092 57.9946 "/>
<path d="M154.8092 57.9946 L154.6883 58.0551 "/>
<path d="M155.8373 57.6922 L156.6839 57.6922 "/>
<path d="M156.6839 57.6922 L156.1397 58.9622 "/>
</g><path style="fill:none;  stroke:#840000; stroke-width:0.1524; stroke-opacity:1;  stroke-linecap:round; stroke-linejoin:round;fill:none" d="M 165.1000,99.0600 165.1000,100.3300 163.8300,100.3300 165.1000,101.6000 166.3700,100.3300 165.1000,100.3300 "/> 
</g>
<g style="fill:none;  stroke:#840000; stroke-width:0.1524; stroke-opacity:1;  stroke-linecap:round; stroke-linejoin:round;">
<path d="M165.1000 99.0600 L165.1000 99.0600 "/>
</g>
<g style="fill:none;  stroke:#006464; stroke-width:0.1524; stroke-opacity:1;  stroke-linecap:round; stroke-linejoin:round;">
<text x="165.0999" y="104.7750" textLength="4.0737" font-size="1.6933" lengthAdjust="spacingAndGlyphs" text-anchor="middle" opacity="0" stroke-opacity="0">GND</text>
<g class="stroked-text"><desc>GND</desc>
<path d="M164.1323 103.5100 L164.0113 103.4495 "/>
<path d="M164.0113 103.4495 L163.8299 103.4495 "/>
<path d="M163.8299 103.4495 L163.6485 103.5100 "/>
<path d="M163.6485 103.5100 L163.5275 103.6310 "/>
<path d="M163.5275 103.6310 L163.4670 103.7519 "/>
<path d="M163.4670 103.7519 L163.4066 103.9938 "/>
<path d="M163.4066 103.9938 L163.4066 104.1752 "/>
<path d="M163.4066 104.1752 L163.4670 104.4171 "/>
<path d="M163.4670 104.4171 L163.5275 104.5381 "/>
<path d="M163.5275 104.5381 L163.6485 104.6591 "/>
<path d="M163.6485 104.6591 L163.8299 104.7195 "/>
<path d="M163.8299 104.7195 L163.9508 104.7195 "/>
<path d="M163.9508 104.7195 L164.1323 104.6591 "/>
<path d="M164.1323 104.6591 L164.1927 104.5986 "/>
<path d="M164.1927 104.5986 L164.1927 104.1752 "/>
<path d="M164.1927 104.1752 L163.9508 104.1752 "/>
<path d="M164.7370 104.7195 L164.7370 103.4495 "/>
<path d="M164.7370 103.4495 L165.4627 104.7195 "/>
<path d="M165.4627 104.7195 L165.4627 103.4495 "/>
<path d="M166.0675 104.7195 L166.0675 103.4495 "/>
<path d="M166.0675 103.4495 L166.3699 103.4495 "/>
<path d="M166.3699 103.4495 L166.5513 103.5100 "/>
<path d="M166.5513 103.5100 L166.6723 103.6310 "/>
<path d="M166.6723 103.6310 L166.7328 103.7519 "/>
<path d="M166.7328 103.7519 L166.7932 103.9938 "/>
<path d="M166.7932 103.9938 L166.7932 104.1752 "/>
<path d="M166.7932 104.1752 L166.7328 104.4171 "/>
<path d="M166.7328 104.4171 L166.6723 104.5381 "/>
<path d="M166.6723 104.5381 L166.5513 104.6591 "/>
<path d="M166.5513 104.6591 L166.3699 104.7195 "/>
<path d="M166.3699 104.7195 L166.0675 104.7195 "/>
</g></g>
<g style="fill:#FFFFC2; fill-opacity:1.0000; stroke:none;">
<rect x="170.180000" y="87.630000" width="7.620000" height="8.890000" rx="0.000000"/>
</g>
<g style="fill:#840000; fill-opacity:1.0000;  stroke:#840000; stroke-width:0.2540; stroke-opacity:1;  stroke-linecap:round; stroke-linejoin:round;">
<rect x="177.800000" y="93.980000" width="1.270000" height="2.540000" rx="0.000000"/>
<path style="fill:none;  stroke:#840000; stroke-width:0.2540; stroke-opacity:1;  stroke-linecap:round; stroke-linejoin:round;fill:none" d="M 174.6250,93.9800 173.9900,94.6150 173.3550,93.9800 173.3550,91.4400 170.1800,91.4400 "/> 
<path style="fill:none;  stroke:#840000; stroke-width:0.2540; stroke-opacity:1;  stroke-linecap:round; stroke-linejoin:round;fill:none" d="M 172.7200,93.9800 172.0850,94.6150 171.4500,93.9800 170.1800,93.9800 "/> 
</g>
<g style="fill:none;  stroke:#840000; stroke-width:0.2540; stroke-opacity:1;  stroke-linecap:round; stroke-linejoin:round;">
<rect x="170.180000" y="87.630000" width="7.620000" height="8.890000" rx="0.000000"/>
<path style="fill:none;  stroke:#840000; stroke-width:0.2540; stroke-opacity:1;  stroke-linecap:round; stroke-linejoin:round;fill:none" d="M 170.1800,88.9000 175.2600,88.9000 175.2600,93.9800 175.8950,94.6150 176.5300,93.9800 "/> 
</g>
<g style="fill:none;  stroke:#840000; stroke-width:0.1524; stroke-opacity:1;  stroke-linecap:round; stroke-linejoin:round;">
<path d="M170.1800 88.9000 L167.6400 88.9000 "/>
</g>
<g style="fill:none;  stroke:#A90000; stroke-width:0.1524; stroke-opacity:1;  stroke-linecap:round; stroke-linejoin:round;">
<text x="168.9100" y="88.6460" textLength="1.4127" font-size="1.6933" lengthAdjust="spacingAndGlyphs" text-anchor="middle" opacity="0" stroke-opacity="0">1</text>
<g class="stroked-text"><desc>1</desc>
<path d="M169.2729 88.4825 L168.5472 88.4825 "/>
<path d="M168.9100 88.4825 L168.9100 87.2125 "/>
<path d="M168.9100 87.2125 L168.7891 87.3940 "/>
<path d="M168.7891 87.3940 L168.6681 87.5149 "/>
<path d="M168.6681 87.5149 L168.5472 87.5754 "/>
</g></g>
<g style="fill:none;  stroke:#840000; stroke-width:0.1524; stroke-opacity:1;  stroke-linecap:round; stroke-linejoin:round;">
<path d="M170.1800 91.4400 L167.6400 91.4400 "/>
</g>
<g style="fill:none;  stroke:#A90000; stroke-width:0.1524; stroke-opacity:1;  stroke-linecap:round; stroke-linejoin:round;">
<text x="168.9100" y="91.1860" textLength="1.4127" font-size="1.6933" lengthAdjust="spacingAndGlyphs" text-anchor="middle" opacity="0" stroke-opacity="0">3</text>
<g class="stroked-text"><desc>3</desc>
<path d="M168.4867 89.7525 L169.2729 89.7525 "/>
<path d="M169.2729 89.7525 L168.8495 90.2363 "/>
<path d="M168.8495 90.2363 L169.0310 90.2363 "/>
<path d="M169.0310 90.2363 L169.1519 90.2968 "/>
<path d="M169.1519 90.2968 L169.2124 90.3573 "/>
<path d="M169.2124 90.3573 L169.2729 90.4782 "/>
<path d="M169.2729 90.4782 L169.2729 90.7806 "/>
<path d="M169.2729 90.7806 L169.2124 90.9016 "/>
<path d="M169.2124 90.9016 L169.1519 90.9621 "/>
<path d="M169.1519 90.9621 L169.0310 91.0225 "/>
<path d="M169.0310 91.0225 L168.6681 91.0225 "/>
<path d="M168.6681 91.0225 L168.5472 90.9621 "/>
<path d="M168.5472 90.9621 L168.4867 90.9016 "/>
</g></g>
<g style="fill:none;  stroke:#840000; stroke-width:0.1524; stroke-opacity:1;  stroke-linecap:round; stroke-linejoin:round;">
<path d="M170.1800 93.9800 L167.6400 93.9800 "/>
</g>
<g style="fill:none;  stroke:#A90000; stroke-width:0.1524; stroke-opacity:1;  stroke-linecap:round; stroke-linejoin:round;">
<text x="168.9100" y="93.7260" textLength="1.4127" font-size="1.6933" lengthAdjust="spacingAndGlyphs" text-anchor="middle" opacity="0" stroke-opacity="0">2</text>
<g class="stroked-text"><desc>2</desc>
<path d="M168.5472 92.4135 L168.6076 92.3530 "/>
<path d="M168.6076 92.3530 L168.7286 92.2925 "/>
<path d="M168.7286 92.2925 L169.0310 92.2925 "/>
<path d="M169.0310 92.2925 L169.1519 92.3530 "/>
<path d="M169.1519 92.3530 L169.2124 92.4135 "/>
<path d="M169.2124 92.4135 L169.2729 92.5344 "/>
<path d="M169.2729 92.5344 L169.2729 92.6554 "/>
<path d="M169.2729 92.6554 L169.2124 92.8368 "/>
<path d="M169.2124 92.8368 L168.4867 93.5625 "/>
<path d="M168.4867 93.5625 L169.2729 93.5625 "/>
</g></g>
<g style="fill:none;  stroke:#006464; stroke-width:0.1524; stroke-opacity:1;  stroke-linecap:round; stroke-linejoin:round;">
<text x="174.6249" y="83.1850" textLength="2.3803" font-size="1.6933" lengthAdjust="spacingAndGlyphs" text-anchor="middle" opacity="0" stroke-opacity="0">J5</text>
<g class="stroked-text"><desc>J5</desc>
<path d="M174.2016 81.8595 L174.2016 82.7667 "/>
<path d="M174.2016 82.7667 L174.1411 82.9481 "/>
<path d="M174.1411 82.9481 L174.0202 83.0691 "/>
<path d="M174.0202 83.0691 L173.8387 83.1295 "/>
<path d="M173.8387 83.1295 L173.7178 83.1295 "/>
<path d="M175.4111 81.8595 L174.8063 81.8595 "/>
<path d="M174.8063 81.8595 L174.7459 82.4643 "/>
<path d="M174.7459 82.4643 L174.8063 82.4038 "/>
<path d="M174.8063 82.4038 L174.9273 82.3433 "/>
<path d="M174.9273 82.3433 L175.2297 82.3433 "/>
<path d="M175.2297 82.3433 L175.3506 82.4038 "/>
<path d="M175.3506 82.4038 L175.4111 82.4643 "/>
<path d="M175.4111 82.4643 L175.4716 82.5852 "/>
<path d="M175.4716 82.5852 L175.4716 82.8876 "/>
<path d="M175.4716 82.8876 L175.4111 83.0086 "/>
<path d="M175.4111 83.0086 L175.3506 83.0691 "/>
<path d="M175.3506 83.0691 L175.2297 83.1295 "/>
<path d="M175.2297 83.1295 L174.9273 83.1295 "/>
<path d="M174.9273 83.1295 L174.8063 83.0691 "/>
<path d="M174.8063 83.0691 L174.7459 83.0086 "/>
</g><text x="174.6250" y="85.7250" textLength="10.7864" font-size="1.6933" lengthAdjust="spacingAndGlyphs" text-anchor="middle" opacity="0" stroke-opacity="0">AudioJack3</text>
<g class="stroked-text"><desc>AudioJack3</desc>
<path d="M169.5753 85.3067 L170.1800 85.3067 "/>
<path d="M169.4543 85.6695 L169.8776 84.3995 "/>
<path d="M169.8776 84.3995 L170.3010 85.6695 "/>
<path d="M171.2686 84.8229 L171.2686 85.6695 "/>
<path d="M170.7243 84.8229 L170.7243 85.4881 "/>
<path d="M170.7243 85.4881 L170.7848 85.6091 "/>
<path d="M170.7848 85.6091 L170.9058 85.6695 "/>
<path d="M170.9058 85.6695 L171.0872 85.6695 "/>
<path d="M171.0872 85.6695 L171.2081 85.6091 "/>
<path d="M171.2081 85.6091 L171.2686 85.5486 "/>
<path d="M172.4176 85.6695 L172.4176 84.3995 "/>
<path d="M172.4176 85.6091 L172.2967 85.6695 "/>
<path d="M172.2967 85.6695 L172.0548 85.6695 "/>
<path d="M172.0548 85.6695 L171.9338 85.6091 "/>
<path d="M171.9338 85.6091 L171.8733 85.5486 "/>
<path d="M171.8733 85.5486 L171.8129 85.4276 "/>
<path d="M171.8129 85.4276 L171.8129 85.0648 "/>
<path d="M171.8129 85.0648 L171.8733 84.9438 "/>
<path d="M171.8733 84.9438 L171.9338 84.8833 "/>
<path d="M171.9338 84.8833 L172.0548 84.8229 "/>
<path d="M172.0548 84.8229 L172.2967 84.8229 "/>
<path d="M172.2967 84.8229 L172.4176 84.8833 "/>
<path d="M173.0223 85.6695 L173.0223 84.8229 "/>
<path d="M173.0223 84.3995 L172.9619 84.4600 "/>
<path d="M172.9619 84.4600 L173.0223 84.5205 "/>
<path d="M173.0223 84.5205 L173.0828 84.4600 "/>
<path d="M173.0828 84.4600 L173.0223 84.3995 "/>
<path d="M173.0223 84.3995 L173.0223 84.5205 "/>
<path d="M173.8086 85.6695 L173.6876 85.6091 "/>
<path d="M173.6876 85.6091 L173.6271 85.5486 "/>
<path d="M173.6271 85.5486 L173.5667 85.4276 "/>
<path d="M173.5667 85.4276 L173.5667 85.0648 "/>
<path d="M173.5667 85.0648 L173.6271 84.9438 "/>
<path d="M173.6271 84.9438 L173.6876 84.8833 "/>
<path d="M173.6876 84.8833 L173.8086 84.8229 "/>
<path d="M173.8086 84.8229 L173.9900 84.8229 "/>
<path d="M173.9900 84.8229 L174.1109 84.8833 "/>
<path d="M174.1109 84.8833 L174.1714 84.9438 "/>
<path d="M174.1714 84.9438 L174.2319 85.0648 "/>
<path d="M174.2319 85.0648 L174.2319 85.4276 "/>
<path d="M174.2319 85.4276 L174.1714 85.5486 "/>
<path d="M174.1714 85.5486 L174.1109 85.6091 "/>
<path d="M174.1109 85.6091 L173.9900 85.6695 "/>
<path d="M173.9900 85.6695 L173.8086 85.6695 "/>
<path d="M175.1390 84.3995 L175.1390 85.3067 "/>
<path d="M175.1390 85.3067 L175.0785 85.4881 "/>
<path d="M175.0785 85.4881 L174.9576 85.6091 "/>
<path d="M174.9576 85.6091 L174.7761 85.6695 "/>
<path d="M174.7761 85.6695 L174.6552 85.6695 "/>
<path d="M176.2880 85.6695 L176.2880 85.0043 "/>
<path d="M176.2880 85.0043 L176.2275 84.8833 "/>
<path d="M176.2275 84.8833 L176.1066 84.8229 "/>
<path d="M176.1066 84.8229 L175.8647 84.8229 "/>
<path d="M175.8647 84.8229 L175.7437 84.8833 "/>
<path d="M176.2880 85.6091 L176.1671 85.6695 "/>
<path d="M176.1671 85.6695 L175.8647 85.6695 "/>
<path d="M175.8647 85.6695 L175.7437 85.6091 "/>
<path d="M175.7437 85.6091 L175.6833 85.4881 "/>
<path d="M175.6833 85.4881 L175.6833 85.3671 "/>
<path d="M175.6833 85.3671 L175.7437 85.2462 "/>
<path d="M175.7437 85.2462 L175.8647 85.1857 "/>
<path d="M175.8647 85.1857 L176.1671 85.1857 "/>
<path d="M176.1671 85.1857 L176.2880 85.1252 "/>
<path d="M177.4370 85.6091 L177.3161 85.6695 "/>
<path d="M177.3161 85.6695 L177.0742 85.6695 "/>
<path d="M177.0742 85.6695 L176.9532 85.6091 "/>
<path d="M176.9532 85.6091 L176.8927 85.5486 "/>
<path d="M176.8927 85.5486 L176.8323 85.4276 "/>
<path d="M176.8323 85.4276 L176.8323 85.0648 "/>
<path d="M176.8323 85.0648 L176.8927 84.9438 "/>
<path d="M176.8927 84.9438 L176.9532 84.8833 "/>
<path d="M176.9532 84.8833 L177.0742 84.8229 "/>
<path d="M177.0742 84.8229 L177.3161 84.8229 "/>
<path d="M177.3161 84.8229 L177.4370 84.8833 "/>
<path d="M177.9813 85.6695 L177.9813 84.3995 "/>
<path d="M178.1023 85.1857 L178.4651 85.6695 "/>
<path d="M178.4651 84.8229 L177.9813 85.3067 "/>
<path d="M178.8885 84.3995 L179.6747 84.3995 "/>
<path d="M179.6747 84.3995 L179.2513 84.8833 "/>
<path d="M179.2513 84.8833 L179.4328 84.8833 "/>
<path d="M179.4328 84.8833 L179.5537 84.9438 "/>
<path d="M179.5537 84.9438 L179.6142 85.0043 "/>
<path d="M179.6142 85.0043 L179.6747 85.1252 "/>
<path d="M179.6747 85.1252 L179.6747 85.4276 "/>
<path d="M179.6747 85.4276 L179.6142 85.5486 "/>
<path d="M179.6142 85.5486 L179.5537 85.6091 "/>
<path d="M179.5537 85.6091 L179.4328 85.6695 "/>
<path d="M179.4328 85.6695 L179.0699 85.6695 "/>
<path d="M179.0699 85.6695 L178.9490 85.6091 "/>
<path d="M178.9490 85.6091 L178.8885 85.5486 "/>
</g></g>
<g style="fill:#FFFFC2; fill-opacity:1.0000; stroke:none;">
<rect x="170.180000" y="118.110000" width="7.620000" height="8.890000" rx="0.000000"/>
</g>
<g style="fill:#840000; fill-opacity:1.0000;  stroke:#840000; stroke-width:0.2540; stroke-opacity:1;  stroke-linecap:round; stroke-linejoin:round;">
<rect x="177.800000" y="124.460000" width="1.270000" height="2.540000" rx="0.000000"/>
<path style="fill:none;  stroke:#840000; stroke-width:0.2540; stroke-opacity:1;  stroke-linecap:round; stroke-linejoin:round;fill:none" d="M 174.6250,124.4600 173.9900,125.0950 173.3550,124.4600 173.3550,121.9200 170.1800,121.9200 "/> 
<path style="fill:none;  stroke:#840000; stroke-width:0.2540; stroke-opacity:1;  stroke-linecap:round; stroke-linejoin:round;fill:none" d="M 172.7200,124.4600 172.0850,125.0950 171.4500,124.4600 170.1800,124.4600 "/> 
</g>
<g style="fill:none;  stroke:#840000; stroke-width:0.2540; stroke-opacity:1;  stroke-linecap:round; stroke-linejoin:round;">
<rect x="170.180000" y="118.110000" width="7.620000" height="8.890000" rx="0.000000"/>
<path style="fill:none;  stroke:#840000; stroke-width:0.2540; stroke-opacity:1;  stroke-linecap:round; stroke-linejoin:round;fill:none" d="M 170.1800,119.3800 175.2600,119.3800 175.2600,124.4600 175.8950,125.0950 176.5300,124.4600 "/> 
</g>
<g style="fill:none;  stroke:#840000; stroke-width:0.1524; stroke-opacity:1;  stroke-linecap:round; stroke-linejoin:round;">
<path d="M170.1800 119.3800 L167.6400 119.3800 "/>
</g>
<g style="fill:none;  stroke:#A90000; stroke-width:0.1524; stroke-opacity:1;  stroke-linecap:round; stroke-linejoin:round;">
<text x="168.9100" y="119.1260" textLength="1.4127" font-size="1.6933" lengthAdjust="spacingAndGlyphs" text-anchor="middle" opacity="0" stroke-opacity="0">1</text>
<g class="stroked-text"><desc>1</desc>
<path d="M169.2729 118.9625 L168.5472 118.9625 "/>
<path d="M168.9100 118.9625 L168.9100 117.6925 "/>
<path d="M168.9100 117.6925 L168.7891 117.8740 "/>
<path d="M168.7891 117.8740 L168.6681 117.9949 "/>
<path d="M168.6681 117.9949 L168.5472 118.0554 "/>
</g></g>
<g style="fill:none;  stroke:#840000; stroke-width:0.1524; stroke-opacity:1;  stroke-linecap:round; stroke-linejoin:round;">
<path d="M170.1800 121.9200 L167.6400 121.9200 "/>
</g>
<g style="fill:none;  stroke:#A90000; stroke-width:0.1524; stroke-opacity:1;  stroke-linecap:round; stroke-linejoin:round;">
<text x="168.9100" y="121.6660" textLength="1.4127" font-size="1.6933" lengthAdjust="spacingAndGlyphs" text-anchor="middle" opacity="0" stroke-opacity="0">3</text>
<g class="stroked-text"><desc>3</desc>
<path d="M168.4867 120.2325 L169.2729 120.2325 "/>
<path d="M169.2729 120.2325 L168.8495 120.7163 "/>
<path d="M168.8495 120.7163 L169.0310 120.7163 "/>
<path d="M169.0310 120.7163 L169.1519 120.7768 "/>
<path d="M169.1519 120.7768 L169.2124 120.8373 "/>
<path d="M169.2124 120.8373 L169.2729 120.9582 "/>
<path d="M169.2729 120.9582 L169.2729 121.2606 "/>
<path d="M169.2729 121.2606 L169.2124 121.3816 "/>
<path d="M169.2124 121.3816 L169.1519 121.4421 "/>
<path d="M169.1519 121.4421 L169.0310 121.5025 "/>
<path d="M169.0310 121.5025 L168.6681 121.5025 "/>
<path d="M168.6681 121.5025 L168.5472 121.4421 "/>
<path d="M168.5472 121.4421 L168.4867 121.3816 "/>
</g></g>
<g style="fill:none;  stroke:#840000; stroke-width:0.1524; stroke-opacity:1;  stroke-linecap:round; stroke-linejoin:round;">
<path d="M170.1800 124.4600 L167.6400 124.4600 "/>
</g>
<g style="fill:none;  stroke:#A90000; stroke-width:0.1524; stroke-opacity:1;  stroke-linecap:round; stroke-linejoin:round;">
<text x="168.9100" y="124.2060" textLength="1.4127" font-size="1.6933" lengthAdjust="spacingAndGlyphs" text-anchor="middle" opacity="0" stroke-opacity="0">2</text>
<g class="stroked-text"><desc>2</desc>
<path d="M168.5472 122.8935 L168.6076 122.8330 "/>
<path d="M168.6076 122.8330 L168.7286 122.7725 "/>
<path d="M168.7286 122.7725 L169.0310 122.7725 "/>
<path d="M169.0310 122.7725 L169.1519 122.8330 "/>
<path d="M169.1519 122.8330 L169.2124 122.8935 "/>
<path d="M169.2124 122.8935 L169.2729 123.0144 "/>
<path d="M169.2729 123.0144 L169.2729 123.1354 "/>
<path d="M169.2729 123.1354 L169.2124 123.3168 "/>
<path d="M169.2124 123.3168 L168.4867 124.0425 "/>
<path d="M168.4867 124.0425 L169.2729 124.0425 "/>
</g></g>
<g style="fill:none;  stroke:#006464; stroke-width:0.1524; stroke-opacity:1;  stroke-linecap:round; stroke-linejoin:round;">
<text x="174.6249" y="113.6650" textLength="2.3803" font-size="1.6933" lengthAdjust="spacingAndGlyphs" text-anchor="middle" opacity="0" stroke-opacity="0">J6</text>
<g class="stroked-text"><desc>J6</desc>
<path d="M174.2016 112.3395 L174.2016 113.2467 "/>
<path d="M174.2016 113.2467 L174.1411 113.4281 "/>
<path d="M174.1411 113.4281 L174.0202 113.5491 "/>
<path d="M174.0202 113.5491 L173.8387 113.6095 "/>
<path d="M173.8387 113.6095 L173.7178 113.6095 "/>
<path d="M175.3506 112.3395 L175.1087 112.3395 "/>
<path d="M175.1087 112.3395 L174.9878 112.4000 "/>
<path d="M174.9878 112.4000 L174.9273 112.4605 "/>
<path d="M174.9273 112.4605 L174.8063 112.6419 "/>
<path d="M174.8063 112.6419 L174.7459 112.8838 "/>
<path d="M174.7459 112.8838 L174.7459 113.3676 "/>
<path d="M174.7459 113.3676 L174.8063 113.4886 "/>
<path d="M174.8063 113.4886 L174.8668 113.5491 "/>
<path d="M174.8668 113.5491 L174.9878 113.6095 "/>
<path d="M174.9878 113.6095 L175.2297 113.6095 "/>
<path d="M175.2297 113.6095 L175.3506 113.5491 "/>
<path d="M175.3506 113.5491 L175.4111 113.4886 "/>
<path d="M175.4111 113.4886 L175.4716 113.3676 "/>
<path d="M175.4716 113.3676 L175.4716 113.0652 "/>
<path d="M175.4716 113.0652 L175.4111 112.9443 "/>
<path d="M175.4111 112.9443 L175.3506 112.8838 "/>
<path d="M175.3506 112.8838 L175.2297 112.8233 "/>
<path d="M175.2297 112.8233 L174.9878 112.8233 "/>
<path d="M174.9878 112.8233 L174.8668 112.8838 "/>
<path d="M174.8668 112.8838 L174.8063 112.9443 "/>
<path d="M174.8063 112.9443 L174.7459 113.0652 "/>
</g><text x="174.6250" y="116.2050" textLength="10.7864" font-size="1.6933" lengthAdjust="spacingAndGlyphs" text-anchor="middle" opacity="0" stroke-opacity="0">AudioJack3</text>
<g class="stroked-text"><desc>AudioJack3</desc>
<path d="M169.5753 115.7867 L170.1800 115.7867 "/>
<path d="M169.4543 116.1495 L169.8776 114.8795 "/>
<path d="M169.8776 114.8795 L170.3010 116.1495 "/>
<path d="M171.2686 115.3029 L171.2686 116.1495 "/>
<path d="M170.7243 115.3029 L170.7243 115.9681 "/>
<path d="M170.7243 115.9681 L170.7848 116.0891 "/>
<path d="M170.7848 116.0891 L170.9058 116.1495 "/>
<path d="M170.9058 116.1495 L171.0872 116.1495 "/>
<path d="M171.0872 116.1495 L171.2081 116.0891 "/>
<path d="M171.2081 116.0891 L171.2686 116.0286 "/>
<path d="M172.4176 116.1495 L172.4176 114.8795 "/>
<path d="M172.4176 116.0891 L172.2967 116.1495 "/>
<path d="M172.2967 116.1495 L172.0548 116.1495 "/>
<path d="M172.0548 116.1495 L171.9338 116.0891 "/>
<path d="M171.9338 116.0891 L171.8733 116.0286 "/>
<path d="M171.8733 116.0286 L171.8129 115.9076 "/>
<path d="M171.8129 115.9076 L171.8129 115.5448 "/>
<path d="M171.8129 115.5448 L171.8733 115.4238 "/>
<path d="M171.8733 115.4238 L171.9338 115.3633 "/>
<path d="M171.9338 115.3633 L172.0548 115.3029 "/>
<path d="M172.0548 115.3029 L172.2967 115.3029 "/>
<path d="M172.2967 115.3029 L172.4176 115.3633 "/>
<path d="M173.0223 116.1495 L173.0223 115.3029 "/>
<path d="M173.0223 114.8795 L172.9619 114.9400 "/>
<path d="M172.9619 114.9400 L173.0223 115.0005 "/>
<path d="M173.0223 115.0005 L173.0828 114.9400 "/>
<path d="M173.0828 114.9400 L173.0223 114.8795 "/>
<path d="M173.0223 114.8795 L173.0223 115.0005 "/>
<path d="M173.8086 116.1495 L173.6876 116.0891 "/>
<path d="M173.6876 116.0891 L173.6271 116.0286 "/>
<path d="M173.6271 116.0286 L173.5667 115.9076 "/>
<path d="M173.5667 115.9076 L173.5667 115.5448 "/>
<path d="M173.5667 115.5448 L173.6271 115.4238 "/>
<path d="M173.6271 115.4238 L173.6876 115.3633 "/>
<path d="M173.6876 115.3633 L173.8086 115.3029 "/>
<path d="M173.8086 115.3029 L173.9900 115.3029 "/>
<path d="M173.9900 115.3029 L174.1109 115.3633 "/>
<path d="M174.1109 115.3633 L174.1714 115.4238 "/>
<path d="M174.1714 115.4238 L174.2319 115.5448 "/>
<path d="M174.2319 115.5448 L174.2319 115.9076 "/>
<path d="M174.2319 115.9076 L174.1714 116.0286 "/>
<path d="M174.1714 116.0286 L174.1109 116.0891 "/>
<path d="M174.1109 116.0891 L173.9900 116.1495 "/>
<path d="M173.9900 116.1495 L173.8086 116.1495 "/>
<path d="M175.1390 114.8795 L175.1390 115.7867 "/>
<path d="M175.1390 115.7867 L175.0785 115.9681 "/>
<path d="M175.0785 115.9681 L174.9576 116.0891 "/>
<path d="M174.9576 116.0891 L174.7761 116.1495 "/>
<path d="M174.7761 116.1495 L174.6552 116.1495 "/>
<path d="M176.2880 116.1495 L176.2880 115.4843 "/>
<path d="M176.2880 115.4843 L176.2275 115.3633 "/>
<path d="M176.2275 115.3633 L176.1066 115.3029 "/>
<path d="M176.1066 115.3029 L175.8647 115.3029 "/>
<path d="M175.8647 115.3029 L175.7437 115.3633 "/>
<path d="M176.2880 116.0891 L176.1671 116.1495 "/>
<path d="M176.1671 116.1495 L175.8647 116.1495 "/>
<path d="M175.8647 116.1495 L175.7437 116.0891 "/>
<path d="M175.7437 116.0891 L175.6833 115.9681 "/>
<path d="M175.6833 115.9681 L175.6833 115.8471 "/>
<path d="M175.6833 115.8471 L175.7437 115.7262 "/>
<path d="M175.7437 115.7262 L175.8647 115.6657 "/>
<path d="M175.8647 115.6657 L176.1671 115.6657 "/>
<path d="M176.1671 115.6657 L176.2880 115.6052 "/>
<path d="M177.4370 116.0891 L177.3161 116.1495 "/>
<path d="M177.3161 116.1495 L177.0742 116.1495 "/>
<path d="M177.0742 116.1495 L176.9532 116.0891 "/>
<path d="M176.9532 116.0891 L176.8927 116.0286 "/>
<path d="M176.8927 116.0286 L176.8323 115.9076 "/>
<path d="M176.8323 115.9076 L176.8323 115.5448 "/>
<path d="M176.8323 115.5448 L176.8927 115.4238 "/>
<path d="M176.8927 115.4238 L176.9532 115.3633 "/>
<path d="M176.9532 115.3633 L177.0742 115.3029 "/>
<path d="M177.0742 115.3029 L177.3161 115.3029 "/>
<path d="M177.3161 115.3029 L177.4370 115.3633 "/>
<path d="M177.9813 116.1495 L177.9813 114.8795 "/>
<path d="M178.1023 115.6657 L178.4651 116.1495 "/>
<path d="M178.4651 115.3029 L177.9813 115.7867 "/>
<path d="M178.8885 114.8795 L179.6747 114.8795 "/>
<path d="M179.6747 114.8795 L179.2513 115.3633 "/>
<path d="M179.2513 115.3633 L179.4328 115.3633 "/>
<path d="M179.4328 115.3633 L179.5537 115.4238 "/>
<path d="M179.5537 115.4238 L179.6142 115.4843 "/>
<path d="M179.6142 115.4843 L179.6747 115.6052 "/>
<path d="M179.6747 115.6052 L179.6747 115.9076 "/>
<path d="M179.6747 115.9076 L179.6142 116.0286 "/>
<path d="M179.6142 116.0286 L179.5537 116.0891 "/>
<path d="M179.5537 116.0891 L179.4328 116.1495 "/>
<path d="M179.4328 116.1495 L179.0699 116.1495 "/>
<path d="M179.0699 116.1495 L178.9490 116.0891 "/>
<path d="M178.9490 116.0891 L178.8885 116.0286 "/>
</g><path style="fill:#FFFFC2; fill-opacity:1.0000; stroke:none;fill-rule:evenodd;" d="M 143.5100,90.1700 143.5100,97.7900 151.1300,93.9800 Z"/> 
<path style="fill:none;  stroke:#840000; stroke-width:0.2540; stroke-opacity:1;  stroke-linecap:round; stroke-linejoin:round;fill:none" d="M 143.5100,90.1700 143.5100,97.7900 151.1300,93.9800 Z"/> 
<path style="fill:none;  stroke:#840000; stroke-width:0.1524; stroke-opacity:1;  stroke-linecap:round; stroke-linejoin:round;fill:none" d="M 144.7800,95.2500 146.6850,95.2500 146.6850,92.7100 147.3200,92.7100 "/> 
<path style="fill:none;  stroke:#840000; stroke-width:0.1524; stroke-opacity:1;  stroke-linecap:round; stroke-linejoin:round;fill:none" d="M 145.4150,95.2500 145.4150,92.7100 146.6850,92.7100 "/> 
</g>
<g style="fill:none;  stroke:#840000; stroke-width:0.1524; stroke-opacity:1;  stroke-linecap:round; stroke-linejoin:round;">
<path d="M143.5100 93.9800 L138.4300 93.9800 "/>
</g>
<g style="fill:none;  stroke:#A90000; stroke-width:0.1524; stroke-opacity:1;  stroke-linecap:round; stroke-linejoin:round;">
<text x="140.9700" y="93.7260" textLength="1.4127" font-size="1.6933" lengthAdjust="spacingAndGlyphs" text-anchor="middle" opacity="0" stroke-opacity="0">6</text>
<g class="stroked-text"><desc>6</desc>
<path d="M141.2119 92.2925 L140.9700 92.2925 "/>
<path d="M140.9700 92.2925 L140.8491 92.3530 "/>
<path d="M140.8491 92.3530 L140.7886 92.4135 "/>
<path d="M140.7886 92.4135 L140.6676 92.5949 "/>
<path d="M140.6676 92.5949 L140.6072 92.8368 "/>
<path d="M140.6072 92.8368 L140.6072 93.3206 "/>
<path d="M140.6072 93.3206 L140.6676 93.4416 "/>
<path d="M140.6676 93.4416 L140.7281 93.5021 "/>
<path d="M140.7281 93.5021 L140.8491 93.5625 "/>
<path d="M140.8491 93.5625 L141.0910 93.5625 "/>
<path d="M141.0910 93.5625 L141.2119 93.5021 "/>
<path d="M141.2119 93.5021 L141.2724 93.4416 "/>
<path d="M141.2724 93.4416 L141.3329 93.3206 "/>
<path d="M141.3329 93.3206 L141.3329 93.0182 "/>
<path d="M141.3329 93.0182 L141.2724 92.8973 "/>
<path d="M141.2724 92.8973 L141.2119 92.8368 "/>
<path d="M141.2119 92.8368 L141.0910 92.7763 "/>
<path d="M141.0910 92.7763 L140.8491 92.7763 "/>
<path d="M140.8491 92.7763 L140.7281 92.8368 "/>
<path d="M140.7281 92.8368 L140.6676 92.8973 "/>
<path d="M140.6676 92.8973 L140.6072 93.0182 "/>
</g></g>
<g style="fill:none;  stroke:#840000; stroke-width:0.1524; stroke-opacity:1;  stroke-linecap:round; stroke-linejoin:round;">
<path d="M151.1300 93.9800 L156.2100 93.9800 "/>
</g>
<g style="fill:none;  stroke:#A90000; stroke-width:0.1524; stroke-opacity:1;  stroke-linecap:round; stroke-linejoin:round;">
<text x="153.6700" y="93.7260" textLength="1.4127" font-size="1.6933" lengthAdjust="spacingAndGlyphs" text-anchor="middle" opacity="0" stroke-opacity="0">2</text>
<g class="stroked-text"><desc>2</desc>
<path d="M153.3072 92.4135 L153.3676 92.3530 "/>
<path d="M153.3676 92.3530 L153.4886 92.2925 "/>
<path d="M153.4886 92.2925 L153.7910 92.2925 "/>
<path d="M153.7910 92.2925 L153.9119 92.3530 "/>
<path d="M153.9119 92.3530 L153.9724 92.4135 "/>
<path d="M153.9724 92.4135 L154.0329 92.5344 "/>
<path d="M154.0329 92.5344 L154.0329 92.6554 "/>
<path d="M154.0329 92.6554 L153.9724 92.8368 "/>
<path d="M153.9724 92.8368 L153.2467 93.5625 "/>
<path d="M153.2467 93.5625 L154.0329 93.5625 "/>
</g></g>
<g style="fill:none;  stroke:#006464; stroke-width:0.1524; stroke-opacity:1;  stroke-linecap:round; stroke-linejoin:round;">
<text x="145.7983" y="87.2117" textLength="4.5575" font-size="1.6933" lengthAdjust="spacingAndGlyphs" text-anchor="middle" opacity="0" stroke-opacity="0">IC2C</text>
<g class="stroked-text"><desc>IC2C</desc>
<path d="M143.9235 87.1562 L143.9235 85.8862 "/>
<path d="M145.2540 87.0353 L145.1936 87.0958 "/>
<path d="M145.1936 87.0958 L145.0121 87.1562 "/>
<path d="M145.0121 87.1562 L144.8912 87.1562 "/>
<path d="M144.8912 87.1562 L144.7098 87.0958 "/>
<path d="M144.7098 87.0958 L144.5888 86.9748 "/>
<path d="M144.5888 86.9748 L144.5283 86.8538 "/>
<path d="M144.5283 86.8538 L144.4679 86.6119 "/>
<path d="M144.4679 86.6119 L144.4679 86.4305 "/>
<path d="M144.4679 86.4305 L144.5283 86.1886 "/>
<path d="M144.5283 86.1886 L144.5888 86.0677 "/>
<path d="M144.5888 86.0677 L144.7098 85.9467 "/>
<path d="M144.7098 85.9467 L144.8912 85.8862 "/>
<path d="M144.8912 85.8862 L145.0121 85.8862 "/>
<path d="M145.0121 85.8862 L145.1936 85.9467 "/>
<path d="M145.1936 85.9467 L145.2540 86.0072 "/>
<path d="M145.7379 86.0072 L145.7983 85.9467 "/>
<path d="M145.7983 85.9467 L145.9193 85.8862 "/>
<path d="M145.9193 85.8862 L146.2217 85.8862 "/>
<path d="M146.2217 85.8862 L146.3426 85.9467 "/>
<path d="M146.3426 85.9467 L146.4031 86.0072 "/>
<path d="M146.4031 86.0072 L146.4636 86.1281 "/>
<path d="M146.4636 86.1281 L146.4636 86.2491 "/>
<path d="M146.4636 86.2491 L146.4031 86.4305 "/>
<path d="M146.4031 86.4305 L145.6774 87.1562 "/>
<path d="M145.6774 87.1562 L146.4636 87.1562 "/>
<path d="M147.7335 87.0353 L147.6731 87.0958 "/>
<path d="M147.6731 87.0958 L147.4916 87.1562 "/>
<path d="M147.4916 87.1562 L147.3707 87.1562 "/>
<path d="M147.3707 87.1562 L147.1893 87.0958 "/>
<path d="M147.1893 87.0958 L147.0683 86.9748 "/>
<path d="M147.0683 86.9748 L147.0078 86.8538 "/>
<path d="M147.0078 86.8538 L146.9474 86.6119 "/>
<path d="M146.9474 86.6119 L146.9474 86.4305 "/>
<path d="M146.9474 86.4305 L147.0078 86.1886 "/>
<path d="M147.0078 86.1886 L147.0683 86.0677 "/>
<path d="M147.0683 86.0677 L147.1893 85.9467 "/>
<path d="M147.1893 85.9467 L147.3707 85.8862 "/>
<path d="M147.3707 85.8862 L147.4916 85.8862 "/>
<path d="M147.4916 85.8862 L147.6731 85.9467 "/>
<path d="M147.6731 85.9467 L147.7335 86.0072 "/>
</g><text x="150.2433" y="88.9897" textLength="13.4474" font-size="1.6933" lengthAdjust="spacingAndGlyphs" text-anchor="middle" opacity="0" stroke-opacity="0">SN74LVC3G17</text>
<g class="stroked-text"><desc>SN74LVC3G17</desc>
<path d="M143.8631 88.8738 L144.0445 88.9342 "/>
<path d="M144.0445 88.9342 L144.3469 88.9342 "/>
<path d="M144.3469 88.9342 L144.4678 88.8738 "/>
<path d="M144.4678 88.8738 L144.5283 88.8133 "/>
<path d="M144.5283 88.8133 L144.5888 88.6923 "/>
<path d="M144.5888 88.6923 L144.5888 88.5714 "/>
<path d="M144.5888 88.5714 L144.5283 88.4504 "/>
<path d="M144.5283 88.4504 L144.4678 88.3899 "/>
<path d="M144.4678 88.3899 L144.3469 88.3295 "/>
<path d="M144.3469 88.3295 L144.1050 88.2690 "/>
<path d="M144.1050 88.2690 L143.9840 88.2085 "/>
<path d="M143.9840 88.2085 L143.9235 88.1480 "/>
<path d="M143.9235 88.1480 L143.8631 88.0271 "/>
<path d="M143.8631 88.0271 L143.8631 87.9061 "/>
<path d="M143.8631 87.9061 L143.9235 87.7852 "/>
<path d="M143.9235 87.7852 L143.9840 87.7247 "/>
<path d="M143.9840 87.7247 L144.1050 87.6642 "/>
<path d="M144.1050 87.6642 L144.4073 87.6642 "/>
<path d="M144.4073 87.6642 L144.5888 87.7247 "/>
<path d="M145.1330 88.9342 L145.1330 87.6642 "/>
<path d="M145.1330 87.6642 L145.8587 88.9342 "/>
<path d="M145.8587 88.9342 L145.8587 87.6642 "/>
<path d="M146.3426 87.6642 L147.1892 87.6642 "/>
<path d="M147.1892 87.6642 L146.6450 88.9342 "/>
<path d="M148.2173 88.0876 L148.2173 88.9342 "/>
<path d="M147.9149 87.6038 L147.6126 88.5109 "/>
<path d="M147.6126 88.5109 L148.3987 88.5109 "/>
<path d="M149.4873 88.9342 L148.8825 88.9342 "/>
<path d="M148.8825 88.9342 L148.8825 87.6642 "/>
<path d="M149.7292 87.6642 L150.1525 88.9342 "/>
<path d="M150.1525 88.9342 L150.5759 87.6642 "/>
<path d="M151.7249 88.8133 L151.6645 88.8738 "/>
<path d="M151.6645 88.8738 L151.4830 88.9342 "/>
<path d="M151.4830 88.9342 L151.3621 88.9342 "/>
<path d="M151.3621 88.9342 L151.1807 88.8738 "/>
<path d="M151.1807 88.8738 L151.0597 88.7528 "/>
<path d="M151.0597 88.7528 L150.9992 88.6318 "/>
<path d="M150.9992 88.6318 L150.9388 88.3899 "/>
<path d="M150.9388 88.3899 L150.9388 88.2085 "/>
<path d="M150.9388 88.2085 L150.9992 87.9666 "/>
<path d="M150.9992 87.9666 L151.0597 87.8457 "/>
<path d="M151.0597 87.8457 L151.1807 87.7247 "/>
<path d="M151.1807 87.7247 L151.3621 87.6642 "/>
<path d="M151.3621 87.6642 L151.4830 87.6642 "/>
<path d="M151.4830 87.6642 L151.6645 87.7247 "/>
<path d="M151.6645 87.7247 L151.7249 87.7852 "/>
<path d="M152.1483 87.6642 L152.9345 87.6642 "/>
<path d="M152.9345 87.6642 L152.5111 88.1480 "/>
<path d="M152.5111 88.1480 L152.6926 88.1480 "/>
<path d="M152.6926 88.1480 L152.8135 88.2085 "/>
<path d="M152.8135 88.2085 L152.8740 88.2690 "/>
<path d="M152.8740 88.2690 L152.9345 88.3899 "/>
<path d="M152.9345 88.3899 L152.9345 88.6923 "/>
<path d="M152.9345 88.6923 L152.8740 88.8133 "/>
<path d="M152.8740 88.8133 L152.8135 88.8738 "/>
<path d="M152.8135 88.8738 L152.6926 88.9342 "/>
<path d="M152.6926 88.9342 L152.3297 88.9342 "/>
<path d="M152.3297 88.9342 L152.2088 88.8738 "/>
<path d="M152.2088 88.8738 L152.1483 88.8133 "/>
<path d="M154.1440 87.7247 L154.0230 87.6642 "/>
<path d="M154.0230 87.6642 L153.8416 87.6642 "/>
<path d="M153.8416 87.6642 L153.6602 87.7247 "/>
<path d="M153.6602 87.7247 L153.5392 87.8457 "/>
<path d="M153.5392 87.8457 L153.4787 87.9666 "/>
<path d="M153.4787 87.9666 L153.4183 88.2085 "/>
<path d="M153.4183 88.2085 L153.4183 88.3899 "/>
<path d="M153.4183 88.3899 L153.4787 88.6318 "/>
<path d="M153.4787 88.6318 L153.5392 88.7528 "/>
<path d="M153.5392 88.7528 L153.6602 88.8738 "/>
<path d="M153.6602 88.8738 L153.8416 88.9342 "/>
<path d="M153.8416 88.9342 L153.9625 88.9342 "/>
<path d="M153.9625 88.9342 L154.1440 88.8738 "/>
<path d="M154.1440 88.8738 L154.2044 88.8133 "/>
<path d="M154.2044 88.8133 L154.2044 88.3899 "/>
<path d="M154.2044 88.3899 L153.9625 88.3899 "/>
<path d="M155.4140 88.9342 L154.6883 88.9342 "/>
<path d="M155.0511 88.9342 L155.0511 87.6642 "/>
<path d="M155.0511 87.6642 L154.9302 87.8457 "/>
<path d="M154.9302 87.8457 L154.8092 87.9666 "/>
<path d="M154.8092 87.9666 L154.6883 88.0271 "/>
<path d="M155.8373 87.6642 L156.6839 87.6642 "/>
<path d="M156.6839 87.6642 L156.1397 88.9342 "/>
</g><path style="fill:none;  stroke:#840000; stroke-width:0.1524; stroke-opacity:1;  stroke-linecap:round; stroke-linejoin:round;fill:none" d="M 165.1000,69.8500 165.1000,71.1200 163.8300,71.1200 165.1000,72.3900 166.3700,71.1200 165.1000,71.1200 "/> 
</g>
<g style="fill:none;  stroke:#840000; stroke-width:0.1524; stroke-opacity:1;  stroke-linecap:round; stroke-linejoin:round;">
<path d="M165.1000 69.8500 L165.1000 69.8500 "/>
</g>
<g style="fill:none;  stroke:#006464; stroke-width:0.1524; stroke-opacity:1;  stroke-linecap:round; stroke-linejoin:round;">
<text x="165.0999" y="88.2650" textLength="4.0737" font-size="1.6933" lengthAdjust="spacingAndGlyphs" text-anchor="middle" opacity="0" stroke-opacity="0">GND</text>
<g class="stroked-text"><desc>GND</desc>
<path d="M164.1323 87.0000 L164.0113 86.9395 "/>
<path d="M164.0113 86.9395 L163.8299 86.9395 "/>
<path d="M163.8299 86.9395 L163.6485 87.0000 "/>
<path d="M163.6485 87.0000 L163.5275 87.1210 "/>
<path d="M163.5275 87.1210 L163.4670 87.2419 "/>
<path d="M163.4670 87.2419 L163.4066 87.4838 "/>
<path d="M163.4066 87.4838 L163.4066 87.6652 "/>
<path d="M163.4066 87.6652 L163.4670 87.9071 "/>
<path d="M163.4670 87.9071 L163.5275 88.0281 "/>
<path d="M163.5275 88.0281 L163.6485 88.1491 "/>
<path d="M163.6485 88.1491 L163.8299 88.2095 "/>
<path d="M163.8299 88.2095 L163.9508 88.2095 "/>
<path d="M163.9508 88.2095 L164.1323 88.1491 "/>
<path d="M164.1323 88.1491 L164.1927 88.0886 "/>
<path d="M164.1927 88.0886 L164.1927 87.6652 "/>
<path d="M164.1927 87.6652 L163.9508 87.6652 "/>
<path d="M164.7370 88.2095 L164.7370 86.9395 "/>
<path d="M164.7370 86.9395 L165.4627 88.2095 "/>
<path d="M165.4627 88.2095 L165.4627 86.9395 "/>
<path d="M166.0675 88.2095 L166.0675 86.9395 "/>
<path d="M166.0675 86.9395 L166.3699 86.9395 "/>
<path d="M166.3699 86.9395 L166.5513 87.0000 "/>
<path d="M166.5513 87.0000 L166.6723 87.1210 "/>
<path d="M166.6723 87.1210 L166.7328 87.2419 "/>
<path d="M166.7328 87.2419 L166.7932 87.4838 "/>
<path d="M166.7932 87.4838 L166.7932 87.6652 "/>
<path d="M166.7932 87.6652 L166.7328 87.9071 "/>
<path d="M166.7328 87.9071 L166.6723 88.0281 "/>
<path d="M166.6723 88.0281 L166.5513 88.1491 "/>
<path d="M166.5513 88.1491 L166.3699 88.2095 "/>
<path d="M166.3699 88.2095 L166.0675 88.2095 "/>
</g><path style="fill:none;  stroke:#840000; stroke-width:0.1524; stroke-opacity:1;  stroke-linecap:round; stroke-linejoin:round;fill:none" d="M 74.4220,73.6600 73.6600,72.3900 "/> 
<path style="fill:none;  stroke:#840000; stroke-width:0.1524; stroke-opacity:1;  stroke-linecap:round; stroke-linejoin:round;fill:none" d="M 73.6600,72.3900 72.8980,73.6600 "/> 
<path style="fill:none;  stroke:#840000; stroke-width:0.1524; stroke-opacity:1;  stroke-linecap:round; stroke-linejoin:round;fill:none" d="M 73.6600,74.9300 73.6600,72.3900 "/> 
</g>
<g style="fill:none;  stroke:#840000; stroke-width:0.1524; stroke-opacity:1;  stroke-linecap:round; stroke-linejoin:round;">
<path d="M73.6600 74.9300 L73.6600 74.9300 "/>
</g>
<g style="fill:none;  stroke:#006464; stroke-width:0.1524; stroke-opacity:1;  stroke-linecap:round; stroke-linejoin:round;">
<text x="73.2916" y="71.2406" textLength="4.0737" font-size="1.6933" lengthAdjust="spacingAndGlyphs" text-anchor="middle" opacity="0" stroke-opacity="0">+5V</text>
<g class="stroked-text"><desc>+5V</desc>
<path d="M71.6587 70.7013 L72.6264 70.7013 "/>
<path d="M72.1425 71.1851 L72.1425 70.2175 "/>
<path d="M73.8359 69.9151 L73.2311 69.9151 "/>
<path d="M73.2311 69.9151 L73.1707 70.5199 "/>
<path d="M73.1707 70.5199 L73.2311 70.4594 "/>
<path d="M73.2311 70.4594 L73.3521 70.3989 "/>
<path d="M73.3521 70.3989 L73.6545 70.3989 "/>
<path d="M73.6545 70.3989 L73.7754 70.4594 "/>
<path d="M73.7754 70.4594 L73.8359 70.5199 "/>
<path d="M73.8359 70.5199 L73.8964 70.6408 "/>
<path d="M73.8964 70.6408 L73.8964 70.9432 "/>
<path d="M73.8964 70.9432 L73.8359 71.0642 "/>
<path d="M73.8359 71.0642 L73.7754 71.1247 "/>
<path d="M73.7754 71.1247 L73.6545 71.1851 "/>
<path d="M73.6545 71.1851 L73.3521 71.1851 "/>
<path d="M73.3521 71.1851 L73.2311 71.1247 "/>
<path d="M73.2311 71.1247 L73.1707 71.0642 "/>
<path d="M74.2592 69.9151 L74.6825 71.1851 "/>
<path d="M74.6825 71.1851 L75.1059 69.9151 "/>
</g><path style="fill:#FFFFC2; fill-opacity:1.0000; stroke:none;fill-rule:evenodd;" d="M 143.5100,120.6500 143.5100,128.2700 151.1300,124.4600 Z"/> 
<path style="fill:none;  stroke:#840000; stroke-width:0.2540; stroke-opacity:1;  stroke-linecap:round; stroke-linejoin:round;fill:none" d="M 143.5100,120.6500 143.5100,128.2700 151.1300,124.4600 Z"/> 
<path style="fill:none;  stroke:#840000; stroke-width:0.1524; stroke-opacity:1;  stroke-linecap:round; stroke-linejoin:round;fill:none" d="M 144.7800,125.7300 146.6850,125.7300 146.6850,123.1900 147.3200,123.1900 "/> 
<path style="fill:none;  stroke:#840000; stroke-width:0.1524; stroke-opacity:1;  stroke-linecap:round; stroke-linejoin:round;fill:none" d="M 145.4150,125.7300 145.4150,123.1900 146.6850,123.1900 "/> 
</g>
<g style="fill:none;  stroke:#840000; stroke-width:0.1524; stroke-opacity:1;  stroke-linecap:round; stroke-linejoin:round;">
<path d="M143.5100 124.4600 L138.4300 124.4600 "/>
</g>
<g style="fill:none;  stroke:#A90000; stroke-width:0.1524; stroke-opacity:1;  stroke-linecap:round; stroke-linejoin:round;">
<text x="140.9700" y="124.2060" textLength="1.4127" font-size="1.6933" lengthAdjust="spacingAndGlyphs" text-anchor="middle" opacity="0" stroke-opacity="0">3</text>
<g class="stroked-text"><desc>3</desc>
<path d="M140.5467 122.7725 L141.3329 122.7725 "/>
<path d="M141.3329 122.7725 L140.9095 123.2563 "/>
<path d="M140.9095 123.2563 L141.0910 123.2563 "/>
<path d="M141.0910 123.2563 L141.2119 123.3168 "/>
<path d="M141.2119 123.3168 L141.2724 123.3773 "/>
<path d="M141.2724 123.3773 L141.3329 123.4982 "/>
<path d="M141.3329 123.4982 L141.3329 123.8006 "/>
<path d="M141.3329 123.8006 L141.2724 123.9216 "/>
<path d="M141.2724 123.9216 L141.2119 123.9821 "/>
<path d="M141.2119 123.9821 L141.0910 124.0425 "/>
<path d="M141.0910 124.0425 L140.7281 124.0425 "/>
<path d="M140.7281 124.0425 L140.6072 123.9821 "/>
<path d="M140.6072 123.9821 L140.5467 123.9216 "/>
</g></g>
<g style="fill:none;  stroke:#840000; stroke-width:0.1524; stroke-opacity:1;  stroke-linecap:round; stroke-linejoin:round;">
<path d="M151.1300 124.4600 L156.2100 124.4600 "/>
</g>
<g style="fill:none;  stroke:#A90000; stroke-width:0.1524; stroke-opacity:1;  stroke-linecap:round; stroke-linejoin:round;">
<text x="153.6700" y="124.2060" textLength="1.4127" font-size="1.6933" lengthAdjust="spacingAndGlyphs" text-anchor="middle" opacity="0" stroke-opacity="0">5</text>
<g class="stroked-text"><desc>5</desc>
<path d="M153.9724 122.7725 L153.3676 122.7725 "/>
<path d="M153.3676 122.7725 L153.3072 123.3773 "/>
<path d="M153.3072 123.3773 L153.3676 123.3168 "/>
<path d="M153.3676 123.3168 L153.4886 123.2563 "/>
<path d="M153.4886 123.2563 L153.7910 123.2563 "/>
<path d="M153.7910 123.2563 L153.9119 123.3168 "/>
<path d="M153.9119 123.3168 L153.9724 123.3773 "/>
<path d="M153.9724 123.3773 L154.0329 123.4982 "/>
<path d="M154.0329 123.4982 L154.0329 123.8006 "/>
<path d="M154.0329 123.8006 L153.9724 123.9216 "/>
<path d="M153.9724 123.9216 L153.9119 123.9821 "/>
<path d="M153.9119 123.9821 L153.7910 124.0425 "/>
<path d="M153.7910 124.0425 L153.4886 124.0425 "/>
<path d="M153.4886 124.0425 L153.3676 123.9821 "/>
<path d="M153.3676 123.9821 L153.3072 123.9216 "/>
</g></g>
<g style="fill:none;  stroke:#006464; stroke-width:0.1524; stroke-opacity:1;  stroke-linecap:round; stroke-linejoin:round;">
<text x="145.7983" y="117.4377" textLength="4.5575" font-size="1.6933" lengthAdjust="spacingAndGlyphs" text-anchor="middle" opacity="0" stroke-opacity="0">IC2B</text>
<g class="stroked-text"><desc>IC2B</desc>
<path d="M143.9235 117.3822 L143.9235 116.1122 "/>
<path d="M145.2540 117.2613 L145.1936 117.3218 "/>
<path d="M145.1936 117.3218 L145.0121 117.3822 "/>
<path d="M145.0121 117.3822 L144.8912 117.3822 "/>
<path d="M144.8912 117.3822 L144.7098 117.3218 "/>
<path d="M144.7098 117.3218 L144.5888 117.2008 "/>
<path d="M144.5888 117.2008 L144.5283 117.0798 "/>
<path d="M144.5283 117.0798 L144.4679 116.8379 "/>
<path d="M144.4679 116.8379 L144.4679 116.6565 "/>
<path d="M144.4679 116.6565 L144.5283 116.4146 "/>
<path d="M144.5283 116.4146 L144.5888 116.2937 "/>
<path d="M144.5888 116.2937 L144.7098 116.1727 "/>
<path d="M144.7098 116.1727 L144.8912 116.1122 "/>
<path d="M144.8912 116.1122 L145.0121 116.1122 "/>
<path d="M145.0121 116.1122 L145.1936 116.1727 "/>
<path d="M145.1936 116.1727 L145.2540 116.2332 "/>
<path d="M145.7379 116.2332 L145.7983 116.1727 "/>
<path d="M145.7983 116.1727 L145.9193 116.1122 "/>
<path d="M145.9193 116.1122 L146.2217 116.1122 "/>
<path d="M146.2217 116.1122 L146.3426 116.1727 "/>
<path d="M146.3426 116.1727 L146.4031 116.2332 "/>
<path d="M146.4031 116.2332 L146.4636 116.3541 "/>
<path d="M146.4636 116.3541 L146.4636 116.4751 "/>
<path d="M146.4636 116.4751 L146.4031 116.6565 "/>
<path d="M146.4031 116.6565 L145.6774 117.3822 "/>
<path d="M145.6774 117.3822 L146.4636 117.3822 "/>
<path d="M147.4312 116.7170 L147.6126 116.7775 "/>
<path d="M147.6126 116.7775 L147.6731 116.8379 "/>
<path d="M147.6731 116.8379 L147.7335 116.9589 "/>
<path d="M147.7335 116.9589 L147.7335 117.1403 "/>
<path d="M147.7335 117.1403 L147.6731 117.2613 "/>
<path d="M147.6731 117.2613 L147.6126 117.3218 "/>
<path d="M147.6126 117.3218 L147.4916 117.3822 "/>
<path d="M147.4916 117.3822 L147.0078 117.3822 "/>
<path d="M147.0078 117.3822 L147.0078 116.1122 "/>
<path d="M147.0078 116.1122 L147.4312 116.1122 "/>
<path d="M147.4312 116.1122 L147.5521 116.1727 "/>
<path d="M147.5521 116.1727 L147.6126 116.2332 "/>
<path d="M147.6126 116.2332 L147.6731 116.3541 "/>
<path d="M147.6731 116.3541 L147.6731 116.4751 "/>
<path d="M147.6731 116.4751 L147.6126 116.5960 "/>
<path d="M147.6126 116.5960 L147.5521 116.6565 "/>
<path d="M147.5521 116.6565 L147.4312 116.7170 "/>
<path d="M147.4312 116.7170 L147.0078 116.7170 "/>
</g><text x="150.2433" y="119.7237" textLength="13.4474" font-size="1.6933" lengthAdjust="spacingAndGlyphs" text-anchor="middle" opacity="0" stroke-opacity="0">SN74LVC3G17</text>
<g class="stroked-text"><desc>SN74LVC3G17</desc>
<path d="M143.8631 119.6078 L144.0445 119.6682 "/>
<path d="M144.0445 119.6682 L144.3469 119.6682 "/>
<path d="M144.3469 119.6682 L144.4678 119.6078 "/>
<path d="M144.4678 119.6078 L144.5283 119.5473 "/>
<path d="M144.5283 119.5473 L144.5888 119.4263 "/>
<path d="M144.5888 119.4263 L144.5888 119.3054 "/>
<path d="M144.5888 119.3054 L144.5283 119.1844 "/>
<path d="M144.5283 119.1844 L144.4678 119.1239 "/>
<path d="M144.4678 119.1239 L144.3469 119.0635 "/>
<path d="M144.3469 119.0635 L144.1050 119.0030 "/>
<path d="M144.1050 119.0030 L143.9840 118.9425 "/>
<path d="M143.9840 118.9425 L143.9235 118.8820 "/>
<path d="M143.9235 118.8820 L143.8631 118.7611 "/>
<path d="M143.8631 118.7611 L143.8631 118.6401 "/>
<path d="M143.8631 118.6401 L143.9235 118.5192 "/>
<path d="M143.9235 118.5192 L143.9840 118.4587 "/>
<path d="M143.9840 118.4587 L144.1050 118.3982 "/>
<path d="M144.1050 118.3982 L144.4073 118.3982 "/>
<path d="M144.4073 118.3982 L144.5888 118.4587 "/>
<path d="M145.1330 119.6682 L145.1330 118.3982 "/>
<path d="M145.1330 118.3982 L145.8587 119.6682 "/>
<path d="M145.8587 119.6682 L145.8587 118.3982 "/>
<path d="M146.3426 118.3982 L147.1892 118.3982 "/>
<path d="M147.1892 118.3982 L146.6450 119.6682 "/>
<path d="M148.2173 118.8216 L148.2173 119.6682 "/>
<path d="M147.9149 118.3378 L147.6126 119.2449 "/>
<path d="M147.6126 119.2449 L148.3987 119.2449 "/>
<path d="M149.4873 119.6682 L148.8825 119.6682 "/>
<path d="M148.8825 119.6682 L148.8825 118.3982 "/>
<path d="M149.7292 118.3982 L150.1525 119.6682 "/>
<path d="M150.1525 119.6682 L150.5759 118.3982 "/>
<path d="M151.7249 119.5473 L151.6645 119.6078 "/>
<path d="M151.6645 119.6078 L151.4830 119.6682 "/>
<path d="M151.4830 119.6682 L151.3621 119.6682 "/>
<path d="M151.3621 119.6682 L151.1807 119.6078 "/>
<path d="M151.1807 119.6078 L151.0597 119.4868 "/>
<path d="M151.0597 119.4868 L150.9992 119.3658 "/>
<path d="M150.9992 119.3658 L150.9388 119.1239 "/>
<path d="M150.9388 119.1239 L150.9388 118.9425 "/>
<path d="M150.9388 118.9425 L150.9992 118.7006 "/>
<path d="M150.9992 118.7006 L151.0597 118.5797 "/>
<path d="M151.0597 118.5797 L151.1807 118.4587 "/>
<path d="M151.1807 118.4587 L151.3621 118.3982 "/>
<path d="M151.3621 118.3982 L151.4830 118.3982 "/>
<path d="M151.4830 118.3982 L151.6645 118.4587 "/>
<path d="M151.6645 118.4587 L151.7249 118.5192 "/>
<path d="M152.1483 118.3982 L152.9345 118.3982 "/>
<path d="M152.9345 118.3982 L152.5111 118.8820 "/>
<path d="M152.5111 118.8820 L152.6926 118.8820 "/>
<path d="M152.6926 118.8820 L152.8135 118.9425 "/>
<path d="M152.8135 118.9425 L152.8740 119.0030 "/>
<path d="M152.8740 119.0030 L152.9345 119.1239 "/>
<path d="M152.9345 119.1239 L152.9345 119.4263 "/>
<path d="M152.9345 119.4263 L152.8740 119.5473 "/>
<path d="M152.8740 119.5473 L152.8135 119.6078 "/>
<path d="M152.8135 119.6078 L152.6926 119.6682 "/>
<path d="M152.6926 119.6682 L152.3297 119.6682 "/>
<path d="M152.3297 119.6682 L152.2088 119.6078 "/>
<path d="M152.2088 119.6078 L152.1483 119.5473 "/>
<path d="M154.1440 118.4587 L154.0230 118.3982 "/>
<path d="M154.0230 118.3982 L153.8416 118.3982 "/>
<path d="M153.8416 118.3982 L153.6602 118.4587 "/>
<path d="M153.6602 118.4587 L153.5392 118.5797 "/>
<path d="M153.5392 118.5797 L153.4787 118.7006 "/>
<path d="M153.4787 118.7006 L153.4183 118.9425 "/>
<path d="M153.4183 118.9425 L153.4183 119.1239 "/>
<path d="M153.4183 119.1239 L153.4787 119.3658 "/>
<path d="M153.4787 119.3658 L153.5392 119.4868 "/>
<path d="M153.5392 119.4868 L153.6602 119.6078 "/>
<path d="M153.6602 119.6078 L153.8416 119.6682 "/>
<path d="M153.8416 119.6682 L153.9625 119.6682 "/>
<path d="M153.9625 119.6682 L154.1440 119.6078 "/>
<path d="M154.1440 119.6078 L154.2044 119.5473 "/>
<path d="M154.2044 119.5473 L154.2044 119.1239 "/>
<path d="M154.2044 119.1239 L153.9625 119.1239 "/>
<path d="M155.4140 119.6682 L154.6883 119.6682 "/>
<path d="M155.0511 119.6682 L155.0511 118.3982 "/>
<path d="M155.0511 118.3982 L154.9302 118.5797 "/>
<path d="M154.9302 118.5797 L154.8092 118.7006 "/>
<path d="M154.8092 118.7006 L154.6883 118.7611 "/>
<path d="M155.8373 118.3982 L156.6839 118.3982 "/>
<path d="M156.6839 118.3982 L156.1397 119.6682 "/>
</g></g>
<g style="fill:#FFFFC2; fill-opacity:1.0000; stroke:none;">
<rect x="170.180000" y="58.420000" width="7.620000" height="8.890000" rx="0.000000"/>
</g>
<g style="fill:#840000; fill-opacity:1.0000;  stroke:#840000; stroke-width:0.2540; stroke-opacity:1;  stroke-linecap:round; stroke-linejoin:round;">
<rect x="177.800000" y="64.770000" width="1.270000" height="2.540000" rx="0.000000"/>
<path style="fill:none;  stroke:#840000; stroke-width:0.2540; stroke-opacity:1;  stroke-linecap:round; stroke-linejoin:round;fill:none" d="M 174.6250,64.7700 173.9900,65.4050 173.3550,64.7700 173.3550,62.2300 170.1800,62.2300 "/> 
<path style="fill:none;  stroke:#840000; stroke-width:0.2540; stroke-opacity:1;  stroke-linecap:round; stroke-linejoin:round;fill:none" d="M 172.7200,64.7700 172.0850,65.4050 171.4500,64.7700 170.1800,64.7700 "/> 
</g>
<g style="fill:none;  stroke:#840000; stroke-width:0.2540; stroke-opacity:1;  stroke-linecap:round; stroke-linejoin:round;">
<rect x="170.180000" y="58.420000" width="7.620000" height="8.890000" rx="0.000000"/>
<path style="fill:none;  stroke:#840000; stroke-width:0.2540; stroke-opacity:1;  stroke-linecap:round; stroke-linejoin:round;fill:none" d="M 170.1800,59.6900 175.2600,59.6900 175.2600,64.7700 175.8950,65.4050 176.5300,64.7700 "/> 
</g>
<g style="fill:none;  stroke:#840000; stroke-width:0.1524; stroke-opacity:1;  stroke-linecap:round; stroke-linejoin:round;">
<path d="M170.1800 59.6900 L167.6400 59.6900 "/>
</g>
<g style="fill:none;  stroke:#A90000; stroke-width:0.1524; stroke-opacity:1;  stroke-linecap:round; stroke-linejoin:round;">
<text x="168.9100" y="59.4360" textLength="1.4127" font-size="1.6933" lengthAdjust="spacingAndGlyphs" text-anchor="middle" opacity="0" stroke-opacity="0">1</text>
<g class="stroked-text"><desc>1</desc>
<path d="M169.2729 59.2725 L168.5472 59.2725 "/>
<path d="M168.9100 59.2725 L168.9100 58.0025 "/>
<path d="M168.9100 58.0025 L168.7891 58.1840 "/>
<path d="M168.7891 58.1840 L168.6681 58.3049 "/>
<path d="M168.6681 58.3049 L168.5472 58.3654 "/>
</g></g>
<g style="fill:none;  stroke:#840000; stroke-width:0.1524; stroke-opacity:1;  stroke-linecap:round; stroke-linejoin:round;">
<path d="M170.1800 62.2300 L167.6400 62.2300 "/>
</g>
<g style="fill:none;  stroke:#A90000; stroke-width:0.1524; stroke-opacity:1;  stroke-linecap:round; stroke-linejoin:round;">
<text x="168.9100" y="61.9760" textLength="1.4127" font-size="1.6933" lengthAdjust="spacingAndGlyphs" text-anchor="middle" opacity="0" stroke-opacity="0">3</text>
<g class="stroked-text"><desc>3</desc>
<path d="M168.4867 60.5425 L169.2729 60.5425 "/>
<path d="M169.2729 60.5425 L168.8495 61.0263 "/>
<path d="M168.8495 61.0263 L169.0310 61.0263 "/>
<path d="M169.0310 61.0263 L169.1519 61.0868 "/>
<path d="M169.1519 61.0868 L169.2124 61.1473 "/>
<path d="M169.2124 61.1473 L169.2729 61.2682 "/>
<path d="M169.2729 61.2682 L169.2729 61.5706 "/>
<path d="M169.2729 61.5706 L169.2124 61.6916 "/>
<path d="M169.2124 61.6916 L169.1519 61.7521 "/>
<path d="M169.1519 61.7521 L169.0310 61.8125 "/>
<path d="M169.0310 61.8125 L168.6681 61.8125 "/>
<path d="M168.6681 61.8125 L168.5472 61.7521 "/>
<path d="M168.5472 61.7521 L168.4867 61.6916 "/>
</g></g>
<g style="fill:none;  stroke:#840000; stroke-width:0.1524; stroke-opacity:1;  stroke-linecap:round; stroke-linejoin:round;">
<path d="M170.1800 64.7700 L167.6400 64.7700 "/>
</g>
<g style="fill:none;  stroke:#A90000; stroke-width:0.1524; stroke-opacity:1;  stroke-linecap:round; stroke-linejoin:round;">
<text x="168.9100" y="64.5160" textLength="1.4127" font-size="1.6933" lengthAdjust="spacingAndGlyphs" text-anchor="middle" opacity="0" stroke-opacity="0">2</text>
<g class="stroked-text"><desc>2</desc>
<path d="M168.5472 63.2035 L168.6076 63.1430 "/>
<path d="M168.6076 63.1430 L168.7286 63.0825 "/>
<path d="M168.7286 63.0825 L169.0310 63.0825 "/>
<path d="M169.0310 63.0825 L169.1519 63.1430 "/>
<path d="M169.1519 63.1430 L169.2124 63.2035 "/>
<path d="M169.2124 63.2035 L169.2729 63.3244 "/>
<path d="M169.2729 63.3244 L169.2729 63.4454 "/>
<path d="M169.2729 63.4454 L169.2124 63.6268 "/>
<path d="M169.2124 63.6268 L168.4867 64.3525 "/>
<path d="M168.4867 64.3525 L169.2729 64.3525 "/>
</g></g>
<g style="fill:none;  stroke:#006464; stroke-width:0.1524; stroke-opacity:1;  stroke-linecap:round; stroke-linejoin:round;">
<text x="174.6249" y="53.9750" textLength="2.3803" font-size="1.6933" lengthAdjust="spacingAndGlyphs" text-anchor="middle" opacity="0" stroke-opacity="0">J4</text>
<g class="stroked-text"><desc>J4</desc>
<path d="M174.2016 52.6495 L174.2016 53.5567 "/>
<path d="M174.2016 53.5567 L174.1411 53.7381 "/>
<path d="M174.1411 53.7381 L174.0202 53.8591 "/>
<path d="M174.0202 53.8591 L173.8387 53.9195 "/>
<path d="M173.8387 53.9195 L173.7178 53.9195 "/>
<path d="M175.3506 53.0729 L175.3506 53.9195 "/>
<path d="M175.0482 52.5891 L174.7459 53.4962 "/>
<path d="M174.7459 53.4962 L175.5320 53.4962 "/>
</g><text x="174.6250" y="56.5150" textLength="10.7864" font-size="1.6933" lengthAdjust="spacingAndGlyphs" text-anchor="middle" opacity="0" stroke-opacity="0">AudioJack3</text>
<g class="stroked-text"><desc>AudioJack3</desc>
<path d="M169.5753 56.0967 L170.1800 56.0967 "/>
<path d="M169.4543 56.4595 L169.8776 55.1895 "/>
<path d="M169.8776 55.1895 L170.3010 56.4595 "/>
<path d="M171.2686 55.6129 L171.2686 56.4595 "/>
<path d="M170.7243 55.6129 L170.7243 56.2781 "/>
<path d="M170.7243 56.2781 L170.7848 56.3991 "/>
<path d="M170.7848 56.3991 L170.9058 56.4595 "/>
<path d="M170.9058 56.4595 L171.0872 56.4595 "/>
<path d="M171.0872 56.4595 L171.2081 56.3991 "/>
<path d="M171.2081 56.3991 L171.2686 56.3386 "/>
<path d="M172.4176 56.4595 L172.4176 55.1895 "/>
<path d="M172.4176 56.3991 L172.2967 56.4595 "/>
<path d="M172.2967 56.4595 L172.0548 56.4595 "/>
<path d="M172.0548 56.4595 L171.9338 56.3991 "/>
<path d="M171.9338 56.3991 L171.8733 56.3386 "/>
<path d="M171.8733 56.3386 L171.8129 56.2176 "/>
<path d="M171.8129 56.2176 L171.8129 55.8548 "/>
<path d="M171.8129 55.8548 L171.8733 55.7338 "/>
<path d="M171.8733 55.7338 L171.9338 55.6733 "/>
<path d="M171.9338 55.6733 L172.0548 55.6129 "/>
<path d="M172.0548 55.6129 L172.2967 55.6129 "/>
<path d="M172.2967 55.6129 L172.4176 55.6733 "/>
<path d="M173.0223 56.4595 L173.0223 55.6129 "/>
<path d="M173.0223 55.1895 L172.9619 55.2500 "/>
<path d="M172.9619 55.2500 L173.0223 55.3105 "/>
<path d="M173.0223 55.3105 L173.0828 55.2500 "/>
<path d="M173.0828 55.2500 L173.0223 55.1895 "/>
<path d="M173.0223 55.1895 L173.0223 55.3105 "/>
<path d="M173.8086 56.4595 L173.6876 56.3991 "/>
<path d="M173.6876 56.3991 L173.6271 56.3386 "/>
<path d="M173.6271 56.3386 L173.5667 56.2176 "/>
<path d="M173.5667 56.2176 L173.5667 55.8548 "/>
<path d="M173.5667 55.8548 L173.6271 55.7338 "/>
<path d="M173.6271 55.7338 L173.6876 55.6733 "/>
<path d="M173.6876 55.6733 L173.8086 55.6129 "/>
<path d="M173.8086 55.6129 L173.9900 55.6129 "/>
<path d="M173.9900 55.6129 L174.1109 55.6733 "/>
<path d="M174.1109 55.6733 L174.1714 55.7338 "/>
<path d="M174.1714 55.7338 L174.2319 55.8548 "/>
<path d="M174.2319 55.8548 L174.2319 56.2176 "/>
<path d="M174.2319 56.2176 L174.1714 56.3386 "/>
<path d="M174.1714 56.3386 L174.1109 56.3991 "/>
<path d="M174.1109 56.3991 L173.9900 56.4595 "/>
<path d="M173.9900 56.4595 L173.8086 56.4595 "/>
<path d="M175.1390 55.1895 L175.1390 56.0967 "/>
<path d="M175.1390 56.0967 L175.0785 56.2781 "/>
<path d="M175.0785 56.2781 L174.9576 56.3991 "/>
<path d="M174.9576 56.3991 L174.7761 56.4595 "/>
<path d="M174.7761 56.4595 L174.6552 56.4595 "/>
<path d="M176.2880 56.4595 L176.2880 55.7943 "/>
<path d="M176.2880 55.7943 L176.2275 55.6733 "/>
<path d="M176.2275 55.6733 L176.1066 55.6129 "/>
<path d="M176.1066 55.6129 L175.8647 55.6129 "/>
<path d="M175.8647 55.6129 L175.7437 55.6733 "/>
<path d="M176.2880 56.3991 L176.1671 56.4595 "/>
<path d="M176.1671 56.4595 L175.8647 56.4595 "/>
<path d="M175.8647 56.4595 L175.7437 56.3991 "/>
<path d="M175.7437 56.3991 L175.6833 56.2781 "/>
<path d="M175.6833 56.2781 L175.6833 56.1571 "/>
<path d="M175.6833 56.1571 L175.7437 56.0362 "/>
<path d="M175.7437 56.0362 L175.8647 55.9757 "/>
<path d="M175.8647 55.9757 L176.1671 55.9757 "/>
<path d="M176.1671 55.9757 L176.2880 55.9152 "/>
<path d="M177.4370 56.3991 L177.3161 56.4595 "/>
<path d="M177.3161 56.4595 L177.0742 56.4595 "/>
<path d="M177.0742 56.4595 L176.9532 56.3991 "/>
<path d="M176.9532 56.3991 L176.8927 56.3386 "/>
<path d="M176.8927 56.3386 L176.8323 56.2176 "/>
<path d="M176.8323 56.2176 L176.8323 55.8548 "/>
<path d="M176.8323 55.8548 L176.8927 55.7338 "/>
<path d="M176.8927 55.7338 L176.9532 55.6733 "/>
<path d="M176.9532 55.6733 L177.0742 55.6129 "/>
<path d="M177.0742 55.6129 L177.3161 55.6129 "/>
<path d="M177.3161 55.6129 L177.4370 55.6733 "/>
<path d="M177.9813 56.4595 L177.9813 55.1895 "/>
<path d="M178.1023 55.9757 L178.4651 56.4595 "/>
<path d="M178.4651 55.6129 L177.9813 56.0967 "/>
<path d="M178.8885 55.1895 L179.6747 55.1895 "/>
<path d="M179.6747 55.1895 L179.2513 55.6733 "/>
<path d="M179.2513 55.6733 L179.4328 55.6733 "/>
<path d="M179.4328 55.6733 L179.5537 55.7338 "/>
<path d="M179.5537 55.7338 L179.6142 55.7943 "/>
<path d="M179.6142 55.7943 L179.6747 55.9152 "/>
<path d="M179.6747 55.9152 L179.6747 56.2176 "/>
<path d="M179.6747 56.2176 L179.6142 56.3386 "/>
<path d="M179.6142 56.3386 L179.5537 56.3991 "/>
<path d="M179.5537 56.3991 L179.4328 56.4595 "/>
<path d="M179.4328 56.4595 L179.0699 56.4595 "/>
<path d="M179.0699 56.4595 L178.9490 56.3991 "/>
<path d="M178.9490 56.3991 L178.8885 56.3386 "/>
</g><path style="fill:none;  stroke:#840000; stroke-width:0.1524; stroke-opacity:1;  stroke-linecap:round; stroke-linejoin:round;fill:none" d="M 165.1000,129.5400 165.1000,130.8100 163.8300,130.8100 165.1000,132.0800 166.3700,130.8100 165.1000,130.8100 "/> 
</g>
<g style="fill:none;  stroke:#840000; stroke-width:0.1524; stroke-opacity:1;  stroke-linecap:round; stroke-linejoin:round;">
<path d="M165.1000 129.5400 L165.1000 129.5400 "/>
</g>
<g style="fill:none;  stroke:#006464; stroke-width:0.1524; stroke-opacity:1;  stroke-linecap:round; stroke-linejoin:round;">
<text x="165.0999" y="135.2550" textLength="4.0737" font-size="1.6933" lengthAdjust="spacingAndGlyphs" text-anchor="middle" opacity="0" stroke-opacity="0">GND</text>
<g class="stroked-text"><desc>GND</desc>
<path d="M164.1323 133.9900 L164.0113 133.9295 "/>
<path d="M164.0113 133.9295 L163.8299 133.9295 "/>
<path d="M163.8299 133.9295 L163.6485 133.9900 "/>
<path d="M163.6485 133.9900 L163.5275 134.1110 "/>
<path d="M163.5275 134.1110 L163.4670 134.2319 "/>
<path d="M163.4670 134.2319 L163.4066 134.4738 "/>
<path d="M163.4066 134.4738 L163.4066 134.6552 "/>
<path d="M163.4066 134.6552 L163.4670 134.8971 "/>
<path d="M163.4670 134.8971 L163.5275 135.0181 "/>
<path d="M163.5275 135.0181 L163.6485 135.1391 "/>
<path d="M163.6485 135.1391 L163.8299 135.1995 "/>
<path d="M163.8299 135.1995 L163.9508 135.1995 "/>
<path d="M163.9508 135.1995 L164.1323 135.1391 "/>
<path d="M164.1323 135.1391 L164.1927 135.0786 "/>
<path d="M164.1927 135.0786 L164.1927 134.6552 "/>
<path d="M164.1927 134.6552 L163.9508 134.6552 "/>
<path d="M164.7370 135.1995 L164.7370 133.9295 "/>
<path d="M164.7370 133.9295 L165.4627 135.1995 "/>
<path d="M165.4627 135.1995 L165.4627 133.9295 "/>
<path d="M166.0675 135.1995 L166.0675 133.9295 "/>
<path d="M166.0675 133.9295 L166.3699 133.9295 "/>
<path d="M166.3699 133.9295 L166.5513 133.9900 "/>
<path d="M166.5513 133.9900 L166.6723 134.1110 "/>
<path d="M166.6723 134.1110 L166.7328 134.2319 "/>
<path d="M166.7328 134.2319 L166.7932 134.4738 "/>
<path d="M166.7932 134.4738 L166.7932 134.6552 "/>
<path d="M166.7932 134.6552 L166.7328 134.8971 "/>
<path d="M166.7328 134.8971 L166.6723 135.0181 "/>
<path d="M166.6723 135.0181 L166.5513 135.1391 "/>
<path d="M166.5513 135.1391 L166.3699 135.1995 "/>
<path d="M166.3699 135.1995 L166.0675 135.1995 "/>
</g></g>
<g style="fill:none;  stroke:#840000; stroke-width:0.1524; stroke-opacity:1;  stroke-linecap:round; stroke-linejoin:round;">
<path d="M73.6600 91.4400 L73.6600 86.3600 "/>
</g>
<g style="fill:none;  stroke:#006464; stroke-width:0.1524; stroke-opacity:1;  stroke-linecap:round; stroke-linejoin:round;">
<g transform="rotate(-90.000000 73.6600 91.9480)">
<text x="73.6600" y="92.5830" textLength="3.8318" font-size="1.6933" lengthAdjust="spacingAndGlyphs" text-anchor="end" opacity="0" stroke-opacity="0">VCC</text>
</g>
<g class="stroked-text"><desc>VCC</desc>
<path d="M72.9695 95.5558 L74.2395 95.1325 "/>
<path d="M74.2395 95.1325 L72.9695 94.7091 "/>
<path d="M74.1186 93.5601 L74.1791 93.6205 "/>
<path d="M74.1791 93.6205 L74.2395 93.8020 "/>
<path d="M74.2395 93.8020 L74.2395 93.9229 "/>
<path d="M74.2395 93.9229 L74.1791 94.1043 "/>
<path d="M74.1791 94.1043 L74.0581 94.2253 "/>
<path d="M74.0581 94.2253 L73.9371 94.2858 "/>
<path d="M73.9371 94.2858 L73.6952 94.3462 "/>
<path d="M73.6952 94.3462 L73.5138 94.3462 "/>
<path d="M73.5138 94.3462 L73.2719 94.2858 "/>
<path d="M73.2719 94.2858 L73.1510 94.2253 "/>
<path d="M73.1510 94.2253 L73.0300 94.1043 "/>
<path d="M73.0300 94.1043 L72.9695 93.9229 "/>
<path d="M72.9695 93.9229 L72.9695 93.8020 "/>
<path d="M72.9695 93.8020 L73.0300 93.6205 "/>
<path d="M73.0300 93.6205 L73.0905 93.5601 "/>
<path d="M74.1186 92.2901 L74.1791 92.3505 "/>
<path d="M74.1791 92.3505 L74.2395 92.5320 "/>
<path d="M74.2395 92.5320 L74.2395 92.6529 "/>
<path d="M74.2395 92.6529 L74.1791 92.8343 "/>
<path d="M74.1791 92.8343 L74.0581 92.9553 "/>
<path d="M74.0581 92.9553 L73.9371 93.0158 "/>
<path d="M73.9371 93.0158 L73.6952 93.0762 "/>
<path d="M73.6952 93.0762 L73.5138 93.0762 "/>
<path d="M73.5138 93.0762 L73.2719 93.0158 "/>
<path d="M73.2719 93.0158 L73.1510 92.9553 "/>
<path d="M73.1510 92.9553 L73.0300 92.8343 "/>
<path d="M73.0300 92.8343 L72.9695 92.6529 "/>
<path d="M72.9695 92.6529 L72.9695 92.5320 "/>
<path d="M72.9695 92.5320 L73.0300 92.3505 "/>
<path d="M73.0300 92.3505 L73.0905 92.2901 "/>
</g></g>
<g style="fill:none;  stroke:#A90000; stroke-width:0.1524; stroke-opacity:1;  stroke-linecap:round; stroke-linejoin:round;">
<g transform="rotate(-90.000000 73.4060 88.9000)">
<text x="73.4060" y="88.9000" textLength="1.4127" font-size="1.6933" lengthAdjust="spacingAndGlyphs" text-anchor="middle" opacity="0" stroke-opacity="0">8</text>
</g>
<g class="stroked-text"><desc>8</desc>
<path d="M72.5168 89.0208 L72.4563 89.1418 "/>
<path d="M72.4563 89.1418 L72.3959 89.2023 "/>
<path d="M72.3959 89.2023 L72.2749 89.2627 "/>
<path d="M72.2749 89.2627 L72.2144 89.2627 "/>
<path d="M72.2144 89.2627 L72.0935 89.2023 "/>
<path d="M72.0935 89.2023 L72.0330 89.1418 "/>
<path d="M72.0330 89.1418 L71.9725 89.0208 "/>
<path d="M71.9725 89.0208 L71.9725 88.7789 "/>
<path d="M71.9725 88.7789 L72.0330 88.6580 "/>
<path d="M72.0330 88.6580 L72.0935 88.5975 "/>
<path d="M72.0935 88.5975 L72.2144 88.5370 "/>
<path d="M72.2144 88.5370 L72.2749 88.5370 "/>
<path d="M72.2749 88.5370 L72.3959 88.5975 "/>
<path d="M72.3959 88.5975 L72.4563 88.6580 "/>
<path d="M72.4563 88.6580 L72.5168 88.7789 "/>
<path d="M72.5168 88.7789 L72.5168 89.0208 "/>
<path d="M72.5168 89.0208 L72.5773 89.1418 "/>
<path d="M72.5773 89.1418 L72.6378 89.2023 "/>
<path d="M72.6378 89.2023 L72.7587 89.2627 "/>
<path d="M72.7587 89.2627 L73.0006 89.2627 "/>
<path d="M73.0006 89.2627 L73.1216 89.2023 "/>
<path d="M73.1216 89.2023 L73.1821 89.1418 "/>
<path d="M73.1821 89.1418 L73.2425 89.0208 "/>
<path d="M73.2425 89.0208 L73.2425 88.7789 "/>
<path d="M73.2425 88.7789 L73.1821 88.6580 "/>
<path d="M73.1821 88.6580 L73.1216 88.5975 "/>
<path d="M73.1216 88.5975 L73.0006 88.5370 "/>
<path d="M73.0006 88.5370 L72.7587 88.5370 "/>
<path d="M72.7587 88.5370 L72.6378 88.5975 "/>
<path d="M72.6378 88.5975 L72.5773 88.6580 "/>
<path d="M72.5773 88.6580 L72.5168 88.7789 "/>
</g></g>
<g style="fill:none;  stroke:#840000; stroke-width:0.1524; stroke-opacity:1;  stroke-linecap:round; stroke-linejoin:round;">
<path d="M73.6600 101.6000 L73.6600 106.6800 "/>
</g>
<g style="fill:none;  stroke:#006464; stroke-width:0.1524; stroke-opacity:1;  stroke-linecap:round; stroke-linejoin:round;">
<g transform="rotate(-90.000000 73.6600 101.0920)">
<text x="73.6600" y="101.7270" textLength="4.0737" font-size="1.6933" lengthAdjust="spacingAndGlyphs" text-anchor="start" opacity="0" stroke-opacity="0">GND</text>
</g>
<g class="stroked-text"><desc>GND</desc>
<path d="M73.0300 100.0241 L72.9695 100.1451 "/>
<path d="M72.9695 100.1451 L72.9695 100.3265 "/>
<path d="M72.9695 100.3265 L73.0300 100.5079 "/>
<path d="M73.0300 100.5079 L73.1510 100.6289 "/>
<path d="M73.1510 100.6289 L73.2719 100.6894 "/>
<path d="M73.2719 100.6894 L73.5138 100.7498 "/>
<path d="M73.5138 100.7498 L73.6952 100.7498 "/>
<path d="M73.6952 100.7498 L73.9371 100.6894 "/>
<path d="M73.9371 100.6894 L74.0581 100.6289 "/>
<path d="M74.0581 100.6289 L74.1791 100.5079 "/>
<path d="M74.1791 100.5079 L74.2395 100.3265 "/>
<path d="M74.2395 100.3265 L74.2395 100.2056 "/>
<path d="M74.2395 100.2056 L74.1791 100.0241 "/>
<path d="M74.1791 100.0241 L74.1186 99.9637 "/>
<path d="M74.1186 99.9637 L73.6952 99.9637 "/>
<path d="M73.6952 99.9637 L73.6952 100.2056 "/>
<path d="M74.2395 99.4194 L72.9695 99.4194 "/>
<path d="M72.9695 99.4194 L74.2395 98.6937 "/>
<path d="M74.2395 98.6937 L72.9695 98.6937 "/>
<path d="M74.2395 98.0889 L72.9695 98.0889 "/>
<path d="M72.9695 98.0889 L72.9695 97.7865 "/>
<path d="M72.9695 97.7865 L73.0300 97.6051 "/>
<path d="M73.0300 97.6051 L73.1510 97.4841 "/>
<path d="M73.1510 97.4841 L73.2719 97.4236 "/>
<path d="M73.2719 97.4236 L73.5138 97.3632 "/>
<path d="M73.5138 97.3632 L73.6952 97.3632 "/>
<path d="M73.6952 97.3632 L73.9371 97.4236 "/>
<path d="M73.9371 97.4236 L74.0581 97.4841 "/>
<path d="M74.0581 97.4841 L74.1791 97.6051 "/>
<path d="M74.1791 97.6051 L74.2395 97.7865 "/>
<path d="M74.2395 97.7865 L74.2395 98.0889 "/>
</g></g>
<g style="fill:none;  stroke:#A90000; stroke-width:0.1524; stroke-opacity:1;  stroke-linecap:round; stroke-linejoin:round;">
<g transform="rotate(-90.000000 73.4060 104.1400)">
<text x="73.4060" y="104.1400" textLength="1.4127" font-size="1.6933" lengthAdjust="spacingAndGlyphs" text-anchor="middle" opacity="0" stroke-opacity="0">4</text>
</g>
<g class="stroked-text"><desc>4</desc>
<path d="M72.3959 103.8980 L73.2425 103.8980 "/>
<path d="M71.9121 104.2004 L72.8192 104.5027 "/>
<path d="M72.8192 104.5027 L72.8192 103.7166 "/>
</g><path style="fill:none;  stroke:#840000; stroke-width:0.1524; stroke-opacity:1;  stroke-linecap:round; stroke-linejoin:round;fill:none" d="M 92.7100,100.3300 92.7100,101.6000 91.4400,101.6000 92.7100,102.8700 93.9800,101.6000 92.7100,101.6000 "/> 
</g>
<g style="fill:none;  stroke:#840000; stroke-width:0.1524; stroke-opacity:1;  stroke-linecap:round; stroke-linejoin:round;">
<path d="M92.7100 100.3300 L92.7100 100.3300 "/>
</g>
<g style="fill:none;  stroke:#006464; stroke-width:0.1524; stroke-opacity:1;  stroke-linecap:round; stroke-linejoin:round;">
<text x="92.7099" y="106.0450" textLength="4.0737" font-size="1.6933" lengthAdjust="spacingAndGlyphs" text-anchor="middle" opacity="0" stroke-opacity="0">GND</text>
<g class="stroked-text"><desc>GND</desc>
<path d="M91.7423 104.7800 L91.6213 104.7195 "/>
<path d="M91.6213 104.7195 L91.4399 104.7195 "/>
<path d="M91.4399 104.7195 L91.2585 104.7800 "/>
<path d="M91.2585 104.7800 L91.1375 104.9010 "/>
<path d="M91.1375 104.9010 L91.0770 105.0219 "/>
<path d="M91.0770 105.0219 L91.0166 105.2638 "/>
<path d="M91.0166 105.2638 L91.0166 105.4452 "/>
<path d="M91.0166 105.4452 L91.0770 105.6871 "/>
<path d="M91.0770 105.6871 L91.1375 105.8081 "/>
<path d="M91.1375 105.8081 L91.2585 105.9291 "/>
<path d="M91.2585 105.9291 L91.4399 105.9895 "/>
<path d="M91.4399 105.9895 L91.5608 105.9895 "/>
<path d="M91.5608 105.9895 L91.7423 105.9291 "/>
<path d="M91.7423 105.9291 L91.8027 105.8686 "/>
<path d="M91.8027 105.8686 L91.8027 105.4452 "/>
<path d="M91.8027 105.4452 L91.5608 105.4452 "/>
<path d="M92.3470 105.9895 L92.3470 104.7195 "/>
<path d="M92.3470 104.7195 L93.0727 105.9895 "/>
<path d="M93.0727 105.9895 L93.0727 104.7195 "/>
<path d="M93.6775 105.9895 L93.6775 104.7195 "/>
<path d="M93.6775 104.7195 L93.9799 104.7195 "/>
<path d="M93.9799 104.7195 L94.1613 104.7800 "/>
<path d="M94.1613 104.7800 L94.2823 104.9010 "/>
<path d="M94.2823 104.9010 L94.3428 105.0219 "/>
<path d="M94.3428 105.0219 L94.4032 105.2638 "/>
<path d="M94.4032 105.2638 L94.4032 105.4452 "/>
<path d="M94.4032 105.4452 L94.3428 105.6871 "/>
<path d="M94.3428 105.6871 L94.2823 105.8081 "/>
<path d="M94.2823 105.8081 L94.1613 105.9291 "/>
<path d="M94.1613 105.9291 L93.9799 105.9895 "/>
<path d="M93.9799 105.9895 L93.6775 105.9895 "/>
</g><path style="fill:none;  stroke:#840000; stroke-width:0.1524; stroke-opacity:1;  stroke-linecap:round; stroke-linejoin:round;fill:none" d="M 73.6600,114.3000 73.6600,115.5700 72.3900,115.5700 73.6600,116.8400 74.9300,115.5700 73.6600,115.5700 "/> 
</g>
<g style="fill:none;  stroke:#840000; stroke-width:0.1524; stroke-opacity:1;  stroke-linecap:round; stroke-linejoin:round;">
<path d="M73.6600 114.3000 L73.6600 114.3000 "/>
</g>
<g style="fill:none;  stroke:#006464; stroke-width:0.1524; stroke-opacity:1;  stroke-linecap:round; stroke-linejoin:round;">
<text x="73.6599" y="120.0150" textLength="4.0737" font-size="1.6933" lengthAdjust="spacingAndGlyphs" text-anchor="middle" opacity="0" stroke-opacity="0">GND</text>
<g class="stroked-text"><desc>GND</desc>
<path d="M72.6923 118.7500 L72.5713 118.6895 "/>
<path d="M72.5713 118.6895 L72.3899 118.6895 "/>
<path d="M72.3899 118.6895 L72.2085 118.7500 "/>
<path d="M72.2085 118.7500 L72.0875 118.8710 "/>
<path d="M72.0875 118.8710 L72.0270 118.9919 "/>
<path d="M72.0270 118.9919 L71.9666 119.2338 "/>
<path d="M71.9666 119.2338 L71.9666 119.4152 "/>
<path d="M71.9666 119.4152 L72.0270 119.6571 "/>
<path d="M72.0270 119.6571 L72.0875 119.7781 "/>
<path d="M72.0875 119.7781 L72.2085 119.8991 "/>
<path d="M72.2085 119.8991 L72.3899 119.9595 "/>
<path d="M72.3899 119.9595 L72.5108 119.9595 "/>
<path d="M72.5108 119.9595 L72.6923 119.8991 "/>
<path d="M72.6923 119.8991 L72.7527 119.8386 "/>
<path d="M72.7527 119.8386 L72.7527 119.4152 "/>
<path d="M72.7527 119.4152 L72.5108 119.4152 "/>
<path d="M73.2970 119.9595 L73.2970 118.6895 "/>
<path d="M73.2970 118.6895 L74.0227 119.9595 "/>
<path d="M74.0227 119.9595 L74.0227 118.6895 "/>
<path d="M74.6275 119.9595 L74.6275 118.6895 "/>
<path d="M74.6275 118.6895 L74.9299 118.6895 "/>
<path d="M74.9299 118.6895 L75.1113 118.7500 "/>
<path d="M75.1113 118.7500 L75.2323 118.8710 "/>
<path d="M75.2323 118.8710 L75.2928 118.9919 "/>
<path d="M75.2928 118.9919 L75.3532 119.2338 "/>
<path d="M75.3532 119.2338 L75.3532 119.4152 "/>
<path d="M75.3532 119.4152 L75.2928 119.6571 "/>
<path d="M75.2928 119.6571 L75.2323 119.7781 "/>
<path d="M75.2323 119.7781 L75.1113 119.8991 "/>
<path d="M75.1113 119.8991 L74.9299 119.9595 "/>
<path d="M74.9299 119.9595 L74.6275 119.9595 "/>
</g></g>
<g style="fill:none;  stroke:#725600; stroke-width:0.1524; stroke-opacity:1;  stroke-linecap:round; stroke-linejoin:round;">
<text x="121.5390" y="94.6150" textLength="11.8146" font-size="1.6933" lengthAdjust="spacingAndGlyphs" text-anchor="end" opacity="0" stroke-opacity="0">START/STOP</text>
<g class="stroked-text"><desc>START/STOP</desc>
<path d="M110.0693 94.4991 L110.2507 94.5595 "/>
<path d="M110.2507 94.5595 L110.5531 94.5595 "/>
<path d="M110.5531 94.5595 L110.6740 94.4991 "/>
<path d="M110.6740 94.4991 L110.7345 94.4386 "/>
<path d="M110.7345 94.4386 L110.7950 94.3176 "/>
<path d="M110.7950 94.3176 L110.7950 94.1967 "/>
<path d="M110.7950 94.1967 L110.7345 94.0757 "/>
<path d="M110.7345 94.0757 L110.6740 94.0152 "/>
<path d="M110.6740 94.0152 L110.5531 93.9548 "/>
<path d="M110.5531 93.9548 L110.3112 93.8943 "/>
<path d="M110.3112 93.8943 L110.1902 93.8338 "/>
<path d="M110.1902 93.8338 L110.1297 93.7733 "/>
<path d="M110.1297 93.7733 L110.0693 93.6524 "/>
<path d="M110.0693 93.6524 L110.0693 93.5314 "/>
<path d="M110.0693 93.5314 L110.1297 93.4105 "/>
<path d="M110.1297 93.4105 L110.1902 93.3500 "/>
<path d="M110.1902 93.3500 L110.3112 93.2895 "/>
<path d="M110.3112 93.2895 L110.6135 93.2895 "/>
<path d="M110.6135 93.2895 L110.7950 93.3500 "/>
<path d="M111.1578 93.2895 L111.8835 93.2895 "/>
<path d="M111.5207 94.5595 L111.5207 93.2895 "/>
<path d="M112.2464 94.1967 L112.8511 94.1967 "/>
<path d="M112.1254 94.5595 L112.5487 93.2895 "/>
<path d="M112.5487 93.2895 L112.9721 94.5595 "/>
<path d="M114.1211 94.5595 L113.6978 93.9548 "/>
<path d="M113.3954 94.5595 L113.3954 93.2895 "/>
<path d="M113.3954 93.2895 L113.8792 93.2895 "/>
<path d="M113.8792 93.2895 L114.0002 93.3500 "/>
<path d="M114.0002 93.3500 L114.0607 93.4105 "/>
<path d="M114.0607 93.4105 L114.1211 93.5314 "/>
<path d="M114.1211 93.5314 L114.1211 93.7129 "/>
<path d="M114.1211 93.7129 L114.0607 93.8338 "/>
<path d="M114.0607 93.8338 L114.0002 93.8943 "/>
<path d="M114.0002 93.8943 L113.8792 93.9548 "/>
<path d="M113.8792 93.9548 L113.3954 93.9548 "/>
<path d="M114.4840 93.2895 L115.2097 93.2895 "/>
<path d="M114.8469 94.5595 L114.8469 93.2895 "/>
<path d="M116.5402 93.2291 L115.4516 94.8619 "/>
<path d="M116.9031 94.4991 L117.0845 94.5595 "/>
<path d="M117.0845 94.5595 L117.3869 94.5595 "/>
<path d="M117.3869 94.5595 L117.5078 94.4991 "/>
<path d="M117.5078 94.4991 L117.5683 94.4386 "/>
<path d="M117.5683 94.4386 L117.6288 94.3176 "/>
<path d="M117.6288 94.3176 L117.6288 94.1967 "/>
<path d="M117.6288 94.1967 L117.5683 94.0757 "/>
<path d="M117.5683 94.0757 L117.5078 94.0152 "/>
<path d="M117.5078 94.0152 L117.3869 93.9548 "/>
<path d="M117.3869 93.9548 L117.1450 93.8943 "/>
<path d="M117.1450 93.8943 L117.0240 93.8338 "/>
<path d="M117.0240 93.8338 L116.9635 93.7733 "/>
<path d="M116.9635 93.7733 L116.9031 93.6524 "/>
<path d="M116.9031 93.6524 L116.9031 93.5314 "/>
<path d="M116.9031 93.5314 L116.9635 93.4105 "/>
<path d="M116.9635 93.4105 L117.0240 93.3500 "/>
<path d="M117.0240 93.3500 L117.1450 93.2895 "/>
<path d="M117.1450 93.2895 L117.4473 93.2895 "/>
<path d="M117.4473 93.2895 L117.6288 93.3500 "/>
<path d="M117.9916 93.2895 L118.7173 93.2895 "/>
<path d="M118.3545 94.5595 L118.3545 93.2895 "/>
<path d="M119.3825 93.2895 L119.6244 93.2895 "/>
<path d="M119.6244 93.2895 L119.7454 93.3500 "/>
<path d="M119.7454 93.3500 L119.8663 93.4710 "/>
<path d="M119.8663 93.4710 L119.9268 93.7129 "/>
<path d="M119.9268 93.7129 L119.9268 94.1362 "/>
<path d="M119.9268 94.1362 L119.8663 94.3781 "/>
<path d="M119.8663 94.3781 L119.7454 94.4991 "/>
<path d="M119.7454 94.4991 L119.6244 94.5595 "/>
<path d="M119.6244 94.5595 L119.3825 94.5595 "/>
<path d="M119.3825 94.5595 L119.2616 94.4991 "/>
<path d="M119.2616 94.4991 L119.1406 94.3781 "/>
<path d="M119.1406 94.3781 L119.0802 94.1362 "/>
<path d="M119.0802 94.1362 L119.0802 93.7129 "/>
<path d="M119.0802 93.7129 L119.1406 93.4710 "/>
<path d="M119.1406 93.4710 L119.2616 93.3500 "/>
<path d="M119.2616 93.3500 L119.3825 93.2895 "/>
<path d="M120.4711 94.5595 L120.4711 93.2895 "/>
<path d="M120.4711 93.2895 L120.9549 93.2895 "/>
<path d="M120.9549 93.2895 L121.0759 93.3500 "/>
<path d="M121.0759 93.3500 L121.1364 93.4105 "/>
<path d="M121.1364 93.4105 L121.1968 93.5314 "/>
<path d="M121.1968 93.5314 L121.1968 93.7129 "/>
<path d="M121.1968 93.7129 L121.1364 93.8338 "/>
<path d="M121.1364 93.8338 L121.0759 93.8943 "/>
<path d="M121.0759 93.8943 L120.9549 93.9548 "/>
<path d="M120.9549 93.9548 L120.4711 93.9548 "/>
</g><path style="fill:none;  stroke:#725600; stroke-width:0.1524; stroke-opacity:1;  stroke-linecap:round; stroke-linejoin:round;fill:none" d="M 123.1900,93.9800 122.5550,93.3450 121.9200,93.3450 121.9200,94.6150 122.5550,94.6150 Z"/> 
</g>
<g style="fill:none;  stroke:#725600; stroke-width:0.1524; stroke-opacity:1;  stroke-linecap:round; stroke-linejoin:round;">
<text x="121.5390" y="65.4050" textLength="6.3718" font-size="1.6933" lengthAdjust="spacingAndGlyphs" text-anchor="end" opacity="0" stroke-opacity="0">CLOCK</text>
<g class="stroked-text"><desc>CLOCK</desc>
<path d="M116.2982 65.2286 L116.2378 65.2891 "/>
<path d="M116.2378 65.2891 L116.0563 65.3495 "/>
<path d="M116.0563 65.3495 L115.9354 65.3495 "/>
<path d="M115.9354 65.3495 L115.7540 65.2891 "/>
<path d="M115.7540 65.2891 L115.6330 65.1681 "/>
<path d="M115.6330 65.1681 L115.5725 65.0471 "/>
<path d="M115.5725 65.0471 L115.5121 64.8052 "/>
<path d="M115.5121 64.8052 L115.5121 64.6238 "/>
<path d="M115.5121 64.6238 L115.5725 64.3819 "/>
<path d="M115.5725 64.3819 L115.6330 64.2610 "/>
<path d="M115.6330 64.2610 L115.7540 64.1400 "/>
<path d="M115.7540 64.1400 L115.9354 64.0795 "/>
<path d="M115.9354 64.0795 L116.0563 64.0795 "/>
<path d="M116.0563 64.0795 L116.2378 64.1400 "/>
<path d="M116.2378 64.1400 L116.2982 64.2005 "/>
<path d="M117.4473 65.3495 L116.8425 65.3495 "/>
<path d="M116.8425 65.3495 L116.8425 64.0795 "/>
<path d="M118.1125 64.0795 L118.3544 64.0795 "/>
<path d="M118.3544 64.0795 L118.4754 64.1400 "/>
<path d="M118.4754 64.1400 L118.5963 64.2610 "/>
<path d="M118.5963 64.2610 L118.6568 64.5029 "/>
<path d="M118.6568 64.5029 L118.6568 64.9262 "/>
<path d="M118.6568 64.9262 L118.5963 65.1681 "/>
<path d="M118.5963 65.1681 L118.4754 65.2891 "/>
<path d="M118.4754 65.2891 L118.3544 65.3495 "/>
<path d="M118.3544 65.3495 L118.1125 65.3495 "/>
<path d="M118.1125 65.3495 L117.9916 65.2891 "/>
<path d="M117.9916 65.2891 L117.8706 65.1681 "/>
<path d="M117.8706 65.1681 L117.8102 64.9262 "/>
<path d="M117.8102 64.9262 L117.8102 64.5029 "/>
<path d="M117.8102 64.5029 L117.8706 64.2610 "/>
<path d="M117.8706 64.2610 L117.9916 64.1400 "/>
<path d="M117.9916 64.1400 L118.1125 64.0795 "/>
<path d="M119.9268 65.2286 L119.8664 65.2891 "/>
<path d="M119.8664 65.2891 L119.6849 65.3495 "/>
<path d="M119.6849 65.3495 L119.5640 65.3495 "/>
<path d="M119.5640 65.3495 L119.3826 65.2891 "/>
<path d="M119.3826 65.2891 L119.2616 65.1681 "/>
<path d="M119.2616 65.1681 L119.2011 65.0471 "/>
<path d="M119.2011 65.0471 L119.1407 64.8052 "/>
<path d="M119.1407 64.8052 L119.1407 64.6238 "/>
<path d="M119.1407 64.6238 L119.2011 64.3819 "/>
<path d="M119.2011 64.3819 L119.2616 64.2610 "/>
<path d="M119.2616 64.2610 L119.3826 64.1400 "/>
<path d="M119.3826 64.1400 L119.5640 64.0795 "/>
<path d="M119.5640 64.0795 L119.6849 64.0795 "/>
<path d="M119.6849 64.0795 L119.8664 64.1400 "/>
<path d="M119.8664 64.1400 L119.9268 64.2005 "/>
<path d="M120.4711 65.3495 L120.4711 64.0795 "/>
<path d="M121.1968 65.3495 L120.6526 64.6238 "/>
<path d="M121.1968 64.0795 L120.4711 64.8052 "/>
</g><path style="fill:none;  stroke:#725600; stroke-width:0.1524; stroke-opacity:1;  stroke-linecap:round; stroke-linejoin:round;fill:none" d="M 123.1900,64.7700 122.5550,64.1350 121.9200,64.1350 121.9200,65.4050 122.5550,65.4050 Z"/> 
</g>
<g style="fill:none;  stroke:#725600; stroke-width:0.1524; stroke-opacity:1;  stroke-linecap:round; stroke-linejoin:round;">
<text x="121.5390" y="125.0950" textLength="4.3156" font-size="1.6933" lengthAdjust="spacingAndGlyphs" text-anchor="end" opacity="0" stroke-opacity="0">TRIG</text>
<g class="stroked-text"><desc>TRIG</desc>
<path d="M117.4473 123.7695 L118.1730 123.7695 "/>
<path d="M117.8102 125.0395 L117.8102 123.7695 "/>
<path d="M119.3220 125.0395 L118.8987 124.4348 "/>
<path d="M118.5963 125.0395 L118.5963 123.7695 "/>
<path d="M118.5963 123.7695 L119.0801 123.7695 "/>
<path d="M119.0801 123.7695 L119.2011 123.8300 "/>
<path d="M119.2011 123.8300 L119.2616 123.8905 "/>
<path d="M119.2616 123.8905 L119.3220 124.0114 "/>
<path d="M119.3220 124.0114 L119.3220 124.1929 "/>
<path d="M119.3220 124.1929 L119.2616 124.3138 "/>
<path d="M119.2616 124.3138 L119.2011 124.3743 "/>
<path d="M119.2011 124.3743 L119.0801 124.4348 "/>
<path d="M119.0801 124.4348 L118.5963 124.4348 "/>
<path d="M119.8663 125.0395 L119.8663 123.7695 "/>
<path d="M121.1364 123.8300 L121.0154 123.7695 "/>
<path d="M121.0154 123.7695 L120.8340 123.7695 "/>
<path d="M120.8340 123.7695 L120.6526 123.8300 "/>
<path d="M120.6526 123.8300 L120.5316 123.9510 "/>
<path d="M120.5316 123.9510 L120.4711 124.0719 "/>
<path d="M120.4711 124.0719 L120.4107 124.3138 "/>
<path d="M120.4107 124.3138 L120.4107 124.4952 "/>
<path d="M120.4107 124.4952 L120.4711 124.7371 "/>
<path d="M120.4711 124.7371 L120.5316 124.8581 "/>
<path d="M120.5316 124.8581 L120.6526 124.9791 "/>
<path d="M120.6526 124.9791 L120.8340 125.0395 "/>
<path d="M120.8340 125.0395 L120.9549 125.0395 "/>
<path d="M120.9549 125.0395 L121.1364 124.9791 "/>
<path d="M121.1364 124.9791 L121.1968 124.9186 "/>
<path d="M121.1968 124.9186 L121.1968 124.4952 "/>
<path d="M121.1968 124.4952 L120.9549 124.4952 "/>
</g><path style="fill:none;  stroke:#725600; stroke-width:0.1524; stroke-opacity:1;  stroke-linecap:round; stroke-linejoin:round;fill:none" d="M 123.1900,124.4600 122.5550,123.8250 121.9200,123.8250 121.9200,125.0950 122.5550,125.0950 Z"/> 
</g>
<g style="fill:none;  stroke:#009600; stroke-width:0.1524; stroke-opacity:1;  stroke-linecap:round; stroke-linejoin:round;">
<path d="M165.1000 88.9000 L165.1000 91.4400 "/>
<path d="M165.1000 91.4400 L165.1000 99.0600 "/>
<path d="M167.6400 119.3800 L165.1000 119.3800 "/>
<path d="M123.1900 93.9800 L138.4300 93.9800 "/>
<path d="M156.2100 93.9800 L167.6400 93.9800 "/>
<path d="M165.1000 119.3800 L165.1000 121.9200 "/>
<path d="M165.1000 59.6900 L165.1000 62.2300 "/>
<path d="M167.6400 62.2300 L165.1000 62.2300 "/>
<path d="M165.1000 62.2300 L165.1000 69.8500 "/>
<path d="M167.6400 59.6900 L165.1000 59.6900 "/>
<path d="M123.1900 64.7700 L138.4300 64.7700 "/>
<path d="M165.1000 121.9200 L165.1000 129.5400 "/>
<path d="M167.6400 121.9200 L165.1000 121.9200 "/>
<path d="M156.2100 124.4600 L167.6400 124.4600 "/>
<path d="M73.6600 74.9300 L73.6600 86.3600 "/>
<path d="M92.7100 97.7900 L92.7100 100.3300 "/>
<path d="M92.7100 87.6300 L92.7100 90.1700 "/>
<path d="M167.6400 88.9000 L165.1000 88.9000 "/>
<path d="M156.2100 64.7700 L167.6400 64.7700 "/>
<path d="M73.6600 106.6800 L73.6600 114.3000 "/>
<path d="M167.6400 91.4400 L165.1000 91.4400 "/>
<path d="M123.1900 124.4600 L138.4300 124.4600 "/>
</g>
<g style="fill:#009600; fill-opacity:1.0000;  stroke:#009600; stroke-width:0.1524; stroke-opacity:1;  stroke-linecap:round; stroke-linejoin:round;">
<circle cx="165.1000" cy="91.4400" r="0.4572"/> 
<circle cx="165.1000" cy="62.2300" r="0.4572"/> 
<circle cx="165.1000" cy="121.9200" r="0.4572"/> 
</g> 
</svg>