M48
; DRILL file {KiCad 9.0.7} date 2026-04-08T12:52:02+0200
; FORMAT={-:-/ absolute / metric / decimal}
; #@! TF.CreationDate,2026-04-08T12:52:02+02:00
; #@! TF.GenerationSoftware,Kicad,Pcbnew,9.0.7
; #@! TF.FileFunction,Plated,1,2,PTH
FMAT,2
METRIC
; #@! TA.AperFunction,Plated,PTH,ViaDrill
T1C0.300
; #@! TA.AperFunction,Plated,PTH,ViaDrill
T2C0.500
; #@! TA.AperFunction,Plated,PTH,ComponentDrill
T3C1.000
; #@! TA.AperFunction,Plated,PTH,ComponentDrill
T4C1.500
; #@! TA.AperFunction,Plated,PTH,ComponentDrill
T5C2.900
%
G90
G05
T1
X24.0Y29.0
X25.0Y28.0
X25.85Y-0.25
X30.8Y4.0
X32.3Y24.0
X32.6Y2.8
X33.5Y30.5
X33.5Y29.4
X37.5Y-9.75
X39.75Y19.75
X40.55Y43.45
X50.0Y43.0
X51.2Y1.5
X51.5Y36.7
X51.75Y-9.75
X51.8Y29.0
X52.0Y0.0
X54.0Y-0.1
X54.8Y29.6
X58.9Y32.0
X59.0Y14.0
X60.0Y53.0
X73.0Y23.0
X77.0Y7.9
X78.0Y53.0
X78.0Y10.0
X84.1Y7.9
X84.8Y15.3
X85.0Y10.0
X91.0Y21.2
X95.0Y0.0
X97.0Y0.0
T2
X21.6Y-16.9
X23.7Y64.7
X37.0Y49.1
X39.7Y40.7
X40.1Y64.6
X44.9Y8.2
X46.8Y33.0
X50.4Y16.9
X53.5Y51.2
X57.0Y46.0
X57.6Y27.3
X64.2Y4.3
X66.1Y38.3
X71.6Y64.1
X72.6Y51.7
X73.0Y17.6
X74.5Y-3.9
X75.2Y-13.2
X75.3Y45.6
X83.4Y38.8
X86.3Y51.6
X86.3Y-17.1
X88.2Y45.6
X88.4Y64.0
X95.2Y11.8
X95.3Y29.9
X99.6Y4.0
X100.2Y-30.7
T3
X18.73Y42.13
X18.73Y39.59
X18.73Y37.05
X18.73Y34.51
X18.73Y31.97
X18.73Y29.43
X18.73Y26.89
X18.73Y24.35
X18.73Y21.81
X18.73Y19.27
X18.73Y16.73
X18.73Y14.19
X18.73Y11.65
X18.73Y9.11
X18.73Y6.57
X18.73Y4.03
X18.73Y1.49
X18.73Y-1.05
X18.73Y-3.59
X18.73Y-6.13
X21.27Y42.13
X21.27Y39.59
X21.27Y37.05
X21.27Y34.51
X21.27Y31.97
X21.27Y29.43
X21.27Y26.89
X21.27Y24.35
X21.27Y21.81
X21.27Y19.27
X21.27Y16.73
X21.27Y14.19
X21.27Y11.65
X21.27Y9.11
X21.27Y6.57
X21.27Y4.03
X21.27Y1.49
X21.27Y-1.05
X21.27Y-3.59
X21.27Y-6.13
X28.0Y20.62
X28.0Y18.08
X28.0Y15.54
X28.0Y13.0
X28.0Y10.46
X28.0Y7.92
X28.0Y5.38
X28.0Y2.84
X82.75Y-27.95
X84.0Y-10.05
X85.25Y-27.95
X87.75Y-27.95
X89.0Y-10.05
X90.25Y-27.95
X99.75Y40.025
X99.75Y37.485
X99.75Y25.75
X99.75Y23.21
X99.75Y12.0
X99.75Y9.46
X99.75Y6.92
T4
X27.19Y-19.96
X33.54Y-17.42
X42.65Y-19.96
X49.0Y-17.42
X58.15Y-19.96
X64.5Y-17.42
T5
X79.9Y-17.05
X93.1Y-17.05
M30
